<svg width="42" height="63" viewBox="0 0 42 63" fill="none" xmlns="http://www.w3.org/2000/svg">
<path d="M21.84 16.76C26.32 16.76 30.08 13.16 30.08 8.6C30.08 4.04 26.32 0.439998 21.84 0.439998C17.28 0.439998 13.6 4.04 13.6 8.6C13.6 13.16 17.28 16.76 21.84 16.76ZM21.84 3.96C24.48 3.96 26.48 5.96 26.48 8.6C26.48 11.24 24.48 13.16 21.84 13.16C19.2 13.16 17.2 11.24 17.2 8.6C17.2 5.96 19.2 3.96 21.84 3.96ZM37.2 29.96H37.04C33.84 24.52 27.92 20.76 20.48 20.76C8.64 20.68 0.24 29.72 0.24 41.24C0.24 52.92 8.64 62.04 20.48 61.96C28 61.96 33.84 58.04 37.04 52.44H37.2V61H41.6V21.64H37.2V29.96ZM21.04 57.72C11.2 57.72 4.64 50.28 4.64 41.24C4.64 32.28 11.2 24.92 21.04 24.92C30.72 24.92 37.2 32.28 37.2 41.24C37.2 50.28 30.72 57.72 21.04 57.72Z" fill="#B3B3B3"/>
</svg>
