<svg width="42" height="60" viewBox="0 0 42 60" fill="none" xmlns="http://www.w3.org/2000/svg">
<path d="M27.76 11.52H32.56L24.32 0.399998H19.2L11.04 11.52H15.84L21.84 3.2L27.76 11.52ZM37.2 26.96H37.04C33.84 21.52 27.92 17.76 20.48 17.76C8.64 17.68 0.24 26.72 0.24 38.24C0.24 49.92 8.64 59.04 20.48 58.96C28 58.96 33.84 55.04 37.04 49.44H37.2V58H41.6V18.64H37.2V26.96ZM21.04 54.72C11.2 54.72 4.64 47.28 4.64 38.24C4.64 29.28 11.2 21.92 21.04 21.92C30.72 21.92 37.2 29.28 37.2 38.24C37.2 47.28 30.72 54.72 21.04 54.72Z" fill="#B3B3B3"/>
</svg>
