<svg width="42" height="57" viewBox="0 0 42 57" fill="none" xmlns="http://www.w3.org/2000/svg">
<path d="M41.6 1.64H37.2V9.96H37.04C33.84 4.52 27.92 0.759998 20.48 0.759998C8.64 0.679999 0.24 9.72 0.24 21.24C0.24 32.92 8.64 42.04 20.48 41.96C28 41.96 33.84 38.04 37.04 32.44H37.2V41L32 48.36C29.12 52.36 31.44 57 36.32 57H41.6V53.08H37.12C35.36 53.08 34.4 51.32 35.44 49.88L41.6 41V1.64ZM21.04 37.72C11.2 37.72 4.64 30.28 4.64 21.24C4.64 12.28 11.2 4.92 21.04 4.92C30.72 4.92 37.2 12.28 37.2 21.24C37.2 30.28 30.72 37.72 21.04 37.72Z" fill="#B3B3B3"/>
</svg>
