<svg width="269" height="176" viewBox="0 0 269 176" fill="none" xmlns="http://www.w3.org/2000/svg">
<path d="M21.5784 171.735V175.285H1.0752L1.0752 0.795898H22.6024V3.67068V4.17068H23.1024H248.374H248.874V3.67068V0.795898L268.353 0.795898V175.285L250.922 175.285V171.735V171.235H250.422H22.0784H21.5784V171.735Z" fill="#630101" stroke="#630101"/>
<path d="M70.0313 11.7283L70.0312 162.638H82.3219L82.3219 11.7283H70.0313Z" fill="#470000"/>
<path d="M129.436 11.7283V162.638H141.727V11.7283H129.436Z" fill="#470000"/>
<path d="M188.841 11.7283V162.638H201.132V11.7283H188.841Z" fill="#470000"/>
<path d="M70.0313 11.7283L70.0312 162.638H82.3219L82.3219 11.7283H70.0313Z" stroke="#630101"/>
<path d="M129.436 11.7283V162.638H141.727V11.7283H129.436Z" stroke="#630101"/>
<path d="M188.841 11.7283V162.638H201.132V11.7283H188.841Z" stroke="#630101"/>
<path d="M18.8066 11.7283L18.8066 162.638H249.751V11.7283H18.8066Z" stroke="#470000" stroke-width="5"/>
<path d="M249.751 89.4692L18.8066 89.4692V84.3246L249.751 84.3246V89.4692Z" fill="#470000" stroke="#470000"/>
<path d="M246.565 110L32.134 110L23 106.541L30.3942 102.094L23 98.1412L30.3942 93.6941L23 89.7412L30.3942 85.2941L23 80.8471L30.3942 76.4L23 71.9529L32.134 68L246.13 68L240.476 72.4471L247 76.8941L240.476 82.3294L247 87.2706L240.476 92.7059L247 97.6471L240.476 104.071L246.565 110Z" fill="#630101" stroke="#440101" stroke-width="2"/>
</svg>
