<svg width="302" height="281" viewBox="0 0 302 281" fill="none" xmlns="http://www.w3.org/2000/svg">
<path d="M7.81068 22.7234H1.36133V1.26147H301.5V23.793H296.209H295.709V24.293V259.608V260.108H296.209H301.5V280.5H1.36133V262.247H7.81068H8.31068V261.747V23.2234V22.7234H7.81068Z" fill="#630101" stroke="#630101"/>
<path d="M282.381 73.3152H23.4219V86.1538H282.381V73.3152Z" fill="#470000"/>
<path d="M282.381 135.368H23.4219V148.207H282.381V135.368Z" fill="#470000"/>
<path d="M282.381 197.422H23.4219V210.26H282.381V197.422Z" fill="#470000"/>
<path d="M282.381 73.3152H23.4219V86.1538H282.381V73.3152Z" stroke="#630101"/>
<path d="M282.381 135.368H23.4219V148.207H282.381V135.368Z" stroke="#630101"/>
<path d="M282.381 197.422H23.4219V210.26H282.381V197.422Z" stroke="#630101"/>
<path d="M282.381 19.8066H23.4219V261.048H282.381V19.8066Z" stroke="#470000" stroke-width="5"/>
<path d="M148.978 261.048V19.8066H157.806V261.048H148.978Z" fill="#470000" stroke="#470000"/>
<path d="M24.4731 225.068L238.163 27.4959L250.481 22.0527L247.246 32.6875L258.289 29.2719L255.054 39.9066L266.097 36.4911L262.862 47.1258L274.364 44.1349L271.129 54.7697L282.632 51.7788L277.204 63.5919L63.9472 260.764L65.4483 251.732L54.8128 253.921L56.2623 243.239L45.1675 245.003L46.6169 234.321L35.5222 236.086L36.053 224.554L24.4731 225.068Z" fill="#630101" stroke="#440101" stroke-width="2"/>
</svg>
