<svg width="408" height="601" viewBox="0 0 408 601" fill="none" xmlns="http://www.w3.org/2000/svg">
<path d="M194.33 159.38V11.5994L201.018 0V159.38H221.081V2.18682L226.654 11.8088V159.38H233.342V195.049L226.654 207.309H213.278V218.456L206.036 226.02C205.175 226.919 204.418 227.911 203.778 228.978L202.776 230.648C201.874 232.152 201.397 233.872 201.397 235.626V236.079C201.397 238.355 202.301 240.538 203.911 242.148C205.176 243.412 206.804 244.25 208.569 244.544L209.67 244.728C211.505 245.034 213.386 244.575 214.874 243.459C216.242 242.433 217.174 240.929 217.484 239.247L218.852 231.831L226.654 234.061L225.68 240.515C225.115 244.261 223.222 247.678 220.346 250.143C218.158 252.018 215.5 253.259 212.658 253.73L212.084 253.825C208.054 254.494 203.916 253.761 200.361 251.749L198.856 250.897C196.153 249.368 193.968 247.067 192.579 244.29C191.068 241.268 190.578 237.837 191.182 234.512L191.481 232.868C192.135 229.269 193.735 225.909 196.115 223.132L199.168 219.57L206.591 212.883V207.309H194.33L186.527 193.934V159.38H194.33Z" fill="#9C9C9C"/>
<path d="M214.393 258.583L219.966 253.009L361.524 355.555H382.702V371.16H333.659V355.555H350.378L214.393 258.583Z" fill="#9C9C9C"/>
<path d="M57.2301 355.555L197.674 253.009L203.247 258.583L69.4911 355.555H85.0959V371.16H34.9375V355.555H57.2301Z" fill="#9C9C9C"/>
<rect y="371.322" width="407.623" height="229.178" fill="#630101"/>
<g opacity="0.5">
<rect opacity="0.7" x="26.2451" y="401.895" width="16.4033" height="177.156" fill="#470000"/>
<rect opacity="0.7" x="264.913" y="401.895" width="16.4033" height="72.1746" fill="#470000"/>
<rect opacity="0.7" x="232.106" y="401.895" width="16.4033" height="72.1746" fill="#470000"/>
<rect opacity="0.7" x="198.48" y="401.895" width="16.4033" height="72.1746" fill="#470000"/>
<rect opacity="0.7" x="164.033" y="401.895" width="16.4033" height="72.1746" fill="#470000"/>
<rect opacity="0.7" x="129.586" y="401.895" width="16.4033" height="72.1746" fill="#470000"/>
<rect opacity="0.7" x="95.1396" y="401.895" width="16.4033" height="61.5125" fill="#470000"/>
<rect opacity="0.7" x="60.6914" y="401.895" width="16.4033" height="61.5125" fill="#470000"/>
<rect opacity="0.7" x="299.36" y="401.895" width="16.4033" height="72.1746" fill="#470000"/>
<rect opacity="0.7" x="332.167" y="401.895" width="16.4033" height="72.1746" fill="#470000"/>
<rect opacity="0.7" x="299.36" y="515.898" width="16.4033" height="63.1528" fill="#470000"/>
<rect opacity="0.7" x="332.167" y="515.898" width="16.4033" height="63.1528" fill="#470000"/>
<rect opacity="0.7" x="264.913" y="515.078" width="16.4033" height="63.973" fill="#470000"/>
<rect opacity="0.7" x="232.106" y="515.078" width="16.4033" height="63.973" fill="#470000"/>
<rect opacity="0.7" x="198.48" y="515.078" width="16.4033" height="63.973" fill="#470000"/>
<rect opacity="0.7" x="164.033" y="515.078" width="16.4033" height="63.973" fill="#470000"/>
<rect opacity="0.7" x="129.586" y="515.078" width="16.4033" height="63.973" fill="#470000"/>
<rect opacity="0.7" x="95.1396" y="517.539" width="16.4033" height="61.5125" fill="#470000"/>
<rect opacity="0.7" x="60.6914" y="517.539" width="16.4033" height="61.5125" fill="#470000"/>
<rect opacity="0.7" x="364.974" y="401.895" width="16.4033" height="177.156" fill="#470000"/>
</g>
</svg>
