<svg width="234" height="176" viewBox="0 0 234 176" fill="none" xmlns="http://www.w3.org/2000/svg">
<path d="M5.92242 14.4937H1.05762V1.46411H232.533V15.1618H228.562H228.062V15.6618V164V164.5H228.562H232.533V175.5H1.05762V164.475H5.92242H6.42242V163.975V14.9937V14.4937H5.92242Z" fill="#630101" stroke="#630101"/>
<path d="M217.888 46.281H17.9746V54.2999H217.888V46.281Z" fill="#470000"/>
<path d="M217.888 85.0392H17.9746V93.0581H217.888V85.0392Z" fill="#470000"/>
<path d="M217.888 123.797H17.9746V131.816H217.888V123.797Z" fill="#470000"/>
<path d="M217.888 46.281H17.9746V54.2999H217.888V46.281Z" stroke="#470000"/>
<path d="M217.888 85.0392H17.9746V93.0581H217.888V85.0392Z" stroke="#470000"/>
<path d="M217.888 123.797H17.9746V131.816H217.888V123.797Z" stroke="#470000"/>
<path d="M217.888 12.8599H17.9746V163.538H217.888V12.8599Z" stroke="#470000" stroke-width="5"/>
<path d="M114.902 163.538V12.8599H121.718V163.538H114.902Z" fill="#470000" stroke="#470000"/>
<path d="M188.874 13.2033L27.6657 128.495L22.8371 135.842L31.0167 134.999L27.7873 141.759L35.9669 140.916L32.7374 147.676L40.917 146.833L37.9788 153.941L46.1584 153.098L43.2201 160.206L52.4165 158.079L213.298 43.0215L206.426 42.9292L208.71 36.2889L200.602 35.9682L202.595 28.9798L194.487 28.6591L196.48 21.6708L187.79 20.654L188.874 13.2033Z" fill="#630101" stroke="#440101" stroke-width="2"/>
</svg>
