<svg width="302" height="189" viewBox="0 0 302 189" fill="none" xmlns="http://www.w3.org/2000/svg">
<path d="M7.81068 15.2275H1.36133V1.18018H301.5V15.944H296.209H295.709V16.444V174.082V174.582H296.209H301.5V187.913H1.36133V176.015H7.81068H8.31068V175.515V15.7275V15.2275H7.81068Z" fill="#630101" stroke="#630101"/>
<path d="M282.382 49.2842H23.4229V57.8848H282.382V49.2842Z" fill="#470000"/>
<path d="M282.382 90.8538H23.4229V99.4545H282.382V90.8538Z" fill="#470000"/>
<path d="M282.382 132.423H23.4229V141.024H282.382V132.423Z" fill="#470000"/>
<path d="M282.382 49.2842H23.4229V57.8848H282.382V49.2842Z" stroke="#470000"/>
<path d="M282.382 90.8538H23.4229V99.4545H282.382V90.8538Z" stroke="#470000"/>
<path d="M282.382 132.423H23.4229V141.024H282.382V132.423Z" stroke="#470000"/>
<path d="M282.382 13.4385H23.4229V175.047H282.382V13.4385Z" stroke="#470000" stroke-width="5"/>
<path d="M148.978 175.047V13.4385H157.806V175.047H148.978Z" fill="#470000" stroke="#470000"/>
<path d="M258.385 174.568L33.8673 55.5481L26.2733 47.3022L36.5476 47.3228L31.0566 39.5888L41.3309 39.6094L35.8399 31.8755L46.1143 31.896L40.9046 23.7084L51.179 23.729L45.9693 15.5413L57.7839 16.9813L281.846 135.76L273.393 136.705L277.692 144.409L267.766 145.779L271.783 153.938L261.857 155.307L265.874 163.466L255.385 165.743L258.385 174.568Z" fill="#630101" stroke="#470000" stroke-width="2"/>
</svg>
