<svg width="172" height="189" viewBox="0 0 172 189" fill="none" xmlns="http://www.w3.org/2000/svg">
<path d="M3.99085 15.2275H0.533203V1.18018H171.031V15.944H168.233H167.733V16.444V174.082V174.582H168.233H171.031V187.913H0.533203V176.015H3.99085H4.49085V175.515V15.7275V15.2275H3.99085Z" fill="#630101" stroke="#630101"/>
<path d="M160.358 49.2844H12.8809V57.885H160.358V49.2844Z" fill="#630101"/>
<path d="M160.358 90.8541H12.8809V99.4547H160.358V90.8541Z" fill="#630101"/>
<path d="M160.358 132.424H12.8809V141.024H160.358V132.424Z" fill="#630101"/>
<path d="M160.358 49.2844H12.8809V57.885H160.358V49.2844Z" stroke="#630101"/>
<path d="M160.358 90.8541H12.8809V99.4547H160.358V90.8541Z" stroke="#630101"/>
<path d="M160.358 132.424H12.8809V141.024H160.358V132.424Z" stroke="#630101"/>
<path d="M160.358 13.4385H12.8809V175.047H160.358V13.4385Z" stroke="#470000" stroke-width="5"/>
<path d="M84.3857 175.047V13.4385H89.4134V175.047H84.3857Z" fill="#470000" stroke="#470000"/>
<path d="M12.0362 147.879L125.998 13.6531L133.616 9.94134L133.24 17.1487L140.328 14.8125L139.951 22.0199L147.039 19.6837L146.663 26.8911L154.146 24.8415L153.769 32.0488L161.252 29.9992L159.556 38.0091L45.8256 171.963L45.2774 165.845L38.2568 167.35L37.3814 160.114L29.9659 161.332L29.0905 154.096L21.6751 155.315L20.01 147.506L12.0362 147.879Z" fill="#630101" stroke="#440101" stroke-width="2"/>
</svg>
