<svg width="425" height="281" viewBox="0 0 425 281" fill="none" xmlns="http://www.w3.org/2000/svg">
<path d="M10.0691 21.9619H0.767578V0.5H424.5V23.0315H416.832H416.332V23.5315V258.846V259.346H416.832H424.5V279.739H0.767578V261.486H10.0691H10.5691V260.986V22.4619V21.9619H10.0691Z" fill="#630101" stroke="#630101"/>
<path d="M397.33 72.5537H32.0879V85.3923H397.33V72.5537Z" fill="#470000"/>
<path d="M397.33 134.607H32.0879V147.446H397.33V134.607Z" fill="#470000"/>
<path d="M397.33 196.66H32.0879V209.499H397.33V196.66Z" fill="#470000"/>
<path d="M397.33 72.5537H32.0879V85.3923H397.33V72.5537Z" stroke="#630101"/>
<path d="M397.33 134.607H32.0879V147.446H397.33V134.607Z" stroke="#630101"/>
<path d="M397.33 196.66H32.0879V209.499H397.33V196.66Z" stroke="#630101"/>
<path d="M397.33 19.0452H32.0879V260.286H397.33V19.0452Z" stroke="#470000" stroke-width="5"/>
<path d="M209.175 260.286V19.0452H221.626V260.286H209.175Z" fill="#470000" stroke="#470000"/>
<path d="M390.959 165.06L51.0399 165.06L36.5605 161.027L48.2819 155.841L36.5605 151.232L48.2819 146.046L36.5605 141.437L48.2819 136.252L36.5605 131.066L48.2819 125.881L36.5605 120.695L51.0399 116.086L390.27 116.086L381.306 121.272L391.649 126.457L381.306 132.795L391.649 138.556L381.306 144.894L391.649 150.656L381.306 158.146L390.959 165.06Z" fill="#630101" stroke="#440101" stroke-width="2"/>
</svg>
