<svg width="234" height="291" viewBox="0 0 234 291" fill="none" xmlns="http://www.w3.org/2000/svg">
<path d="M5.9234 23.4417H1.05859V1.18018H232.534V24.5494H228.563H228.063V25.0494V268.741V269.241H228.563H232.534V290.395H1.05859V271.457H5.9234H6.4234V270.957V23.9417V23.4417H5.9234Z" fill="#630101" stroke="#630101"/>
<path d="M217.889 75.8169H17.9756V89.1125H217.889V75.8169Z" fill="#470000"/>
<path d="M217.889 140.079H17.9756V153.375H217.889V140.079Z" fill="#470000"/>
<path d="M217.889 204.341H17.9756V217.637H217.889V204.341Z" fill="#470000"/>
<path d="M217.889 75.8169H17.9756V89.1125H217.889V75.8169Z" stroke="#470000"/>
<path d="M217.889 140.079H17.9756V153.375H217.889V140.079Z" stroke="#470000"/>
<path d="M217.889 204.341H17.9756V217.637H217.889V204.341Z" stroke="#470000"/>
<path d="M217.889 20.4036H17.9756V270.232H217.889V20.4036Z" stroke="#470000" stroke-width="5"/>
<path d="M114.903 270.232V20.4036H121.719V270.232H114.903Z" fill="#470000" stroke="#470000"/>
<path d="M114.903 270.232V20.4036H121.719V270.232H114.903Z" fill="#470000" stroke="#470000"/>
<path d="M170.745 268.513L18.8013 54.5346L16.1842 43.0799L26.3801 47.4498L25.5464 37.3969L35.7424 41.7668L34.9087 31.7139L45.1046 36.0838L44.8217 25.6966L55.0176 30.0665L54.7347 19.6793L65.6127 26.1196L217.248 239.663L208.285 237.03L207.951 246.549L197.27 243.716L196.386 253.569L185.705 250.736L184.821 260.589L173.039 258.425L170.745 268.513Z" fill="#630101" stroke="#440101" stroke-width="2"/>
</svg>
