<svg width="736" height="599" viewBox="0 0 736 599" fill="none" xmlns="http://www.w3.org/2000/svg">
<path d="M1 410V141.985H120.814H244.342H371.146H492.005H613.942V410H492.005H371.146H244.342H120.814H1Z" fill="black"/>
<path d="M613.942 410V141.985H492.005M613.942 410H492.005M613.942 410H735V129M120.814 410H1V141.985H120.814M120.814 410V141.985M120.814 410H244.342M120.814 141.985H244.342M244.342 141.985V410M244.342 141.985H371.146M244.342 410H371.146M371.146 410V141.985M371.146 410H492.005M371.146 141.985H492.005M492.005 141.985V410" stroke="white" stroke-width="2"/>
<path d="M1 1V143L735 142.412V1H1Z" stroke="white" stroke-width="2"/>
<path d="M1 410V598H735V409.5" stroke="white" stroke-width="2"/>
</svg>
