<svg width="342" height="200" viewBox="0 0 342 200" fill="none" xmlns="http://www.w3.org/2000/svg">
<rect x="152.237" y="42.2301" width="149" height="162" transform="rotate(-15.9694 152.237 42.2301)" fill="#630101" stroke="#8E8E8E" stroke-width="2"/>
<rect x="1" y="35.9998" width="149" height="162" fill="#630101" stroke="#8E8E8E" stroke-width="2"/>
<ellipse cx="259.5" cy="149.5" rx="13.5" ry="12.5" fill="#6B6B6B"/>
<ellipse cx="75.5" cy="169.5" rx="13.5" ry="12.5" fill="#6B6B6B"/>
<path d="M274.891 82.5407C282.22 80.3462 286.301 72.6416 284.081 65.2269C281.774 57.838 274.216 53.6188 266.888 55.8133C259.387 58.0594 255.219 65.7898 257.44 73.2045C259.66 80.6192 267.39 84.7868 274.891 82.5407ZM207.389 74.8513L199.198 77.304L216.496 135.07L223.134 133.082L208.522 84.2827L259.259 122.264L265.812 120.302L248.514 62.5365L241.962 64.4986L255.826 110.797L207.389 74.8513ZM268.643 61.6761C272.696 60.4626 277.013 62.6458 278.304 66.9567C279.544 71.0951 277.188 75.4645 273.136 76.6779C268.825 77.9688 264.628 75.5615 263.389 71.4231C262.012 67.138 264.333 62.9669 268.643 61.6761ZM290.293 89.1087L288.537 83.2459L263.62 90.7071L265.376 96.5699L290.293 89.1087Z" fill="#A5A5A5"/>
<path d="M100.7 106.59L60.56 88.8598V95.6098L91.88 109.47V109.65L60.56 122.79V129.54L100.7 112.98V106.59Z" fill="#A5A5A5"/>
</svg>
