<svg width="126" height="205" viewBox="0 0 126 205" fill="none" xmlns="http://www.w3.org/2000/svg">
<path d="M124.005 175.869L96.02 203.376H10.1115H1V114.126V24.8754L16.6197 12H102.528V100.958L124.005 175.869Z" fill="#630101"/>
<path d="M124.005 175.869L96.02 203.376H10.1115M124.005 175.869L102.528 100.958M124.005 175.869H34.1919M102.528 100.958V12H16.6197L1 24.8754V114.126M102.528 100.958H16.6197M1 114.126V203.376H10.1115M1 114.126L16.6197 100.958M16.6197 100.958L34.1919 175.869M34.1919 175.869L10.1115 203.376" stroke="#CACACA" stroke-width="2"/>
<path d="M17.0449 12V102.93" stroke="#CACACA" stroke-width="2"/>
<path d="M74.52 47.6H74.28C71.32 42.88 65.88 39.6 58.92 39.52C47.08 39.44 38.68 48.24 38.68 60.24C38.68 72.24 47.24 81.12 58.84 81.04C65.96 80.96 71.24 77.52 74.28 72.64H74.52V80H80.44V40.56H74.52V47.6ZM59.72 75.28C50.6 75.28 44.68 68.48 44.68 60.24C44.68 52 50.6 45.28 59.72 45.28C68.6 45.28 74.52 52 74.52 60.24C74.52 68.4 68.6 75.28 59.72 75.28Z" fill="#B3B3B3"/>
</svg>
