<svg width="924" height="690" viewBox="0 0 924 690" fill="none" xmlns="http://www.w3.org/2000/svg">
<path d="M45.3426 568.51L43 1H668V573L45.3426 568.51Z" fill="#630101" stroke="#CACACA" stroke-width="2"/>
<path d="M895.852 596.802V573.437L895.086 566.833C894.715 563.639 892.851 560.81 890.063 559.208V559.208C888.526 558.325 886.784 557.861 885.011 557.861H864.668V482.853C864.668 479.308 863.48 475.866 861.294 473.075V473.075C858.288 469.239 853.686 466.998 848.812 466.998H842.974L852.05 449.619C854.995 443.981 856.533 437.715 856.533 431.354V431.354C856.533 423.292 854.063 415.423 849.456 408.807L848.398 407.288L891.785 280.079L897.5 263.5L920.257 203.495L922.48 190.727C922.799 188.893 922.587 187.005 921.87 185.287V185.287C920.84 182.823 918.845 180.887 916.351 179.932L915.126 179.463C914.037 179.046 912.88 178.832 911.713 178.832H911.384C909.207 178.832 907.11 179.648 905.506 181.119V181.119C904.515 182.027 903.749 183.153 903.266 184.407L899.92 193.11L879.5 253.5L870.091 280.079L828.06 402.095H824.716C822.44 402.095 820.177 402.448 818.009 403.14V403.14C814.809 404.161 811.885 405.899 809.459 408.221L809.183 408.486C807.318 410.271 805.757 412.349 804.562 414.637L802.942 417.739C801.613 420.285 800.53 422.951 799.709 425.703L792.808 448.825M895.852 596.802H902.308C907.169 596.802 911.297 600.36 912.015 605.168V605.168C912.086 605.648 912.122 606.132 912.122 606.617V631.5H853H787.385H731.5H714.17M895.852 596.802H842.974L838.907 557.861L833.484 512.429L827.655 473.37C827.03 469.179 825.444 465.188 823.022 461.71V461.71C820.111 457.529 816.096 454.239 811.424 452.206L809.972 451.574C805.806 449.761 801.31 448.825 796.766 448.825H792.808M714.17 631.5V650.022H403.683H367.076V633.147H346.738H312.842H243.694H201H155.565H56.589V651.32H0.999756V569.543H45.7423M714.17 631.5L716.882 627.955V573.437H668.071M45.7423 569.543L43.0306 1M45.7423 569.543H354.873M45.7423 569.543L668.071 573.437M45.7423 569.543L45.0763 429.9M43.0306 1H354.873M43.0306 1L43.7699 155.998M792.808 448.825H727.728H720.044C714.493 448.825 709.113 450.75 704.821 454.272V454.272C702.93 455.824 701.287 457.656 699.949 459.704L698.259 462.294C696.22 465.417 694.586 468.786 693.395 472.321L668.071 547.476V573.437M669.089 1H670.783L668.814 155.998M669.089 1L668.071 573.437M669.089 1H354.873M668.071 573.437L354.873 569.543M668.071 573.437L668.327 429.9M354.873 569.543V1M45.0763 429.9H668.327M45.0763 429.9L44.3865 285.272M668.327 429.9L668.58 287.219M668.58 287.219L44.3865 285.272M668.58 287.219L668.814 155.998M44.3865 285.272L43.7699 155.998M43.7699 155.998H354.873H668.814" stroke="white" stroke-width="2"/>
<circle cx="98.5" cy="655.5" r="33" stroke="white" stroke-width="3"/>
<circle cx="323.5" cy="655.5" r="33" stroke="white" stroke-width="3"/>
<circle cx="816.5" cy="655.5" r="33" stroke="white" stroke-width="3"/>
<path d="M779 606H849V630.5H779V606Z" fill="black"/>
<path d="M294 607.668H364V632.168H294V607.668Z" fill="black"/>
<path d="M65 607.647H135V632.147L65 631.795V607.647Z" fill="black"/>
</svg>
