<svg width="1373" height="930" viewBox="0 0 1373 930" fill="none" xmlns="http://www.w3.org/2000/svg">
<path d="M513 315.647L508.436 326.58C507.16 329.638 505.25 332.391 502.832 334.657C497.859 339.32 491.103 341.588 484.324 340.872L482.391 340.667C479.489 340.361 476.668 339.519 474.072 338.187C472.035 337.141 470.16 335.805 468.507 334.22L467.558 333.311C463.267 329.199 460.179 323.995 458.626 318.26L456.593 310.749C455.534 306.837 454.869 302.828 454.609 298.783L454.154 291.684C453.72 284.927 454.145 278.126 455.414 271.474C456.796 264.234 459.174 257.201 462.475 250.611L465.969 243.636C466.322 242.931 466.595 242.19 466.783 241.425C468.05 236.262 465.283 230.963 460.322 229.053L455 227.004L444.792 222.248C439.65 219.853 435.043 216.447 431.244 212.234C426.174 206.611 422.708 199.73 421.206 192.31L420.956 191.074C419.991 186.307 419.774 181.419 420.312 176.585L420.654 173.511C421.215 168.473 422.526 163.548 424.545 158.898C426.832 153.63 429.995 148.787 433.901 144.576L438 140.157L450.013 129.457C452.633 127.123 450.983 122.788 447.474 122.788C447.159 122.788 446.846 122.749 446.54 122.672L435.159 119.802C430.453 118.615 426.093 116.335 422.433 113.147C418.859 110.033 416.05 106.138 414.224 101.764L413.34 99.6449C411.79 95.9325 410.858 91.9919 410.578 87.9787L410.469 86.4103C410.16 81.9688 410.845 77.5142 412.473 73.3703C413.486 70.7908 414.852 68.3643 416.532 66.1601L419.086 62.8102C422.634 58.1553 427.336 54.5078 432.727 52.2286C438.463 49.8036 444.759 49.02 450.915 49.9653L461 51.5141L463.379 52.1719C465.611 52.7888 467.9 51.3927 468.373 49.126C468.457 48.724 468.479 48.3115 468.438 47.903L467.282 36.4792C466.762 31.3419 466.751 26.1659 467.25 21.0266L469 3H481H509.5H535.5L537.938 11.1788C539.633 16.8629 540.324 22.7991 539.979 28.7204L539.59 35.3992C539.207 41.9752 536.721 48.2542 532.5 53.311L527.363 58.3452C522.444 63.1668 524.79 71.5202 531.5 73.076L538.781 74.1225C542.234 74.6189 545.575 75.7113 548.655 77.3509L548.754 77.4039C551.566 78.9009 554.116 80.8443 556.306 83.1583L557.944 84.8899C560.277 87.3556 561.949 90.3705 562.806 93.655C563.591 96.6651 563.669 99.8161 563.034 102.861L562.596 104.958C561.871 108.431 560.522 111.743 558.613 114.733L556.629 117.84C555.545 119.538 554.315 121.138 552.952 122.622L552.681 122.917C547.092 129.004 539.451 132.813 531.225 133.612C527.436 133.98 523.612 133.7 519.917 132.784L511 130.574C505.96 129.249 502.589 135.643 506.53 139.052L516.25 147.461C517.074 148.174 517.742 149.05 518.212 150.035L520.9 155.669C522.622 159.28 523.76 163.142 524.269 167.111L524.4 168.126C525.126 173.783 524.749 179.528 523.29 185.042L521.903 190.283C519.982 197.538 516.808 204.401 512.522 210.561L507.5 217.779C506.838 218.732 506.025 219.57 505.093 220.261L504.774 220.497C500.012 224.028 499.201 230.838 503 235.389L503.719 236.449C507.553 242.102 510.56 248.274 512.648 254.778C513.881 258.615 514.787 262.55 515.358 266.54L516.637 275.478C517.212 279.492 517.5 283.542 517.5 287.598C517.5 295.084 516.517 302.539 514.577 309.77L513 315.647Z" fill="#630101" stroke="#630101" stroke-width="5"/>
<path opacity="0.9" d="M231.5 910.492V928H265.84V910.492H256.682V725.413H439.828V815.639H453.563V898.925H430.67V929H835.879V903.552H815.275V815.639H829.011V727.726H1012.16V908.179H1003V928H1039.63V908.179H1030.47V727.726H1227.35V908.179H1215.91V929H1254.82V908.179H1245.67V727.726H1286.87V711.532H1343.56C1348.41 711.532 1353.17 710.202 1357.32 707.686L1359.38 706.438C1361.38 705.222 1363.09 703.576 1364.38 701.618C1366.09 699.03 1367 695.998 1367 692.898V690.578C1367 687.608 1366.44 684.665 1365.35 681.904L1365.11 681.314C1363.37 676.903 1360.23 673.185 1356.17 670.725C1352.77 668.665 1348.87 667.575 1344.9 667.575H893.112V575.946C893.112 569.238 891.762 562.599 889.143 556.424L887.752 553.144C886.75 550.781 885.471 548.546 883.942 546.485L882.422 544.437C880.419 541.738 877.814 539.544 874.815 538.029C871.793 536.502 868.455 535.706 865.069 535.706H829.011V397.602C829.011 394.139 827.897 390.769 825.833 387.988C823.458 384.787 819.981 382.579 816.074 381.789L813.063 381.181C811.489 380.863 809.888 380.702 808.282 380.702H556.583V362.194H563.45V346H526.821V362.194H533.689V380.702H497.06V362.194H503.928V346H469.589V362.194H474.167V380.702H453.622C450.613 380.702 447.687 381.686 445.29 383.503C441.849 386.111 439.828 390.179 439.828 394.496V669.889H27.4149C24.1213 669.889 20.8653 670.589 17.863 671.943L13.71 673.816C5.79048 677.388 1.59796 686.148 3.78346 694.556C5.16815 699.884 8.93566 704.273 13.9916 706.449L16.1438 707.375C18.9684 708.591 22.0114 709.218 25.0866 709.218H194.871V725.413H238.368V910.492H231.5Z" stroke="#C5C5C5" stroke-width="2"/>
<path opacity="0.8" d="M299.78 669.78H265.1L282.38 639.78L299.78 669.78Z" fill="#C5C5C5"/>
<path opacity="0.8" d="M334.78 669.78H300.1L317.38 639.78L334.78 669.78Z" fill="#C5C5C5"/>
<path opacity="0.8" d="M368.78 669.78H334.1L351.38 639.78L368.78 669.78Z" fill="#C5C5C5"/>
<path opacity="0.8" d="M402.78 669.78H368.1L385.38 639.78L402.78 669.78Z" fill="#C5C5C5"/>
<path opacity="0.8" d="M436.78 669.78H402.1L419.38 639.78L436.78 669.78Z" fill="#C5C5C5"/>
<path opacity="0.8" d="M264.78 669.78H230.1L247.38 639.78L264.78 669.78Z" fill="#C5C5C5"/>
<path opacity="0.8" d="M230.78 669.78H196.1L213.38 639.78L230.78 669.78Z" fill="#C5C5C5"/>
<path opacity="0.8" d="M196.78 669.78H162.1L179.38 639.78L196.78 669.78Z" fill="#C5C5C5"/>
<path opacity="0.8" d="M162.78 669.78H128.1L145.38 639.78L162.78 669.78Z" fill="#C5C5C5"/>
<path opacity="0.8" d="M128.78 669.78H94.1L111.38 639.78L128.78 669.78Z" fill="#C5C5C5"/>
<path opacity="0.8" d="M93.78 669.78H59.1L76.38 639.78L93.78 669.78Z" fill="#C5C5C5"/>
<path opacity="0.8" d="M59.78 669.78H25.1L42.38 639.78L59.78 669.78Z" fill="#C5C5C5"/>
<path opacity="0.8" d="M1166.78 667.78H1132.1L1149.38 637.78L1166.78 667.78Z" fill="#C5C5C5"/>
<path opacity="0.8" d="M1201.78 667.78H1167.1L1184.38 637.78L1201.78 667.78Z" fill="#C5C5C5"/>
<path opacity="0.8" d="M1235.78 667.78H1201.1L1218.38 637.78L1235.78 667.78Z" fill="#C5C5C5"/>
<path opacity="0.8" d="M1269.78 667.78H1235.1L1252.38 637.78L1269.78 667.78Z" fill="#C5C5C5"/>
<path opacity="0.8" d="M1303.78 667.78H1269.1L1286.38 637.78L1303.78 667.78Z" fill="#C5C5C5"/>
<path opacity="0.8" d="M1337.78 667.78H1303.1L1320.38 637.78L1337.78 667.78Z" fill="#C5C5C5"/>
<path opacity="0.8" d="M1131.78 667.78H1097.1L1114.38 637.78L1131.78 667.78Z" fill="#C5C5C5"/>
<path opacity="0.8" d="M1097.78 667.78H1063.1L1080.38 637.78L1097.78 667.78Z" fill="#C5C5C5"/>
<path opacity="0.8" d="M1063.78 667.78H1029.1L1046.38 637.78L1063.78 667.78Z" fill="#C5C5C5"/>
<path opacity="0.8" d="M1029.78 667.78H995.1L1012.38 637.78L1029.78 667.78Z" fill="#C5C5C5"/>
<path opacity="0.8" d="M995.78 667.78H961.1L978.38 637.78L995.78 667.78Z" fill="#C5C5C5"/>
<path opacity="0.8" d="M960.78 667.78H926.1L943.38 637.78L960.78 667.78Z" fill="#C5C5C5"/>
<path opacity="0.8" d="M926.78 667.78H892.1L909.38 637.78L926.78 667.78Z" fill="#C5C5C5"/>
<rect x="119.5" y="405.5" width="247" height="232" stroke="#C5C5C5" stroke-width="3" stroke-dasharray="30 30"/>
<rect x="130.5" y="416.5" width="225" height="210" stroke="#C5C5C5" stroke-width="3"/>
<rect x="980.5" y="405.5" width="247" height="232" stroke="#C5C5C5" stroke-width="3" stroke-dasharray="30 30"/>
<rect x="991.5" y="416.5" width="225" height="210" stroke="#C5C5C5" stroke-width="3"/>
<path d="M439 675H22.5045L17.2141 676.426L12.8857 680.23L10 687.361L10.9619 694.967L15.2904 701.148L22.5045 704H439V675Z" fill="#630101"/>
<path d="M897 674H1348.45L1354.18 675.475L1358.87 679.41L1362 686.787L1360.96 694.656L1356.27 701.049L1348.45 704H897V674Z" fill="#630101"/>
<rect x="479" y="418" width="310" height="201" rx="20" fill="#630101"/>
</svg>
