<svg width="1376" height="900" viewBox="0 0 1376 900" fill="none" xmlns="http://www.w3.org/2000/svg">
<path d="M0 900L1375.85 895.575V883.925V879.5V872.443V863.5V855.22V607.207V563.575V557.041C1375.85 551.672 1373.7 546.529 1369.87 542.765C1366.92 539.869 1363.15 537.956 1359.07 537.288L1351.81 536.098C1346.85 535.286 1341.79 535.395 1336.88 536.42L1334.67 536.88C1330.14 537.824 1325.88 539.773 1322.21 542.583C1317.05 546.526 1313.26 551.993 1311.39 558.209L1309.77 563.575H1278.22L1314.27 510.757H1282.73V467.125H1261.7V510.757H1234.66V423.493H1219.64V510.757H1191.11L1186.6 381.01L1167.07 386.751L1170.08 510.757H1140.04L1170.08 552.093V560.13H1134.03V495.442C1134.03 483.818 1129.98 472.557 1122.57 463.596L1121.79 462.652C1117.97 458.017 1113.33 454.112 1108.12 451.122L1103.52 448.488C1095.95 444.148 1087.38 441.865 1078.66 441.865H1064.73C1056.01 441.865 1047.43 444.148 1039.86 448.488L1038.36 449.353C1031.16 453.482 1025.1 459.338 1020.72 466.394L1013.87 477.459V351.156L914.733 278.819L824.611 348.86V514.202H787.061L752.514 463.681V195H711.96V461.384H699.943V195H665.397V463.681L635.356 509.609L605.316 463.681V195H560.255L563.259 461.384H549.741V195H519.7V463.681L485.154 509.609L455.113 463.681V195H413.057V461.384H402.543L401.04 195H367.996V463.681L339.457 506V514.202H328.943L273.368 555.537V598.021H234.316V550.945L264.356 533.721V455.643H250.838V384.454H226.806V455.643H214.789V384.454H193.761V455.643H163.721V531.425L196.765 550.945V598.021H135.182V648.542H75.1012V699.064H4.50607L0 900Z" fill="url(#paint0_linear_293_3)"/>
<path d="M1185.95 375.212L1180.67 376.478C1179.23 376.826 1177.76 377.062 1176.27 377.186L1173.56 377.411C1168.98 377.793 1164.4 376.671 1160.51 374.215L1159.37 373.494C1157.8 372.507 1156.45 371.227 1155.37 369.724L1154.22 368.111C1152.8 366.116 1152.21 363.644 1152.58 361.222L1152.7 360.419C1152.9 359.166 1153.45 357.995 1154.28 357.044C1157.31 353.61 1155.96 348.183 1151.71 346.482C1150.92 346.166 1150.18 345.699 1149.57 345.112L1146.08 341.792C1142.1 337.996 1139.17 333.227 1137.59 327.955L1136.68 324.943C1135.9 322.328 1135.5 319.613 1135.5 316.883C1135.5 312.681 1136.44 308.533 1138.26 304.745L1139.47 302.233C1140.81 299.431 1142.62 296.877 1144.82 294.68L1149.95 289.545C1150.96 288.544 1152.26 287.905 1153.67 287.729L1161.56 286.743C1163.88 286.452 1164.79 283.563 1163.05 281.995C1162.69 281.671 1162.42 281.257 1162.27 280.795L1159.68 272.697C1158.9 270.247 1158.5 267.691 1158.5 265.118C1158.5 261.099 1159.47 257.14 1161.34 253.58L1162.04 252.24C1163.34 249.758 1164.97 247.464 1166.89 245.42L1170.39 241.679C1171.12 240.901 1172 240.274 1172.97 239.835C1178.92 237.149 1179.42 228.898 1173.84 225.512L1173.53 225.322C1173.18 225.108 1172.84 224.867 1172.52 224.603L1167.02 220.016C1165.03 218.355 1163.38 216.32 1162.16 214.027C1160.42 210.741 1159.64 207.035 1159.89 203.325L1160.19 198.97C1160.4 196.002 1160.98 193.072 1161.92 190.249L1163.51 185.465C1163.83 184.497 1164.33 183.596 1164.98 182.807L1169.64 177.137C1172.06 174.185 1170.09 169.73 1166.27 169.539C1165.76 169.513 1165.26 169.403 1164.78 169.212L1162.27 168.21C1159.46 167.084 1156.92 165.356 1154.84 163.147L1151.94 160.066C1150.65 158.696 1149.57 157.145 1148.73 155.463C1147.27 152.536 1146.57 149.285 1146.71 146.015L1146.76 144.707C1146.92 140.957 1147.97 137.299 1149.83 134.041L1150.67 132.576C1150.89 132.193 1151.15 131.833 1151.44 131.5L1154.08 128.475C1155.94 126.349 1155.04 123.013 1152.36 122.12C1152.12 122.04 1151.89 121.938 1151.67 121.815L1147.02 119.201C1145.03 118.079 1143.28 116.562 1141.89 114.743L1141.79 114.612C1139.05 111.028 1137.9 106.453 1138.61 101.996C1138.87 100.348 1139.38 98.7404 1140.13 97.2479L1140.91 95.6739C1141.94 93.6115 1143.6 91.9301 1145.65 90.8725L1149.94 88.6596C1154.04 86.5445 1155.06 81.1452 1152.03 77.6747C1151.35 76.9008 1150.85 75.9891 1150.56 75.0026L1149.05 69.8799C1148.69 68.6519 1148.69 67.3466 1149.04 66.1159L1149.71 63.7499C1150.61 60.6178 1148.26 57.5 1145 57.5H1142C1139.17 57.5 1136.5 56.1663 1134.8 53.9C1133.63 52.3421 1133 50.4473 1133 48.5V45.3826C1133 42.8293 1133.59 40.311 1134.74 38.0273L1134.96 37.5805C1136.6 34.3053 1139.37 31.7358 1142.76 30.3493L1144.05 29.8201C1146.9 28.6539 1150.1 28.6576 1152.94 29.8303L1153.03 29.8672C1155.59 30.92 1157.68 32.8624 1158.92 35.3357L1159.57 36.6333C1160.17 37.8494 1160.4 39.2207 1160.22 40.5679L1160.16 41.0071C1159.58 45.2524 1163.24 48.8641 1167.48 48.2285C1168.48 48.0783 1169.5 48.1669 1170.46 48.4871L1175.18 50.0616C1178.04 51.0133 1180.71 52.4537 1183.07 54.3185L1183.75 54.8569C1187.18 57.563 1189.77 61.1889 1191.21 65.3108C1192.06 67.7528 1192.5 70.3214 1192.5 72.9086V76.3629C1192.5 78.4157 1191.94 80.4298 1190.89 82.19L1189.1 85.1666C1188.41 86.3219 1187.21 87.0873 1185.87 87.2361L1184.9 87.3442C1181.28 87.7462 1180.09 92.4145 1183.07 94.502C1183.98 95.1378 1184.58 96.1262 1184.73 97.2256L1185.65 104.333C1185.88 106.078 1185.63 107.852 1184.92 109.462L1183.71 112.194C1182.01 116.068 1184.1 120.558 1188.16 121.752C1188.72 121.917 1189.25 122.15 1189.76 122.448L1200.88 129.037C1201.96 129.677 1202.97 130.429 1203.89 131.281L1204.6 131.937C1207.43 134.55 1209.18 138.13 1209.5 141.97L1209.76 145.154C1209.92 146.983 1209.37 148.802 1208.24 150.246L1206.75 152.131C1203.61 156.134 1206.47 162 1211.56 162C1211.85 162 1212.15 162.022 1212.44 162.065L1218.77 163.003C1221.4 163.392 1223.26 160.51 1221.82 158.278C1221.3 157.472 1221.19 156.471 1221.51 155.569L1223.1 151.129C1223.36 150.378 1223.7 149.654 1224.11 148.966L1224.88 147.65C1227.23 143.66 1230.82 140.546 1235.1 138.783L1236.38 138.257C1236.79 138.086 1237.22 137.956 1237.66 137.868L1242.42 136.915C1244.69 136.463 1245.85 133.938 1244.73 131.92C1244.58 131.641 1244.46 131.342 1244.39 131.032L1244.02 129.398C1243.35 126.535 1243.58 123.538 1244.68 120.809C1246.16 117.103 1249.11 114.179 1252.83 112.732L1253.28 112.556C1255.08 111.858 1256.99 111.5 1258.91 111.5H1262.77C1265.87 111.5 1268.91 112.327 1271.57 113.896L1273.45 115.002C1275.12 115.98 1276.46 117.418 1277.32 119.142C1278.7 121.892 1278.73 125.123 1277.41 127.899L1275.55 131.801C1274.86 133.241 1273.81 134.474 1272.49 135.372L1269.15 137.645C1266.22 139.647 1265.83 143.826 1268.34 146.339C1269.4 147.403 1270 148.845 1270 150.349V156.569C1270 158.825 1269.47 161.051 1268.47 163.069L1267.58 164.835C1266.26 167.48 1263.85 169.422 1260.99 170.157L1259.71 170.485C1253.22 172.149 1250.54 179.907 1254.63 185.218C1255.53 186.389 1256.14 187.757 1256.41 189.21L1257.18 193.373C1258.04 198.041 1257.66 202.855 1256.06 207.326L1254.97 210.387C1253.99 213.116 1252.65 215.696 1250.96 218.054C1247.71 222.602 1243.31 226.197 1238.2 228.467L1232.5 231L1226.83 232.992C1220.6 235.179 1218.46 242.897 1222.66 247.984C1223.22 248.658 1223.68 249.406 1224.03 250.206L1226.88 256.677C1228.28 259.858 1229 263.294 1229 266.769C1229 271.178 1227.84 275.509 1225.63 279.325L1225.55 279.462C1224.19 281.806 1222.47 283.92 1220.45 285.726L1217.78 288.117C1215.28 290.358 1212.43 292.175 1209.34 293.498L1204.49 295.574C1203.84 295.855 1203.13 296 1202.42 296H1191.52C1189.57 296 1188.8 298.533 1190.42 299.616C1190.8 299.865 1191.07 300.233 1191.21 300.66L1193.43 307.625C1194.14 309.862 1194.5 312.195 1194.5 314.542V316.383C1194.5 321.079 1193.55 325.725 1191.7 330.041L1188.89 336.595C1188.63 337.196 1188.3 337.766 1187.92 338.293L1186.72 339.912C1184.06 343.524 1185.48 348.675 1189.61 350.417C1190.53 350.801 1191.35 351.377 1192.02 352.104L1193.89 354.129C1195.89 356.296 1197 359.138 1197 362.088C1197 364.627 1196.18 367.098 1194.65 369.129L1194.12 369.844C1192.1 372.53 1189.21 374.429 1185.95 375.212Z" fill="#630101" stroke="#630101" stroke-width="5"/>
<path d="M754.846 175.95L751.775 179.658C747.445 184.886 741.179 188.134 734.411 188.658C731.493 188.884 728.558 188.598 725.739 187.811L724.568 187.484C719.917 186.186 715.62 183.851 712.001 180.653L711.081 179.84C707.074 176.299 703.875 171.938 701.702 167.053L701.536 166.681C698.887 160.727 697.766 154.206 698.274 147.709L699 138.425L703.123 115.253C703.939 110.668 699.388 106.977 695.07 108.723C694.044 109.138 692.922 109.258 691.831 109.067L688.933 108.562C685.41 107.948 682.189 106.186 679.771 103.55L679.293 103.029C676.821 100.335 675.213 96.9615 674.677 93.3447L673.882 87.9814C673.298 84.0452 673.371 80.0394 674.099 76.1272L674.969 71.4502C676.304 64.2681 679.304 57.4989 683.727 51.6852L685.765 49.007C687.576 46.6275 689.772 44.5679 692.262 42.9134L696.655 39.9944C698.184 38.9786 699.979 38.4367 701.815 38.4367H702.226C708.313 38.4367 712.653 32.5318 710.836 26.722C710.613 26.0085 710.479 25.27 710.438 24.5235L709 -1.6747L744.5 -4L743.098 15.5594C743.033 16.4693 742.876 17.3703 742.631 18.2489L739.892 28.0446C738.359 33.5297 743.238 38.6646 748.794 37.4142C750.838 36.9542 752.982 37.3671 754.709 38.5536L757.336 40.3586C760.928 42.8268 763.253 46.7506 763.692 51.0872L763.922 53.3574C764.594 60.0051 761.86 66.5422 756.655 70.7318L752.337 74.2077C752.113 74.3883 751.875 74.5516 751.626 74.6963L746.19 77.8567C744.138 79.0493 744.418 82.0961 746.652 82.8954C747.203 83.0927 747.679 83.4584 748.011 83.9408L753.392 91.7617C754.793 93.7973 755.954 95.9875 756.854 98.2889L758.392 102.223C759.795 105.811 760.894 109.511 761.677 113.283L764 124.473L765.619 135.137C766.532 141.157 766.37 147.29 765.139 153.253C764.382 156.921 763.226 160.495 761.693 163.912L760.025 167.63C758.681 170.624 756.939 173.423 754.846 175.95Z" fill="#630101" stroke="#630101" stroke-width="5"/>
<path d="M607.66 178.845L605.61 180.936C602.567 184.042 598.939 186.514 594.936 188.211C589.103 190.685 582.68 191.424 576.436 190.341L576 190.265L562.924 188.18C561.977 188.029 561.046 187.787 560.145 187.458L559.276 187.141C554.775 185.497 551.496 181.573 550.68 176.851C550.236 174.286 550.55 171.648 551.583 169.259L553.953 163.778C554.31 162.953 554.9 162.249 555.65 161.753L559.297 159.343C562.04 157.531 560.757 153.263 557.47 153.263C557.158 153.263 556.848 153.219 556.549 153.132L552.862 152.066C548.992 150.948 545.384 149.072 542.246 146.547L541.387 145.856C537.505 142.734 534.315 138.837 532.021 134.415L531 132.448C529.059 127.212 528.981 121.468 530.777 116.18L531.794 113.187C532.922 109.866 534.631 106.77 536.84 104.045L540.352 99.714C540.779 99.1874 541.316 98.7611 541.926 98.4653L547.385 95.8184C550.003 94.5489 549.319 90.6433 546.425 90.3391C545.824 90.2759 545.257 90.0257 544.805 89.6237L540.974 86.2159C539.664 85.0511 538.524 83.7093 537.585 82.2293L536.426 80.4011C534.488 77.3447 533.045 74.0007 532.153 70.4932L532.1 70.2825C531.369 67.4112 531 64.46 531 61.4972V58.6953C531 57.3762 531.174 56.0629 531.518 54.7894L531.747 53.945C532.849 49.8672 535.829 46.5594 539.771 45.0402L540.626 44.7104C540.875 44.6146 541.132 44.5437 541.395 44.4988L547.488 43.4549C549.589 43.095 549.948 40.229 548 39.3628L545.545 37.9437C543.22 36.5993 541.276 34.6845 539.896 32.38C538.332 29.7674 537.556 26.7586 537.661 23.7154L537.793 19.9024C537.93 15.9586 538.877 12.0853 540.576 8.52379L546 -2.84366L590.5 -4L593.779 5.47857C594.258 6.8638 594.575 8.29992 594.723 9.75816L595.227 14.7122C595.402 16.4312 594.902 18.1509 593.832 19.5078L589.654 24.8071C586.794 28.4334 590.403 33.5578 594.78 32.0882C595.257 31.9282 595.756 31.8466 596.259 31.8466H600.141C604.641 31.8466 609.069 32.9798 613.016 35.1416L613.178 35.2307C615.381 36.4371 617.413 37.982 619.171 39.7755C622.93 43.6105 625.413 48.588 626.179 53.903C626.719 57.6522 626.41 61.4749 625.274 65.0884L624.726 66.8299C623.586 70.4564 621.771 73.8349 619.376 76.788L619.245 76.9502C616.774 79.9983 613.713 82.5164 610.246 84.354L604.967 87.1515C604.005 87.6614 602.928 87.9151 601.84 87.8884L601.157 87.8716C595.005 87.7202 592.472 95.7008 597.586 99.1242C598.511 99.7436 599.251 100.603 599.726 101.61L601.036 104.387C601.676 105.744 602.136 107.178 602.405 108.654L603.238 113.228C603.742 116.001 603.786 118.838 603.367 121.625L602.436 127.818C602.154 129.69 601.23 131.406 599.822 132.672L593.873 138.023C590.402 141.145 592.61 146.903 597.279 146.903C597.757 146.903 598.233 146.97 598.693 147.103L602.958 148.336C604.964 148.916 606.826 149.91 608.424 151.254C610.439 152.948 611.97 155.145 612.863 157.622L613.016 158.048C613.667 159.855 614 161.761 614 163.682V164.137C614 167.614 613.056 171.027 611.27 174.011L610.85 174.713C609.953 176.211 608.883 177.598 607.66 178.845Z" fill="#630101" stroke="#630101" stroke-width="5"/>
<path d="M395.616 185.64L393.062 188.492C392.247 189.402 391.222 190.1 390.077 190.527C389.236 190.84 388.346 191 387.448 191H386.644C384.442 191 382.282 190.394 380.401 189.249L379.656 188.795C378.391 188.025 377.247 187.073 376.259 185.97L374.92 184.476C372.8 182.108 371.088 179.405 369.854 176.477L369.505 175.65C368.306 172.804 367.499 169.808 367.107 166.745L366.55 162.397C365.976 157.911 365.864 153.378 366.215 148.869L366.692 142.744L367.757 136.204C368.385 132.349 369.477 128.584 371.01 124.991C372.813 120.763 375.209 116.813 378.125 113.261L379.256 111.883C380.771 109.981 378.464 107.419 376.414 108.727L370.336 112.605C369.922 112.869 369.455 113.039 368.968 113.103L364.83 113.646C362.403 113.965 359.94 113.879 357.541 113.392L356.513 113.184C352.298 112.328 348.332 110.527 344.914 107.915L344.369 107.499C341.843 105.57 339.626 103.269 337.791 100.675L336.452 98.7811C334.178 95.565 332.416 92.0159 331.229 88.2602C330.415 85.6866 329.877 83.0339 329.624 80.3467L329.395 77.9154C329.133 75.1345 329.217 72.3317 329.647 69.5717C330.541 63.8362 332.902 58.429 336.501 53.8749L338.549 51.2833L344.8 45.2344C345.636 44.4258 346.71 43.9094 347.864 43.7622L349.115 43.6025C353.823 43.0018 355.08 36.7674 350.972 34.3894C350.402 34.0591 349.903 33.6182 349.504 33.0927L346.121 28.6281C345.095 27.2744 344.176 25.843 343.372 24.3468L338.549 15.3722C336.319 9.77042 339 3.41605 344.568 1.10448L361.534 -5.93809C369.297 -9.16038 378.062 -8.93932 385.652 -5.32982L393.761 -1.4735C398.469 0.765345 402.797 3.72883 406.586 7.30889L407.4 8.07778L409.47 10.6196C411.415 13.0091 412.797 15.8064 413.513 18.8036C414.123 21.3553 414.237 24.0002 413.85 26.5949L413.073 31.7974C412.978 32.4344 412.733 33.0397 412.357 33.5633L409.034 38.2017C407.752 39.991 409.531 42.3687 411.609 41.6435C412.417 41.3616 413.315 41.5615 413.927 42.1595L416.476 44.6495C416.791 44.9567 417.079 45.2893 417.339 45.6439L418.41 47.1056C420.436 49.8703 421.973 52.962 422.953 56.2462L424.163 60.2975C425.38 64.374 426.115 68.5791 426.353 72.8267L426.538 76.1377C426.845 81.6248 426.604 87.1289 425.818 92.5681L424.895 98.9609C424.624 100.84 424.205 102.694 423.643 104.507L421.479 111.486C420.497 114.653 418.488 117.402 415.769 119.3L414.107 120.46C412.685 121.451 410.994 121.983 409.26 121.983H407.01C406.292 121.983 405.602 121.709 405.08 121.216C402.773 119.036 399.187 121.755 400.662 124.565L401.221 125.629C401.32 125.817 401.398 126.014 401.455 126.217L402.747 130.833C403.502 133.532 404.022 136.291 404.299 139.08L404.887 144.989V151.478C404.887 155.748 404.526 160.01 403.808 164.22L403.439 166.384C403.065 168.577 402.531 170.74 401.842 172.855L400.361 177.404C399.369 180.449 397.753 183.255 395.616 185.64Z" fill="#630101" stroke="#630101" stroke-width="5"/>
<path d="M207.539 380.996L205.728 381.177C203.619 381.388 201.494 380.997 199.598 380.049C198.214 379.357 196.989 378.387 195.998 377.198L194.655 375.586C193.227 373.873 192.078 371.945 191.25 369.875L190.516 368.039C189.84 366.349 189.302 364.607 188.907 362.83L188.402 360.56C187.14 354.881 186.679 349.054 187.03 343.247L187.5 335.5L188.933 325.113C189.309 322.386 190.086 319.73 191.24 317.231L194.729 309.671C195.227 308.592 195.328 307.371 195.016 306.224C194.416 304.025 192.419 302.5 190.14 302.5H189.628C189.211 302.5 188.794 302.546 188.387 302.636L184.503 303.499C181.532 304.159 178.458 304.206 175.468 303.637C171.56 302.892 167.922 301.119 164.928 298.499L164.279 297.932C162.438 296.321 160.859 294.432 159.6 292.333L159.049 291.414C157.698 289.164 156.841 286.652 156.535 284.046L156.521 283.925C156.179 281.019 156.549 278.073 157.6 275.341C158.197 273.788 159.007 272.325 160.005 270.993L161.481 269.025C163.466 266.378 166.041 264.23 169 262.75C171.959 261.27 175.223 260.5 178.531 260.5H182.731C182.91 260.5 183.088 260.52 183.262 260.559L185.214 261C187.557 261.529 188.809 258.347 186.735 257.137C186.579 257.046 186.435 256.935 186.308 256.808L181.961 252.461C179.671 250.171 177.791 247.504 176.405 244.576L176.338 244.436C174.794 241.177 173.907 237.646 173.727 234.045C173.577 231.036 173.922 228.022 174.75 225.124L174.784 225.007C175.914 221.05 177.896 217.389 180.591 214.279L183 211.5L190.353 205.066C191.965 203.656 190.967 201 188.825 201C188.609 201 188.395 200.97 188.188 200.911L178 198L175.439 196.88C171.991 195.371 169.387 192.415 168.325 188.804C167.782 186.959 167.664 185.014 167.981 183.117L168.126 182.244C168.694 178.834 170.314 175.686 172.759 173.241L173.566 172.434C175.822 170.178 178.588 168.498 181.63 167.538C184.825 166.529 188.223 166.345 191.507 167.001L195.187 167.737C196.053 167.911 196.873 168.262 197.595 168.77L197.98 169.041C202.443 172.182 208.481 168.385 207.584 163.002C207.528 162.668 207.5 162.33 207.5 161.991V152.893C207.5 147.645 208.033 142.41 209.092 137.269L210.232 131.732C210.742 129.253 211.552 126.846 212.644 124.562L215.105 119.416C216.017 117.51 217.445 115.899 219.227 114.764L220.433 113.997C221.456 113.346 222.644 113 223.858 113C225.55 113 227.172 113.672 228.368 114.868L229.666 116.166C230.549 117.049 231.272 118.078 231.803 119.207L233.491 122.794C234.494 124.925 235.27 127.157 235.805 129.451L238.5 141L240.5 156.5V167.151C240.5 171.025 239.875 174.874 238.65 178.549C237.229 182.812 235.023 186.772 232.146 190.224L229 194C225.992 197.008 226.071 201.91 229.174 204.82L231.5 207L233.372 208.471C236.752 211.127 239.531 214.469 241.526 218.277L241.617 218.451C243.194 221.461 244.235 224.722 244.694 228.088L244.72 228.277C245.235 232.054 244.983 235.895 243.98 239.572C243.003 243.156 241.331 246.513 239.06 249.452L234 256L232.683 257.756C230.831 260.225 230.974 263.658 233.025 265.965C233.341 266.321 233.617 266.71 233.848 267.126L235.376 269.878C237.44 273.592 238.782 277.664 239.332 281.878L239.471 282.947C239.822 285.633 239.76 288.357 239.29 291.025C238.767 293.987 237.747 296.839 236.272 299.46L235.034 301.661C234.348 302.881 233.498 304.002 232.508 304.992L231.77 305.73C230.285 307.215 228.423 308.269 226.385 308.779L224.38 309.28C223.803 309.424 223.198 309.421 222.623 309.269L218.382 308.153C216.809 307.739 215.539 309.463 216.402 310.843C216.467 310.947 216.521 311.058 216.564 311.174L220 320.5C222.319 326.133 223.757 332.09 224.263 338.161L224.5 341V349.158C224.5 351.05 224.356 352.939 224.068 354.809C223.69 357.263 223.067 359.674 222.209 362.005L220 368L217.1 374.215C216.701 375.069 216.203 375.872 215.614 376.607C213.623 379.097 210.712 380.679 207.539 380.996Z" fill="#630101" stroke="#630101" stroke-width="5"/>
<defs>
<linearGradient id="paint0_linear_293_3" x1="742" y1="195" x2="742" y2="900" gradientUnits="userSpaceOnUse">
<stop stop-color="#D9D9D9"/>
<stop offset="1" stop-color="#D9D9D9" stop-opacity="0"/>
</linearGradient>
</defs>
</svg>
