<svg width="788" height="597" viewBox="0 0 788 597" fill="none" xmlns="http://www.w3.org/2000/svg">
<path d="M656.68 434.629V150.775H526.255M656.68 434.629H526.255M656.68 434.629H786.165V137.023M129.225 434.629H1.07031V150.775H129.225M129.225 434.629V150.775M129.225 434.629H261.352M129.225 150.775H261.352M261.352 150.775V434.629M261.352 150.775H396.983M261.352 434.629H396.983M396.983 434.629V150.775M396.983 434.629H526.255M396.983 150.775H526.255M526.255 150.775V434.629" stroke="#C5C5C5" stroke-width="2"/>
<path d="M1.07031 1.4585V151.85L786.165 151.227V1.4585H1.07031Z" stroke="#C5C5C5" stroke-width="2"/>
<path fill-rule="evenodd" clip-rule="evenodd" d="M787.234 433.904V596.732H0V434.334H2.13922V595.017H785.095V433.904H787.234Z" fill="#C5C5C5"/>
</svg>
