<svg width="436" height="696" viewBox="0 0 436 696" fill="none" xmlns="http://www.w3.org/2000/svg">
<path d="M357.815 35.3091L352.097 117.651H285.766L276.617 38.74L272.043 36.4528L266.939 33.0505C265.808 32.2962 264.998 31.1472 264.668 29.8279C264.269 28.2309 264.611 26.539 265.598 25.2221L266.478 24.0497C267.132 23.1774 267.947 22.4383 268.879 21.8724L294.078 6.57293C297.662 4.3972 301.578 2.82333 305.67 1.91389C308.404 1.30645 311.195 1 313.996 1H316.503C319.638 1 322.763 1.34305 325.823 2.02303C329.598 2.86202 333.243 4.20698 336.659 6.02147L366.014 21.6168C367.376 22.3403 368.479 23.4704 369.169 24.8497L369.455 25.4236C370.062 26.6368 370.215 28.027 369.886 29.3428C369.483 30.9521 368.398 32.3051 366.914 33.047L365.804 33.6019C365.057 33.9755 364.258 34.2353 363.434 34.3726L357.815 35.3091Z" fill="#630101" stroke="#630101"/>
<path d="M434.438 166.827V374.97L434.44 381.831L433.296 390.98L431.081 400.577C430.273 404.079 429.053 407.472 427.446 410.686C425.261 415.056 422.385 419.046 418.93 422.501L418.829 422.602C417.04 424.391 415.107 426.028 413.049 427.498C409.788 429.828 406.235 431.72 402.483 433.128L398.987 434.439L417.285 675.746L417.734 675.896C419.716 676.556 421.62 677.432 423.411 678.507L423.66 678.656C425.503 679.762 427.202 681.089 428.721 682.608L429.087 682.973C430.363 684.25 431.478 685.678 432.407 687.226C433.751 689.466 434.687 691.928 435.171 694.496L435.302 695.188H342.947L318.931 483.615L294.915 695.188H202.28L202.743 693.338C203.195 691.527 203.845 689.771 204.679 688.102C205.366 686.729 206.174 685.421 207.095 684.194L207.96 683.041C208.747 681.991 209.607 680.999 210.535 680.071C212.642 677.964 215.075 676.21 217.741 674.878L220.578 673.459L236.589 384.119H395.555V425.29C397.792 425.29 399.979 424.627 401.84 423.386L402.417 423.002L408.135 418.428L411.572 414.991C413.845 412.718 415.805 410.152 417.4 407.36L417.656 406.911C418.928 404.685 419.927 402.315 420.631 399.85C421.445 397 421.858 394.052 421.858 391.088V377.257H402.417V173.689H395.555V377.257H236.589L233.158 175.977H58.1817V158.822H11.179C10.494 158.822 9.81061 158.754 9.13885 158.62L8.85052 158.562C6.04617 158.001 3.6286 156.24 2.23596 153.742C1.42538 152.288 0.999878 150.651 0.999878 148.986V147.707C0.999878 144.529 2.03061 141.437 3.93735 138.894L5.53247 136.768C7.07407 134.712 8.95395 132.934 11.0917 131.509L16.2174 128.092C22.0363 124.212 28.5024 121.405 35.31 119.804L38.7964 118.983C42.5657 118.096 46.3955 117.49 50.2544 117.168L58.1817 116.507H349.809H404.717C408.481 116.507 412.206 117.272 415.666 118.755C417.502 119.542 419.247 120.524 420.872 121.685L423.016 123.216C425.278 124.832 427.258 126.811 428.874 129.073C431.032 132.095 432.496 135.557 433.16 139.21L433.782 142.629C434.219 145.033 434.438 147.471 434.438 149.914V166.827Z" fill="#630101" stroke="#630101"/>
<path d="M284.623 37.5964H347.523L344.542 92.2519C344.249 97.6274 342.368 102.795 339.138 107.102L338.692 107.697C337.721 108.992 336.603 110.169 335.36 111.205C332.11 113.913 328.112 115.569 323.899 115.952L320.577 116.254C318.722 116.423 316.856 116.423 315 116.254L312.016 115.983C307.588 115.58 303.395 113.809 300.019 110.916C298.156 109.318 296.581 107.413 295.363 105.282L295.074 104.775C293.46 101.95 292.417 98.8355 292.007 95.6083L284.623 37.5964Z" fill="#D3D3D3" stroke="#D3D3D3"/>
<path d="M421.5 378H402V423.195L403.958 422.217C405.975 421.208 407.838 419.914 409.488 418.376C410.825 417.13 412.012 415.732 413.026 414.211L414.5 412L417.324 406.979C418.438 404.998 419.342 402.906 420.02 400.737C421.001 397.597 421.5 394.327 421.5 391.037V387V378Z" fill="#D9D9D9"/>
<path d="M53 121V152.586V154H13.3616C11.8953 154 10.4585 153.587 9.21572 152.809C7.99751 152.046 7.01333 150.962 6.37147 149.676L6.33705 149.607C6.07392 149.08 5.8692 148.526 5.72654 147.954L5.64705 147.636C5.22443 145.942 5.29264 144.163 5.84372 142.507C6.21886 141.38 6.80899 140.336 7.58147 139.433L9.23529 137.5L10.4767 136.352C13.7152 133.357 17.3104 130.773 21.1812 128.658C24.1907 127.014 27.3509 125.661 30.6185 124.62L36.0588 122.886L36.2612 122.841C41.7568 121.617 47.3699 121 53 121Z" fill="#D9D9D9"/>
</svg>
