<svg width="314" height="125" viewBox="0 0 314 125" fill="none" xmlns="http://www.w3.org/2000/svg">
<g opacity="0.8">
<path fill-rule="evenodd" clip-rule="evenodd" d="M15.3082 34.4339H9.10425V61.0201H0V0.53064H9.10425V24.7582H15.3082V0.53064H24.4124V61.0201H15.3082V34.4339Z" fill="#A5A5A5"/>
<path fill-rule="evenodd" clip-rule="evenodd" d="M40.3731 61.8159H38.5794C31.2424 61.8159 27.3311 57.8258 27.3311 50.3309V38.1959H36.4618V48.7842C36.4618 51.554 37.3587 53.0185 39.4789 53.0185C41.5991 53.0185 42.496 51.554 42.496 47.8052V46.4203C42.496 42.1038 42.0873 40.5571 38.7465 36.2406L32.8769 28.7484C28.9656 23.697 27.8246 19.7891 27.8246 13.7613V11.8061C27.8193 3.7461 31.8951 0 39.1499 0H40.8614C48.4425 0 51.3773 3.33753 51.3773 10.5061V20.4417H42.4933V11.7291C42.4933 9.69157 42.0847 8.14485 39.8849 8.14485C37.6851 8.14485 37.1942 9.52974 37.1942 12.3791V13.5199C37.1942 16.9397 37.847 18.8127 40.9436 22.8029L46.8132 30.3774C50.9713 35.7524 52.2742 38.8485 52.2742 45.6881V47.6434C52.2742 56.5205 48.4425 61.8133 40.3731 61.8133" fill="#A5A5A5"/>
<path fill-rule="evenodd" clip-rule="evenodd" d="M75.9386 0.53064V9.30957H64.3135V25.1668H73.4337V34.3543H64.3135V51.8326H76.4216V61.0201H55.1934V0.53064H75.9386Z" fill="#A5A5A5"/>
<path fill-rule="evenodd" clip-rule="evenodd" d="M100.243 40.6128L97.7694 18.253L95.3813 40.6128H100.243ZM101.23 49.6358H94.4737L93.2372 61.0201H84.9131L92.412 0.53064H103.456L111.451 61.0201H102.469L101.23 49.6358V49.6358Z" fill="#A5A5A5"/>
<path fill-rule="evenodd" clip-rule="evenodd" d="M122.054 25.4082H124.516C127.061 25.4082 127.884 23.7819 127.884 21.0997V12.6444C127.884 10.0418 127.308 8.74181 124.516 8.74181H122.054V25.4082ZM122.054 61.0201H112.774V0.53064H127.801C133.958 0.53064 137.078 3.13328 137.078 9.87997V20.6115C137.078 25.6523 134.695 27.6023 133.055 28.3346C135.106 29.2286 137.078 30.8549 137.078 34.9194V56.1411C137.078 58.5793 137.569 59.7174 137.983 60.6115V61.0201H128.786C128.374 60.3701 127.884 59.3115 127.884 56.0589V37.8484C127.884 35.1635 127.393 34.0253 124.434 34.0253H122.054V61.0174V61.0201Z" fill="#A5A5A5"/>
<path fill-rule="evenodd" clip-rule="evenodd" d="M155.247 9.30957V61.0201H146.193V9.30957H138.514V0.53064H162.926V9.30957H155.247Z" fill="#A5A5A5"/>
<path fill-rule="evenodd" clip-rule="evenodd" d="M184.094 40.6128L181.621 18.253L179.23 40.6128H184.091H184.094ZM185.081 49.6358H178.322L177.086 61.0201H168.762L176.263 0.53064H187.305L195.3 61.0201H186.317L185.081 49.6358Z" fill="#A5A5A5"/>
<path fill-rule="evenodd" clip-rule="evenodd" d="M205.139 0.53064L212.98 32.9694V0.53064H221.304V61.0201H213.869L205.139 26.2201V61.0201H196.892V0.53064H205.139Z" fill="#A5A5A5"/>
<path fill-rule="evenodd" clip-rule="evenodd" d="M234.214 52.2385H236.411C239.179 52.2385 239.991 50.7767 239.991 47.524V13.4589C239.991 9.96221 239.096 8.74181 236.817 8.74181H234.214V52.2385ZM225.02 0.53064H239.099C246.991 0.53064 249.432 5.00102 249.432 12.1563V48.9859C249.432 56.3825 246.664 61.0201 239.099 61.0201H225.02V0.53064Z" fill="#A5A5A5"/>
<path fill-rule="evenodd" clip-rule="evenodd" d="M9.19447 114.585H11.3916C14.1592 114.585 14.9738 113.123 14.9738 109.871V75.8028C14.9738 72.3061 14.0796 71.0857 11.8002 71.0857H9.19712V114.582L9.19447 114.585ZM0 62.8772H14.0796C21.9712 62.8772 24.4124 67.3502 24.4124 74.5028V111.335C24.4124 118.732 21.6448 123.367 14.0796 123.367H0V62.8772Z" fill="#A5A5A5"/>
<path fill-rule="evenodd" clip-rule="evenodd" d="M48.6049 62.8772V71.6588H36.9825V87.5107H46.1026V96.7009H36.9825V114.182H49.0905V123.367H27.8623V62.8772H48.6049Z" fill="#A5A5A5"/>
<path fill-rule="evenodd" clip-rule="evenodd" d="M63.9893 124.162H62.1956C54.8586 124.162 50.9473 120.172 50.9473 112.677V100.542H60.0781V111.131C60.0781 113.9 60.9749 115.365 63.0925 115.365C65.21 115.365 66.1095 113.898 66.1095 110.152V108.767C66.1095 104.45 65.7009 102.904 62.3601 98.5871L56.4905 91.0923C52.5792 86.0435 51.4382 82.1356 51.4382 76.1105V74.1552C51.4382 66.0926 55.514 62.3439 62.7687 62.3439H64.4803C72.0614 62.3439 74.9962 65.6841 74.9962 72.8499V82.7882H66.1122V74.073C66.1122 72.0354 65.7035 70.4887 63.5038 70.4887C61.304 70.4887 60.8131 71.8736 60.8131 74.723V75.8638C60.8131 79.2836 61.4658 81.1593 64.5625 85.1468L70.4321 92.7212C74.5902 98.0963 75.8931 101.192 75.8931 108.035V109.99C75.8931 118.864 72.0614 124.16 63.992 124.16" fill="#A5A5A5"/>
<path fill-rule="evenodd" clip-rule="evenodd" d="M78.3135 123.351H87.6008V62.9409H78.3135V123.351Z" fill="#A5A5A5"/>
<path fill-rule="evenodd" clip-rule="evenodd" d="M99.6827 124.163C94.2589 124.163 90.8066 119.374 90.8066 113.121V75.3624C90.8066 68.6237 93.4363 62.3705 102.23 62.3705H104.037C113.983 62.3705 115.132 68.7856 115.132 75.9302V82.1012H106.091V75.2802C106.091 72.6006 105.433 71.1414 103.132 71.1414C101.161 71.1414 100.256 72.6033 100.256 75.2802V110.603C100.256 113.444 101.407 114.906 103.297 114.906C105.68 114.906 106.749 113.282 106.749 111.009V95.9076H102.556V86.6511H115.543V123.351H110.284C110.201 123.027 109.461 120.021 108.723 117.424C108.065 119.453 104.942 124.163 100.259 124.163H99.6827" fill="#A5A5A5"/>
<path fill-rule="evenodd" clip-rule="evenodd" d="M126.857 62.8772L134.701 95.316V62.8772H143.025V123.367H135.59L126.857 88.5693V123.367H118.612V62.8772H126.857Z" fill="#A5A5A5"/>
<path fill-rule="evenodd" clip-rule="evenodd" d="M167.212 124.162H165.418C158.084 124.162 154.17 120.172 154.17 112.677V100.542H163.301V111.131C163.301 113.9 164.198 115.365 166.318 115.365C168.438 115.365 169.332 113.898 169.332 110.152V108.767C169.332 104.45 168.926 102.904 165.583 98.5871L159.716 91.0923C155.805 86.0435 154.663 82.1356 154.663 76.1105V74.1552C154.663 66.0926 158.739 62.3439 165.994 62.3439H167.706C175.287 62.3439 178.221 65.6841 178.221 72.8499V82.7882H169.335V74.073C169.335 72.0354 168.929 70.4887 166.726 70.4887C164.524 70.4887 164.038 71.8736 164.038 74.723V75.8638C164.038 79.2836 164.691 81.1593 167.788 85.1468L173.657 92.7212C177.815 98.0963 179.118 101.192 179.118 108.035V109.99C179.118 118.864 175.287 124.16 167.217 124.16" fill="#A5A5A5"/>
<path fill-rule="evenodd" clip-rule="evenodd" d="M196.682 111.149V97.0776H205.648V111.067C205.648 117.575 203.546 124.163 194.745 124.163H192.725C183.518 124.163 181.501 117.493 181.501 111.393V74.4657C181.501 68.2867 184.165 62.3466 192.404 62.3466H194.503C204.518 62.3466 205.648 69.0163 205.648 74.9565V85.7729H196.682V75.1183C196.682 72.5157 195.875 71.1334 193.614 71.1334C191.354 71.1334 190.786 72.4361 190.786 75.1183V111.07C190.786 113.755 191.675 115.216 193.694 115.216C195.875 115.216 196.682 113.59 196.682 111.149" fill="#A5A5A5"/>
<path fill-rule="evenodd" clip-rule="evenodd" d="M223.876 96.7805H217.672V123.367H208.567V62.8772H217.672V87.1048H223.876V62.8772H232.98V123.367H223.876V96.7805Z" fill="#A5A5A5"/>
<path fill-rule="evenodd" clip-rule="evenodd" d="M252.255 75.7683C252.255 72.5952 251.194 71.1308 249.074 71.1308C246.709 71.1308 245.81 72.6775 245.81 75.7683V110.579C245.81 113.182 246.545 115.214 249.156 115.214C251.605 115.214 252.255 113.182 252.255 110.579V75.7683V75.7683ZM261.638 109.929C261.638 118.387 258.783 124.162 249.891 124.162H248.339C239.529 124.162 236.43 118.387 236.43 109.929V76.2538C236.43 67.8755 239.611 62.3439 248.259 62.3439H249.811C258.786 62.3439 261.641 67.8755 261.641 76.1715V109.926L261.638 109.929Z" fill="#A5A5A5"/>
<path fill-rule="evenodd" clip-rule="evenodd" d="M280.119 75.7683C280.119 72.5952 279.058 71.1308 276.938 71.1308C274.573 71.1308 273.674 72.6775 273.674 75.7683V110.579C273.674 113.182 274.409 115.214 277.017 115.214C279.467 115.214 280.119 113.182 280.119 110.579V75.7683V75.7683ZM289.5 109.929C289.5 118.387 286.644 124.162 277.752 124.162H276.203C267.393 124.162 264.291 118.387 264.291 109.929V76.2538C264.291 67.8755 267.473 62.3439 276.12 62.3439H277.673C286.647 62.3439 289.502 67.8755 289.502 76.1715V109.926L289.5 109.929Z" fill="#A5A5A5"/>
<path fill-rule="evenodd" clip-rule="evenodd" d="M302.149 62.8772V114.017H313.381V123.367H292.949V62.8772H302.149Z" fill="#A5A5A5"/>
</g>
</svg>
