<svg width="1440" height="110" viewBox="0 0 1440 110" fill="none" xmlns="http://www.w3.org/2000/svg">
<g opacity="0.7">
<path d="M1289.67 100.159H1237.65L1263.57 55.1591L1289.67 100.159Z" fill="#9D9D9D"/>
<path d="M1341.67 100.159H1289.65L1315.57 55.1591L1341.67 100.159Z" fill="#9D9D9D"/>
<path d="M1392.73 91.7011L1341.52 100.838L1359.13 51.9846L1392.73 91.7011Z" fill="#9D9D9D"/>
<path d="M1433.5 59.6141L1393 92.2543L1384.94 40.9513L1433.5 59.6141Z" fill="#9D9D9D"/>
<path d="M1237.67 100.159H1185.65L1211.57 55.1591L1237.67 100.159Z" fill="#9D9D9D"/>
<path d="M1185.67 100.159H1133.65L1159.57 55.1591L1185.67 100.159Z" fill="#9D9D9D"/>
<path d="M1133.67 100.17H1081.65L1107.57 55.17L1133.67 100.17Z" fill="#9D9D9D"/>
<path d="M1081.67 100.159H1029.65L1055.57 55.1591L1081.67 100.159Z" fill="#9D9D9D"/>
<path d="M1029.67 100.159H977.65L1003.57 55.1591L1029.67 100.159Z" fill="#9D9D9D"/>
<path d="M977.67 100.159H925.65L951.57 55.1591L977.67 100.159Z" fill="#9D9D9D"/>
<path d="M925.67 100.159H873.65L899.57 55.1591L925.67 100.159Z" fill="#9D9D9D"/>
<path d="M874.67 100.159H822.65L848.57 55.1591L874.67 100.159Z" fill="#9D9D9D"/>
<path d="M822.67 100.159H770.65L796.57 55.1591L822.67 100.159Z" fill="#9D9D9D"/>
<path d="M770.67 100.159H718.65L744.57 55.1591L770.67 100.159Z" fill="#9D9D9D"/>
<path d="M718.67 100.159H666.65L692.57 55.1591L718.67 100.159Z" fill="#9D9D9D"/>
<path d="M666.67 100.159H614.65L640.57 55.1591L666.67 100.159Z" fill="#9D9D9D"/>
<path d="M614.67 100.159H562.65L588.57 55.1591L614.67 100.159Z" fill="#9D9D9D"/>
<path d="M562.67 100.159H510.65L536.57 55.1591L562.67 100.159Z" fill="#9D9D9D"/>
<path d="M510.67 100.159H458.65L484.57 55.1591L510.67 100.159Z" fill="#9D9D9D"/>
<path d="M458.67 100.159H406.65L432.57 55.1591L458.67 100.159Z" fill="#9D9D9D"/>
<path d="M406.67 100.159H354.65L380.57 55.1591L406.67 100.159Z" fill="#9D9D9D"/>
<path d="M354.67 100.159H302.65L328.57 55.1591L354.67 100.159Z" fill="#9D9D9D"/>
<path d="M302.67 100.159H250.65L276.57 55.1591L302.67 100.159Z" fill="#9D9D9D"/>
<path d="M250.67 100.159H198.65L224.57 55.1591L250.67 100.159Z" fill="#9D9D9D"/>
<path d="M198.67 100.159H146.65L172.57 55.1591L198.67 100.159Z" fill="#9D9D9D"/>
<path d="M146.67 100.159H94.65L120.57 55.1591L146.67 100.159Z" fill="#9D9D9D"/>
<path d="M94.67 100.159H42.65L68.57 55.1591L94.67 100.159Z" fill="#9D9D9D"/>
<path d="M42.67 100.159H-9.35L16.57 55.1591L42.67 100.159Z" fill="#9D9D9D"/>
</g>
</svg>
