<svg width="1389" height="59" viewBox="0 0 1389 59" fill="none" xmlns="http://www.w3.org/2000/svg">
<g opacity="0.7">
<path d="M1306.67 7.83L1254.65 7.83L1280.57 52.83L1306.67 7.83Z" fill="#9D9D9D"/>
<path d="M1358.67 7.83L1306.65 7.83L1332.57 52.83L1358.67 7.83Z" fill="#9D9D9D"/>
<path d="M1254.67 7.83L1202.65 7.83L1228.57 52.83L1254.67 7.83Z" fill="#9D9D9D"/>
<path d="M1202.67 7.83L1150.65 7.83L1176.57 52.83L1202.67 7.83Z" fill="#9D9D9D"/>
<path d="M1150.67 7.83L1098.65 7.83L1124.57 52.83L1150.67 7.83Z" fill="#9D9D9D"/>
<path d="M1098.67 7.83L1046.65 7.83L1072.57 52.83L1098.67 7.83Z" fill="#9D9D9D"/>
<path d="M1046.67 7.83L994.65 7.83L1020.57 52.83L1046.67 7.83Z" fill="#9D9D9D"/>
<path d="M994.67 7.83L942.65 7.83L968.57 52.83L994.67 7.83Z" fill="#9D9D9D"/>
<path d="M942.67 7.83L890.65 7.83L916.57 52.83L942.67 7.83Z" fill="#9D9D9D"/>
<path d="M891.67 7.83L839.65 7.83L865.57 52.83L891.67 7.83Z" fill="#9D9D9D"/>
<path d="M839.67 7.83L787.65 7.83L813.57 52.83L839.67 7.83Z" fill="#9D9D9D"/>
<path d="M787.67 7.83L735.65 7.83L761.57 52.83L787.67 7.83Z" fill="#9D9D9D"/>
<path d="M735.67 7.83L683.65 7.83L709.57 52.83L735.67 7.83Z" fill="#9D9D9D"/>
<path d="M683.67 7.83L631.65 7.83L657.57 52.83L683.67 7.83Z" fill="#9D9D9D"/>
<path d="M631.67 7.83L579.65 7.83L605.57 52.83L631.67 7.83Z" fill="#9D9D9D"/>
<path d="M579.67 7.83L527.65 7.83L553.57 52.83L579.67 7.83Z" fill="#9D9D9D"/>
<path d="M527.67 7.83L475.65 7.83L501.57 52.83L527.67 7.83Z" fill="#9D9D9D"/>
<path d="M475.67 7.83L423.65 7.83L449.57 52.83L475.67 7.83Z" fill="#9D9D9D"/>
<path d="M423.67 7.83L371.65 7.83L397.57 52.83L423.67 7.83Z" fill="#9D9D9D"/>
<path d="M371.67 7.83L319.65 7.83L345.57 52.83L371.67 7.83Z" fill="#9D9D9D"/>
<path d="M319.67 7.83L267.65 7.83L293.57 52.83L319.67 7.83Z" fill="#9D9D9D"/>
<path d="M267.67 7.83L215.65 7.83L241.57 52.83L267.67 7.83Z" fill="#9D9D9D"/>
<path d="M215.67 7.83L163.65 7.83L189.57 52.83L215.67 7.83Z" fill="#9D9D9D"/>
<path d="M163.67 7.83L111.65 7.83L137.57 52.83L163.67 7.83Z" fill="#9D9D9D"/>
<path d="M111.67 7.83L59.65 7.83L85.57 52.83L111.67 7.83Z" fill="#9D9D9D"/>
<path d="M59.67 7.83L7.65 7.83L33.57 52.83L59.67 7.83Z" fill="#9D9D9D"/>
</g>
</svg>
