<svg width="73" height="869" viewBox="0 0 73 869" fill="none" xmlns="http://www.w3.org/2000/svg">
<g opacity="0.7">
<path opacity="0.8" d="M-1.5029 676.659L-2.08475 624.643L43.2024 650.058L-1.5029 676.659Z" fill="#C5C5C5"/>
<path opacity="0.8" d="M-1.05965 728.081L-1.05965 676.061L43.9404 701.981L-1.05965 728.081Z" fill="#C5C5C5"/>
<path opacity="0.8" d="M-0.778398 780.17L-0.778398 728.15L44.2216 754.07L-0.778398 780.17Z" fill="#C5C5C5"/>
<path opacity="0.8" d="M-0.778398 832.17L-0.778398 780.15L44.2216 806.07L-0.778398 832.17Z" fill="#C5C5C5"/>
<path opacity="0.8" d="M22.9619 868.668L-1.99997 832.616L49.7524 828.31L22.9619 868.668Z" fill="#C5C5C5"/>
<path opacity="0.8" d="M-1.82723 624.418L-1.82723 572.398L43.1728 598.318L-1.82723 624.418Z" fill="#C5C5C5"/>
<path opacity="0.8" d="M-0.985429 572.418L-0.985429 520.398L44.0146 546.318L-0.985429 572.418Z" fill="#C5C5C5"/>
<path opacity="0.8" d="M-1.14363 520.417L-1.14363 468.397L43.8564 494.317L-1.14363 520.417Z" fill="#C5C5C5"/>
<path opacity="0.8" d="M-1.30281 468.418L-1.30281 416.398L43.6972 442.318L-1.30281 468.418Z" fill="#C5C5C5"/>
<path opacity="0.8" d="M-1.46102 416.418L-1.46102 364.398L43.539 390.318L-1.46102 416.418Z" fill="#C5C5C5"/>
<path opacity="0.8" d="M-1.61922 364.419L-1.61922 312.399L43.3808 338.319L-1.61922 364.419Z" fill="#C5C5C5"/>
<path opacity="0.8" d="M-0.778398 312.418L-0.778398 260.398L44.2216 286.318L-0.778398 312.418Z" fill="#C5C5C5"/>
<path opacity="0.8" d="M-0.936601 260.419L-0.936601 208.399L44.0634 234.319L-0.936601 260.419Z" fill="#C5C5C5"/>
<path opacity="0.8" d="M-1.0948 208.419L-1.0948 156.399L43.9052 182.319L-1.0948 208.419Z" fill="#C5C5C5"/>
<path opacity="0.8" d="M-1.25398 156.42L-1.25398 104.4L43.746 130.32L-1.25398 156.42Z" fill="#C5C5C5"/>
<path opacity="0.8" d="M-1.41316 104.419L-1.41316 52.399L43.5868 78.319L-1.41316 104.419Z" fill="#C5C5C5"/>
<path opacity="0.8" d="M-4.32199e-08 52.9995L35.5005 0.499876L49.5004 58.4995L-4.32199e-08 52.9995Z" fill="#C5C5C5"/>
</g>
</svg>
