<svg width="1389" height="53" viewBox="0 0 1389 53" fill="none" xmlns="http://www.w3.org/2000/svg">
<g opacity="0.7">
<path d="M32.33 7.83024L84.35 7.83024L58.43 52.8302L32.33 7.83024Z" fill="#9D9D9D"/>
<path d="M86.3515 7.83024L138.371 7.83024L112.451 52.8302L86.3515 7.83024Z" fill="#9D9D9D"/>
<path d="M140.375 7.83024L192.395 7.83024L166.475 52.8302L140.375 7.83024Z" fill="#9D9D9D"/>
<path d="M194.397 7.83024L246.417 7.83024L220.497 52.8302L194.397 7.83024Z" fill="#9D9D9D"/>
<path d="M248.42 7.83024L300.44 7.83024L274.52 52.8302L248.42 7.83024Z" fill="#9D9D9D"/>
<path d="M302.441 7.83024L354.461 7.83024L328.541 52.8302L302.441 7.83024Z" fill="#9D9D9D"/>
<path d="M356.465 7.83024L408.485 7.83024L382.565 52.8302L356.465 7.83024Z" fill="#9D9D9D"/>
<path d="M410.487 7.83024L462.507 7.83024L436.587 52.8302L410.487 7.83024Z" fill="#9D9D9D"/>
<path d="M463.471 7.83024L515.491 7.83024L489.571 52.8302L463.471 7.83024Z" fill="#9D9D9D"/>
<path d="M517.493 7.83024L569.513 7.83024L543.593 52.8302L517.493 7.83024Z" fill="#9D9D9D"/>
<path d="M571.515 7.83024L623.535 7.83024L597.615 52.8302L571.515 7.83024Z" fill="#9D9D9D"/>
<path d="M625.538 7.83024L677.558 7.83024L651.638 52.8302L625.538 7.83024Z" fill="#9D9D9D"/>
<path d="M679.56 7.83024L731.58 7.83024L705.66 52.8302L679.56 7.83024Z" fill="#9D9D9D"/>
<path d="M733.582 7.83024L785.602 7.83024L759.682 52.8302L733.582 7.83024Z" fill="#9D9D9D"/>
<path d="M787.605 7.83024L839.625 7.83024L813.705 52.8302L787.605 7.83024Z" fill="#9D9D9D"/>
<path d="M841.627 7.83024L893.647 7.83024L867.727 52.8302L841.627 7.83024Z" fill="#9D9D9D"/>
<path d="M895.65 7.83024L947.67 7.83024L921.75 52.8302L895.65 7.83024Z" fill="#9D9D9D"/>
<path d="M949.673 7.83024L1001.69 7.83024L975.773 52.8302L949.673 7.83024Z" fill="#9D9D9D"/>
<path d="M1003.69 7.83024L1055.71 7.83024L1029.79 52.8302L1003.69 7.83024Z" fill="#9D9D9D"/>
<path d="M1057.72 7.83024L1109.74 7.83024L1083.82 52.8302L1057.72 7.83024Z" fill="#9D9D9D"/>
<path d="M1111.74 7.83024L1163.76 7.83024L1137.84 52.8302L1111.74 7.83024Z" fill="#9D9D9D"/>
<path d="M1165.76 7.83024L1217.78 7.83024L1191.86 52.8302L1165.76 7.83024Z" fill="#9D9D9D"/>
<path d="M1219.78 7.83024L1271.8 7.83024L1245.88 52.8302L1219.78 7.83024Z" fill="#9D9D9D"/>
<path d="M1273.81 7.83024L1325.83 7.83024L1299.91 52.8302L1273.81 7.83024Z" fill="#9D9D9D"/>
<path d="M1327.83 7.83024L1379.85 7.83024L1353.93 52.8302L1327.83 7.83024Z" fill="#9D9D9D"/>
</g>
</svg>
