<svg width="1429" height="134" viewBox="0 0 1429 134" fill="none" xmlns="http://www.w3.org/2000/svg">
<g opacity="0.7">
<path d="M1346.19 13.8311L1294.17 13.8311L1320.09 58.8311L1346.19 13.8311Z" fill="#9D9D9D"/>
<path d="M1398.19 13.8311L1346.17 13.8311L1372.09 58.8311L1398.19 13.8311Z" fill="#9D9D9D"/>
<path d="M1294.19 13.8311L1242.17 13.8311L1268.09 58.8311L1294.19 13.8311Z" fill="#9D9D9D"/>
<path d="M1242.19 13.8311L1190.17 13.8311L1216.09 58.8311L1242.19 13.8311Z" fill="#9D9D9D"/>
<path d="M1190.19 13.8311L1138.17 13.8311L1164.09 58.8311L1190.19 13.8311Z" fill="#9D9D9D"/>
<path d="M1138.19 13.8311L1086.17 13.8311L1112.09 58.8311L1138.19 13.8311Z" fill="#9D9D9D"/>
<path d="M1086.19 13.8311L1034.17 13.8311L1060.09 58.8311L1086.19 13.8311Z" fill="#9D9D9D"/>
<path d="M1034.2 13.8321L982.181 13.8321L1008.1 58.8321L1034.2 13.8321Z" fill="#9D9D9D"/>
<path d="M982.211 13.8329L930.191 13.8329L956.111 58.8329L982.211 13.8329Z" fill="#9D9D9D"/>
<path d="M931.213 13.8326L879.193 13.8326L905.113 58.8326L931.213 13.8326Z" fill="#9D9D9D"/>
<path d="M879.213 13.8326L827.193 13.8326L853.113 58.8326L879.213 13.8326Z" fill="#9D9D9D"/>
<path d="M827.213 13.8326L775.193 13.8326L801.113 58.8326L827.213 13.8326Z" fill="#9D9D9D"/>
<path d="M775.213 13.8326L723.193 13.8326L749.113 58.8326L775.213 13.8326Z" fill="#9D9D9D"/>
<path d="M723.213 13.8326L671.193 13.8326L697.113 58.8326L723.213 13.8326Z" fill="#9D9D9D"/>
<path d="M671.213 13.8326L619.193 13.8326L645.113 58.8326L671.213 13.8326Z" fill="#9D9D9D"/>
<path d="M619.213 13.8326L567.193 13.8326L593.113 58.8326L619.213 13.8326Z" fill="#9D9D9D"/>
<path d="M567.213 13.8326L515.193 13.8326L541.113 58.8326L567.213 13.8326Z" fill="#9D9D9D"/>
<path d="M515.213 13.8326L463.193 13.8326L489.113 58.8326L515.213 13.8326Z" fill="#9D9D9D"/>
<path d="M463.212 13.8326L411.192 13.8326L437.112 58.8326L463.212 13.8326Z" fill="#9D9D9D"/>
<path d="M411.212 13.8326L359.192 13.8326L385.112 58.8326L411.212 13.8326Z" fill="#9D9D9D"/>
<path d="M359.212 13.8326L307.192 13.8326L333.112 58.8326L359.212 13.8326Z" fill="#9D9D9D"/>
<path d="M307.212 13.8326L255.192 13.8326L281.112 58.8326L307.212 13.8326Z" fill="#9D9D9D"/>
<path d="M255.211 13.8326L203.191 13.8326L229.111 58.8326L255.211 13.8326Z" fill="#9D9D9D"/>
<path d="M203.211 13.8326L151.191 13.8326L177.111 58.8326L203.211 13.8326Z" fill="#9D9D9D"/>
<path d="M151.211 13.8326L99.191 13.8326L125.111 58.8326L151.211 13.8326Z" fill="#9D9D9D"/>
<path d="M99.4355 14.4778L48.7592 26.2249L84.1716 64.2093L99.4355 14.4778Z" fill="#9D9D9D"/>
<path d="M48.3599 26.4882L10.4773 62.1391L60.193 77.1458L48.3599 26.4882Z" fill="#9D9D9D"/>
<path d="M10.1581 62.5226L-3.44264 112.733L46.7689 99.4801L10.1581 62.5226Z" fill="#9D9D9D"/>
</g>
</svg>
