<svg width="1412" height="107" viewBox="0 0 1412 107" fill="none" xmlns="http://www.w3.org/2000/svg">
<g opacity="0.7">
<path opacity="0.8" d="M1306.67 54.832L1254.65 54.832L1280.57 99.832L1306.67 54.832Z" fill="#C5C5C5"/>
<path opacity="0.8" d="M1358.67 54.832L1306.65 54.832L1332.57 99.832L1358.67 54.832Z" fill="#C5C5C5"/>
<path opacity="0.8" d="M1411.59 22.2829L1358.47 55.079L1413.31 84.6847L1411.59 22.2829Z" fill="#C5C5C5"/>
<path opacity="0.8" d="M1254.67 54.832L1202.65 54.832L1228.57 99.832L1254.67 54.832Z" fill="#C5C5C5"/>
<path opacity="0.8" d="M1202.67 54.832L1150.65 54.832L1176.57 99.832L1202.67 54.832Z" fill="#C5C5C5"/>
<path opacity="0.8" d="M1150.67 54.832L1098.65 54.832L1124.57 99.832L1150.67 54.832Z" fill="#C5C5C5"/>
<path opacity="0.8" d="M1098.67 54.832L1046.65 54.832L1072.57 99.832L1098.67 54.832Z" fill="#C5C5C5"/>
<path opacity="0.8" d="M1046.67 54.832L994.65 54.832L1020.57 99.832L1046.67 54.832Z" fill="#C5C5C5"/>
<path opacity="0.8" d="M994.67 54.832L942.65 54.832L968.57 99.832L994.67 54.832Z" fill="#C5C5C5"/>
<path opacity="0.8" d="M942.67 54.832L890.65 54.832L916.57 99.832L942.67 54.832Z" fill="#C5C5C5"/>
<path opacity="0.8" d="M891.67 54.832L839.65 54.832L865.57 99.832L891.67 54.832Z" fill="#C5C5C5"/>
<path opacity="0.8" d="M839.67 54.832L787.65 54.832L813.57 99.832L839.67 54.832Z" fill="#C5C5C5"/>
<path opacity="0.8" d="M787.67 54.832L735.65 54.832L761.57 99.832L787.67 54.832Z" fill="#C5C5C5"/>
<path opacity="0.8" d="M735.67 54.832L683.65 54.832L709.57 99.832L735.67 54.832Z" fill="#C5C5C5"/>
<path opacity="0.8" d="M683.67 54.832L631.65 54.832L657.57 99.832L683.67 54.832Z" fill="#C5C5C5"/>
<path opacity="0.8" d="M631.67 54.832L579.65 54.832L605.57 99.832L631.67 54.832Z" fill="#C5C5C5"/>
<path opacity="0.8" d="M579.67 54.832L527.65 54.832L553.57 99.832L579.67 54.832Z" fill="#C5C5C5"/>
<path opacity="0.8" d="M527.67 54.832L475.65 54.832L501.57 99.832L527.67 54.832Z" fill="#C5C5C5"/>
<path opacity="0.8" d="M475.67 54.832L423.65 54.832L449.57 99.832L475.67 54.832Z" fill="#C5C5C5"/>
<path opacity="0.8" d="M423.67 54.832L371.65 54.832L397.57 99.832L423.67 54.832Z" fill="#C5C5C5"/>
<path opacity="0.8" d="M371.67 54.832L319.65 54.832L345.57 99.832L371.67 54.832Z" fill="#C5C5C5"/>
<path opacity="0.8" d="M319.67 54.832L267.65 54.832L293.57 99.832L319.67 54.832Z" fill="#C5C5C5"/>
<path opacity="0.8" d="M267.67 54.832L215.65 54.832L241.57 99.832L267.67 54.832Z" fill="#C5C5C5"/>
<path opacity="0.8" d="M215.67 54.832L163.65 54.832L189.57 99.832L215.67 54.832Z" fill="#C5C5C5"/>
<path opacity="0.8" d="M163.67 54.832L111.65 54.832L137.57 99.832L163.67 54.832Z" fill="#C5C5C5"/>
<path opacity="0.8" d="M111.67 54.832L59.65 54.832L85.57 99.832L111.67 54.832Z" fill="#C5C5C5"/>
<path opacity="0.8" d="M59.67 54.832L7.65 54.832L33.57 99.832L59.67 54.832Z" fill="#C5C5C5"/>
</g>
</svg>
