<svg width="1440" height="77" viewBox="0 0 1440 77" fill="none" xmlns="http://www.w3.org/2000/svg">
<path opacity="0.8" d="M1342.67 7.83L1290.65 7.83L1316.57 52.83L1342.67 7.83Z" fill="#878787" fill-opacity="0.56"/>
<path opacity="0.8" d="M1394.67 7.83L1342.65 7.83L1368.57 52.83L1394.67 7.83Z" fill="#878787" fill-opacity="0.56"/>
<path opacity="0.8" d="M1440 7.83008L1394.65 7.83008L1420.57 52.8301L1440 21V7.83008Z" fill="#878787" fill-opacity="0.56"/>
<path opacity="0.8" d="M1290.67 7.83L1238.65 7.83L1264.57 52.83L1290.67 7.83Z" fill="#878787" fill-opacity="0.56"/>
<path opacity="0.8" d="M1238.67 7.83L1186.65 7.83L1212.57 52.83L1238.67 7.83Z" fill="#878787" fill-opacity="0.56"/>
<path opacity="0.8" d="M1186.67 7.83L1134.65 7.83L1160.57 52.83L1186.67 7.83Z" fill="#878787" fill-opacity="0.56"/>
<path opacity="0.8" d="M1134.67 7.83L1082.65 7.83L1108.57 52.83L1134.67 7.83Z" fill="#878787" fill-opacity="0.56"/>
<path opacity="0.8" d="M1082.67 7.83L1030.65 7.83L1056.57 52.83L1082.67 7.83Z" fill="#878787" fill-opacity="0.56"/>
<path opacity="0.8" d="M1030.67 7.83L978.65 7.83L1004.57 52.83L1030.67 7.83Z" fill="#878787" fill-opacity="0.56"/>
<path opacity="0.8" d="M978.67 7.83L926.65 7.83L952.57 52.83L978.67 7.83Z" fill="#878787" fill-opacity="0.56"/>
<path opacity="0.8" d="M927.67 7.83L875.65 7.83L901.57 52.83L927.67 7.83Z" fill="#878787" fill-opacity="0.56"/>
<path opacity="0.8" d="M875.67 7.83L823.65 7.83L849.57 52.83L875.67 7.83Z" fill="#878787" fill-opacity="0.56"/>
<path opacity="0.8" d="M823.67 7.83L771.65 7.83L797.57 52.83L823.67 7.83Z" fill="#878787" fill-opacity="0.56"/>
<path opacity="0.8" d="M771.67 7.83L719.65 7.83L745.57 52.83L771.67 7.83Z" fill="#878787" fill-opacity="0.56"/>
<path opacity="0.8" d="M719.67 7.83L667.65 7.83L693.57 52.83L719.67 7.83Z" fill="#878787" fill-opacity="0.56"/>
<path opacity="0.8" d="M667.67 7.83L615.65 7.83L641.57 52.83L667.67 7.83Z" fill="#878787" fill-opacity="0.56"/>
<path opacity="0.8" d="M615.67 7.83L563.65 7.83L589.57 52.83L615.67 7.83Z" fill="#878787" fill-opacity="0.56"/>
<path opacity="0.8" d="M563.67 7.83L511.65 7.83L537.57 52.83L563.67 7.83Z" fill="#878787" fill-opacity="0.56"/>
<path opacity="0.8" d="M511.67 7.83L459.65 7.83L485.57 52.83L511.67 7.83Z" fill="#878787" fill-opacity="0.56"/>
<path opacity="0.8" d="M459.67 7.83L407.65 7.83L433.57 52.83L459.67 7.83Z" fill="#878787" fill-opacity="0.56"/>
<path opacity="0.8" d="M407.67 7.83L355.65 7.83L381.57 52.83L407.67 7.83Z" fill="#878787" fill-opacity="0.56"/>
<path opacity="0.8" d="M355.67 7.83L303.65 7.83L329.57 52.83L355.67 7.83Z" fill="#878787" fill-opacity="0.56"/>
<path opacity="0.8" d="M303.67 7.83L251.65 7.83L277.57 52.83L303.67 7.83Z" fill="#878787" fill-opacity="0.56"/>
<path opacity="0.8" d="M251.67 7.83L199.65 7.83L225.57 52.83L251.67 7.83Z" fill="#878787" fill-opacity="0.56"/>
<path opacity="0.8" d="M199.67 7.83L147.65 7.83L173.57 52.83L199.67 7.83Z" fill="#878787" fill-opacity="0.56"/>
<path opacity="0.8" d="M147.67 7.83L95.65 7.83L121.57 52.83L147.67 7.83Z" fill="#878787" fill-opacity="0.56"/>
<path opacity="0.8" d="M95.67 7.83L43.65 7.83L69.57 52.83L95.67 7.83Z" fill="#878787" fill-opacity="0.56"/>
<path opacity="0.8" d="M43.6699 7.83008L0 7.83008V24.5L15.5 49.5L43.6699 7.83008Z" fill="#878787" fill-opacity="0.56"/>
<g opacity="0.7">
<path opacity="0.8" d="M1325.67 69.17H1273.65L1299.57 24.17L1325.67 69.17Z" fill="#C5C5C5"/>
<path opacity="0.8" d="M1377.67 69.17H1325.65L1351.57 24.17L1377.67 69.17Z" fill="#C5C5C5"/>
<path opacity="0.8" d="M1428.67 69.17H1376.65L1402.57 24.17L1428.67 69.17Z" fill="#C5C5C5"/>
<path opacity="0.8" d="M1440 69.1699H1428.65L1440 50V69.1699Z" fill="#C5C5C5"/>
<path opacity="0.8" d="M1273.67 69.17H1221.65L1247.57 24.17L1273.67 69.17Z" fill="#C5C5C5"/>
<path opacity="0.8" d="M1221.67 69.17H1169.65L1195.57 24.17L1221.67 69.17Z" fill="#C5C5C5"/>
<path opacity="0.8" d="M1169.67 69.17H1117.65L1143.57 24.17L1169.67 69.17Z" fill="#C5C5C5"/>
<path opacity="0.8" d="M1117.67 69.17H1065.65L1091.57 24.17L1117.67 69.17Z" fill="#C5C5C5"/>
<path opacity="0.8" d="M1065.67 69.17H1013.65L1039.57 24.17L1065.67 69.17Z" fill="#C5C5C5"/>
<path opacity="0.8" d="M1013.67 69.17H961.65L987.57 24.17L1013.67 69.17Z" fill="#C5C5C5"/>
<path opacity="0.8" d="M961.67 69.17H909.65L935.57 24.17L961.67 69.17Z" fill="#C5C5C5"/>
<path opacity="0.8" d="M910.67 69.17H858.65L884.57 24.17L910.67 69.17Z" fill="#C5C5C5"/>
<path opacity="0.8" d="M858.67 69.17H806.65L832.57 24.17L858.67 69.17Z" fill="#C5C5C5"/>
<path opacity="0.8" d="M806.67 69.17H754.65L780.57 24.17L806.67 69.17Z" fill="#C5C5C5"/>
<path opacity="0.8" d="M754.67 69.17H702.65L728.57 24.17L754.67 69.17Z" fill="#C5C5C5"/>
<path opacity="0.8" d="M702.67 69.17H650.65L676.57 24.17L702.67 69.17Z" fill="#C5C5C5"/>
<path opacity="0.8" d="M650.67 69.17H598.65L624.57 24.17L650.67 69.17Z" fill="#C5C5C5"/>
<path opacity="0.8" d="M598.67 69.17H546.65L572.57 24.17L598.67 69.17Z" fill="#C5C5C5"/>
<path opacity="0.8" d="M546.67 69.17H494.65L520.57 24.17L546.67 69.17Z" fill="#C5C5C5"/>
<path opacity="0.8" d="M494.67 69.17H442.65L468.57 24.17L494.67 69.17Z" fill="#C5C5C5"/>
<path opacity="0.8" d="M442.67 69.17H390.65L416.57 24.17L442.67 69.17Z" fill="#C5C5C5"/>
<path opacity="0.8" d="M390.67 69.17H338.65L364.57 24.17L390.67 69.17Z" fill="#C5C5C5"/>
<path opacity="0.8" d="M338.67 69.17H286.65L312.57 24.17L338.67 69.17Z" fill="#C5C5C5"/>
<path opacity="0.8" d="M286.67 69.17H234.65L260.57 24.17L286.67 69.17Z" fill="#C5C5C5"/>
<path opacity="0.8" d="M234.67 69.17H182.65L208.57 24.17L234.67 69.17Z" fill="#C5C5C5"/>
<path opacity="0.8" d="M182.67 69.17H130.65L156.57 24.17L182.67 69.17Z" fill="#C5C5C5"/>
<path opacity="0.8" d="M130.67 69.17H78.65L104.57 24.17L130.67 69.17Z" fill="#C5C5C5"/>
<path opacity="0.8" d="M78.67 69.17H26.65L52.57 24.17L78.67 69.17Z" fill="#C5C5C5"/>
<path opacity="0.8" d="M26.6699 69.1699H-1L-0.5 24.5L26.6699 69.1699Z" fill="#C5C5C5"/>
</g>
</svg>
