<svg width="59" height="830" viewBox="0 0 59 830" fill="none" xmlns="http://www.w3.org/2000/svg">
<g opacity="0.7">
<path opacity="0.8" d="M58.3369 197.327L58.9187 249.343L13.6316 223.928L58.3369 197.327Z" fill="#C5C5C5"/>
<path opacity="0.8" d="M58.8936 145.905L58.8936 197.925L13.8936 172.005L58.8936 145.905Z" fill="#C5C5C5"/>
<path opacity="0.8" d="M58.6124 93.8162L58.6124 145.836L13.6124 119.916L58.6124 93.8162Z" fill="#C5C5C5"/>
<path opacity="0.8" d="M58.6124 41.8162L58.6124 93.8362L13.6124 67.9162L58.6124 41.8162Z" fill="#C5C5C5"/>
<path opacity="0.8" d="M37.542 0L58.1373 42.1012L9.45699 35.0734L37.542 0Z" fill="#C5C5C5"/>
<path opacity="0.8" d="M58.6612 249.568L58.6612 301.588L13.6612 275.668L58.6612 249.568Z" fill="#C5C5C5"/>
<path opacity="0.8" d="M58.8194 301.568L58.8194 353.588L13.8194 327.668L58.8194 301.568Z" fill="#C5C5C5"/>
<path opacity="0.8" d="M58.9776 353.569L58.9776 405.589L13.9776 379.669L58.9776 353.569Z" fill="#C5C5C5"/>
<path opacity="0.8" d="M59.1368 405.568L59.1368 457.588L14.1368 431.668L59.1368 405.568Z" fill="#C5C5C5"/>
<path opacity="0.8" d="M59.295 457.568L59.295 509.588L14.295 483.668L59.295 457.568Z" fill="#C5C5C5"/>
<path opacity="0.8" d="M59.4532 509.567L59.4532 561.587L14.4532 535.667L59.4532 509.567Z" fill="#C5C5C5"/>
<path opacity="0.8" d="M58.6124 561.567L58.6124 613.587L13.6124 587.667L58.6124 561.567Z" fill="#C5C5C5"/>
<path opacity="0.8" d="M58.7706 613.567L58.7706 665.587L13.7706 639.667L58.7706 613.567Z" fill="#C5C5C5"/>
<path opacity="0.8" d="M58.9288 665.567L58.9288 717.587L13.9288 691.667L58.9288 665.567Z" fill="#C5C5C5"/>
<path opacity="0.8" d="M59.088 717.566L59.088 769.586L14.088 743.666L59.088 717.566Z" fill="#C5C5C5"/>
<path opacity="0.8" d="M58.1025 769.052L51.7216 820.679L10.2409 789.435L58.1025 769.052Z" fill="#C5C5C5"/>
</g>
</svg>
