<svg width="1424" height="95" viewBox="0 0 1424 95" fill="none" xmlns="http://www.w3.org/2000/svg">
<g opacity="0.7">
<path d="M1306.67 10.8304L1254.65 10.8304L1280.57 55.8304L1306.67 10.8304Z" fill="#9D9D9D"/>
<path d="M1358.67 10.8304L1306.65 10.8304L1332.57 55.8304L1358.67 10.8304Z" fill="#9D9D9D"/>
<path d="M1403.92 35.5401L1358.3 10.5433L1359.41 62.4626L1403.92 35.5401Z" fill="#9D9D9D"/>
<path d="M1254.67 10.8304L1202.65 10.8304L1228.57 55.8304L1254.67 10.8304Z" fill="#9D9D9D"/>
<path d="M1202.67 10.8304L1150.65 10.8304L1176.57 55.8304L1202.67 10.8304Z" fill="#9D9D9D"/>
<path d="M1098.67 10.8304L1046.65 10.8304L1072.57 55.8304L1098.67 10.8304Z" fill="#9D9D9D"/>
<path d="M1046.67 10.8304L994.65 10.8304L1020.57 55.8304L1046.67 10.8304Z" fill="#9D9D9D"/>
<path d="M994.67 10.8304L942.65 10.8304L968.57 55.8304L994.67 10.8304Z" fill="#9D9D9D"/>
<path d="M942.67 10.8304L890.65 10.8304L916.57 55.8304L942.67 10.8304Z" fill="#9D9D9D"/>
<path d="M891.67 10.8304L839.65 10.8304L865.57 55.8304L891.67 10.8304Z" fill="#9D9D9D"/>
<path d="M839.67 10.8304L787.65 10.8304L813.57 55.8304L839.67 10.8304Z" fill="#9D9D9D"/>
<path d="M787.67 10.8304L735.65 10.8304L761.57 55.8304L787.67 10.8304Z" fill="#9D9D9D"/>
<path d="M735.67 10.8304L683.65 10.8304L709.57 55.8304L735.67 10.8304Z" fill="#9D9D9D"/>
<path d="M683.67 10.8304L631.65 10.8304L657.57 55.8304L683.67 10.8304Z" fill="#9D9D9D"/>
<path d="M631.67 10.8304L579.65 10.8304L605.57 55.8304L631.67 10.8304Z" fill="#9D9D9D"/>
<path d="M579.67 10.8304L527.65 10.8304L553.57 55.8304L579.67 10.8304Z" fill="#9D9D9D"/>
<path d="M527.67 10.8304L475.65 10.8304L501.57 55.8304L527.67 10.8304Z" fill="#9D9D9D"/>
<path d="M475.67 10.8304L423.65 10.8304L449.57 55.8304L475.67 10.8304Z" fill="#9D9D9D"/>
<path d="M423.67 10.8304L371.65 10.8304L397.57 55.8304L423.67 10.8304Z" fill="#9D9D9D"/>
<path d="M371.67 10.8304L319.65 10.8304L345.57 55.8304L371.67 10.8304Z" fill="#9D9D9D"/>
<path d="M319.67 10.8304L267.65 10.8304L293.57 55.8304L319.67 10.8304Z" fill="#9D9D9D"/>
<path d="M267.67 10.8304L215.65 10.8304L241.57 55.8304L267.67 10.8304Z" fill="#9D9D9D"/>
<path d="M215.67 10.8304L163.65 10.8304L189.57 55.8304L215.67 10.8304Z" fill="#9D9D9D"/>
<path d="M163.67 10.8304L111.65 10.8304L137.57 55.8304L163.67 10.8304Z" fill="#9D9D9D"/>
<path d="M111.67 10.8304L59.65 10.8304L85.57 55.8304L111.67 10.8304Z" fill="#9D9D9D"/>
<path d="M59.67 10.8304L7.65 10.8304L33.57 55.8304L59.67 10.8304Z" fill="#9D9D9D"/>
</g>
<path opacity="0.7" d="M1150.67 10.8302L1098.65 10.8302L1124.57 55.8302L1150.67 10.8302Z" fill="#9D9D9D"/>
</svg>
