<svg width="52" height="897" viewBox="0 0 52 897" fill="none" xmlns="http://www.w3.org/2000/svg">
<g clip-path="url(#clip0_391_2084)">
<g opacity="0.7">
<path opacity="0.8" d="M51.8947 711.16L52.4765 659.143L7.18945 684.558L51.8947 711.16Z" fill="#C5C5C5"/>
<path opacity="0.8" d="M51.4511 762.582V710.562L6.45117 736.482L51.4511 762.582Z" fill="#C5C5C5"/>
<path opacity="0.8" d="M51.1699 814.67V762.65L6.16992 788.57L51.1699 814.67Z" fill="#C5C5C5"/>
<path opacity="0.8" d="M51.1699 866.67V814.65L6.16992 840.57L51.1699 866.67Z" fill="#C5C5C5"/>
<path opacity="0.8" d="M52.2187 658.919V606.899L7.21875 632.819L52.2187 658.919Z" fill="#C5C5C5"/>
<path opacity="0.8" d="M51.3769 606.919V554.899L6.37695 580.819L51.3769 606.919Z" fill="#C5C5C5"/>
<path opacity="0.8" d="M51.5351 554.918V502.898L6.53516 528.818L51.5351 554.918Z" fill="#C5C5C5"/>
<path opacity="0.8" d="M51.6943 502.919V450.899L6.69434 476.819L51.6943 502.919Z" fill="#C5C5C5"/>
<path opacity="0.8" d="M51.8525 450.919V398.899L6.85254 424.819L51.8525 450.919Z" fill="#C5C5C5"/>
<path opacity="0.8" d="M52.0107 398.92V346.9L7.01074 372.82L52.0107 398.92Z" fill="#C5C5C5"/>
<path opacity="0.8" d="M51.1699 346.919V294.899L6.16992 320.819L51.1699 346.919Z" fill="#C5C5C5"/>
<path opacity="0.8" d="M51.3281 294.92V242.9L6.32812 268.82L51.3281 294.92Z" fill="#C5C5C5"/>
<path opacity="0.8" d="M51.4863 242.92V190.9L6.48633 216.82L51.4863 242.92Z" fill="#C5C5C5"/>
<path opacity="0.8" d="M51.6455 190.92V138.9L6.64551 164.82L51.6455 190.92Z" fill="#C5C5C5"/>
<path opacity="0.8" d="M51.8047 138.92V86.8994L6.80469 112.82L51.8047 138.92Z" fill="#C5C5C5"/>
<path opacity="0.8" d="M51.9629 86.9204V34.9004L6.96289 60.8204L51.9629 86.9204Z" fill="#C5C5C5"/>
<path opacity="0.8" d="M52.1201 34.9204V0.5H5L52.1201 34.9204Z" fill="#C5C5C5"/>
</g>
</g>
<defs>
<clipPath id="clip0_391_2084">
<rect width="52" height="897" fill="white"/>
</clipPath>
</defs>
</svg>
