<svg width="1440" height="123" viewBox="0 0 1440 123" fill="none" xmlns="http://www.w3.org/2000/svg">
<g opacity="0.7">
<path d="M1265.61 123.416H1213.59L1239.51 78.4162L1265.61 123.416Z" fill="#9D9D9D"/>
<path d="M1316.72 123.416H1264.7L1290.62 78.4162L1316.72 123.416Z" fill="#9D9D9D"/>
<path d="M1368.01 118.562L1316.17 122.851L1338.56 75.846L1368.01 118.562Z" fill="#9D9D9D"/>
<path d="M1415.89 97.8539L1367.77 117.604L1375.34 65.8609L1415.89 97.8539Z" fill="#9D9D9D"/>
<path d="M1439.56 51.3569L1415.16 97.3013L1387.92 52.6621L1439.56 51.3569Z" fill="#9D9D9D"/>
<path d="M1214.5 123.416H1162.48L1188.4 78.4162L1214.5 123.416Z" fill="#9D9D9D"/>
<path d="M1163.39 123.416H1111.37L1137.29 78.4162L1163.39 123.416Z" fill="#9D9D9D"/>
<path d="M1112.29 123.427H1060.27L1086.19 78.4271L1112.29 123.427Z" fill="#9D9D9D"/>
<path d="M1061.18 123.416H1009.16L1035.08 78.4162L1061.18 123.416Z" fill="#9D9D9D"/>
<path d="M1010.07 123.416H958.049L983.969 78.4161L1010.07 123.416Z" fill="#9D9D9D"/>
<path d="M958.98 123.416H906.96L932.88 78.4161L958.98 123.416Z" fill="#9D9D9D"/>
<path d="M907.871 123.416H855.851L881.771 78.4161L907.871 123.416Z" fill="#9D9D9D"/>
<path d="M857.746 123.416H805.726L831.646 78.4161L857.746 123.416Z" fill="#9D9D9D"/>
<path d="M806.638 123.416H754.618L780.538 78.4161L806.638 123.416Z" fill="#9D9D9D"/>
<path d="M755.529 123.416H703.509L729.429 78.4161L755.529 123.416Z" fill="#9D9D9D"/>
<path d="M704.422 123.416H652.402L678.322 78.4161L704.422 123.416Z" fill="#9D9D9D"/>
<path d="M653.314 123.416H601.294L627.214 78.4161L653.314 123.416Z" fill="#9D9D9D"/>
<path d="M602.205 123.416H550.185L576.105 78.4161L602.205 123.416Z" fill="#9D9D9D"/>
<path d="M551.097 123.416H499.077L524.997 78.4161L551.097 123.416Z" fill="#9D9D9D"/>
<path d="M499.989 123.416H447.969L473.889 78.4161L499.989 123.416Z" fill="#9D9D9D"/>
<path d="M448.884 123.416H396.864L422.784 78.4161L448.884 123.416Z" fill="#9D9D9D"/>
<path d="M397.776 123.416H345.756L371.676 78.4161L397.776 123.416Z" fill="#9D9D9D"/>
<path d="M346.668 123.416H294.648L320.568 78.4161L346.668 123.416Z" fill="#9D9D9D"/>
<path d="M295.56 123.416H243.54L269.46 78.4161L295.56 123.416Z" fill="#9D9D9D"/>
<path d="M244.451 123.416H192.431L218.351 78.4161L244.451 123.416Z" fill="#9D9D9D"/>
<path d="M193.344 123.416H141.324L167.244 78.4161L193.344 123.416Z" fill="#9D9D9D"/>
<path d="M142.235 123.416H90.2154L116.135 78.4161L142.235 123.416Z" fill="#9D9D9D"/>
<path d="M91.127 123.416H39.107L65.027 78.4161L91.127 123.416Z" fill="#9D9D9D"/>
<path d="M40.1211 123.17H0V102.5L14.0211 78.17L40.1211 123.17Z" fill="#9D9D9D"/>
</g>
</svg>
