<svg width="61" height="824" viewBox="0 0 61 824" fill="none" xmlns="http://www.w3.org/2000/svg">
<g opacity="0.7">
<path opacity="0.8" d="M-0.502898 631.91L-1.08475 579.893L44.2024 605.308L-0.502898 631.91Z" fill="#C5C5C5"/>
<path opacity="0.8" d="M-0.059648 683.332L-0.059648 631.312L44.9404 657.232L-0.059648 683.332Z" fill="#C5C5C5"/>
<path opacity="0.8" d="M0.221602 735.42L0.221602 683.4L45.2216 709.32L0.221602 735.42Z" fill="#C5C5C5"/>
<path opacity="0.8" d="M0.221602 787.42L0.221602 735.4L45.2216 761.32L0.221602 787.42Z" fill="#C5C5C5"/>
<path opacity="0.8" d="M23.9619 823.919L-0.99997 787.867L50.7524 783.561L23.9619 823.919Z" fill="#C5C5C5"/>
<path opacity="0.8" d="M-0.827226 579.669L-0.827226 527.649L44.1728 553.569L-0.827226 579.669Z" fill="#C5C5C5"/>
<path opacity="0.8" d="M0.0145708 527.669L0.0145708 475.649L45.0146 501.569L0.0145708 527.669Z" fill="#C5C5C5"/>
<path opacity="0.8" d="M-0.143632 475.668L-0.143632 423.648L44.8564 449.568L-0.143632 475.668Z" fill="#C5C5C5"/>
<path opacity="0.8" d="M-0.302812 423.669L-0.302812 371.649L44.6972 397.569L-0.302812 423.669Z" fill="#C5C5C5"/>
<path opacity="0.8" d="M-0.461015 371.669L-0.461015 319.649L44.539 345.569L-0.461015 371.669Z" fill="#C5C5C5"/>
<path opacity="0.8" d="M-0.619218 319.67L-0.619218 267.65L44.3808 293.57L-0.619218 319.67Z" fill="#C5C5C5"/>
<path opacity="0.8" d="M0.221602 267.669L0.221602 215.649L45.2216 241.569L0.221602 267.669Z" fill="#C5C5C5"/>
<path opacity="0.8" d="M0.0633989 215.67L0.0633989 163.65L45.0634 189.57L0.0633989 215.67Z" fill="#C5C5C5"/>
<path opacity="0.8" d="M-0.0948042 163.67L-0.0948042 111.65L44.9052 137.57L-0.0948042 163.67Z" fill="#C5C5C5"/>
<path opacity="0.8" d="M-0.253984 111.671L-0.253984 59.651L44.746 85.571L-0.253984 111.671Z" fill="#C5C5C5"/>
<path opacity="0.8" d="M-0.413164 59.67L-0.413164 7.65L44.5868 33.57L-0.413164 59.67Z" fill="#C5C5C5"/>
</g>
</svg>
