<svg width="57" height="933" viewBox="0 0 57 933" fill="none" xmlns="http://www.w3.org/2000/svg">
<g opacity="0.7">
<path opacity="0.8" d="M56.7685 197.966L57.3504 249.983L12.0633 224.568L56.7685 197.966Z" fill="#C5C5C5"/>
<path opacity="0.8" d="M56.3253 146.544L56.3253 198.564L11.3253 172.644L56.3253 146.544Z" fill="#C5C5C5"/>
<path opacity="0.8" d="M56.044 94.4559L56.044 146.476L11.044 120.556L56.044 94.4559Z" fill="#C5C5C5"/>
<path opacity="0.8" d="M56.044 42.4559L56.044 94.4759L11.044 68.5559L56.044 42.4559Z" fill="#C5C5C5"/>
<path opacity="0.8" d="M37.2236 0L56.0338 42.9285L7.69131 33.8637L37.2236 0Z" fill="#C5C5C5"/>
<path opacity="0.8" d="M57.0929 250.207L57.0929 302.227L12.0929 276.307L57.0929 250.207Z" fill="#C5C5C5"/>
<path opacity="0.8" d="M56.2511 302.207L56.2511 354.227L11.2511 328.307L56.2511 302.207Z" fill="#C5C5C5"/>
<path opacity="0.8" d="M56.4093 354.208L56.4093 406.228L11.4093 380.308L56.4093 354.208Z" fill="#C5C5C5"/>
<path opacity="0.8" d="M56.5684 406.207L56.5684 458.227L11.5684 432.307L56.5684 406.207Z" fill="#C5C5C5"/>
<path opacity="0.8" d="M56.7266 458.207L56.7266 510.227L11.7266 484.307L56.7266 458.207Z" fill="#C5C5C5"/>
<path opacity="0.8" d="M56.8848 510.206L56.8848 562.226L11.8848 536.306L56.8848 510.206Z" fill="#C5C5C5"/>
<path opacity="0.8" d="M56.044 562.207L56.044 614.227L11.044 588.307L56.044 562.207Z" fill="#C5C5C5"/>
<path opacity="0.8" d="M56.2022 614.206L56.2022 666.226L11.2022 640.306L56.2022 614.206Z" fill="#C5C5C5"/>
<path opacity="0.8" d="M56.3604 666.206L56.3604 718.226L11.3604 692.306L56.3604 666.206Z" fill="#C5C5C5"/>
<path opacity="0.8" d="M56.5196 718.205L56.5196 770.225L11.5196 744.305L56.5196 718.205Z" fill="#C5C5C5"/>
<path opacity="0.8" d="M56.6788 770.206L56.6788 822.226L11.6788 796.306L56.6788 770.206Z" fill="#C5C5C5"/>
<path opacity="0.8" d="M57.171 822.288L57.171 874.308L12.171 848.388L57.171 822.288Z" fill="#C5C5C5"/>
<path opacity="0.8" d="M57.605 874.145L57.605 923.275L15.105 898.795L57.605 874.145Z" fill="#C5C5C5"/>
</g>
</svg>
