<svg width="1423" height="95" viewBox="0 0 1423 95" fill="none" xmlns="http://www.w3.org/2000/svg">
<g opacity="0.7">
<path d="M1306.67 10.8301L1254.65 10.8301L1280.57 55.8301L1306.67 10.8301Z" fill="#9D9D9D"/>
<path d="M1358.67 10.8301L1306.65 10.8301L1332.57 55.8301L1358.67 10.8301Z" fill="#9D9D9D"/>
<path d="M1403.92 35.5398L1358.3 10.543L1359.41 62.4624L1403.92 35.5398Z" fill="#9D9D9D"/>
<path d="M1254.67 10.8301L1202.65 10.8301L1228.57 55.8301L1254.67 10.8301Z" fill="#9D9D9D"/>
<path d="M1202.67 10.8301L1150.65 10.8301L1176.57 55.8301L1202.67 10.8301Z" fill="#9D9D9D"/>
<path d="M1150.67 10.8301L1098.65 10.8301L1124.57 55.8301L1150.67 10.8301Z" fill="#9D9D9D"/>
<path d="M1098.67 10.8301L1046.65 10.8301L1072.57 55.8301L1098.67 10.8301Z" fill="#9D9D9D"/>
<path d="M1046.67 10.8301L994.65 10.8301L1020.57 55.8301L1046.67 10.8301Z" fill="#9D9D9D"/>
<path d="M994.67 10.8301L942.65 10.8301L968.57 55.8301L994.67 10.8301Z" fill="#9D9D9D"/>
<path d="M942.67 10.8301L890.65 10.8301L916.57 55.8301L942.67 10.8301Z" fill="#9D9D9D"/>
<path d="M891.67 10.8301L839.65 10.8301L865.57 55.8301L891.67 10.8301Z" fill="#9D9D9D"/>
<path d="M839.67 10.8301L787.65 10.8301L813.57 55.8301L839.67 10.8301Z" fill="#9D9D9D"/>
<path d="M787.67 10.8301L735.65 10.8301L761.57 55.8301L787.67 10.8301Z" fill="#9D9D9D"/>
<path d="M735.67 10.8301L683.65 10.8301L709.57 55.8301L735.67 10.8301Z" fill="#9D9D9D"/>
<path d="M683.67 10.8301L631.65 10.8301L657.57 55.8301L683.67 10.8301Z" fill="#9D9D9D"/>
<path d="M631.67 10.8301L579.65 10.8301L605.57 55.8301L631.67 10.8301Z" fill="#9D9D9D"/>
<path d="M579.67 10.8301L527.65 10.8301L553.57 55.8301L579.67 10.8301Z" fill="#9D9D9D"/>
<path d="M527.67 10.8301L475.65 10.8301L501.57 55.8301L527.67 10.8301Z" fill="#9D9D9D"/>
<path d="M475.67 10.8301L423.65 10.8301L449.57 55.8301L475.67 10.8301Z" fill="#9D9D9D"/>
<path d="M423.67 10.8301L371.65 10.8301L397.57 55.8301L423.67 10.8301Z" fill="#9D9D9D"/>
<path d="M371.67 10.8301L319.65 10.8301L345.57 55.8301L371.67 10.8301Z" fill="#9D9D9D"/>
<path d="M319.67 10.8301L267.65 10.8301L293.57 55.8301L319.67 10.8301Z" fill="#9D9D9D"/>
<path d="M267.67 10.8301L215.65 10.8301L241.57 55.8301L267.67 10.8301Z" fill="#9D9D9D"/>
<path d="M215.67 10.8301L163.65 10.8301L189.57 55.8301L215.67 10.8301Z" fill="#9D9D9D"/>
<path d="M163.67 10.8301L111.65 10.8301L137.57 55.8301L163.67 10.8301Z" fill="#9D9D9D"/>
<path d="M111.67 10.8301L59.65 10.8301L85.57 55.8301L111.67 10.8301Z" fill="#9D9D9D"/>
<path d="M59.67 10.8301L7.65 10.8301L33.57 55.8301L59.67 10.8301Z" fill="#9D9D9D"/>
</g>
</svg>
