<svg width="58" height="831" viewBox="0 0 58 831" fill="none" xmlns="http://www.w3.org/2000/svg">
<g opacity="0.7">
<path opacity="0.8" d="M57.3369 197.327L57.9187 249.343L12.6316 223.928L57.3369 197.327Z" fill="#C5C5C5"/>
<path opacity="0.8" d="M57.8936 145.905L57.8936 197.925L12.8936 172.005L57.8936 145.905Z" fill="#C5C5C5"/>
<path opacity="0.8" d="M57.6124 93.8162L57.6124 145.836L12.6124 119.916L57.6124 93.8162Z" fill="#C5C5C5"/>
<path opacity="0.8" d="M57.6124 41.8162L57.6124 93.8362L12.6124 67.9162L57.6124 41.8162Z" fill="#C5C5C5"/>
<path opacity="0.8" d="M36.542 0L57.1373 42.1012L8.45699 35.0734L36.542 0Z" fill="#C5C5C5"/>
<path opacity="0.8" d="M57.6612 249.568L57.6612 301.588L12.6612 275.668L57.6612 249.568Z" fill="#C5C5C5"/>
<path opacity="0.8" d="M57.8194 301.568L57.8194 353.588L12.8194 327.668L57.8194 301.568Z" fill="#C5C5C5"/>
<path opacity="0.8" d="M57.9776 353.569L57.9776 405.589L12.9776 379.669L57.9776 353.569Z" fill="#C5C5C5"/>
<path opacity="0.8" d="M58.1368 405.568L58.1368 457.588L13.1368 431.668L58.1368 405.568Z" fill="#C5C5C5"/>
<path opacity="0.8" d="M58.295 457.568L58.295 509.588L13.295 483.668L58.295 457.568Z" fill="#C5C5C5"/>
<path opacity="0.8" d="M58.4532 509.567L58.4532 561.587L13.4532 535.667L58.4532 509.567Z" fill="#C5C5C5"/>
<path opacity="0.8" d="M57.6124 561.567L57.6124 613.587L12.6124 587.667L57.6124 561.567Z" fill="#C5C5C5"/>
<path opacity="0.8" d="M57.7706 613.567L57.7706 665.587L12.7706 639.667L57.7706 613.567Z" fill="#C5C5C5"/>
<path opacity="0.8" d="M57.9288 665.567L57.9288 717.587L12.9288 691.667L57.9288 665.567Z" fill="#C5C5C5"/>
<path opacity="0.8" d="M58.088 717.566L58.088 769.586L13.088 743.666L58.088 717.566Z" fill="#C5C5C5"/>
<path opacity="0.8" d="M58.17 771.33L58.17 823.35L13.17 797.43L58.17 771.33Z" fill="#C5C5C5"/>
</g>
</svg>
