<svg width="1393" height="59" viewBox="0 0 1393 59" fill="none" xmlns="http://www.w3.org/2000/svg">
<g opacity="0.7">
<path d="M1310.52 7.83L1258.5 7.83L1284.42 52.83L1310.52 7.83Z" fill="#9D9D9D"/>
<path d="M1362.67 7.83L1310.65 7.83L1336.57 52.83L1362.67 7.83Z" fill="#9D9D9D"/>
<path d="M1258.37 7.83L1206.35 7.83L1232.27 52.83L1258.37 7.83Z" fill="#9D9D9D"/>
<path d="M1206.22 7.83L1154.2 7.83L1180.12 52.83L1206.22 7.83Z" fill="#9D9D9D"/>
<path d="M1154.07 7.83L1102.05 7.83L1127.97 52.83L1154.07 7.83Z" fill="#9D9D9D"/>
<path d="M1101.92 7.83L1049.9 7.83L1075.82 52.83L1101.92 7.83Z" fill="#9D9D9D"/>
<path d="M1049.77 7.83L997.752 7.83L1023.67 52.83L1049.77 7.83Z" fill="#9D9D9D"/>
<path d="M997.621 7.83L945.601 7.83L971.521 52.83L997.621 7.83Z" fill="#9D9D9D"/>
<path d="M945.472 7.83L893.452 7.83L919.372 52.83L945.472 7.83Z" fill="#9D9D9D"/>
<path d="M894.325 7.83L842.305 7.83L868.225 52.83L894.325 7.83Z" fill="#9D9D9D"/>
<path d="M842.176 7.83L790.156 7.83L816.076 52.83L842.176 7.83Z" fill="#9D9D9D"/>
<path d="M790.025 7.83L738.005 7.83L763.925 52.83L790.025 7.83Z" fill="#9D9D9D"/>
<path d="M737.876 7.83L685.856 7.83L711.776 52.83L737.876 7.83Z" fill="#9D9D9D"/>
<path d="M685.726 7.83L633.706 7.83L659.626 52.83L685.726 7.83Z" fill="#9D9D9D"/>
<path d="M633.576 7.83L581.556 7.83L607.476 52.83L633.576 7.83Z" fill="#9D9D9D"/>
<path d="M581.427 7.83L529.407 7.83L555.327 52.83L581.427 7.83Z" fill="#9D9D9D"/>
<path d="M529.276 7.83L477.256 7.83L503.176 52.83L529.276 7.83Z" fill="#9D9D9D"/>
<path d="M477.127 7.83L425.107 7.83L451.027 52.83L477.127 7.83Z" fill="#9D9D9D"/>
<path d="M424.977 7.83L372.957 7.83L398.877 52.83L424.977 7.83Z" fill="#9D9D9D"/>
<path d="M372.827 7.83L320.807 7.83L346.727 52.83L372.827 7.83Z" fill="#9D9D9D"/>
<path d="M320.678 7.83L268.658 7.83L294.578 52.83L320.678 7.83Z" fill="#9D9D9D"/>
<path d="M268.527 7.83L216.507 7.83L242.427 52.83L268.527 7.83Z" fill="#9D9D9D"/>
<path d="M216.378 7.83L164.358 7.83L190.278 52.83L216.378 7.83Z" fill="#9D9D9D"/>
<path d="M164.229 7.83L112.209 7.83L138.129 52.83L164.229 7.83Z" fill="#9D9D9D"/>
<path d="M112.078 7.83L60.0582 7.83L85.9782 52.83L112.078 7.83Z" fill="#9D9D9D"/>
<path d="M59.9288 7.83L7.90879 7.83L33.8288 52.83L59.9288 7.83Z" fill="#9D9D9D"/>
</g>
</svg>
