<svg width="900" height="1250" viewBox="0 0 900 1250" fill="none" xmlns="http://www.w3.org/2000/svg">
<g clip-path="url(#clip0_497_43)">
<path d="M0 0L0 1250H900L900 0H0Z" fill="black"/>
<path d="M140.959 156.73H109.459V132.7H98.6592V193H109.459V167.17H140.959V193H151.669V132.7H140.959V156.73ZM182.778 147.01C169.008 147.01 159.558 157.45 159.558 170.68C159.558 183.37 168.108 194.26 182.778 194.26C193.308 194.26 202.038 188.68 204.918 178.96H194.208C192.408 182.56 187.998 184.81 182.958 184.72C175.938 184.54 171.078 179.95 170.268 174.19H205.638C206.988 158.8 197.628 147.01 182.778 147.01ZM182.598 156.55C188.898 156.55 193.578 160.15 194.928 165.73H170.448C171.708 160.24 176.388 156.55 182.598 156.55ZM257.416 184.09L243.016 148.27H231.586L252.286 198.13C251.206 200.02 249.586 200.83 247.066 200.83H235.546V211H247.156C254.626 211 259.216 207.31 261.826 200.11L280.546 148.27H269.926L257.416 184.09ZM326.563 148.27H288.313C288.223 157 288.223 171.22 287.953 175.54C287.413 183.1 283.724 183.1 280.934 183.1H279.853V203.71H289.843V193H324.223V203.71H334.214V183.1H326.563V148.27ZM296.413 183.1C297.133 180.94 297.673 178.15 297.853 174.64C298.033 170.59 298.124 164.11 298.214 158.26H316.214V183.1H296.413ZM374.895 154.48H374.445C371.475 150.16 366.165 147.1 359.235 147.01C346.365 146.92 337.185 156.82 337.185 170.68C337.185 184.72 346.635 194.44 359.235 194.26C366.255 194.26 371.475 191.02 374.445 186.52H374.895V193H385.155V148.27H374.895V154.48ZM361.305 184.36C353.115 184.36 347.625 178.33 347.625 170.59C347.625 162.85 353.115 156.82 361.305 156.82C369.405 156.82 374.805 162.94 374.805 170.59C374.805 178.15 369.405 184.36 361.305 184.36ZM422.055 147.01C415.305 147.1 409.905 150.16 406.845 154.48H406.395V148.27H396.135V211H406.395V186.52H406.845C409.815 191.02 415.215 194.26 422.055 194.26C434.655 194.44 444.105 184.72 444.105 170.68C444.105 156.82 434.925 146.92 422.055 147.01ZM419.985 184.36C411.885 184.36 406.485 178.15 406.485 170.59C406.485 162.94 411.885 156.82 419.985 156.82C428.175 156.82 433.665 162.85 433.665 170.59C433.665 178.33 428.175 184.36 419.985 184.36ZM477.501 162.22H462.471V148.27H452.121V193H477.501C486.861 193 493.072 185.8 493.072 177.52C493.072 169.42 486.861 162.22 477.501 162.22ZM477.141 183.37H462.471V171.67H477.141C480.471 171.67 482.811 174.37 482.811 177.43C482.811 180.67 480.471 183.37 477.141 183.37ZM566.435 164.92C564.455 154.57 555.635 147.01 543.665 147.01C529.355 147.01 520.086 157.36 520.086 170.59C520.086 183.82 529.355 194.26 543.665 194.26C555.635 194.26 564.455 186.61 566.435 176.26H555.545C554.015 181.03 549.425 184.36 543.755 184.36C535.565 184.36 530.435 178.15 530.435 170.68C530.435 163.12 535.565 157 543.755 157C549.605 157 554.015 160.42 555.545 164.92H566.435ZM594.985 147.01C581.215 147.01 571.766 157.45 571.766 170.68C571.766 183.37 580.315 194.26 594.985 194.26C605.515 194.26 614.245 188.68 617.125 178.96H606.415C604.615 182.56 600.205 184.81 595.165 184.72C588.145 184.54 583.285 179.95 582.475 174.19H617.845C619.195 158.8 609.835 147.01 594.985 147.01ZM594.805 156.55C601.105 156.55 605.785 160.15 607.135 165.73H582.656C583.916 160.24 588.595 156.55 594.805 156.55ZM651.164 149.89C644.864 149.89 638.835 152.32 635.055 157.18H634.694V151.78C634.694 143.95 639.824 138.73 647.654 138.73H667.815V128.2H648.194C634.244 128.2 624.884 138.01 624.884 151.96V171.31C624.884 184.27 634.424 194.17 648.734 194.17C663.134 194.17 672.495 184.27 672.495 171.49C672.495 159.07 663.494 149.89 651.164 149.89ZM648.824 184.27C640.814 184.27 635.324 178.96 635.324 171.76C635.324 164.74 640.724 159.34 648.824 159.34C656.834 159.34 662.055 164.92 662.055 171.67C662.055 178.6 656.834 184.27 648.824 184.27ZM721.312 148.27H695.212C684.952 148.27 679.732 154.93 679.732 161.86C679.732 166 681.442 169.6 685.042 171.67V172.12C681.352 173.2 679.552 176.08 679.552 180.85V193H689.902V181.93C689.902 179.32 691.522 177.79 694.402 177.79H710.962V193H721.312V148.27ZM695.932 168.7C692.332 168.7 689.992 166.27 689.992 163.39C689.992 160.69 691.883 157.99 695.573 157.99H710.962V168.7H695.932Z" fill="#A5A5A5"/>
<path d="M339.624 256.27H297.504V301H307.854V266.26H329.274V301H339.624V256.27ZM371.658 302.26C385.968 302.26 395.508 291.82 395.508 278.59C395.508 265.36 386.058 255.01 371.658 255.01C356.988 255.01 347.448 265.36 347.448 278.59C347.448 291.82 357.078 302.26 371.658 302.26ZM371.658 292.36C363.378 292.36 357.888 286.24 357.888 278.68C357.888 271.03 363.288 265 371.658 265C379.758 265 385.158 271.03 385.158 278.68C385.158 286.15 379.758 292.36 371.658 292.36ZM467.944 256.27H425.824V301H436.174V266.26H457.594V301H467.944V256.27ZM513.569 262.48H513.119C510.149 258.16 504.839 255.1 497.909 255.01C485.039 254.92 475.859 264.82 475.859 278.68C475.859 292.72 485.309 302.44 497.909 302.26C504.929 302.26 510.149 299.02 513.119 294.52H513.569V301H523.829V256.27H513.569V262.48ZM499.979 292.36C491.789 292.36 486.299 286.33 486.299 278.59C486.299 270.85 491.789 264.82 499.979 264.82C508.079 264.82 513.479 270.94 513.479 278.59C513.479 286.15 508.079 292.36 499.979 292.36ZM578.011 256.27H539.401C539.401 265 539.401 279.13 539.041 283.36C538.501 291.01 534.901 291.01 532.111 291.01H531.121V301.27H533.011C538.771 301.27 548.131 301.27 549.031 283.63C549.211 279.49 549.391 272.47 549.391 266.26H567.661V301H578.011V256.27ZM614.417 270.22H599.387V256.27H589.037V301H614.417C623.777 301 629.987 293.8 629.987 285.52C629.987 277.42 623.777 270.22 614.417 270.22ZM614.057 291.37H599.387V279.67H614.057C617.387 279.67 619.727 282.37 619.727 285.43C619.727 288.67 617.387 291.37 614.057 291.37ZM679.057 291.01V256.27H668.707V291.01H647.287V256.27H636.937V301H676.627V311.71H686.617V291.01H679.057ZM727.406 262.48H726.956C723.986 258.16 718.676 255.1 711.746 255.01C698.876 254.92 689.696 264.82 689.696 278.68C689.696 292.72 699.146 302.44 711.746 302.26C718.766 302.26 723.986 299.02 726.956 294.52H727.406V301H737.666V256.27H727.406V262.48ZM713.816 292.36C705.626 292.36 700.136 286.33 700.136 278.59C700.136 270.85 705.626 264.82 713.816 264.82C721.916 264.82 727.316 270.94 727.316 278.59C727.316 286.15 721.916 292.36 713.816 292.36ZM803.816 256.27H788.066L776.366 285.97L764.666 256.27H748.646V301H758.996V267.7L772.406 301H780.146L793.466 267.88V301H803.816V256.27ZM816.214 280.93H825.844L826.474 240.7H815.494L816.214 280.93ZM815.044 288.85V301H826.744V288.85H815.044Z" fill="#A5A5A5"/>
<path d="M887.294 1254.94L915.352 1256.86L913.97 1228.77L884.568 631.225L913.972 12.1861L915.33 -16.4058L886.815 -13.9044L449.557 24.4548L17.2093 -13.9022L-11.3322 -16.4343L-9.97181 12.1869L18.9414 620.508L-9.97167 1227.36L-11.3027 1255.29L16.6081 1253.49L453.915 1225.31L887.294 1254.94Z" stroke="#630101" stroke-width="50"/>
<path d="M307.688 379.759H417.043C419.027 379.759 420.984 379.29 422.752 378.39C425.243 377.124 427.258 375.031 428.451 372.504C428.949 371.449 429.307 370.316 429.5 369.166L429.938 366.572C430.318 364.315 430.215 362.003 429.634 359.789C428.527 355.565 425.756 351.969 421.954 349.821L416.142 346.537C408.397 342.891 399.943 341 391.383 341H386.088L379.75 341.826C372.671 342.749 365.707 344.413 358.975 346.791L310.206 364.012C307.689 364.901 305.409 366.352 303.537 368.255L300.882 370.955C300.207 371.641 299.749 372.51 299.563 373.455C299.011 376.261 300.96 378.944 303.799 379.288L307.688 379.759Z" fill="#630101"/>
<path d="M303.948 731.55H465.018L544.195 1017.62L430.247 1019.74C427.523 1019.79 425.288 1017.6 425.288 1014.87C425.288 1013.78 425.655 1012.72 426.33 1011.86L427.312 1010.62C427.704 1010.12 428.145 1009.66 428.63 1009.25L429.314 1008.67C430.973 1007.26 432.868 1006.16 434.911 1005.42L440.968 1003.22C445.084 1002.06 447.185 997.494 445.392 993.612L373.731 838.499L314.221 1019.83H212.362C209.195 1019.83 207.022 1016.64 208.181 1013.7C208.314 1013.36 208.486 1013.04 208.695 1012.74L210.004 1010.9C211.524 1008.75 213.399 1006.88 215.548 1005.36L218.579 1003.22C219.613 1002.49 220.763 1001.94 221.981 1001.6C225.709 1000.54 228.624 997.629 229.679 993.901L303.948 731.55Z" fill="#630101"/>
<path d="M173.726 456.662L204.284 448.829L204.995 457.958L207.708 469.939L178.163 478.255L173.726 456.662Z" fill="#630101" stroke="#630101"/>
<path d="M272.969 432.104L253.92 436.848L252.209 444.836L249.927 453.964L247.645 461.951L281.44 452.825L302.618 469.401L323.796 448.681L302.618 394.808L268.733 403.096L272.969 432.104Z" fill="#630101" stroke="#630101"/>
<path d="M260.278 539.841L243.407 555.824L240.684 559.804L241.913 477.389C241.93 476.239 242.195 475.107 242.69 474.069L246.298 466.491C247.193 464.611 247.883 462.64 248.356 460.613L251.638 446.547L253.285 434.2C253.685 431.195 252.663 428.174 250.518 426.03C249.391 424.902 247.942 424.151 246.371 423.88L232.24 421.444L215.165 420.893C214.759 420.88 214.351 420.901 213.948 420.954C209.232 421.583 205.492 425.24 204.758 429.94L204.035 434.566C203.444 438.347 203.435 442.197 204.009 445.981L205.996 459.099L208.278 474.503L190.307 554.054L181.827 587.112C180.827 591.011 180.242 595.005 180.084 599.028L179.752 607.436L182.46 618.083C183.151 620.8 184.128 623.435 185.374 625.946L187.52 630.267C189.343 633.939 192.138 637.041 195.601 639.235L195.881 639.412C198.193 640.877 200.773 641.87 203.471 642.334C205.871 642.746 208.325 642.734 210.721 642.296L211.458 642.161C213.386 641.809 215.267 641.231 217.06 640.438L294.133 606.396L302.653 631.2L306.494 640.519C309.584 648.014 311.173 656.041 311.173 664.147V699.29H399.075V695.401C399.075 693.815 399.246 692.233 399.583 690.683L399.811 689.639C400.659 685.746 402.718 682.222 405.692 679.572C407.567 677.901 409.757 676.621 412.133 675.807L415.717 674.58C418.531 673.617 421.448 672.991 424.409 672.714L433.066 671.905L445.168 671.07C448.094 670.869 450.94 670.026 453.504 668.601L454.746 667.911L451.76 639.468L462.613 621.285L473.506 636.765L484.413 652.507L456.232 672.514C453.31 674.588 449.861 675.793 446.284 675.992L432.415 676.76C429.05 676.946 425.704 677.385 422.405 678.072L415.376 679.536C414.242 679.773 413.144 680.158 412.111 680.681C408.421 682.55 405.824 686.044 405.097 690.116L404.684 692.431C404.213 695.068 404.341 697.778 405.058 700.359L405.971 703.646C406.537 705.682 407.297 707.659 408.242 709.549L411.969 717.002C412.718 718.5 413.661 719.893 414.774 721.145C416.611 723.211 419.243 724.394 422.008 724.394H423.886C425.415 724.394 426.916 723.991 428.24 723.228L441.053 715.836L458.716 702.588C459.11 702.293 459.545 702.058 460.007 701.889L526.557 677.686C530.167 676.374 533.408 674.211 536.005 671.382C538.468 668.699 540.168 665.406 540.93 661.845L541.023 661.411C541.687 658.304 541.528 655.077 540.562 652.05L535.682 636.765L511.175 589.439L490.048 553.301C489.308 552.036 488.47 550.831 487.543 549.696C478.273 538.36 464.864 531.189 450.289 529.775L445.48 529.308C435.591 528.349 425.613 529.614 416.277 533.011L409.465 535.49C400.806 538.641 391.664 540.253 382.45 540.253H380.449C368.502 540.253 356.712 537.543 345.964 532.328L336.735 527.851L324.35 523.044C318.457 520.756 312.19 519.583 305.869 519.583C298.145 519.583 290.522 521.334 283.574 524.706L278.849 526.998C272.038 530.303 265.774 534.634 260.278 539.841Z" fill="#630101" stroke="#630101"/>
<path d="M412.844 1019.82H187.713V858.398H208.952V833.564H238.686L245.304 825.504C252.091 817.237 256.497 807.276 258.049 796.693C259.227 788.654 256.39 780.451 250.571 774.78C242.865 767.271 233.172 761.856 222.717 759.309L204.704 754.921L166.475 750.782V730.086H519.037L514.368 735.547C503.595 748.143 489.134 757.032 473.03 760.955C466.91 762.446 460.633 763.199 454.334 763.199H408.596L374.614 783.895L344.88 804.59V833.564H387.357V862.538H412.844V1019.82Z" fill="#440101"/>
<path d="M209.151 439.062L212.016 458.879C213.168 466.845 220.226 472.604 228.262 472.134C235.222 471.727 241.053 466.724 242.514 459.908L245.974 443.758L247.207 438.749C247.476 437.658 247.52 436.524 247.337 435.415C246.852 432.468 244.821 430.01 242.019 428.977L240.615 428.459C239.718 428.128 238.782 427.918 237.83 427.832L220.562 426.275C218.117 426.054 215.665 426.62 213.564 427.889L212.568 428.491C211.267 429.276 210.229 430.43 209.583 431.805C209.015 433.017 208.772 434.355 208.879 435.689L209.151 439.062Z" fill="white" stroke="white" stroke-width="2"/>
<path d="M113 1020.66H655" stroke="#630101" stroke-width="7"/>
<path d="M336.504 489.499L348.998 448.616L416.357 469.258L395.329 538.15C378.882 542.152 361.56 540.58 346.232 533.739L350.462 515.389C347.68 514.583 345.133 513.145 343.022 511.188L342.425 510.634C341.378 509.663 340.43 508.593 339.594 507.438L338.693 506.193C337.992 505.223 337.42 504.167 336.991 503.05L336.957 502.961C336.123 500.786 335.664 498.483 335.601 496.147C335.54 493.902 335.845 491.657 336.504 489.499Z" fill="white" stroke="#630101" stroke-width="4"/>
<path d="M431.755 460.735L429.866 464.444C429.335 465.488 428.601 466.42 427.708 467.185C425.419 469.146 422.3 469.837 419.419 469.02L341.681 446.979C339.762 446.435 338.483 444.654 338.584 442.668C338.657 441.252 339.427 439.953 340.643 439.194L343.783 437.236C344.6 436.726 345.478 436.32 346.396 436.028L358.929 432.041C363.748 430.507 368.67 429.324 373.655 428.501L380.551 427.363C387.956 426.14 395.476 425.855 402.93 426.513L408.286 426.985C410.264 427.16 412.219 427.52 414.124 428.06L415.838 428.546C420.164 429.772 424.061 432.139 427.119 435.397C429.408 437.835 431.17 440.714 432.301 443.86L432.769 445.162C433.682 447.702 434.057 450.408 433.87 453.112C433.686 455.762 432.967 458.354 431.755 460.735Z" fill="#630101" stroke="#630101" stroke-width="2"/>
<path d="M447.134 341H290.804V384.1H447.134V341Z" fill="black"/>
<path d="M506.401 924.515L458.3 761.23" stroke="#630101" stroke-width="7"/>
<path d="M508.978 730.562H402.468L441.281 762.001L448.953 762.887L453.576 763.301H460.447L463.668 762.887L466.889 762.472L474.62 760.815L488.218 753.145L508.978 730.562Z" fill="#440101"/>
<path d="M429.807 716.314L444.684 706.652C450.665 702.768 452.678 694.952 449.317 688.662C446.406 683.215 440.217 680.381 434.191 681.737L419.915 684.949L415.428 685.816C414.45 686.005 413.522 686.39 412.698 686.949C410.507 688.433 409.283 690.98 409.493 693.618L409.597 694.939C409.664 695.783 409.842 696.614 410.126 697.412L415.285 711.881C416.015 713.93 417.38 715.692 419.181 716.911L420.035 717.489C421.15 718.244 422.463 718.651 423.809 718.66C424.995 718.667 426.161 718.366 427.194 717.784L429.807 716.314Z" fill="white" stroke="white" stroke-width="2"/>
<path d="M887 1017H13V1045H887V1017Z" fill="#630101"/>
<path d="M278.714 700.017L265 728.017H417L402.714 700.017H278.714Z" stroke="white" stroke-width="2"/>
<path d="M51.6323 1105.22V1087.56H49.1683V1109H51.6323L64.8483 1091.34V1109H67.3123V1087.56H64.8483L51.6323 1105.22ZM87.3846 1098.86C86.6166 1095.37 83.4806 1092.81 79.4486 1092.81C74.5206 1092.81 71.1286 1096.46 71.1286 1101.1C71.1286 1105.74 74.5206 1109.42 79.4486 1109.42C83.4806 1109.42 86.6166 1106.79 87.3846 1103.27H84.8886C84.1846 1105.51 82.1046 1107.11 79.4486 1107.11C75.9286 1107.11 73.5286 1104.42 73.5286 1101.1C73.5286 1097.77 75.9286 1095.11 79.4486 1095.11C82.1686 1095.11 84.1846 1096.74 84.8886 1098.86H87.3846ZM105.523 1093.22H91.0908V1109H93.4908V1095.53H103.123V1109H105.523V1093.22ZM117.764 1109.42C122.724 1109.42 126.116 1105.67 126.116 1101.1C126.116 1096.49 122.724 1092.81 117.764 1092.81C112.708 1092.81 109.284 1096.49 109.284 1101.1C109.284 1105.67 112.708 1109.42 117.764 1109.42ZM117.764 1107.11C114.116 1107.11 111.716 1104.39 111.716 1101.1C111.716 1097.8 114.116 1095.11 117.764 1095.11C121.316 1095.11 123.716 1097.8 123.716 1101.1C123.716 1104.36 121.316 1107.11 117.764 1107.11ZM144.406 1093.22H131.318C131.286 1096.58 131.318 1102.28 131.19 1103.62C130.966 1106.66 129.366 1106.66 128.374 1106.66H128.054V1109.1H128.47C130.102 1109.1 133.238 1109.06 133.526 1103.66C133.654 1101.58 133.654 1098.06 133.654 1095.53H142.006V1109H144.406V1093.22ZM151.928 1098.7V1093.22H149.528V1109H158.36C161.24 1109 163.544 1106.7 163.544 1103.82C163.544 1101 161.272 1098.73 158.36 1098.7H151.928ZM151.928 1106.7V1101.03H158.36C159.896 1101.03 161.144 1102.28 161.144 1103.82C161.144 1105.42 159.896 1106.66 158.36 1106.7H151.928ZM177.395 1100.81C178.803 1100.23 179.539 1098.82 179.539 1097.38C179.539 1095.18 177.843 1093.22 174.963 1093.22H165.907V1095.53H174.867C176.275 1095.53 177.139 1096.55 177.139 1097.7C177.139 1098.89 176.211 1099.91 174.739 1099.91H168.243V1102.18H174.963C176.499 1102.18 177.459 1103.18 177.459 1104.42C177.459 1105.61 176.531 1106.7 175.091 1106.7H165.907V1109H175.187C178.131 1109 179.891 1106.86 179.891 1104.55C179.891 1102.95 178.995 1101.48 177.395 1100.9V1100.81ZM190.281 1107.4L184.361 1093.22H181.705L189.033 1110.54L188.777 1111.21C188.265 1112.46 187.593 1113 186.185 1113H182.569V1115.4H186.185C188.649 1115.4 190.057 1114.25 190.953 1111.91L198.153 1093.22H195.721L190.281 1107.4ZM210.657 1090.5C212.097 1090.5 213.121 1089.45 213.121 1088.01V1085.96H211.041V1087.69C211.041 1088.23 210.625 1088.65 210.081 1088.65H206.785C206.241 1088.65 205.825 1088.23 205.825 1087.69V1085.96H203.745V1088.01C203.745 1089.45 204.769 1090.5 206.209 1090.5H210.657ZM203.553 1105.61V1093.22H201.153V1109H203.553L213.313 1096.58V1109H215.713V1093.22H213.313L203.553 1105.61ZM231.397 1105.61V1093.22H228.997V1109H231.397L241.157 1096.58V1109H243.557V1093.22H241.157L231.397 1105.61ZM260.813 1099.69H251.053V1093.22H248.653V1109H251.053V1101.99H260.813V1109H263.213V1093.22H260.813V1099.69ZM283.291 1098.86C282.523 1095.37 279.387 1092.81 275.355 1092.81C270.427 1092.81 267.035 1096.46 267.035 1101.1C267.035 1105.74 270.427 1109.42 275.355 1109.42C279.387 1109.42 282.523 1106.79 283.291 1103.27H280.795C280.091 1105.51 278.011 1107.11 275.355 1107.11C271.835 1107.11 269.435 1104.42 269.435 1101.1C269.435 1097.77 271.835 1095.11 275.355 1095.11C278.075 1095.11 280.091 1096.74 280.795 1098.86H283.291ZM298.663 1093.22H284.583V1095.53H290.407V1109H292.807V1095.53H298.663V1093.22ZM310.512 1092.81C307.76 1092.84 305.584 1094.15 304.336 1096.04H304.272V1093.22H301.872V1115.4H304.272V1106.06H304.336C305.584 1108.01 307.76 1109.38 310.512 1109.42C315.184 1109.45 318.576 1105.9 318.576 1101.1C318.576 1096.3 315.216 1092.78 310.512 1092.81ZM310.192 1107.11C306.64 1107.11 304.272 1104.36 304.272 1101.1C304.272 1097.8 306.64 1095.11 310.192 1095.11C313.808 1095.11 316.176 1097.8 316.176 1101.1C316.176 1104.39 313.808 1107.11 310.192 1107.11ZM328.843 1107.4L322.923 1093.22H320.267L327.595 1110.54L327.339 1111.21C326.827 1112.46 326.155 1113 324.747 1113H321.131V1115.4H324.747C327.211 1115.4 328.619 1114.25 329.515 1111.91L336.715 1093.22H334.283L328.843 1107.4ZM358.276 1093.22H354.596L348.996 1105.61L343.428 1093.22H339.716V1109H342.116V1095.75L348.132 1109H349.892L355.876 1095.82V1109H358.276V1093.22ZM370.257 1092.81C365.425 1092.81 362.097 1096.55 362.097 1101.13C362.097 1105.64 365.297 1109.42 370.289 1109.42C373.969 1109.42 376.945 1107.37 378.001 1104.1H375.505C374.705 1105.93 372.753 1107.11 370.385 1107.11C367.153 1107.11 364.817 1104.84 364.625 1101.96H378.289C378.577 1096.71 375.249 1092.81 370.257 1092.81ZM370.193 1095.11C373.169 1095.11 375.313 1097.06 375.729 1099.82H364.689C365.041 1097.13 367.217 1095.11 370.193 1095.11ZM394.313 1099.69H384.553V1093.22H382.153V1109H384.553V1101.99H394.313V1109H396.713V1093.22H394.313V1099.69ZM414.069 1093.22H399.989V1095.53H405.813V1109H408.213V1095.53H414.069V1093.22ZM419.678 1098.7V1093.22H417.278V1109H425.438C428.286 1109 430.59 1106.7 430.59 1103.82C430.59 1101 428.318 1098.73 425.438 1098.7H419.678ZM432.958 1109H435.358V1093.22H432.958V1109ZM419.678 1106.7V1101.03H425.438C426.942 1101.03 428.19 1102.28 428.19 1103.82C428.19 1105.42 426.974 1106.66 425.438 1106.7H419.678ZM461.902 1096.04H461.806C460.622 1094.15 458.446 1092.84 455.662 1092.81C450.926 1092.78 447.566 1096.3 447.566 1101.1C447.566 1105.9 450.99 1109.45 455.63 1109.42C458.478 1109.38 460.59 1108.01 461.806 1106.06H461.902V1109H464.27V1093.22H461.902V1096.04ZM455.982 1107.11C452.334 1107.11 449.966 1104.39 449.966 1101.1C449.966 1097.8 452.334 1095.11 455.982 1095.11C459.534 1095.11 461.902 1097.8 461.902 1101.1C461.902 1104.36 459.534 1107.11 455.982 1107.11ZM479.419 1099.69L483.643 1093.22H480.987L476.699 1099.69H471.803V1093.22H469.403V1109H471.803V1101.96H479.291C480.411 1101.96 481.051 1102.57 481.051 1103.69V1109H483.451V1103.37C483.451 1100.97 482.107 1099.69 479.707 1099.69H479.419ZM498.107 1099.69L502.331 1093.22H499.675L495.387 1099.69H490.491V1093.22H488.091V1109H490.491V1101.96H497.979C499.099 1101.96 499.739 1102.57 499.739 1103.69V1109H502.139V1103.37C502.139 1100.97 500.795 1099.69 498.395 1099.69H498.107ZM513.312 1107.4L507.392 1093.22H504.736L512.064 1110.54L511.808 1111.21C511.296 1112.46 510.624 1113 509.216 1113H505.6V1115.4H509.216C511.68 1115.4 513.088 1114.25 513.984 1111.91L521.184 1093.22H518.752L513.312 1107.4ZM532.824 1092.81C530.072 1092.84 527.896 1094.15 526.648 1096.04H526.584V1093.22H524.184V1115.4H526.584V1106.06H526.648C527.896 1108.01 530.072 1109.38 532.824 1109.42C537.496 1109.45 540.888 1105.9 540.888 1101.1C540.888 1096.3 537.528 1092.78 532.824 1092.81ZM532.504 1107.11C528.952 1107.11 526.584 1104.36 526.584 1101.1C526.584 1097.8 528.952 1095.11 532.504 1095.11C536.12 1095.11 538.488 1097.8 538.488 1101.1C538.488 1104.39 536.12 1107.11 532.504 1107.11ZM556.444 1093.22H542.364V1095.53H548.188V1109H550.588V1095.53H556.444V1093.22ZM572.183 1096.04H572.087C570.903 1094.15 568.727 1092.84 565.943 1092.81C561.207 1092.78 557.847 1096.3 557.847 1101.1C557.847 1105.9 561.271 1109.45 565.911 1109.42C568.759 1109.38 570.871 1108.01 572.087 1106.06H572.183V1109H574.551V1093.22H572.183V1096.04ZM566.263 1107.11C562.615 1107.11 560.247 1104.39 560.247 1101.1C560.247 1097.8 562.615 1095.11 566.263 1095.11C569.815 1095.11 572.183 1097.8 572.183 1101.1C572.183 1104.36 569.815 1107.11 566.263 1107.11ZM591.844 1099.69H582.084V1093.22H579.684V1109H582.084V1101.99H591.844V1109H594.244V1093.22H591.844V1099.69ZM606.514 1109.42C611.474 1109.42 614.866 1105.67 614.866 1101.1C614.866 1096.49 611.474 1092.81 606.514 1092.81C601.458 1092.81 598.034 1096.49 598.034 1101.1C598.034 1105.67 601.458 1109.42 606.514 1109.42ZM606.514 1107.11C602.866 1107.11 600.466 1104.39 600.466 1101.1C600.466 1097.8 602.866 1095.11 606.514 1095.11C610.066 1095.11 612.466 1097.8 612.466 1101.1C612.466 1104.36 610.066 1107.11 606.514 1107.11ZM619.393 1105.16L617.025 1113.19H619.361L622.241 1105.16H619.393ZM649.679 1093.22H635.247V1109H637.647V1095.53H647.279V1109H649.679V1093.22ZM663.418 1092.81C660.666 1092.84 658.49 1094.15 657.242 1096.04H657.178V1093.22H654.778V1115.4H657.178V1106.06H657.242C658.49 1108.01 660.666 1109.38 663.418 1109.42C668.09 1109.45 671.482 1105.9 671.482 1101.1C671.482 1096.3 668.122 1092.78 663.418 1092.81ZM663.098 1107.11C659.546 1107.11 657.178 1104.36 657.178 1101.1C657.178 1097.8 659.546 1095.11 663.098 1095.11C666.714 1095.11 669.082 1097.8 669.082 1101.1C669.082 1104.39 666.714 1107.11 663.098 1107.11ZM682.92 1109.42C687.88 1109.42 691.272 1105.67 691.272 1101.1C691.272 1096.49 687.88 1092.81 682.92 1092.81C677.864 1092.81 674.44 1096.49 674.44 1101.1C674.44 1105.67 677.864 1109.42 682.92 1109.42ZM682.92 1107.11C679.272 1107.11 676.872 1104.39 676.872 1101.1C676.872 1097.8 679.272 1095.11 682.92 1095.11C686.472 1095.11 688.872 1097.8 688.872 1101.1C688.872 1104.36 686.472 1107.11 682.92 1107.11ZM705.903 1100.87H698.543C697.423 1100.87 696.751 1100.23 696.751 1099.14V1093.22H694.351V1099.46C694.351 1101.86 695.727 1103.14 698.159 1103.14H705.903V1109H708.303V1093.22H705.903V1100.87ZM715.803 1105.61V1093.22H713.403V1109H715.803L725.563 1096.58V1109H727.963V1093.22H725.563L715.803 1105.61ZM745.288 1093.22H731.208V1095.53H737.032V1109H739.432V1095.53H745.288V1093.22ZM761.027 1096.04H760.931C759.747 1094.15 757.571 1092.84 754.787 1092.81C750.051 1092.78 746.691 1096.3 746.691 1101.1C746.691 1105.9 750.115 1109.45 754.755 1109.42C757.603 1109.38 759.715 1108.01 760.931 1106.06H761.027V1109H763.395V1093.22H761.027V1096.04ZM755.107 1107.11C751.459 1107.11 749.091 1104.39 749.091 1101.1C749.091 1097.8 751.459 1095.11 755.107 1095.11C758.659 1095.11 761.027 1097.8 761.027 1101.1C761.027 1104.36 758.659 1107.11 755.107 1107.11ZM778.032 1090.5C779.472 1090.5 780.496 1089.45 780.496 1088.01V1085.96H778.416V1087.69C778.416 1088.23 778 1088.65 777.456 1088.65H774.16C773.616 1088.65 773.2 1088.23 773.2 1087.69V1085.96H771.12V1088.01C771.12 1089.45 772.144 1090.5 773.584 1090.5H778.032ZM770.928 1105.61V1093.22H768.528V1109H770.928L780.688 1096.58V1109H783.088V1093.22H780.688L770.928 1105.61ZM60.9443 1130.22H46.8643V1132.53H52.6883V1146H55.0883V1132.53H60.9443V1130.22ZM70.5073 1129.81C65.6753 1129.81 62.3473 1133.55 62.3473 1138.13C62.3473 1142.64 65.5473 1146.42 70.5393 1146.42C74.2193 1146.42 77.1953 1144.37 78.2513 1141.1H75.7553C74.9553 1142.93 73.0033 1144.11 70.6353 1144.11C67.4033 1144.11 65.0673 1141.84 64.8753 1138.96H78.5393C78.8273 1133.71 75.4993 1129.81 70.5073 1129.81ZM70.4433 1132.11C73.4193 1132.11 75.5633 1134.06 75.9793 1136.82H64.9393C65.2913 1134.13 67.4673 1132.11 70.4433 1132.11ZM89.2678 1137.94L95.4758 1130.22H92.5318L87.8598 1136.21L83.1878 1130.22H80.0518L86.2918 1138.06L79.9558 1146H83.0278L87.7318 1139.89L92.5318 1146H95.6998L89.2678 1137.94ZM111.094 1136.69H101.334V1130.22H98.9346V1146H101.334V1138.99H111.094V1146H113.494V1130.22H111.094V1136.69ZM121.022 1142.61V1130.22H118.622V1146H121.022L130.782 1133.58V1146H133.182V1130.22H130.782L121.022 1142.61ZM148.294 1136.69L152.518 1130.22H149.862L145.574 1136.69H140.678V1130.22H138.278V1146H140.678V1138.96H148.166C149.286 1138.96 149.926 1139.57 149.926 1140.69V1146H152.326V1140.37C152.326 1137.97 150.982 1136.69 148.582 1136.69H148.294ZM163.5 1144.4L157.58 1130.22H154.924L162.252 1147.54L161.996 1148.21C161.484 1149.46 160.812 1150 159.404 1150H155.788V1152.4H159.404C161.868 1152.4 163.276 1151.25 164.172 1148.91L171.372 1130.22H168.94L163.5 1144.4ZM191.191 1130.7C188.567 1130.7 186.135 1131.82 184.695 1134H184.599V1131.5C184.599 1127.66 186.839 1125.39 190.679 1125.39H197.367V1122.96H190.935C185.591 1122.96 182.391 1126.35 182.391 1131.7V1138.45C182.391 1142.9 185.815 1146.38 190.743 1146.38C195.703 1146.38 199.031 1142.86 199.031 1138.48C199.031 1134.13 195.767 1130.7 191.191 1130.7ZM190.775 1144.11C187.223 1144.11 184.823 1141.62 184.823 1138.51C184.823 1135.44 187.223 1132.94 190.775 1132.94C194.295 1132.94 196.631 1135.47 196.631 1138.48C196.631 1141.55 194.295 1144.11 190.775 1144.11ZM210.07 1129.81C205.238 1129.81 201.91 1133.55 201.91 1138.13C201.91 1142.64 205.11 1146.42 210.102 1146.42C213.782 1146.42 216.758 1144.37 217.814 1141.1H215.318C214.518 1142.93 212.566 1144.11 210.198 1144.11C206.966 1144.11 204.63 1141.84 204.438 1138.96H218.102C218.39 1133.71 215.062 1129.81 210.07 1129.81ZM210.006 1132.11C212.982 1132.11 215.126 1134.06 215.542 1136.82H204.502C204.854 1134.13 207.03 1132.11 210.006 1132.11ZM232.363 1137.81C233.771 1137.23 234.507 1135.82 234.507 1134.38C234.507 1132.18 232.811 1130.22 229.931 1130.22H220.875V1132.53H229.835C231.243 1132.53 232.107 1133.55 232.107 1134.7C232.107 1135.89 231.179 1136.91 229.707 1136.91H223.211V1139.18H229.931C231.467 1139.18 232.427 1140.18 232.427 1141.42C232.427 1142.61 231.499 1143.7 230.059 1143.7H220.875V1146H230.155C233.099 1146 234.859 1143.86 234.859 1141.55C234.859 1139.95 233.963 1138.48 232.363 1137.9V1137.81ZM246.326 1146.42C251.286 1146.42 254.678 1142.67 254.678 1138.1C254.678 1133.49 251.286 1129.81 246.326 1129.81C241.27 1129.81 237.846 1133.49 237.846 1138.1C237.846 1142.67 241.27 1146.42 246.326 1146.42ZM246.326 1144.11C242.678 1144.11 240.278 1141.39 240.278 1138.1C240.278 1134.8 242.678 1132.11 246.326 1132.11C249.878 1132.11 252.278 1134.8 252.278 1138.1C252.278 1141.36 249.878 1144.11 246.326 1144.11ZM272.929 1130.22H258.497V1146H260.897V1132.53H270.529V1146H272.929V1130.22ZM291.058 1133.04H290.962C289.778 1131.15 287.602 1129.84 284.818 1129.81C280.082 1129.78 276.722 1133.3 276.722 1138.1C276.722 1142.9 280.146 1146.45 284.786 1146.42C287.634 1146.38 289.746 1145.01 290.962 1143.06H291.058V1146H293.426V1130.22H291.058V1133.04ZM285.138 1144.11C281.49 1144.11 279.122 1141.39 279.122 1138.1C279.122 1134.8 281.49 1132.11 285.138 1132.11C288.69 1132.11 291.058 1134.8 291.058 1138.1C291.058 1141.36 288.69 1144.11 285.138 1144.11ZM313.509 1135.86C312.741 1132.37 309.605 1129.81 305.573 1129.81C300.645 1129.81 297.253 1133.46 297.253 1138.1C297.253 1142.74 300.645 1146.42 305.573 1146.42C309.605 1146.42 312.741 1143.79 313.509 1140.27H311.013C310.309 1142.51 308.229 1144.11 305.573 1144.11C302.053 1144.11 299.653 1141.42 299.653 1138.1C299.653 1134.77 302.053 1132.11 305.573 1132.11C308.293 1132.11 310.309 1133.74 311.013 1135.86H313.509ZM329.376 1136.69H319.616V1130.22H317.216V1146H319.616V1138.99H329.376V1146H331.776V1130.22H329.376V1136.69ZM344.045 1146.42C349.005 1146.42 352.397 1142.67 352.397 1138.1C352.397 1133.49 349.005 1129.81 344.045 1129.81C338.989 1129.81 335.565 1133.49 335.565 1138.1C335.565 1142.67 338.989 1146.42 344.045 1146.42ZM344.045 1144.11C340.397 1144.11 337.997 1141.39 337.997 1138.1C337.997 1134.8 340.397 1132.11 344.045 1132.11C347.597 1132.11 349.997 1134.8 349.997 1138.1C349.997 1141.36 347.597 1144.11 344.045 1144.11ZM371.572 1135.86C370.804 1132.37 367.668 1129.81 363.636 1129.81C358.708 1129.81 355.316 1133.46 355.316 1138.1C355.316 1142.74 358.708 1146.42 363.636 1146.42C367.668 1146.42 370.804 1143.79 371.572 1140.27H369.076C368.372 1142.51 366.292 1144.11 363.636 1144.11C360.116 1144.11 357.716 1141.42 357.716 1138.1C357.716 1134.77 360.116 1132.11 363.636 1132.11C366.356 1132.11 368.372 1133.74 369.076 1135.86H371.572ZM386.944 1130.22H372.864V1132.53H378.688V1146H381.088V1132.53H386.944V1130.22ZM392.553 1142.61V1130.22H390.153V1146H392.553L402.313 1133.58V1146H404.713V1130.22H402.313L392.553 1142.61ZM410.737 1142.16L408.369 1150.19H410.705L413.585 1142.16H410.737ZM438.751 1136.69H428.991V1130.22H426.591V1146H428.991V1138.99H438.751V1146H441.151V1130.22H438.751V1136.69ZM453.132 1129.81C448.3 1129.81 444.972 1133.55 444.972 1138.13C444.972 1142.64 448.172 1146.42 453.164 1146.42C456.844 1146.42 459.82 1144.37 460.876 1141.1H458.38C457.58 1142.93 455.628 1144.11 453.26 1144.11C450.028 1144.11 447.692 1141.84 447.5 1138.96H461.164C461.452 1133.71 458.124 1129.81 453.132 1129.81ZM453.068 1132.11C456.044 1132.11 458.188 1134.06 458.604 1136.82H447.564C447.916 1134.13 450.092 1132.11 453.068 1132.11ZM480.795 1146.42C485.755 1146.42 489.147 1142.67 489.147 1138.1C489.147 1133.49 485.755 1129.81 480.795 1129.81C475.739 1129.81 472.315 1133.49 472.315 1138.1C472.315 1142.67 475.739 1146.42 480.795 1146.42ZM480.795 1144.11C477.147 1144.11 474.747 1141.39 474.747 1138.1C474.747 1134.8 477.147 1132.11 480.795 1132.11C484.347 1132.11 486.747 1134.8 486.747 1138.1C486.747 1141.36 484.347 1144.11 480.795 1144.11ZM504.632 1130.22H490.552V1132.53H496.376V1146H498.776V1132.53H504.632V1130.22ZM519.553 1137.71C520.897 1136.98 521.505 1135.7 521.505 1134.35C521.505 1132.14 519.841 1130.22 516.929 1130.22H507.841V1146H517.473C520.385 1146 522.177 1143.89 522.177 1141.58C522.177 1139.95 521.312 1138.45 519.553 1137.81V1137.71ZM516.865 1132.53C518.241 1132.53 519.105 1133.52 519.105 1134.67C519.105 1135.86 518.209 1136.88 516.737 1136.88H510.241V1132.53H516.865ZM510.241 1143.7V1139.18H517.249C518.785 1139.18 519.745 1140.18 519.745 1141.42C519.745 1142.61 518.817 1143.7 517.377 1143.7H510.241ZM540.968 1130.22H527.88C527.848 1133.58 527.88 1139.28 527.752 1140.62C527.528 1143.66 525.928 1143.66 524.936 1143.66H524.616V1146.1H525.032C526.664 1146.1 529.8 1146.06 530.088 1140.66C530.216 1138.58 530.216 1135.06 530.216 1132.53H538.568V1146H540.968V1130.22ZM552.945 1129.81C548.113 1129.81 544.785 1133.55 544.785 1138.13C544.785 1142.64 547.985 1146.42 552.977 1146.42C556.657 1146.42 559.633 1144.37 560.689 1141.1H558.193C557.393 1142.93 555.441 1144.11 553.073 1144.11C549.841 1144.11 547.505 1141.84 547.312 1138.96H560.977C561.265 1133.71 557.937 1129.81 552.945 1129.81ZM552.881 1132.11C555.857 1132.11 558.001 1134.06 558.417 1136.82H547.377C547.729 1134.13 549.905 1132.11 552.881 1132.11ZM574.857 1136.69L579.081 1130.22H576.425L572.137 1136.69H567.241V1130.22H564.841V1146H567.241V1138.96H574.729C575.849 1138.96 576.489 1139.57 576.489 1140.69V1146H578.889V1140.37C578.889 1137.97 577.545 1136.69 575.145 1136.69H574.857ZM596.621 1133.04H596.525C595.341 1131.15 593.165 1129.84 590.381 1129.81C585.645 1129.78 582.285 1133.3 582.285 1138.1C582.285 1142.9 585.709 1146.45 590.349 1146.42C593.197 1146.38 595.309 1145.01 596.525 1143.06H596.621V1146H598.989V1130.22H596.621V1133.04ZM590.701 1144.11C587.053 1144.11 584.685 1141.39 584.685 1138.1C584.685 1134.8 587.053 1132.11 590.701 1132.11C594.253 1132.11 596.621 1134.8 596.621 1138.1C596.621 1141.36 594.253 1144.11 590.701 1144.11ZM613.626 1127.5C615.066 1127.5 616.09 1126.45 616.09 1125.01V1122.96H614.01V1124.69C614.01 1125.23 613.594 1125.65 613.05 1125.65H609.754C609.21 1125.65 608.794 1125.23 608.794 1124.69V1122.96H606.714V1125.01C606.714 1126.45 607.738 1127.5 609.178 1127.5H613.626ZM606.522 1142.61V1130.22H604.122V1146H606.522L616.282 1133.58V1146H618.682V1130.22H616.282L606.522 1142.61ZM638.728 1135.86C637.96 1132.37 634.824 1129.81 630.792 1129.81C625.864 1129.81 622.472 1133.46 622.472 1138.1C622.472 1142.74 625.864 1146.42 630.792 1146.42C634.824 1146.42 637.96 1143.79 638.728 1140.27H636.232C635.528 1142.51 633.448 1144.11 630.792 1144.11C627.272 1144.11 624.872 1141.42 624.872 1138.1C624.872 1134.77 627.272 1132.11 630.792 1132.11C633.512 1132.11 635.528 1133.74 636.232 1135.86H638.728ZM656.353 1130.22H647.297C644.065 1130.22 642.145 1132.4 642.145 1134.86C642.145 1136.43 642.881 1137.71 644.097 1138.38V1138.48C642.817 1138.86 642.177 1139.95 642.177 1141.49V1146H644.577V1141.81C644.577 1140.78 645.249 1140.14 646.337 1140.14H653.953V1146H656.353V1130.22ZM647.393 1137.84C645.761 1137.84 644.545 1136.66 644.545 1135.18C644.545 1133.78 645.601 1132.53 647.297 1132.53H653.953V1137.84H647.393ZM677.014 1146.42C681.974 1146.42 685.366 1142.67 685.366 1138.1C685.366 1133.49 681.974 1129.81 677.014 1129.81C671.958 1129.81 668.534 1133.49 668.534 1138.1C668.534 1142.67 671.958 1146.42 677.014 1146.42ZM677.014 1144.11C673.366 1144.11 670.966 1141.39 670.966 1138.1C670.966 1134.8 673.366 1132.11 677.014 1132.11C680.566 1132.11 682.966 1134.8 682.966 1138.1C682.966 1141.36 680.566 1144.11 677.014 1144.11ZM700.85 1130.22H686.77V1132.53H692.594V1146H694.994V1132.53H700.85V1130.22ZM721.074 1129.81C718.322 1129.84 716.146 1131.15 714.898 1133.04H714.834V1130.22H712.434V1152.4H714.834V1143.06H714.898C716.146 1145.01 718.322 1146.38 721.074 1146.42C725.746 1146.45 729.138 1142.9 729.138 1138.1C729.138 1133.3 725.778 1129.78 721.074 1129.81ZM720.754 1144.11C717.202 1144.11 714.834 1141.36 714.834 1138.1C714.834 1134.8 717.202 1132.11 720.754 1132.11C724.37 1132.11 726.738 1134.8 726.738 1138.1C726.738 1141.39 724.37 1144.11 720.754 1144.11ZM746.464 1133.04H746.368C745.184 1131.15 743.008 1129.84 740.224 1129.81C735.488 1129.78 732.128 1133.3 732.128 1138.1C732.128 1142.9 735.552 1146.45 740.192 1146.42C743.04 1146.38 745.152 1145.01 746.368 1143.06H746.464V1146H748.832V1130.22H746.464V1133.04ZM740.544 1144.11C736.896 1144.11 734.528 1141.39 734.528 1138.1C734.528 1134.8 736.896 1132.11 740.544 1132.11C744.096 1132.11 746.464 1134.8 746.464 1138.1C746.464 1141.36 744.096 1144.11 740.544 1144.11ZM762.16 1130.7C759.536 1130.7 757.104 1131.82 755.664 1134H755.568V1131.5C755.568 1127.66 757.808 1125.39 761.648 1125.39H768.336V1122.96H761.904C756.56 1122.96 753.36 1126.35 753.36 1131.7V1138.45C753.36 1142.9 756.784 1146.38 761.712 1146.38C766.672 1146.38 770 1142.86 770 1138.48C770 1134.13 766.736 1130.7 762.16 1130.7ZM761.744 1144.11C758.192 1144.11 755.792 1141.62 755.792 1138.51C755.792 1135.44 758.192 1132.94 761.744 1132.94C765.264 1132.94 767.6 1135.47 767.6 1138.48C767.6 1141.55 765.264 1144.11 761.744 1144.11ZM781.326 1146.42C786.286 1146.42 789.678 1142.67 789.678 1138.1C789.678 1133.49 786.286 1129.81 781.326 1129.81C776.27 1129.81 772.846 1133.49 772.846 1138.1C772.846 1142.67 776.27 1146.42 781.326 1146.42ZM781.326 1144.11C777.678 1144.11 775.278 1141.39 775.278 1138.1C775.278 1134.8 777.678 1132.11 781.326 1132.11C784.878 1132.11 787.278 1134.8 787.278 1138.1C787.278 1141.36 784.878 1144.11 781.326 1144.11ZM805.163 1130.22H791.083V1132.53H796.907V1146H799.307V1132.53H805.163V1130.22ZM810.772 1135.7V1130.22H808.372V1146H816.532C819.38 1146 821.684 1143.7 821.684 1140.82C821.684 1138 819.412 1135.73 816.532 1135.7H810.772ZM824.052 1146H826.452V1130.22H824.052V1146ZM810.772 1143.7V1138.03H816.532C818.036 1138.03 819.284 1139.28 819.284 1140.82C819.284 1142.42 818.068 1143.66 816.532 1143.7H810.772ZM832.456 1142.16L830.088 1150.19H832.424L835.304 1142.16H832.456ZM59.1843 1174.87H51.8243C50.7043 1174.87 50.0323 1174.23 50.0323 1173.14V1167.22H47.6323V1173.46C47.6323 1175.86 49.0083 1177.14 51.4403 1177.14H59.1843V1183H61.5843V1167.22H59.1843V1174.87ZM78.9131 1167.22H64.8331V1169.53H70.6571V1183H73.0571V1169.53H78.9131V1167.22ZM88.7641 1183.42C93.7241 1183.42 97.1161 1179.67 97.1161 1175.1C97.1161 1170.49 93.7241 1166.81 88.7641 1166.81C83.7081 1166.81 80.2841 1170.49 80.2841 1175.1C80.2841 1179.67 83.7081 1183.42 88.7641 1183.42ZM88.7641 1181.11C85.1161 1181.11 82.7161 1178.39 82.7161 1175.1C82.7161 1171.8 85.1161 1169.11 88.7641 1169.11C92.3161 1169.11 94.7161 1171.8 94.7161 1175.1C94.7161 1178.36 92.3161 1181.11 88.7641 1181.11ZM109.379 1167.7C106.755 1167.7 104.323 1168.82 102.883 1171H102.786V1168.5C102.786 1164.66 105.027 1162.39 108.867 1162.39H115.555V1159.96H109.123C103.779 1159.96 100.579 1163.35 100.579 1168.7V1175.45C100.579 1179.9 104.003 1183.38 108.931 1183.38C113.891 1183.38 117.219 1179.86 117.219 1175.48C117.219 1171.13 113.955 1167.7 109.379 1167.7ZM108.963 1181.11C105.411 1181.11 103.011 1178.62 103.011 1175.51C103.011 1172.44 105.411 1169.94 108.963 1169.94C112.483 1169.94 114.819 1172.47 114.819 1175.48C114.819 1178.55 112.483 1181.11 108.963 1181.11ZM123.366 1172.7V1167.22H120.966V1183H129.126C131.974 1183 134.278 1180.7 134.278 1177.82C134.278 1175 132.006 1172.73 129.126 1172.7H123.366ZM136.646 1183H139.046V1167.22H136.646V1183ZM123.366 1180.7V1175.03H129.126C130.63 1175.03 131.878 1176.28 131.878 1177.82C131.878 1179.42 130.662 1180.66 129.126 1180.7H123.366ZM164.469 1173.69H154.709V1167.22H152.309V1183H154.709V1175.99H164.469V1183H166.869V1167.22H164.469V1173.69ZM178.851 1166.81C174.019 1166.81 170.691 1170.55 170.691 1175.13C170.691 1179.64 173.891 1183.42 178.883 1183.42C182.563 1183.42 185.539 1181.37 186.595 1178.1H184.099C183.299 1179.93 181.347 1181.11 178.979 1181.11C175.747 1181.11 173.411 1178.84 173.219 1175.96H186.883C187.171 1170.71 183.843 1166.81 178.851 1166.81ZM178.787 1169.11C181.763 1169.11 183.907 1171.06 184.323 1173.82H173.283C173.635 1171.13 175.811 1169.11 178.787 1169.11ZM211.538 1167.22H197.458V1169.53H203.282V1183H205.682V1169.53H211.538V1167.22ZM223.387 1166.81C220.635 1166.84 218.459 1168.15 217.211 1170.04H217.147V1167.22H214.747V1189.4H217.147V1180.06H217.211C218.459 1182.01 220.635 1183.38 223.387 1183.42C228.059 1183.45 231.451 1179.9 231.451 1175.1C231.451 1170.3 228.091 1166.78 223.387 1166.81ZM223.067 1181.11C219.515 1181.11 217.147 1178.36 217.147 1175.1C217.147 1171.8 219.515 1169.11 223.067 1169.11C226.683 1169.11 229.051 1171.8 229.051 1175.1C229.051 1178.39 226.683 1181.11 223.067 1181.11ZM248.777 1170.04H248.681C247.497 1168.15 245.321 1166.84 242.537 1166.81C237.801 1166.78 234.441 1170.3 234.441 1175.1C234.441 1179.9 237.865 1183.45 242.505 1183.42C245.353 1183.38 247.465 1182.01 248.681 1180.06H248.777V1183H251.145V1167.22H248.777V1170.04ZM242.857 1181.11C239.209 1181.11 236.841 1178.39 236.841 1175.1C236.841 1171.8 239.209 1169.11 242.857 1169.11C246.409 1169.11 248.777 1171.8 248.777 1175.1C248.777 1178.36 246.409 1181.11 242.857 1181.11ZM267.99 1174.71C269.334 1173.98 269.942 1172.7 269.942 1171.35C269.942 1169.14 268.278 1167.22 265.366 1167.22H256.278V1183H265.91C268.822 1183 270.614 1180.89 270.614 1178.58C270.614 1176.95 269.75 1175.45 267.99 1174.81V1174.71ZM265.302 1169.53C266.678 1169.53 267.542 1170.52 267.542 1171.67C267.542 1172.86 266.646 1173.88 265.174 1173.88H258.678V1169.53H265.302ZM258.678 1180.7V1176.18H265.686C267.222 1176.18 268.182 1177.18 268.182 1178.42C268.182 1179.61 267.254 1180.7 265.814 1180.7H258.678ZM293.026 1167.22H289.346L283.746 1179.61L278.178 1167.22H274.466V1183H276.866V1169.75L282.882 1183H284.642L290.626 1169.82V1183H293.026V1167.22ZM300.553 1179.61V1167.22H298.153V1183H300.553L310.313 1170.58V1183H312.713V1167.22H310.313L300.553 1179.61ZM326.449 1166.81C323.697 1166.84 321.521 1168.15 320.273 1170.04H320.209V1167.22H317.809V1189.4H320.209V1180.06H320.273C321.521 1182.01 323.697 1183.38 326.449 1183.42C331.121 1183.45 334.513 1179.9 334.513 1175.1C334.513 1170.3 331.153 1166.78 326.449 1166.81ZM326.129 1181.11C322.577 1181.11 320.209 1178.36 320.209 1175.1C320.209 1171.8 322.577 1169.11 326.129 1169.11C329.745 1169.11 332.113 1171.8 332.113 1175.1C332.113 1178.39 329.745 1181.11 326.129 1181.11ZM345.951 1183.42C350.911 1183.42 354.303 1179.67 354.303 1175.1C354.303 1170.49 350.911 1166.81 345.951 1166.81C340.895 1166.81 337.471 1170.49 337.471 1175.1C337.471 1179.67 340.895 1183.42 345.951 1183.42ZM345.951 1181.11C342.303 1181.11 339.903 1178.39 339.903 1175.1C339.903 1171.8 342.303 1169.11 345.951 1169.11C349.503 1169.11 351.903 1171.8 351.903 1175.1C351.903 1178.36 349.503 1181.11 345.951 1181.11ZM369.834 1174.71C371.178 1173.98 371.786 1172.7 371.786 1171.35C371.786 1169.14 370.122 1167.22 367.21 1167.22H358.122V1183H367.754C370.666 1183 372.458 1180.89 372.458 1178.58C372.458 1176.95 371.594 1175.45 369.834 1174.81V1174.71ZM367.146 1169.53C368.522 1169.53 369.386 1170.52 369.386 1171.67C369.386 1172.86 368.49 1173.88 367.018 1173.88H360.522V1169.53H367.146ZM360.522 1180.7V1176.18H367.53C369.066 1176.18 370.026 1177.18 370.026 1178.42C370.026 1179.61 369.098 1180.7 367.658 1180.7H360.522ZM389.683 1170.04H389.587C388.403 1168.15 386.227 1166.84 383.443 1166.81C378.707 1166.78 375.347 1170.3 375.347 1175.1C375.347 1179.9 378.771 1183.45 383.411 1183.42C386.259 1183.38 388.371 1182.01 389.587 1180.06H389.683V1183H392.051V1167.22H389.683V1170.04ZM383.763 1181.11C380.115 1181.11 377.747 1178.39 377.747 1175.1C377.747 1171.8 380.115 1169.11 383.763 1169.11C387.315 1169.11 389.683 1171.8 389.683 1175.1C389.683 1178.36 387.315 1181.11 383.763 1181.11ZM409.413 1167.22H395.333V1169.53H401.157V1183H403.557V1169.53H409.413V1167.22ZM415.022 1172.7V1167.22H412.622V1183H421.454C424.334 1183 426.638 1180.7 426.638 1177.82C426.638 1175 424.366 1172.73 421.454 1172.7H415.022ZM415.022 1180.7V1175.03H421.454C422.99 1175.03 424.238 1176.28 424.238 1177.82C424.238 1179.42 422.99 1180.66 421.454 1180.7H415.022ZM453.759 1172.86C452.991 1169.37 449.855 1166.81 445.823 1166.81C440.895 1166.81 437.503 1170.46 437.503 1175.1C437.503 1179.74 440.895 1183.42 445.823 1183.42C449.855 1183.42 452.991 1180.79 453.759 1177.27H451.263C450.559 1179.51 448.479 1181.11 445.823 1181.11C442.303 1181.11 439.903 1178.42 439.903 1175.1C439.903 1171.77 442.303 1169.11 445.823 1169.11C448.543 1169.11 450.559 1170.74 451.263 1172.86H453.759ZM464.726 1166.81C459.894 1166.81 456.566 1170.55 456.566 1175.13C456.566 1179.64 459.766 1183.42 464.758 1183.42C468.438 1183.42 471.414 1181.37 472.47 1178.1H469.974C469.174 1179.93 467.222 1181.11 464.854 1181.11C461.622 1181.11 459.286 1178.84 459.094 1175.96H472.758C473.046 1170.71 469.718 1166.81 464.726 1166.81ZM464.662 1169.11C467.638 1169.11 469.782 1171.06 470.198 1173.82H459.158C459.51 1171.13 461.686 1169.11 464.662 1169.11ZM485.066 1167.7C482.442 1167.7 480.01 1168.82 478.57 1171H478.474V1168.5C478.474 1164.66 480.714 1162.39 484.554 1162.39H491.242V1159.96H484.81C479.466 1159.96 476.266 1163.35 476.266 1168.7V1175.45C476.266 1179.9 479.69 1183.38 484.618 1183.38C489.578 1183.38 492.906 1179.86 492.906 1175.48C492.906 1171.13 489.642 1167.7 485.066 1167.7ZM484.65 1181.11C481.098 1181.11 478.698 1178.62 478.698 1175.51C478.698 1172.44 481.098 1169.94 484.65 1169.94C488.17 1169.94 490.506 1172.47 490.506 1175.48C490.506 1178.55 488.17 1181.11 484.65 1181.11ZM510.697 1167.22H501.641C498.409 1167.22 496.489 1169.4 496.489 1171.86C496.489 1173.43 497.225 1174.71 498.441 1175.38V1175.48C497.161 1175.86 496.521 1176.95 496.521 1178.49V1183H498.921V1178.81C498.921 1177.78 499.593 1177.14 500.681 1177.14H508.297V1183H510.697V1167.22ZM501.737 1174.84C500.105 1174.84 498.889 1173.66 498.889 1172.18C498.889 1170.78 499.945 1169.53 501.641 1169.53H508.297V1174.84H501.737ZM515.928 1176.28H518.232L518.392 1161.56H515.8L515.928 1176.28ZM515.576 1179.8V1183H518.616V1179.8H515.576ZM551.392 1175.19C550.464 1178.49 547.52 1181.02 543.52 1181.02C538.528 1181.02 535.04 1177.05 535.04 1172.28C535.04 1167.58 538.528 1163.54 543.52 1163.54C547.328 1163.54 550.336 1165.94 551.36 1169.21H553.952C552.768 1164.54 548.767 1161.14 543.488 1161.14C536.96 1161.14 532.576 1166.23 532.576 1172.28C532.576 1178.36 536.96 1183.38 543.488 1183.38C548.832 1183.38 552.864 1179.96 553.984 1175.19H551.392ZM572.375 1167.22H559.286C559.255 1170.58 559.286 1176.28 559.159 1177.62C558.935 1180.66 557.335 1180.66 556.343 1180.66H556.023V1183.1H556.439C558.071 1183.1 561.207 1183.06 561.495 1177.66C561.623 1175.58 561.623 1172.06 561.623 1169.53H569.975V1183H572.375V1167.22ZM584.351 1166.81C579.519 1166.81 576.191 1170.55 576.191 1175.13C576.191 1179.64 579.391 1183.42 584.383 1183.42C588.063 1183.42 591.039 1181.37 592.095 1178.1H589.599C588.799 1179.93 586.847 1181.11 584.479 1181.11C581.247 1181.11 578.911 1178.84 578.719 1175.96H592.383C592.671 1170.71 589.343 1166.81 584.351 1166.81ZM584.287 1169.11C587.263 1169.11 589.407 1171.06 589.823 1173.82H578.783C579.135 1171.13 581.311 1169.11 584.287 1169.11ZM610.334 1167.22H597.342C597.342 1170.58 597.342 1176.28 597.246 1177.62C596.99 1180.7 595.422 1180.7 594.398 1180.7H594.27V1187.19H596.638V1183H610.686V1187.19H613.054V1180.7H610.334V1167.22ZM598.782 1180.7C599.198 1179.93 599.486 1178.87 599.55 1177.4C599.646 1175.35 599.678 1171.99 599.678 1169.53H607.934V1180.7H598.782ZM618.741 1179.61V1167.22H616.341V1183H618.741L628.501 1170.58V1183H630.901V1167.22H628.501L618.741 1179.61ZM654.488 1174.81C655.896 1174.23 656.632 1172.82 656.632 1171.38C656.632 1169.18 654.936 1167.22 652.056 1167.22H643V1169.53H651.96C653.368 1169.53 654.232 1170.55 654.232 1171.7C654.232 1172.89 653.304 1173.91 651.832 1173.91H645.336V1176.18H652.056C653.592 1176.18 654.552 1177.18 654.552 1178.42C654.552 1179.61 653.624 1180.7 652.184 1180.7H643V1183H652.28C655.224 1183 656.984 1180.86 656.984 1178.55C656.984 1176.95 656.088 1175.48 654.488 1174.9V1174.81ZM674.339 1170.04H674.243C673.059 1168.15 670.883 1166.84 668.099 1166.81C663.363 1166.78 660.003 1170.3 660.003 1175.1C660.003 1179.9 663.427 1183.45 668.067 1183.42C670.915 1183.38 673.027 1182.01 674.243 1180.06H674.339V1183H676.707V1167.22H674.339V1170.04ZM668.419 1181.11C664.771 1181.11 662.403 1178.39 662.403 1175.1C662.403 1171.8 664.771 1169.11 668.419 1169.11C671.971 1169.11 674.339 1171.8 674.339 1175.1C674.339 1178.36 671.971 1181.11 668.419 1181.11ZM708.588 1167.22H704.908L699.308 1179.61L693.74 1167.22H690.028V1183H692.428V1169.75L698.444 1183H700.204L706.188 1169.82V1183H708.588V1167.22ZM720.858 1183.42C725.818 1183.42 729.21 1179.67 729.21 1175.1C729.21 1170.49 725.818 1166.81 720.858 1166.81C715.802 1166.81 712.378 1170.49 712.378 1175.1C712.378 1179.67 715.802 1183.42 720.858 1183.42ZM720.858 1181.11C717.21 1181.11 714.81 1178.39 714.81 1175.1C714.81 1171.8 717.21 1169.11 720.858 1169.11C724.41 1169.11 726.81 1171.8 726.81 1175.1C726.81 1178.36 724.41 1181.11 720.858 1181.11ZM747.5 1167.22H734.411C734.38 1170.58 734.411 1176.28 734.284 1177.62C734.06 1180.66 732.46 1180.66 731.468 1180.66H731.148V1183.1H731.564C733.196 1183.1 736.332 1183.06 736.62 1177.66C736.748 1175.58 736.748 1172.06 736.748 1169.53H745.1V1183H747.5V1167.22ZM759.764 1183.42C764.724 1183.42 768.116 1179.67 768.116 1175.1C768.116 1170.49 764.724 1166.81 759.764 1166.81C754.708 1166.81 751.284 1170.49 751.284 1175.1C751.284 1179.67 754.708 1183.42 759.764 1183.42ZM759.764 1181.11C756.116 1181.11 753.716 1178.39 753.716 1175.1C753.716 1171.8 756.116 1169.11 759.764 1169.11C763.316 1169.11 765.716 1171.8 765.716 1175.1C765.716 1178.36 763.316 1181.11 759.764 1181.11ZM783.6 1167.22H769.52V1169.53H775.344V1183H777.744V1169.53H783.6V1167.22ZM796.825 1173.69L801.049 1167.22H798.393L794.105 1173.69H789.209V1167.22H786.809V1183H789.209V1175.96H796.697C797.817 1175.96 798.457 1176.57 798.457 1177.69V1183H800.857V1177.37C800.857 1174.97 799.513 1173.69 797.113 1173.69H796.825ZM812.701 1183.42C817.661 1183.42 821.053 1179.67 821.053 1175.1C821.053 1170.49 817.661 1166.81 812.701 1166.81C807.645 1166.81 804.221 1170.49 804.221 1175.1C804.221 1179.67 807.645 1183.42 812.701 1183.42ZM812.701 1181.11C809.053 1181.11 806.653 1178.39 806.653 1175.1C806.653 1171.8 809.053 1169.11 812.701 1169.11C816.253 1169.11 818.653 1171.8 818.653 1175.1C818.653 1178.36 816.253 1181.11 812.701 1181.11ZM843.432 1167.22H839.752L834.152 1179.61L828.584 1167.22H824.872V1183H827.272V1169.75L833.288 1183H835.048L841.032 1169.82V1183H843.432V1167.22ZM848.709 1176.28H851.013L851.173 1161.56H848.581L848.709 1176.28ZM848.357 1179.8V1183H851.397V1179.8H848.357Z" fill="#A5A5A5"/>
</g>
<defs>
<clipPath id="clip0_497_43">
<rect width="900" height="1250" fill="white"/>
</clipPath>
</defs>
</svg>
