<svg width="900" height="1250" viewBox="0 0 900 1250" fill="none" xmlns="http://www.w3.org/2000/svg">
<g clip-path="url(#clip0_497_66)">
<path d="M0 0L0 1250H900L900 0H0Z" fill="black"/>
<path d="M-3.52909 230.043L14.8124 614.005L-3.52699 983.156L-3.54104 983.438L-3.55024 983.722L-8.63666 1140.31L-17.7719 1239.44L-21.2812 1277.52L16.9038 1275.42L258.724 1262.1L259.623 1262.05L259.632 1262.05L454.897 1251.38L692.489 1262.06L692.508 1262.06L693.249 1262.09L887.591 1271.03L923.719 1272.69L922.073 1236.56L910.543 983.506L910.543 983.49L910.537 983.372L910.53 983.211L910.521 983.051L890.148 611.433L909.502 230.133L909.52 229.774L909.531 229.415L915.708 16.1662L916.752 -19.8942L880.742 -17.7299L667.294 -4.90116L667.238 -4.89777L667.181 -4.8942L667.085 -4.8881L667.032 -4.88469L666.978 -4.88112L472.868 8.08548C465.684 8.56538 458.474 8.50767 451.299 7.91291C451.299 7.9129 451.299 7.9129 451.299 7.91289L247.986 -8.94129L247.752 -8.96071L247.517 -8.97678L18.3683 -24.6903L-19.0971 -27.2594L-16.8291 10.2254L-3.52909 230.043Z" stroke="#630101" stroke-width="66"/>
<path d="M551.193 686.569L577.049 542.208L607.736 524.095C612.184 521.47 615.709 517.532 617.829 512.822L630.151 485.44C630.811 483.972 629.88 482.28 628.286 482.052C626.923 481.857 625.997 480.565 626.25 479.211L627.041 474.994C627.696 471.498 631.03 469.17 634.539 469.759L656.756 473.493C660.199 474.072 662.541 477.307 662.015 480.758L661.602 483.471C661.364 485.033 660.021 486.187 658.441 486.187C656.75 486.187 655.352 487.503 655.25 489.19L653.714 514.518C653.252 522.134 655.694 529.642 660.548 535.529L668.884 545.638L637.969 703.442L551.193 686.569Z" fill="#440101" stroke="#440101" stroke-width="2"/>
<path d="M733 766.798L628.625 748.928L568.111 1018L649.217 1019.78C651.595 1019.83 653.551 1017.92 653.551 1015.54C653.551 1014.7 653.302 1013.88 652.836 1013.18L652.135 1012.13C651.828 1011.67 651.476 1011.24 651.084 1010.85L650.716 1010.49C649.487 1009.26 648.036 1008.28 646.441 1007.6L642.284 1005.82C639.185 1004.79 637.528 1001.42 638.6 998.338L684.534 866.22L733.357 1019.87H805.793C808.494 1019.87 810.401 1017.23 809.545 1014.66C809.453 1014.39 809.332 1014.13 809.183 1013.88L808.299 1012.41C807.168 1010.53 805.729 1008.85 804.041 1007.45L802.137 1005.86C801.357 1005.22 800.463 1004.72 799.501 1004.4C796.895 1003.53 794.901 1001.41 794.2 998.752L733 766.798Z" fill="#630101"/>
<path d="M673.094 543.307L671.403 545.267C668.789 548.296 667.011 551.955 666.244 555.881L629.033 746.313L733.629 764.214L736.099 749.778C736.516 747.341 738.988 745.832 741.346 746.575C745.723 748.188 750.641 746.81 753.544 743.158L758.988 736.308C760.088 734.925 760.985 733.391 761.652 731.755L763.427 727.397C766.52 719.806 762.553 711.182 754.777 708.59C747.824 706.273 743.782 699.039 745.452 691.902L747.507 683.123L751.002 662.708L753.674 647.095L755.387 637.088L762.329 596.527C762.647 594.666 762.735 592.772 762.591 590.889L762.219 586.035L760.797 578.252C760.435 576.269 759.813 574.342 758.949 572.52L755.349 564.94L747.355 555.983L739.982 548.449C738.953 547.397 737.825 546.447 736.615 545.611L728.23 539.819C726.521 538.639 724.66 537.695 722.697 537.015L714.862 534.296L708.704 532.6C706.753 532.063 704.738 531.785 702.714 531.775L696.818 531.745C695.171 531.737 693.529 531.905 691.918 532.248L689.683 532.723C686.243 533.454 683.016 534.965 680.251 537.139L676.293 540.251C675.131 541.164 674.06 542.188 673.094 543.307Z" fill="#630101"/>
<path d="M764.636 522.4L770.904 485.774L711.31 476.531L701.625 533.118L708.007 534.21C710.979 534.719 713.907 535.463 716.762 536.435L717.484 536.681C720.626 537.751 723.669 539.093 726.578 540.692L727.361 541.123C730.446 542.819 733.366 544.797 736.086 547.032L741.497 551.479L744.037 536.638C746.466 537.053 748.979 536.902 751.337 536.187C752.969 535.692 754.511 534.938 755.902 533.953L758.531 532.091C760.428 530.749 761.985 528.983 763.081 526.934C763.839 525.516 764.364 523.985 764.636 522.4Z" fill="white" stroke="#630101" stroke-width="4"/>
<path d="M667.463 621.467L694.055 576.464" stroke="#630101" stroke-width="6"/>
<path d="M579.819 605.139L577.59 604.731L574.299 608.535L571.291 607.984L572.071 603.721L570.015 603.345L568.055 614.057L570.111 614.433L570.935 609.932L575.414 610.752C576.085 610.875 576.429 611.318 576.306 611.989L575.673 615.451L577.728 615.827L578.425 612.019C578.718 610.417 578.037 609.375 576.567 608.972L579.819 605.139ZM583.174 613.827L584.603 606.015L582.547 605.638L580.587 616.35L582.643 616.727L590.063 610.033L588.638 617.824L590.693 618.2L592.654 607.488L590.598 607.111L583.174 613.827ZM605.389 613.844C605.335 611.329 603.517 609.163 600.704 608.648C597.307 608.026 594.579 610.099 594.001 613.258C593.422 616.418 595.235 619.344 598.633 619.966C601.446 620.481 603.921 619.055 604.867 616.701L602.724 616.309C602.042 617.593 600.595 618.29 599.015 618C596.808 617.597 595.684 615.669 596.057 613.635C596.429 611.6 598.158 610.217 600.365 610.621C602.01 610.922 603.044 612.118 603.247 613.452L605.389 613.844ZM618.44 612.207L609.308 610.535C608.991 612.267 608.292 616.209 608.004 617.297C607.496 619.217 606.522 619.039 605.829 618.912L605.613 618.872L605.237 620.928L605.583 620.992C606.817 621.217 609.067 621.629 610.012 617.687C610.295 616.509 610.693 614.457 610.978 612.899L616.02 613.821L614.424 622.542L616.48 622.919L618.44 612.207ZM624.524 624.704C627.943 625.329 630.7 623.217 631.275 620.079C631.853 616.92 630.014 614.011 626.595 613.386C623.111 612.748 620.34 614.813 619.762 617.973C619.188 621.11 621.04 624.066 624.524 624.704ZM624.884 622.734C622.634 622.323 621.467 620.387 621.839 618.353C622.212 616.319 623.984 614.943 626.235 615.355C628.42 615.755 629.591 617.669 629.219 619.703C628.85 621.716 627.07 623.134 624.884 622.734ZM642.704 616.647L633.074 614.884L632.71 616.875L636.497 617.568L634.901 626.29L636.957 626.666L638.553 617.945L642.34 618.638L642.704 616.647ZM652.629 620.073L652.542 620.057C651.939 618.829 650.78 617.834 649.052 617.495C645.879 616.87 643.175 618.813 642.565 622.146C641.951 625.5 643.835 628.282 646.96 628.809C648.738 629.112 650.161 628.545 651.172 627.545L651.259 627.561L650.954 629.227L652.988 629.599L654.948 618.887L652.914 618.515L652.629 620.073ZM647.627 626.874C645.376 626.462 644.249 624.556 644.621 622.522C644.993 620.488 646.723 619.104 648.973 619.516C651.159 619.916 652.286 621.822 651.914 623.856C651.546 625.869 649.813 627.274 647.627 626.874Z" fill="#A5A5A5"/>
<path d="M705.744 467.103L705.886 469.175C705.959 470.232 706.282 471.257 706.828 472.165C707.833 473.836 709.517 474.985 711.44 475.313L781.388 487.218C782.53 487.413 783.666 486.848 784.202 485.821C784.702 484.861 784.573 483.695 783.876 482.868L782.016 480.659C781.663 480.241 781.262 479.865 780.822 479.54L767.379 469.622L757.437 464.031C751.827 460.877 745.915 458.293 739.79 456.319L735.585 454.963C734.007 454.455 732.396 454.06 730.762 453.782L728.436 453.386C725.137 452.824 721.756 452.969 718.516 453.809L717.387 454.102C715.224 454.663 713.188 455.631 711.386 456.953L709.969 457.994C708.621 458.984 707.531 460.284 706.792 461.785C705.979 463.434 705.617 465.269 705.744 467.103Z" fill="#630101" stroke="#630101" stroke-width="2"/>
<path d="M671.323 600.833L657.926 598.284L646.328 659.239L659.724 661.789L671.323 600.833Z" fill="#630101"/>
<path d="M659.173 453.141L657.762 457.584L664.076 454.341C665.243 453.741 666.462 453.25 667.718 452.872C669.633 452.297 671.618 451.991 673.616 451.963L676.605 451.921L679.743 451.579C682.392 451.291 684.47 449.174 684.709 446.52C684.811 445.381 684.562 444.238 683.995 443.245L683.688 442.706C682.28 440.24 679.611 438.769 676.774 438.896L675.115 438.971C673.556 439.041 672.032 439.465 670.661 440.211L668.864 441.189C666.761 442.333 664.891 443.861 663.351 445.694L663.12 445.97C661.348 448.079 660.007 450.515 659.173 453.141Z" fill="#570000"/>
<path d="M694.552 420.379L689.707 426.206L701.074 424.782C703.174 424.519 705.285 424.445 707.379 424.56C710.57 424.735 713.698 425.349 716.673 426.385L721.118 427.932L726.026 429.126C730.096 430.117 734.462 428.091 736.47 424.279C737.339 422.629 737.688 420.781 737.469 418.986L737.351 418.025C736.811 413.607 733.803 409.993 729.559 408.664L726.992 407.86C724.651 407.128 722.145 406.939 719.662 407.308L716.381 407.796C712.552 408.366 708.825 409.635 705.393 411.537L704.903 411.808C700.956 413.996 697.439 416.908 694.552 420.379Z" fill="#570000"/>
<path d="M637.693 427.619L633.112 432.321L632.435 426.946C632.313 425.978 632.046 425.031 631.642 424.137C631.041 422.804 630.148 421.615 629.03 420.656L627.388 419.25C627.198 419.087 627.019 418.91 626.854 418.722C624.863 416.455 625.2 413.027 627.591 411.234L628.215 410.766C628.811 410.32 629.487 409.99 630.209 409.792L633.406 408.919C635.831 408.256 638.447 408.909 640.288 410.636C641.57 411.839 642.363 413.46 642.515 415.189L642.604 416.198C642.745 417.794 642.483 419.394 641.842 420.856L641.077 422.598C640.261 424.459 639.115 426.159 637.693 427.619Z" fill="#570000"/>
<path d="M673.845 412.898L670.402 414.226L678.029 403.49L679.433 400.956C680.836 398.424 682.008 395.793 682.935 393.091L684.27 389.201L687.179 382.161C687.979 380.225 689.855 378.827 692.026 378.548C693.854 378.313 695.65 378.905 696.864 380.141L696.995 380.275C698.465 381.773 698.922 383.937 698.19 385.936L695.999 391.922C695.456 393.406 694.696 394.821 693.741 396.124L690.978 399.896C689.196 402.329 687.1 404.553 684.741 406.515C681.505 409.206 677.817 411.367 673.845 412.898Z" fill="#570000"/>
<path d="M692.506 607.609V669.7L732.47 696.31L711.58 732.678L639.826 688.327" stroke="black" stroke-width="2"/>
<path d="M752.604 716.585L740.38 712.155C735.466 710.375 730.006 712.652 727.814 717.397C725.915 721.506 726.993 726.378 730.449 729.302L738.636 736.231L741.126 738.471C741.668 738.959 742.304 739.332 742.995 739.567C744.831 740.191 746.861 739.781 748.31 738.493L749.037 737.848C749.501 737.436 749.908 736.965 750.249 736.446L756.43 727.035C757.305 725.703 757.732 724.126 757.649 722.535L757.61 721.78C757.558 720.794 757.216 719.846 756.626 719.055C756.107 718.359 755.415 717.81 754.619 717.463L752.604 716.585Z" fill="white" stroke="white" stroke-width="2"/>
<path d="M319.494 758.523L339.769 645.327L363.831 631.124C367.318 629.066 370.083 625.978 371.745 622.285L381.407 600.814C381.925 599.663 381.195 598.336 379.945 598.157C378.876 598.005 378.149 596.991 378.348 595.93L378.968 592.623C379.482 589.881 382.097 588.056 384.847 588.518L402.269 591.446C404.968 591.9 406.804 594.436 406.392 597.143L406.068 599.27C405.882 600.494 404.829 601.399 403.59 601.399C402.264 601.399 401.168 602.431 401.087 603.755L399.883 623.615C399.521 629.587 401.436 635.474 405.242 640.089L411.779 648.017L387.537 771.753L319.494 758.523Z" fill="#440101" stroke="#440101" stroke-width="2"/>
<path d="M462.052 821.432L380.209 807.42L332.76 1018.4L396.356 1019.8C398.221 1019.84 399.754 1018.34 399.754 1016.47C399.754 1015.82 399.559 1015.17 399.194 1014.63L398.644 1013.8C398.403 1013.44 398.127 1013.11 397.82 1012.8L397.531 1012.51C396.568 1011.55 395.431 1010.78 394.179 1010.25L390.92 1008.85C388.49 1008.05 387.19 1005.41 388.031 1002.99L424.049 899.391L462.332 1019.87H519.13C521.248 1019.87 522.743 1017.8 522.072 1015.79C522.001 1015.57 521.905 1015.37 521.789 1015.17L521.095 1014.02C520.209 1012.55 519.08 1011.23 517.757 1010.13L516.263 1008.89C515.652 1008.38 514.951 1007.99 514.197 1007.74C512.153 1007.06 510.59 1005.39 510.04 1003.31L462.052 821.432Z" fill="#630101"/>
<path d="M414.765 646.552L414.613 646.728C412 649.757 410.222 653.415 409.454 657.342L380.529 805.369L462.545 819.406L464.482 808.086C464.809 806.176 466.747 804.993 468.596 805.575C472.028 806.839 475.884 805.759 478.16 802.896L482.43 797.525C483.292 796.44 483.995 795.237 484.518 793.954L485.91 790.537C488.335 784.585 485.225 777.823 479.128 775.79C473.676 773.973 470.506 768.301 471.816 762.705L473.427 755.821L476.167 739.813L478.262 727.571L479.606 719.724L484.945 688.525C485.264 686.663 485.352 684.77 485.208 682.887L484.963 679.693L483.966 674.235C483.604 672.252 482.982 670.324 482.117 668.503L479.576 663.151L473.308 656.128L467.86 650.562C466.831 649.51 465.704 648.56 464.493 647.724L458.867 643.838C457.158 642.657 455.297 641.714 453.335 641.033L447.83 639.123L443.636 637.968C441.684 637.431 439.67 637.153 437.646 637.143L434.215 637.125C432.569 637.117 430.926 637.286 429.316 637.628L429.215 637.649C425.775 638.381 422.548 639.892 419.783 642.066L417.964 643.496C416.802 644.409 415.731 645.433 414.765 646.552Z" fill="#630101"/>
<path d="M486.856 629.795L491.771 601.076L445.043 593.828L437.449 638.199L442.172 639.007C444.689 639.438 447.169 640.068 449.587 640.892C452.248 641.798 454.837 642.941 457.3 644.296C459.929 645.741 462.431 647.434 464.749 649.339L468.713 652.596L470.705 640.959C472.609 641.285 474.58 641.166 476.428 640.606C477.708 640.218 478.917 639.626 480.008 638.854L482.07 637.394C483.556 636.341 484.778 634.957 485.637 633.351C486.232 632.239 486.643 631.038 486.856 629.795Z" fill="white" stroke="#630101" stroke-width="4"/>
<path d="M410.662 707.475L431.514 672.188" stroke="#630101" stroke-width="6"/>
<path d="M341.832 694.524L340.11 694.209L337.567 697.148L335.243 696.723L335.846 693.428L334.257 693.138L332.743 701.415L334.331 701.706L334.968 698.228L338.429 698.861C338.948 698.956 339.213 699.298 339.118 699.817L338.629 702.492L340.217 702.783L340.756 699.84C340.982 698.603 340.456 697.798 339.32 697.486L341.832 694.524ZM344.425 701.237L345.53 695.201L343.941 694.91L342.426 703.187L344.015 703.478L349.749 698.306L348.647 704.326L350.236 704.616L351.751 696.339L350.162 696.048L344.425 701.237ZM361.592 701.251C361.55 699.307 360.145 697.633 357.971 697.235C355.346 696.755 353.238 698.357 352.791 700.798C352.345 703.24 353.746 705.501 356.371 705.981C358.545 706.379 360.457 705.277 361.188 703.458L359.532 703.155C359.005 704.147 357.887 704.686 356.666 704.462C354.96 704.15 354.092 702.661 354.38 701.089C354.668 699.517 356.004 698.448 357.71 698.76C358.981 698.993 359.779 699.917 359.936 700.948L361.592 701.251ZM371.677 699.985L364.62 698.694C364.375 700.032 363.835 703.078 363.612 703.919C363.219 705.402 362.467 705.265 361.932 705.167L361.765 705.136L361.474 706.725L361.741 706.774C362.695 706.948 364.434 707.266 365.164 704.22C365.383 703.31 365.69 701.724 365.91 700.52L369.807 701.233L368.573 707.972L370.162 708.263L371.677 699.985ZM376.378 709.642C379.02 710.126 381.15 708.494 381.594 706.069C382.041 703.627 380.62 701.38 377.978 700.896C375.286 700.404 373.145 701.999 372.698 704.441C372.254 706.866 373.685 709.15 376.378 709.642ZM376.656 708.121C374.917 707.802 374.015 706.307 374.303 704.735C374.591 703.163 375.96 702.1 377.7 702.418C379.389 702.727 380.293 704.206 380.005 705.778C379.721 707.333 378.345 708.43 376.656 708.121ZM390.426 703.416L382.985 702.055L382.703 703.593L385.63 704.129L384.396 710.868L385.985 711.158L387.218 704.419L390.145 704.955L390.426 703.416ZM398.095 706.064L398.028 706.052C397.562 705.102 396.666 704.334 395.331 704.072C392.879 703.589 390.79 705.09 390.319 707.665C389.844 710.257 391.3 712.408 393.714 712.815C395.088 713.049 396.188 712.611 396.969 711.838L397.036 711.85L396.801 713.138L398.372 713.425L399.887 705.148L398.315 704.86L398.095 706.064ZM394.23 711.319C392.491 711.001 391.62 709.528 391.907 707.956C392.195 706.384 393.531 705.315 395.27 705.634C396.959 705.943 397.83 707.415 397.543 708.987C397.258 710.543 395.919 711.628 394.23 711.319Z" fill="#A5A5A5"/>
<path d="M440.679 586.435L440.791 588.06C440.848 588.889 441.101 589.692 441.53 590.405C442.318 591.715 443.638 592.616 445.146 592.873L499.993 602.208C500.888 602.36 501.78 601.918 502.2 601.112C502.592 600.36 502.491 599.445 501.944 598.797L500.485 597.065C500.209 596.737 499.895 596.442 499.549 596.187L489.009 588.41L481.213 584.027C476.814 581.554 472.179 579.528 467.376 577.979L464.078 576.916C462.841 576.517 461.578 576.208 460.297 575.99L458.473 575.679C455.886 575.239 453.235 575.352 450.695 576.011L449.809 576.241C448.113 576.681 446.516 577.44 445.104 578.477L443.992 579.293C442.935 580.069 442.081 581.089 441.501 582.265C440.864 583.558 440.58 584.997 440.679 586.435Z" fill="#630101" stroke="#630101" stroke-width="2"/>
<path d="M413.69 691.296L403.186 689.297L394.091 737.093L404.596 739.092L413.69 691.296Z" fill="#630101"/>
<path d="M404.164 575.488L403.057 578.972L408.008 576.428C408.923 575.958 409.879 575.573 410.864 575.277C412.365 574.826 413.922 574.586 415.489 574.564L417.833 574.531L420.293 574.263C422.37 574.037 424 572.377 424.187 570.296C424.267 569.403 424.072 568.507 423.628 567.728L423.386 567.305C422.283 565.372 420.189 564.218 417.965 564.318L416.665 564.377C415.442 564.431 414.247 564.764 413.172 565.349L411.763 566.116C410.114 567.013 408.648 568.211 407.44 569.648L407.258 569.865C405.869 571.519 404.818 573.429 404.164 575.488Z" fill="#570000"/>
<path d="M431.904 549.799L428.105 554.368L437.017 553.251C438.665 553.045 440.32 552.986 441.961 553.077C444.464 553.214 446.916 553.696 449.25 554.508L452.735 555.721L456.583 556.657C459.775 557.434 463.198 555.845 464.773 552.856C465.454 551.563 465.727 550.114 465.555 548.706L465.463 547.952C465.04 544.488 462.681 541.654 459.353 540.613L457.34 539.982C455.505 539.408 453.54 539.26 451.593 539.55L449.021 539.932C446.018 540.379 443.096 541.374 440.404 542.865L440.02 543.078C436.925 544.794 434.168 547.077 431.904 549.799Z" fill="#570000"/>
<path d="M387.321 555.475L383.729 559.162L383.198 554.948C383.103 554.189 382.893 553.446 382.577 552.745C382.105 551.7 381.405 550.768 380.528 550.016L379.241 548.913C379.092 548.785 378.952 548.647 378.822 548.499C377.261 546.721 377.525 544.033 379.4 542.628L379.89 542.261C380.356 541.911 380.887 541.652 381.453 541.497L383.959 540.812C385.861 540.292 387.912 540.804 389.356 542.159C390.361 543.102 390.983 544.373 391.102 545.729L391.172 546.52C391.282 547.771 391.077 549.026 390.574 550.172L389.975 551.539C389.335 552.998 388.436 554.331 387.321 555.475Z" fill="#570000"/>
<path d="M415.669 543.933L412.969 544.974L418.95 536.556L419.596 535.39C420.999 532.858 422.171 530.226 423.098 527.525L423.844 525.351L426.125 519.831C426.752 518.313 428.223 517.217 429.925 516.998C431.358 516.814 432.767 517.278 433.718 518.247L433.822 518.352C434.974 519.527 435.332 521.223 434.759 522.791L433.041 527.485C432.615 528.649 432.019 529.758 431.27 530.78L429.103 533.737C427.706 535.645 426.062 537.389 424.213 538.927C421.675 541.038 418.784 542.732 415.669 543.933Z" fill="#570000"/>
<path d="M430.299 696.609V745.296L461.636 766.161L445.255 794.678L388.992 759.902" stroke="black" stroke-width="2"/>
<path d="M477.424 782.059L467.839 778.586C463.986 777.19 459.705 778.975 457.986 782.696C456.497 785.918 457.342 789.738 460.052 792.031L466.471 797.464L468.424 799.22C468.849 799.603 469.348 799.895 469.889 800.079C471.329 800.569 472.921 800.248 474.058 799.238L474.627 798.732C474.991 798.409 475.311 798.039 475.578 797.633L480.425 790.254C481.111 789.209 481.446 787.973 481.38 786.724L481.35 786.132C481.309 785.36 481.041 784.616 480.578 783.996C480.171 783.45 479.628 783.02 479.004 782.748L477.424 782.059Z" fill="white" stroke="white" stroke-width="2"/>
<path d="M116.815 817.053L132.471 729.641L151.052 718.674C153.746 717.084 155.881 714.7 157.164 711.848L164.625 695.268C165.025 694.379 164.461 693.354 163.496 693.216C162.67 693.098 162.11 692.316 162.263 691.496L162.742 688.943C163.139 686.825 165.158 685.416 167.282 685.773L180.735 688.034C182.82 688.384 184.237 690.343 183.919 692.433L183.669 694.075C183.525 695.021 182.712 695.72 181.755 695.72C180.731 695.72 179.885 696.517 179.823 697.539L178.893 712.875C178.613 717.486 180.092 722.033 183.031 725.597L188.079 731.719L169.359 827.27L116.815 817.053Z" fill="#440101" stroke="#440101" stroke-width="2"/>
<path d="M226.901 865.633L163.7 854.813L127.059 1017.74L176.169 1018.82C177.609 1018.85 178.793 1017.69 178.793 1016.25C178.793 1015.74 178.643 1015.24 178.36 1014.82L177.936 1014.19C177.75 1013.91 177.537 1013.65 177.299 1013.41L177.077 1013.19C176.333 1012.45 175.454 1011.85 174.488 1011.44L171.971 1010.36C170.095 1009.74 169.091 1007.7 169.74 1005.83L197.554 925.835L227.117 1018.87H270.978C272.613 1018.87 273.768 1017.27 273.249 1015.72C273.194 1015.55 273.121 1015.39 273.03 1015.24L272.495 1014.35C271.81 1013.21 270.939 1012.2 269.917 1011.35L268.764 1010.39C268.292 1010 267.751 1009.7 267.168 1009.5C265.59 1008.98 264.383 1007.69 263.958 1006.08L226.901 865.633Z" fill="#630101"/>
<path d="M194.217 727.157L192.893 728.198C191.971 728.923 191.12 729.735 190.354 730.624C188.279 733.028 186.868 735.932 186.259 739.049L163.948 853.229L227.282 864.069L228.778 855.328C229.03 853.852 230.527 852.939 231.954 853.388C234.605 854.365 237.583 853.531 239.34 851.319L242.637 847.172C243.303 846.334 243.846 845.405 244.25 844.414L245.325 841.776C247.197 837.18 244.796 831.958 240.087 830.388C235.877 828.985 233.43 824.604 234.441 820.283L235.685 814.967L237.801 802.605L239.419 793.152L240.456 787.092L244.471 763.638C244.789 761.777 244.877 759.883 244.733 758L244.593 756.179L243.948 752.646C243.585 750.662 242.964 748.735 242.099 746.914L240.434 743.406L235.593 737.982L231.739 734.044C230.71 732.993 229.582 732.042 228.372 731.206L225.029 728.897C223.319 727.716 221.458 726.773 219.496 726.092L215.918 724.851L213.35 724.143C211.398 723.606 209.384 723.328 207.359 723.318L205.43 723.308C204.142 723.302 202.857 723.434 201.597 723.702C198.905 724.274 196.381 725.456 194.217 727.157Z" fill="#630101"/>
<path d="M246.056 717.648L249.852 695.47L213.767 689.873L207.902 724.137L211.55 724.761C213.494 725.094 215.409 725.581 217.276 726.217C219.331 726.916 221.33 727.799 223.232 728.845C225.262 729.961 227.194 731.269 228.984 732.739L232.045 735.255L233.583 726.269C235.054 726.52 236.576 726.428 238.003 725.996C238.992 725.696 239.925 725.239 240.768 724.643L242.36 723.516C243.508 722.703 244.451 721.634 245.114 720.393C245.574 719.534 245.892 718.607 246.056 717.648Z" fill="white" stroke="#630101" stroke-width="4"/>
<path d="M187.217 777.634L203.319 750.384" stroke="#630101" stroke-width="6"/>
<path d="M134.01 767.557L132.693 767.316L130.749 769.564L128.971 769.238L129.432 766.719L128.217 766.497L127.059 772.827L128.274 773.049L128.761 770.389L131.408 770.874C131.804 770.946 132.007 771.208 131.935 771.604L131.56 773.65L132.775 773.873L133.187 771.622C133.36 770.676 132.957 770.06 132.089 769.822L134.01 767.557ZM135.993 772.691L136.838 768.074L135.623 767.852L134.465 774.182L135.679 774.404L140.064 770.449L139.222 775.052L140.436 775.275L141.595 768.945L140.38 768.723L135.993 772.691ZM149.12 772.701C149.088 771.215 148.014 769.935 146.352 769.63C144.344 769.263 142.732 770.488 142.391 772.355C142.049 774.222 143.12 775.951 145.128 776.318C146.79 776.622 148.253 775.78 148.811 774.389L147.545 774.157C147.142 774.916 146.287 775.328 145.354 775.157C144.049 774.918 143.386 773.779 143.605 772.577C143.825 771.375 144.847 770.558 146.152 770.796C147.123 770.974 147.734 771.681 147.854 772.469L149.12 772.701ZM156.832 771.733L151.436 770.746C151.249 771.769 150.836 774.098 150.665 774.741C150.365 775.876 149.79 775.77 149.38 775.696L149.253 775.672L149.03 776.887L149.235 776.924C149.964 777.058 151.294 777.301 151.852 774.972C152.019 774.275 152.254 773.063 152.423 772.142L155.402 772.687L154.459 777.841L155.674 778.063L156.832 771.733ZM160.427 779.118C162.448 779.488 164.077 778.24 164.416 776.385C164.758 774.518 163.671 772.8 161.651 772.43C159.592 772.053 157.955 773.273 157.613 775.14C157.274 776.995 158.368 778.741 160.427 779.118ZM160.64 777.954C159.31 777.711 158.621 776.567 158.841 775.365C159.061 774.163 160.108 773.35 161.438 773.594C162.73 773.83 163.421 774.961 163.201 776.163C162.984 777.352 161.932 778.191 160.64 777.954ZM171.17 774.357L165.48 773.316L165.264 774.492L167.502 774.902L166.559 780.055L167.774 780.277L168.717 775.124L170.955 775.533L171.17 774.357ZM177.035 776.382L176.983 776.372C176.627 775.646 175.942 775.058 174.921 774.858C173.046 774.489 171.448 775.637 171.088 777.606C170.725 779.588 171.838 781.233 173.685 781.544C174.735 781.723 175.577 781.388 176.174 780.797L176.225 780.806L176.045 781.791L177.247 782.011L178.405 775.681L177.203 775.461L177.035 776.382ZM174.079 780.4C172.749 780.157 172.083 779.031 172.303 777.829C172.523 776.627 173.545 775.809 174.874 776.052C176.166 776.289 176.832 777.415 176.612 778.617C176.395 779.806 175.37 780.637 174.079 780.4Z" fill="#A5A5A5"/>
<path d="M210.397 684.164L210.483 685.419C210.527 686.059 210.723 686.68 211.053 687.23C211.662 688.241 212.682 688.937 213.846 689.135L256.2 696.344C256.892 696.462 257.58 696.12 257.904 695.498C258.207 694.917 258.129 694.211 257.707 693.71L256.58 692.373C256.367 692.119 256.124 691.892 255.858 691.695L247.718 685.69L241.698 682.305C238.301 680.395 234.721 678.83 231.012 677.634L228.466 676.814C227.511 676.506 226.535 676.267 225.546 676.098L224.137 675.859C222.14 675.519 220.093 675.606 218.131 676.115L217.447 676.292C216.137 676.632 214.904 677.218 213.814 678.019L212.955 678.649C212.139 679.248 211.479 680.036 211.031 680.944C210.539 681.943 210.32 683.054 210.397 684.164Z" fill="#630101" stroke="#630101" stroke-width="2"/>
<path d="M189.554 765.14L181.442 763.596L174.42 800.505L182.532 802.049L189.554 765.14Z" fill="#630101"/>
<path d="M182.198 675.71L181.343 678.401L185.167 676.436C185.873 676.073 186.612 675.776 187.372 675.547C188.531 675.199 189.733 675.014 190.944 674.997L192.753 674.971L194.653 674.764C196.257 674.59 197.515 673.308 197.66 671.701C197.722 671.011 197.571 670.319 197.228 669.718L197.042 669.391C196.189 667.898 194.573 667.008 192.855 667.085L191.851 667.13C190.907 667.172 189.984 667.429 189.154 667.881L188.066 668.473C186.793 669.165 185.66 670.091 184.728 671.201L184.588 671.368C183.515 672.645 182.703 674.12 182.198 675.71Z" fill="#570000"/>
<path d="M203.622 655.873L200.688 659.401L207.57 658.539C208.842 658.379 210.12 658.334 211.388 658.404C213.32 658.51 215.214 658.882 217.016 659.509L219.707 660.446L222.679 661.169C225.144 661.769 227.787 660.542 229.003 658.234C229.53 657.235 229.741 656.116 229.608 655.029L229.537 654.447C229.21 651.772 227.388 649.583 224.818 648.779L223.264 648.292C221.847 647.849 220.329 647.734 218.826 647.958L216.839 648.253C214.52 648.598 212.264 649.367 210.185 650.518L209.889 650.683C207.499 652.007 205.37 653.771 203.622 655.873Z" fill="#570000"/>
<path d="M169.193 660.256L166.419 663.103L166.009 659.849C165.935 659.262 165.774 658.689 165.529 658.148C165.165 657.34 164.625 656.621 163.947 656.04L162.953 655.189C162.838 655.09 162.73 654.983 162.63 654.869C161.424 653.496 161.628 651.42 163.076 650.335L163.454 650.052C163.815 649.781 164.224 649.581 164.662 649.462L166.597 648.933C168.065 648.531 169.65 648.927 170.764 649.973C171.54 650.701 172.021 651.683 172.113 652.73L172.167 653.34C172.252 654.307 172.093 655.276 171.705 656.161L171.242 657.216C170.748 658.343 170.054 659.372 169.193 660.256Z" fill="#570000"/>
<path d="M191.083 651.343L188.998 652.147L193.616 645.646C195.02 643.114 196.21 640.449 197.137 637.748L197.395 636.994L199.157 632.731C199.641 631.558 200.777 630.712 202.092 630.543C203.198 630.401 204.286 630.759 205.021 631.508L205.101 631.589C205.991 632.496 206.267 633.806 205.824 635.017L204.498 638.641C204.169 639.54 203.708 640.397 203.13 641.186L201.457 643.47C200.378 644.943 199.109 646.29 197.681 647.477C195.721 649.107 193.488 650.415 191.083 651.343Z" fill="#570000"/>
<path d="M202.382 769.242V806.839L226.58 822.952L213.931 844.973L170.483 818.118" stroke="black" stroke-width="2"/>
<path d="M238.772 835.229L231.371 832.547C228.395 831.468 225.089 832.847 223.762 835.72C222.612 838.209 223.265 841.158 225.357 842.929L230.315 847.124L231.822 848.481C232.151 848.776 232.536 849.002 232.954 849.144C234.066 849.522 235.295 849.274 236.173 848.495L236.613 848.104C236.894 847.854 237.14 847.569 237.347 847.255L241.089 841.557C241.619 840.75 241.878 839.795 241.828 838.831L241.804 838.374C241.773 837.778 241.565 837.204 241.208 836.725C240.894 836.303 240.475 835.97 239.992 835.76L238.772 835.229Z" fill="white" stroke="white" stroke-width="2"/>
<path d="M57.0003 1100.74L61.8963 1091.56H59.1763L54.3763 1100.74H46.6323V1091.56H44.1683V1113H46.6323V1103.11H57.4163C58.6003 1103.11 59.2083 1103.69 59.2083 1104.84V1113H61.6723V1104.46C61.6723 1102.06 60.4243 1100.74 57.8963 1100.74H57.0003ZM69.3033 1109.61V1097.22H66.9033V1113H69.3033L79.0633 1100.58V1113H81.4633V1097.22H79.0633L69.3033 1109.61ZM101.509 1102.86C100.741 1099.37 97.6056 1096.81 93.5736 1096.81C88.6456 1096.81 85.2536 1100.46 85.2536 1105.1C85.2536 1109.74 88.6456 1113.42 93.5736 1113.42C97.6056 1113.42 100.741 1110.79 101.509 1107.27H99.0136C98.3096 1109.51 96.2296 1111.11 93.5736 1111.11C90.0536 1111.11 87.6536 1108.42 87.6536 1105.1C87.6536 1101.77 90.0536 1099.11 93.5736 1099.11C96.2936 1099.11 98.3096 1100.74 99.0136 1102.86H101.509ZM119.687 1097.22H106.599C106.567 1100.58 106.599 1106.28 106.471 1107.62C106.247 1110.66 104.647 1110.66 103.655 1110.66H103.335V1113.1H103.751C105.383 1113.1 108.519 1113.06 108.807 1107.66C108.935 1105.58 108.935 1102.06 108.935 1099.53H117.287V1113H119.687V1097.22ZM131.951 1113.42C136.911 1113.42 140.303 1109.67 140.303 1105.1C140.303 1100.49 136.911 1096.81 131.951 1096.81C126.895 1096.81 123.471 1100.49 123.471 1105.1C123.471 1109.67 126.895 1113.42 131.951 1113.42ZM131.951 1111.11C128.303 1111.11 125.903 1108.39 125.903 1105.1C125.903 1101.8 128.303 1099.11 131.951 1099.11C135.503 1099.11 137.903 1101.8 137.903 1105.1C137.903 1108.36 135.503 1111.11 131.951 1111.11ZM155.788 1097.22H141.708V1099.53H147.532V1113H149.932V1099.53H155.788V1097.22ZM171.527 1100.04H171.431C170.247 1098.15 168.071 1096.84 165.287 1096.81C160.551 1096.78 157.191 1100.3 157.191 1105.1C157.191 1109.9 160.615 1113.45 165.255 1113.42C168.103 1113.38 170.215 1112.01 171.431 1110.06H171.527V1113H173.895V1097.22H171.527V1100.04ZM165.607 1111.11C161.959 1111.11 159.591 1108.39 159.591 1105.1C159.591 1101.8 161.959 1099.11 165.607 1099.11C169.159 1099.11 171.527 1101.8 171.527 1105.1C171.527 1108.36 169.159 1111.11 165.607 1111.11ZM198.928 1104.71C200.272 1103.98 200.88 1102.7 200.88 1101.35C200.88 1099.14 199.216 1097.22 196.304 1097.22H187.216V1113H196.848C199.76 1113 201.552 1110.89 201.552 1108.58C201.552 1106.95 200.688 1105.45 198.928 1104.81V1104.71ZM196.24 1099.53C197.616 1099.53 198.48 1100.52 198.48 1101.67C198.48 1102.86 197.584 1103.88 196.112 1103.88H189.616V1099.53H196.24ZM189.616 1110.7V1106.18H196.624C198.16 1106.18 199.12 1107.18 199.12 1108.42C199.12 1109.61 198.192 1110.7 196.752 1110.7H189.616ZM222.129 1097.7C219.505 1097.7 217.073 1098.82 215.633 1101H215.536V1098.5C215.536 1094.66 217.777 1092.39 221.617 1092.39H228.305V1089.96H221.873C216.529 1089.96 213.329 1093.35 213.329 1098.7V1105.45C213.329 1109.9 216.753 1113.38 221.681 1113.38C226.641 1113.38 229.969 1109.86 229.969 1105.48C229.969 1101.13 226.705 1097.7 222.129 1097.7ZM221.713 1111.11C218.161 1111.11 215.761 1108.62 215.761 1105.51C215.761 1102.44 218.161 1099.94 221.713 1099.94C225.233 1099.94 227.569 1102.47 227.569 1105.48C227.569 1108.55 225.233 1111.11 221.713 1111.11ZM239.937 1111.4L234.017 1097.22H231.361L238.689 1114.54L238.433 1115.21C237.921 1116.46 237.249 1117 235.841 1117H232.225V1119.4H235.841C238.305 1119.4 239.713 1118.25 240.609 1115.91L247.809 1097.22H245.377L239.937 1111.4ZM263.507 1097.22H249.427V1099.53H255.251V1113H257.651V1099.53H263.507V1097.22ZM269.116 1102.7V1097.22H266.716V1113H274.876C277.724 1113 280.028 1110.7 280.028 1107.82C280.028 1105 277.756 1102.73 274.876 1102.7H269.116ZM282.396 1113H284.796V1097.22H282.396V1113ZM269.116 1110.7V1105.03H274.876C276.38 1105.03 277.628 1106.28 277.628 1107.82C277.628 1109.42 276.412 1110.66 274.876 1110.7H269.116ZM304.531 1097.22H291.443C291.411 1100.58 291.443 1106.28 291.315 1107.62C291.091 1110.66 289.491 1110.66 288.499 1110.66H288.179V1113.1H288.595C290.227 1113.1 293.363 1113.06 293.651 1107.66C293.779 1105.58 293.779 1102.06 293.779 1099.53H302.131V1113H304.531V1097.22ZM323.415 1097.22H314.359C311.127 1097.22 309.207 1099.4 309.207 1101.86C309.207 1103.43 309.943 1104.71 311.159 1105.38V1105.48C309.879 1105.86 309.239 1106.95 309.239 1108.49V1113H311.639V1108.81C311.639 1107.78 312.311 1107.14 313.399 1107.14H321.015V1113H323.415V1097.22ZM314.455 1104.84C312.823 1104.84 311.607 1103.66 311.607 1102.18C311.607 1100.78 312.663 1099.53 314.359 1099.53H321.015V1104.84H314.455ZM335.955 1104.94L342.163 1097.22H339.219L334.547 1103.21L329.875 1097.22H326.739L332.979 1105.06L326.643 1113H329.715L334.419 1106.89L339.219 1113H342.387L335.955 1104.94ZM361.295 1113.42C366.255 1113.42 369.647 1109.67 369.647 1105.1C369.647 1100.49 366.255 1096.81 361.295 1096.81C356.239 1096.81 352.815 1100.49 352.815 1105.1C352.815 1109.67 356.239 1113.42 361.295 1113.42ZM361.295 1111.11C357.647 1111.11 355.247 1108.39 355.247 1105.1C355.247 1101.8 357.647 1099.11 361.295 1099.11C364.847 1099.11 367.247 1101.8 367.247 1105.1C367.247 1108.36 364.847 1111.11 361.295 1111.11ZM387.898 1097.22H373.466V1113H375.866V1099.53H385.498V1113H387.898V1097.22ZM406.027 1100.04H405.931C404.747 1098.15 402.571 1096.84 399.787 1096.81C395.051 1096.78 391.691 1100.3 391.691 1105.1C391.691 1109.9 395.115 1113.45 399.755 1113.42C402.603 1113.38 404.715 1112.01 405.931 1110.06H406.027V1113H408.395V1097.22H406.027V1100.04ZM400.107 1111.11C396.459 1111.11 394.091 1108.39 394.091 1105.1C394.091 1101.8 396.459 1099.11 400.107 1099.11C403.659 1099.11 406.027 1101.8 406.027 1105.1C406.027 1108.36 403.659 1111.11 400.107 1111.11ZM428.478 1102.86C427.71 1099.37 424.574 1096.81 420.542 1096.81C415.614 1096.81 412.222 1100.46 412.222 1105.1C412.222 1109.74 415.614 1113.42 420.542 1113.42C424.574 1113.42 427.71 1110.79 428.478 1107.27H425.982C425.278 1109.51 423.198 1111.11 420.542 1111.11C417.022 1111.11 414.622 1108.42 414.622 1105.1C414.622 1101.77 417.022 1099.11 420.542 1099.11C423.262 1099.11 425.278 1100.74 425.982 1102.86H428.478ZM444.344 1103.69H434.584V1097.22H432.184V1113H434.584V1105.99H444.344V1113H446.744V1097.22H444.344V1103.69ZM464.902 1100.04H464.806C463.622 1098.15 461.446 1096.84 458.662 1096.81C453.926 1096.78 450.566 1100.3 450.566 1105.1C450.566 1109.9 453.99 1113.45 458.63 1113.42C461.478 1113.38 463.59 1112.01 464.806 1110.06H464.902V1113H467.27V1097.22H464.902V1100.04ZM458.982 1111.11C455.334 1111.11 452.966 1108.39 452.966 1105.1C452.966 1101.8 455.334 1099.11 458.982 1099.11C462.534 1099.11 464.902 1101.8 464.902 1105.1C464.902 1108.36 462.534 1111.11 458.982 1111.11ZM494.991 1097.22H481.999C481.999 1100.58 481.999 1106.28 481.903 1107.62C481.647 1110.7 480.079 1110.7 479.055 1110.7H478.927V1117.19H481.295V1113H495.343V1117.19H497.711V1110.7H494.991V1097.22ZM483.439 1110.7C483.855 1109.93 484.143 1108.87 484.207 1107.4C484.303 1105.35 484.335 1101.99 484.335 1099.53H492.591V1110.7H483.439ZM515.843 1097.22H502.755C502.723 1100.58 502.755 1106.28 502.627 1107.62C502.403 1110.66 500.803 1110.66 499.811 1110.66H499.491V1113.1H499.907C501.539 1113.1 504.675 1113.06 504.963 1107.66C505.091 1105.58 505.091 1102.06 505.091 1099.53H513.443V1113H515.843V1097.22ZM534.728 1097.22H525.672C522.44 1097.22 520.52 1099.4 520.52 1101.86C520.52 1103.43 521.256 1104.71 522.472 1105.38V1105.48C521.192 1105.86 520.552 1106.95 520.552 1108.49V1113H522.952V1108.81C522.952 1107.78 523.624 1107.14 524.712 1107.14H532.328V1113H534.728V1097.22ZM525.768 1104.84C524.136 1104.84 522.92 1103.66 522.92 1102.18C522.92 1100.78 523.976 1099.53 525.672 1099.53H532.328V1104.84H525.768ZM560.413 1097.22H546.333V1099.53H552.157V1113H554.557V1099.53H560.413V1097.22ZM575.334 1104.71C576.678 1103.98 577.286 1102.7 577.286 1101.35C577.286 1099.14 575.622 1097.22 572.71 1097.22H563.622V1113H573.254C576.166 1113 577.958 1110.89 577.958 1108.58C577.958 1106.95 577.094 1105.45 575.334 1104.81V1104.71ZM572.646 1099.53C574.022 1099.53 574.886 1100.52 574.886 1101.67C574.886 1102.86 573.99 1103.88 572.518 1103.88H566.022V1099.53H572.646ZM566.022 1110.7V1106.18H573.03C574.566 1106.18 575.526 1107.18 575.526 1108.42C575.526 1109.61 574.598 1110.7 573.158 1110.7H566.022ZM589.295 1113.42C594.255 1113.42 597.647 1109.67 597.647 1105.1C597.647 1100.49 594.255 1096.81 589.295 1096.81C584.239 1096.81 580.815 1100.49 580.815 1105.1C580.815 1109.67 584.239 1113.42 589.295 1113.42ZM589.295 1111.11C585.647 1111.11 583.247 1108.39 583.247 1105.1C583.247 1101.8 585.647 1099.11 589.295 1099.11C592.847 1099.11 595.247 1101.8 595.247 1105.1C595.247 1108.36 592.847 1111.11 589.295 1111.11ZM608.726 1096.81C603.894 1096.81 600.566 1100.55 600.566 1105.13C600.566 1109.64 603.766 1113.42 608.758 1113.42C612.438 1113.42 615.414 1111.37 616.47 1108.1H613.974C613.174 1109.93 611.222 1111.11 608.854 1111.11C605.622 1111.11 603.286 1108.84 603.094 1105.96H616.758C617.046 1100.71 613.718 1096.81 608.726 1096.81ZM608.662 1099.11C611.638 1099.11 613.782 1101.06 614.198 1103.82H603.158C603.51 1101.13 605.686 1099.11 608.662 1099.11ZM632.59 1097.22H620.622V1113H623.022V1099.53H632.59V1097.22ZM642.326 1113.42C647.286 1113.42 650.678 1109.67 650.678 1105.1C650.678 1100.49 647.286 1096.81 642.326 1096.81C637.27 1096.81 633.846 1100.49 633.846 1105.1C633.846 1109.67 637.27 1113.42 642.326 1113.42ZM642.326 1111.11C638.678 1111.11 636.278 1108.39 636.278 1105.1C636.278 1101.8 638.678 1099.11 642.326 1099.11C645.878 1099.11 648.278 1101.8 648.278 1105.1C648.278 1108.36 645.878 1111.11 642.326 1111.11ZM673.176 1104.81C674.584 1104.23 675.32 1102.82 675.32 1101.38C675.32 1099.18 673.624 1097.22 670.744 1097.22H661.688V1099.53H670.648C672.056 1099.53 672.92 1100.55 672.92 1101.7C672.92 1102.89 671.992 1103.91 670.52 1103.91H664.024V1106.18H670.744C672.28 1106.18 673.24 1107.18 673.24 1108.42C673.24 1109.61 672.312 1110.7 670.872 1110.7H661.688V1113H670.968C673.912 1113 675.672 1110.86 675.672 1108.55C675.672 1106.95 674.776 1105.48 673.176 1104.9V1104.81ZM694.084 1097.22H681.092C681.092 1100.58 681.092 1106.28 680.996 1107.62C680.74 1110.7 679.172 1110.7 678.148 1110.7H678.02V1117.19H680.388V1113H694.436V1117.19H696.804V1110.7H694.084V1097.22ZM682.532 1110.7C682.948 1109.93 683.236 1108.87 683.3 1107.4C683.396 1105.35 683.428 1101.99 683.428 1099.53H691.684V1110.7H682.532ZM706.983 1113.42C711.943 1113.42 715.335 1109.67 715.335 1105.1C715.335 1100.49 711.943 1096.81 706.983 1096.81C701.927 1096.81 698.503 1100.49 698.503 1105.1C698.503 1109.67 701.927 1113.42 706.983 1113.42ZM706.983 1111.11C703.335 1111.11 700.935 1108.39 700.935 1105.1C700.935 1101.8 703.335 1099.11 706.983 1099.11C710.535 1099.11 712.935 1101.8 712.935 1105.1C712.935 1108.36 710.535 1111.11 706.983 1111.11ZM727.793 1096.81C725.041 1096.84 722.865 1098.15 721.617 1100.04H721.553V1097.22H719.153V1119.4H721.553V1110.06H721.617C722.865 1112.01 725.041 1113.38 727.793 1113.42C732.465 1113.45 735.857 1109.9 735.857 1105.1C735.857 1100.3 732.497 1096.78 727.793 1096.81ZM727.473 1111.11C723.921 1111.11 721.553 1108.36 721.553 1105.1C721.553 1101.8 723.921 1099.11 727.473 1099.11C731.089 1099.11 733.457 1101.8 733.457 1105.1C733.457 1108.39 731.089 1111.11 727.473 1111.11ZM747.295 1113.42C752.255 1113.42 755.647 1109.67 755.647 1105.1C755.647 1100.49 752.255 1096.81 747.295 1096.81C742.239 1096.81 738.815 1100.49 738.815 1105.1C738.815 1109.67 742.239 1113.42 747.295 1113.42ZM747.295 1111.11C743.647 1111.11 741.247 1108.39 741.247 1105.1C741.247 1101.8 743.647 1099.11 747.295 1099.11C750.847 1099.11 753.247 1101.8 753.247 1105.1C753.247 1108.36 750.847 1111.11 747.295 1111.11ZM771.178 1104.71C772.522 1103.98 773.13 1102.7 773.13 1101.35C773.13 1099.14 771.466 1097.22 768.554 1097.22H759.466V1113H769.098C772.01 1113 773.802 1110.89 773.802 1108.58C773.802 1106.95 772.938 1105.45 771.178 1104.81V1104.71ZM768.49 1099.53C769.866 1099.53 770.73 1100.52 770.73 1101.67C770.73 1102.86 769.834 1103.88 768.362 1103.88H761.866V1099.53H768.49ZM761.866 1110.7V1106.18H768.874C770.41 1106.18 771.37 1107.18 771.37 1108.42C771.37 1109.61 770.442 1110.7 769.002 1110.7H761.866ZM780.053 1102.7V1097.22H777.653V1113H786.485C789.365 1113 791.669 1110.7 791.669 1107.82C791.669 1105 789.397 1102.73 786.485 1102.7H780.053ZM780.053 1110.7V1105.03H786.485C788.021 1105.03 789.269 1106.28 789.269 1107.82C789.269 1109.42 788.021 1110.66 786.485 1110.7H780.053ZM809.165 1097.22H800.109C796.877 1097.22 794.957 1099.4 794.957 1101.86C794.957 1103.43 795.693 1104.71 796.909 1105.38V1105.48C795.629 1105.86 794.989 1106.95 794.989 1108.49V1113H797.389V1108.81C797.389 1107.78 798.061 1107.14 799.149 1107.14H806.765V1113H809.165V1097.22ZM800.205 1104.84C798.573 1104.84 797.357 1103.66 797.357 1102.18C797.357 1100.78 798.413 1099.53 800.109 1099.53H806.765V1104.84H800.205ZM814.397 1106.28H816.701L816.861 1091.56H814.269L814.397 1106.28ZM814.045 1109.8V1113H817.085V1109.8H814.045ZM62.1203 1126.56H44.1683V1148H46.6323V1128.96H59.6883V1148H62.1203V1126.56ZM82.4373 1132.22H69.3493C69.3173 1135.58 69.3493 1141.28 69.2213 1142.62C68.9973 1145.66 67.3973 1145.66 66.4053 1145.66H66.0853V1148.1H66.5013C68.1333 1148.1 71.2693 1148.06 71.5573 1142.66C71.6853 1140.58 71.6853 1137.06 71.6853 1134.53H80.0373V1148H82.4373V1132.22ZM94.7016 1148.42C99.6616 1148.42 103.053 1144.67 103.053 1140.1C103.053 1135.49 99.6616 1131.81 94.7016 1131.81C89.6456 1131.81 86.2216 1135.49 86.2216 1140.1C86.2216 1144.67 89.6456 1148.42 94.7016 1148.42ZM94.7016 1146.11C91.0536 1146.11 88.6536 1143.39 88.6536 1140.1C88.6536 1136.8 91.0536 1134.11 94.7016 1134.11C98.2536 1134.11 100.653 1136.8 100.653 1140.1C100.653 1143.36 98.2536 1146.11 94.7016 1146.11ZM118.538 1132.22H104.458V1134.53H110.282V1148H112.682V1134.53H118.538V1132.22ZM133.907 1138.69H124.147V1132.22H121.747V1148H124.147V1140.99H133.907V1148H136.307V1132.22H133.907V1138.69ZM148.576 1148.42C153.536 1148.42 156.928 1144.67 156.928 1140.1C156.928 1135.49 153.536 1131.81 148.576 1131.81C143.52 1131.81 140.096 1135.49 140.096 1140.1C140.096 1144.67 143.52 1148.42 148.576 1148.42ZM148.576 1146.11C144.928 1146.11 142.528 1143.39 142.528 1140.1C142.528 1136.8 144.928 1134.11 148.576 1134.11C152.128 1134.11 154.528 1136.8 154.528 1140.1C154.528 1143.36 152.128 1146.11 148.576 1146.11ZM179.426 1139.81C180.834 1139.23 181.57 1137.82 181.57 1136.38C181.57 1134.18 179.874 1132.22 176.994 1132.22H167.938V1134.53H176.898C178.306 1134.53 179.17 1135.55 179.17 1136.7C179.17 1137.89 178.242 1138.91 176.77 1138.91H170.274V1141.18H176.994C178.53 1141.18 179.49 1142.18 179.49 1143.42C179.49 1144.61 178.562 1145.7 177.122 1145.7H167.938V1148H177.218C180.162 1148 181.922 1145.86 181.922 1143.55C181.922 1141.95 181.026 1140.48 179.426 1139.9V1139.81ZM199.277 1135.04H199.181C197.997 1133.15 195.821 1131.84 193.037 1131.81C188.301 1131.78 184.941 1135.3 184.941 1140.1C184.941 1144.9 188.365 1148.45 193.005 1148.42C195.853 1148.38 197.965 1147.01 199.181 1145.06H199.277V1148H201.645V1132.22H199.277V1135.04ZM193.357 1146.11C189.709 1146.11 187.341 1143.39 187.341 1140.1C187.341 1136.8 189.709 1134.11 193.357 1134.11C196.909 1134.11 199.277 1136.8 199.277 1140.1C199.277 1143.36 196.909 1146.11 193.357 1146.11ZM216.794 1138.69L221.018 1132.22H218.362L214.074 1138.69H209.178V1132.22H206.778V1148H209.178V1140.96H216.666C217.786 1140.96 218.426 1141.57 218.426 1142.69V1148H220.826V1142.37C220.826 1139.97 219.482 1138.69 217.082 1138.69H216.794ZM234.106 1131.81C231.354 1131.84 229.178 1133.15 227.93 1135.04H227.866V1132.22H225.466V1154.4H227.866V1145.06H227.93C229.178 1147.01 231.354 1148.38 234.106 1148.42C238.778 1148.45 242.17 1144.9 242.17 1140.1C242.17 1135.3 238.81 1131.78 234.106 1131.81ZM233.786 1146.11C230.234 1146.11 227.866 1143.36 227.866 1140.1C227.866 1136.8 230.234 1134.11 233.786 1134.11C237.402 1134.11 239.77 1136.8 239.77 1140.1C239.77 1143.39 237.402 1146.11 233.786 1146.11ZM248.459 1137.7V1132.22H246.059V1148H254.219C257.067 1148 259.371 1145.7 259.371 1142.82C259.371 1140 257.099 1137.73 254.219 1137.7H248.459ZM261.739 1148H264.139V1132.22H261.739V1148ZM248.459 1145.7V1140.03H254.219C255.723 1140.03 256.971 1141.28 256.971 1142.82C256.971 1144.42 255.755 1145.66 254.219 1145.7H248.459ZM280.928 1139.71C282.272 1138.98 282.88 1137.7 282.88 1136.35C282.88 1134.14 281.216 1132.22 278.304 1132.22H269.216V1148H278.848C281.76 1148 283.552 1145.89 283.552 1143.58C283.552 1141.95 282.688 1140.45 280.928 1139.81V1139.71ZM278.24 1134.53C279.616 1134.53 280.48 1135.52 280.48 1136.67C280.48 1137.86 279.584 1138.88 278.112 1138.88H271.616V1134.53H278.24ZM271.616 1145.7V1141.18H278.624C280.16 1141.18 281.12 1142.18 281.12 1143.42C281.12 1144.61 280.192 1145.7 278.752 1145.7H271.616ZM300.777 1135.04H300.681C299.497 1133.15 297.321 1131.84 294.537 1131.81C289.801 1131.78 286.441 1135.3 286.441 1140.1C286.441 1144.9 289.865 1148.45 294.505 1148.42C297.353 1148.38 299.465 1147.01 300.681 1145.06H300.777V1148H303.145V1132.22H300.777V1135.04ZM294.857 1146.11C291.209 1146.11 288.841 1143.39 288.841 1140.1C288.841 1136.8 291.209 1134.11 294.857 1134.11C298.409 1134.11 300.777 1136.8 300.777 1140.1C300.777 1143.36 298.409 1146.11 294.857 1146.11ZM317.782 1129.5C319.222 1129.5 320.246 1128.45 320.246 1127.01V1124.96H318.166V1126.69C318.166 1127.23 317.75 1127.65 317.206 1127.65H313.91C313.366 1127.65 312.95 1127.23 312.95 1126.69V1124.96H310.87V1127.01C310.87 1128.45 311.894 1129.5 313.334 1129.5H317.782ZM310.678 1144.61V1132.22H308.278V1148H310.678L320.438 1135.58V1148H322.838V1132.22H320.438L310.678 1144.61ZM340.163 1132.22H326.083V1134.53H331.907V1148H334.307V1134.53H340.163V1132.22ZM349.726 1131.81C344.894 1131.81 341.566 1135.55 341.566 1140.13C341.566 1144.64 344.766 1148.42 349.758 1148.42C353.438 1148.42 356.414 1146.37 357.47 1143.1H354.974C354.174 1144.93 352.222 1146.11 349.854 1146.11C346.622 1146.11 344.286 1143.84 344.094 1140.96H357.758C358.046 1135.71 354.718 1131.81 349.726 1131.81ZM349.662 1134.11C352.638 1134.11 354.782 1136.06 355.198 1138.82H344.158C344.51 1136.13 346.686 1134.11 349.662 1134.11ZM380.013 1138.69L384.237 1132.22H381.581L377.293 1138.69H372.397V1132.22H369.997V1148H372.397V1140.96H379.885C381.005 1140.96 381.645 1141.57 381.645 1142.69V1148H384.045V1142.37C384.045 1139.97 382.701 1138.69 380.301 1138.69H380.013ZM397.324 1131.81C394.572 1131.84 392.396 1133.15 391.148 1135.04H391.084V1132.22H388.684V1154.4H391.084V1145.06H391.148C392.396 1147.01 394.572 1148.38 397.324 1148.42C401.996 1148.45 405.388 1144.9 405.388 1140.1C405.388 1135.3 402.028 1131.78 397.324 1131.81ZM397.004 1146.11C393.452 1146.11 391.084 1143.36 391.084 1140.1C391.084 1136.8 393.452 1134.11 397.004 1134.11C400.62 1134.11 402.988 1136.8 402.988 1140.1C402.988 1143.39 400.62 1146.11 397.004 1146.11ZM411.678 1137.7V1132.22H409.278V1148H417.438C420.286 1148 422.59 1145.7 422.59 1142.82C422.59 1140 420.318 1137.73 417.438 1137.7H411.678ZM424.958 1148H427.358V1132.22H424.958V1148ZM411.678 1145.7V1140.03H417.438C418.942 1140.03 420.19 1141.28 420.19 1142.82C420.19 1144.42 418.974 1145.66 417.438 1145.7H411.678ZM451.314 1145.7H444.306V1132.22H441.906V1145.7H434.834V1132.22H432.434V1148H453.714V1132.22H451.314V1145.7ZM468.857 1138.69L473.081 1132.22H470.425L466.137 1138.69H461.241V1132.22H458.841V1148H461.241V1140.96H468.729C469.849 1140.96 470.489 1141.57 470.489 1142.69V1148H472.889V1142.37C472.889 1139.97 471.545 1138.69 469.145 1138.69H468.857ZM479.928 1144.61V1132.22H477.528V1148H479.928L489.688 1135.58V1148H492.088V1132.22H489.688L479.928 1144.61ZM498.112 1144.16L495.744 1152.19H498.08L500.96 1144.16H498.112ZM528.398 1132.22H513.966V1148H516.366V1134.53H525.998V1148H528.398V1132.22ZM540.639 1148.42C545.599 1148.42 548.991 1144.67 548.991 1140.1C548.991 1135.49 545.599 1131.81 540.639 1131.81C535.583 1131.81 532.159 1135.49 532.159 1140.1C532.159 1144.67 535.583 1148.42 540.639 1148.42ZM540.639 1146.11C536.991 1146.11 534.591 1143.39 534.591 1140.1C534.591 1136.8 536.991 1134.11 540.639 1134.11C544.191 1134.11 546.591 1136.8 546.591 1140.1C546.591 1143.36 544.191 1146.11 540.639 1146.11ZM567.241 1132.22H552.809V1148H555.209V1134.53H564.841V1148H567.241V1132.22ZM585.371 1135.04H585.275C584.091 1133.15 581.915 1131.84 579.131 1131.81C574.395 1131.78 571.035 1135.3 571.035 1140.1C571.035 1144.9 574.459 1148.45 579.099 1148.42C581.947 1148.38 584.059 1147.01 585.275 1145.06H585.371V1148H587.739V1132.22H585.371V1135.04ZM579.451 1146.11C575.803 1146.11 573.435 1143.39 573.435 1140.1C573.435 1136.8 575.803 1134.11 579.451 1134.11C583.003 1134.11 585.371 1136.8 585.371 1140.1C585.371 1143.36 583.003 1146.11 579.451 1146.11ZM607.209 1132.22H594.217C594.217 1135.58 594.217 1141.28 594.121 1142.62C593.865 1145.7 592.297 1145.7 591.273 1145.7H591.145V1152.19H593.513V1148H607.561V1152.19H609.929V1145.7H607.209V1132.22ZM595.657 1145.7C596.073 1144.93 596.361 1143.87 596.425 1142.4C596.521 1140.35 596.553 1136.99 596.553 1134.53H604.809V1145.7H595.657ZM619.82 1131.81C614.988 1131.81 611.66 1135.55 611.66 1140.13C611.66 1144.64 614.86 1148.42 619.852 1148.42C623.532 1148.42 626.508 1146.37 627.564 1143.1H625.068C624.268 1144.93 622.316 1146.11 619.948 1146.11C616.716 1146.11 614.38 1143.84 614.188 1140.96H627.852C628.14 1135.71 624.812 1131.81 619.82 1131.81ZM619.756 1134.11C622.732 1134.11 624.876 1136.06 625.292 1138.82H614.252C614.604 1136.13 616.78 1134.11 619.756 1134.11ZM643.876 1138.69H634.116V1132.22H631.716V1148H634.116V1140.99H643.876V1148H646.276V1132.22H643.876V1138.69ZM653.803 1144.61V1132.22H651.403V1148H653.803L663.563 1135.58V1148H665.963V1132.22H663.563L653.803 1144.61ZM677.913 1131.81C673.081 1131.81 669.753 1135.55 669.753 1140.13C669.753 1144.64 672.953 1148.42 677.945 1148.42C681.625 1148.42 684.601 1146.37 685.657 1143.1H683.161C682.361 1144.93 680.409 1146.11 678.041 1146.11C674.809 1146.11 672.473 1143.84 672.281 1140.96H685.945C686.233 1135.71 682.905 1131.81 677.913 1131.81ZM677.849 1134.11C680.825 1134.11 682.969 1136.06 683.385 1138.82H672.345C672.697 1136.13 674.873 1134.11 677.849 1134.11ZM708.2 1138.69L712.424 1132.22H709.768L705.48 1138.69H700.584V1132.22H698.184V1148H700.584V1140.96H708.072C709.192 1140.96 709.832 1141.57 709.832 1142.69V1148H712.232V1142.37C712.232 1139.97 710.888 1138.69 708.488 1138.69H708.2ZM719.272 1144.61V1132.22H716.872V1148H719.272L729.032 1135.58V1148H731.432V1132.22H729.032L719.272 1144.61ZM751.478 1137.86C750.71 1134.37 747.574 1131.81 743.542 1131.81C738.614 1131.81 735.222 1135.46 735.222 1140.1C735.222 1144.74 738.614 1148.42 743.542 1148.42C747.574 1148.42 750.71 1145.79 751.478 1142.27H748.982C748.278 1144.51 746.198 1146.11 743.542 1146.11C740.022 1146.11 737.622 1143.42 737.622 1140.1C737.622 1136.77 740.022 1134.11 743.542 1134.11C746.262 1134.11 748.278 1135.74 748.982 1137.86H751.478ZM769.656 1132.22H756.568C756.536 1135.58 756.568 1141.28 756.44 1142.62C756.216 1145.66 754.616 1145.66 753.624 1145.66H753.304V1148.1H753.72C755.352 1148.1 758.488 1148.06 758.776 1142.66C758.904 1140.58 758.904 1137.06 758.904 1134.53H767.256V1148H769.656V1132.22ZM781.92 1148.42C786.88 1148.42 790.272 1144.67 790.272 1140.1C790.272 1135.49 786.88 1131.81 781.92 1131.81C776.864 1131.81 773.44 1135.49 773.44 1140.1C773.44 1144.67 776.864 1148.42 781.92 1148.42ZM781.92 1146.11C778.272 1146.11 775.872 1143.39 775.872 1140.1C775.872 1136.8 778.272 1134.11 781.92 1134.11C785.472 1134.11 787.872 1136.8 787.872 1140.1C787.872 1143.36 785.472 1146.11 781.92 1146.11ZM805.757 1132.22H791.677V1134.53H797.501V1148H799.901V1134.53H805.757V1132.22ZM811.366 1137.7V1132.22H808.966V1148H817.126C819.974 1148 822.278 1145.7 822.278 1142.82C822.278 1140 820.006 1137.73 817.126 1137.7H811.366ZM824.646 1148H827.046V1132.22H824.646V1148ZM811.366 1145.7V1140.03H817.126C818.63 1140.03 819.878 1141.28 819.878 1142.82C819.878 1144.42 818.662 1145.66 817.126 1145.7H811.366ZM55.6883 1172.69H45.9283V1166.22H43.5283V1182H45.9283V1174.99H55.6883V1182H58.0883V1166.22H55.6883V1172.69ZM76.2458 1169.04H76.1498C74.9658 1167.15 72.7898 1165.84 70.0058 1165.81C65.2698 1165.78 61.9098 1169.3 61.9098 1174.1C61.9098 1178.9 65.3338 1182.45 69.9738 1182.42C72.8218 1182.38 74.9338 1181.01 76.1498 1179.06H76.2458V1182H78.6138V1166.22H76.2458V1169.04ZM70.3258 1180.11C66.6778 1180.11 64.3098 1177.39 64.3098 1174.1C64.3098 1170.8 66.6778 1168.11 70.3258 1168.11C73.8778 1168.11 76.2458 1170.8 76.2458 1174.1C76.2458 1177.36 73.8778 1180.11 70.3258 1180.11ZM101.95 1172.69L106.174 1166.22H103.518L99.2306 1172.69H94.3346V1166.22H91.9346V1182H94.3346V1174.96H101.822C102.942 1174.96 103.582 1175.57 103.582 1176.69V1182H105.982V1176.37C105.982 1173.97 104.638 1172.69 102.238 1172.69H101.95ZM117.826 1182.42C122.786 1182.42 126.178 1178.67 126.178 1174.1C126.178 1169.49 122.786 1165.81 117.826 1165.81C112.77 1165.81 109.346 1169.49 109.346 1174.1C109.346 1178.67 112.77 1182.42 117.826 1182.42ZM117.826 1180.11C114.178 1180.11 111.778 1177.39 111.778 1174.1C111.778 1170.8 114.178 1168.11 117.826 1168.11C121.378 1168.11 123.778 1170.8 123.778 1174.1C123.778 1177.36 121.378 1180.11 117.826 1180.11ZM146.766 1172.72L150.958 1166.22H148.302L144.078 1172.72H141.262V1166.22H138.862V1172.72H136.078L131.822 1166.22H129.198L133.39 1172.72H133.102C130.702 1172.72 129.358 1174 129.358 1176.4V1182H131.758V1176.72C131.758 1175.6 132.398 1174.99 133.518 1174.99H138.862V1182H141.262V1174.99H146.638C147.758 1174.99 148.366 1175.6 148.366 1176.72V1182H150.766V1176.4C150.766 1174 149.454 1172.72 147.054 1172.72H146.766ZM161.781 1180.4L155.861 1166.22H153.205L160.533 1183.54L160.277 1184.21C159.765 1185.46 159.093 1186 157.685 1186H154.069V1188.4H157.685C160.149 1188.4 161.557 1187.25 162.453 1184.91L169.653 1166.22H167.221L161.781 1180.4ZM192.896 1173.71C194.24 1172.98 194.848 1171.7 194.848 1170.35C194.848 1168.14 193.184 1166.22 190.272 1166.22H181.184V1182H190.816C193.728 1182 195.52 1179.89 195.52 1177.58C195.52 1175.95 194.656 1174.45 192.896 1173.81V1173.71ZM190.208 1168.53C191.584 1168.53 192.448 1169.52 192.448 1170.67C192.448 1171.86 191.552 1172.88 190.08 1172.88H183.584V1168.53H190.208ZM183.584 1179.7V1175.18H190.592C192.128 1175.18 193.088 1176.18 193.088 1177.42C193.088 1178.61 192.16 1179.7 190.72 1179.7H183.584ZM206.57 1165.81C201.738 1165.81 198.41 1169.55 198.41 1174.13C198.41 1178.64 201.61 1182.42 206.602 1182.42C210.282 1182.42 213.258 1180.37 214.314 1177.1H211.818C211.018 1178.93 209.066 1180.11 206.698 1180.11C203.466 1180.11 201.13 1177.84 200.938 1174.96H214.602C214.89 1169.71 211.562 1165.81 206.57 1165.81ZM206.506 1168.11C209.482 1168.11 211.626 1170.06 212.042 1172.82H201.002C201.354 1170.13 203.53 1168.11 206.506 1168.11ZM232.553 1166.22H219.561C219.561 1169.58 219.561 1175.28 219.465 1176.62C219.209 1179.7 217.641 1179.7 216.617 1179.7H216.489V1186.19H218.857V1182H232.905V1186.19H235.273V1179.7H232.553V1166.22ZM221.001 1179.7C221.417 1178.93 221.705 1177.87 221.769 1176.4C221.865 1174.35 221.897 1170.99 221.897 1168.53H230.153V1179.7H221.001ZM241.131 1158.96V1163.5H243.467V1158.96H241.131ZM246.795 1158.96V1163.5H249.131V1158.96H246.795ZM245.163 1165.81C240.331 1165.81 237.003 1169.55 237.003 1174.13C237.003 1178.64 240.203 1182.42 245.195 1182.42C248.875 1182.42 251.851 1180.37 252.907 1177.1H250.411C249.611 1178.93 247.659 1180.11 245.291 1180.11C242.059 1180.11 239.723 1177.84 239.531 1174.96H253.195C253.483 1169.71 250.155 1165.81 245.163 1165.81ZM245.099 1168.11C248.075 1168.11 250.219 1170.06 250.635 1172.82H239.595C239.947 1170.13 242.123 1168.11 245.099 1168.11ZM268.725 1166.22H254.645V1168.53H260.469V1182H262.869V1168.53H268.725V1166.22ZM290.325 1172.69L294.549 1166.22H291.893L287.605 1172.69H282.709V1166.22H280.309V1182H282.709V1174.96H290.197C291.317 1174.96 291.957 1175.57 291.957 1176.69V1182H294.357V1176.37C294.357 1173.97 293.013 1172.69 290.613 1172.69H290.325ZM322.416 1171.86C321.648 1168.37 318.512 1165.81 314.48 1165.81C309.552 1165.81 306.16 1169.46 306.16 1174.1C306.16 1178.74 309.552 1182.42 314.48 1182.42C318.512 1182.42 321.648 1179.79 322.416 1176.27H319.92C319.216 1178.51 317.136 1180.11 314.48 1180.11C310.96 1180.11 308.56 1177.42 308.56 1174.1C308.56 1170.77 310.96 1168.11 314.48 1168.11C317.2 1168.11 319.216 1169.74 319.92 1171.86H322.416ZM333.382 1165.81C328.55 1165.81 325.222 1169.55 325.222 1174.13C325.222 1178.64 328.422 1182.42 333.414 1182.42C337.094 1182.42 340.07 1180.37 341.126 1177.1H338.63C337.83 1178.93 335.878 1180.11 333.51 1180.11C330.278 1180.11 327.942 1177.84 327.75 1174.96H341.414C341.702 1169.71 338.374 1165.81 333.382 1165.81ZM333.318 1168.11C336.294 1168.11 338.438 1170.06 338.854 1172.82H327.814C328.166 1170.13 330.342 1168.11 333.318 1168.11ZM353.918 1165.81C351.166 1165.84 348.99 1167.15 347.742 1169.04H347.678V1166.22H345.278V1188.4H347.678V1179.06H347.742C348.99 1181.01 351.166 1182.38 353.918 1182.42C358.59 1182.45 361.982 1178.9 361.982 1174.1C361.982 1169.3 358.622 1165.78 353.918 1165.81ZM353.598 1180.11C350.046 1180.11 347.678 1177.36 347.678 1174.1C347.678 1170.8 350.046 1168.11 353.598 1168.11C357.214 1168.11 359.582 1170.8 359.582 1174.1C359.582 1177.39 357.214 1180.11 353.598 1180.11ZM368.272 1171.7V1166.22H365.872V1182H374.704C377.584 1182 379.888 1179.7 379.888 1176.82C379.888 1174 377.616 1171.73 374.704 1171.7H368.272ZM368.272 1179.7V1174.03H374.704C376.24 1174.03 377.488 1175.28 377.488 1176.82C377.488 1178.42 376.24 1179.66 374.704 1179.7H368.272ZM386.444 1158.96V1163.5H388.78V1158.96H386.444ZM392.108 1158.96V1163.5H394.444V1158.96H392.108ZM390.476 1165.81C385.644 1165.81 382.316 1169.55 382.316 1174.13C382.316 1178.64 385.516 1182.42 390.508 1182.42C394.188 1182.42 397.164 1180.37 398.22 1177.1H395.724C394.924 1178.93 392.972 1180.11 390.604 1180.11C387.372 1180.11 385.036 1177.84 384.844 1174.96H398.508C398.796 1169.71 395.468 1165.81 390.476 1165.81ZM390.412 1168.11C393.388 1168.11 395.532 1170.06 395.948 1172.82H384.908C385.26 1170.13 387.436 1168.11 390.412 1168.11ZM412.77 1173.81C414.178 1173.23 414.914 1171.82 414.914 1170.38C414.914 1168.18 413.218 1166.22 410.338 1166.22H401.282V1168.53H410.242C411.65 1168.53 412.514 1169.55 412.514 1170.7C412.514 1171.89 411.586 1172.91 410.114 1172.91H403.618V1175.18H410.338C411.874 1175.18 412.834 1176.18 412.834 1177.42C412.834 1178.61 411.906 1179.7 410.466 1179.7H401.282V1182H410.562C413.506 1182 415.266 1179.86 415.266 1177.55C415.266 1175.95 414.37 1174.48 412.77 1173.9V1173.81ZM431.407 1172.69H421.647V1166.22H419.247V1182H421.647V1174.99H431.407V1182H433.807V1166.22H431.407V1172.69ZM441.334 1171.7V1166.22H438.934V1182H447.094C449.942 1182 452.246 1179.7 452.246 1176.82C452.246 1174 449.974 1171.73 447.094 1171.7H441.334ZM454.614 1182H457.014V1166.22H454.614V1182ZM441.334 1179.7V1174.03H447.094C448.598 1174.03 449.846 1175.28 449.846 1176.82C449.846 1178.42 448.63 1179.66 447.094 1179.7H441.334ZM480.651 1166.22H476.971L471.371 1178.61L465.803 1166.22H462.091V1182H464.491V1168.75L470.507 1182H472.267L478.251 1168.82V1182H480.651V1166.22ZM508.398 1166.22H493.966V1182H496.366V1168.53H505.998V1182H508.398V1166.22ZM520.639 1182.42C525.599 1182.42 528.991 1178.67 528.991 1174.1C528.991 1169.49 525.599 1165.81 520.639 1165.81C515.583 1165.81 512.159 1169.49 512.159 1174.1C512.159 1178.67 515.583 1182.42 520.639 1182.42ZM520.639 1180.11C516.991 1180.11 514.591 1177.39 514.591 1174.1C514.591 1170.8 516.991 1168.11 520.639 1168.11C524.191 1168.11 526.591 1170.8 526.591 1174.1C526.591 1177.36 524.191 1180.11 520.639 1180.11ZM548.166 1171.86C547.398 1168.37 544.262 1165.81 540.23 1165.81C535.302 1165.81 531.91 1169.46 531.91 1174.1C531.91 1178.74 535.302 1182.42 540.23 1182.42C544.262 1182.42 547.398 1179.79 548.166 1176.27H545.67C544.966 1178.51 542.886 1180.11 540.23 1180.11C536.71 1180.11 534.31 1177.42 534.31 1174.1C534.31 1170.77 536.71 1168.11 540.23 1168.11C542.95 1168.11 544.966 1169.74 545.67 1171.86H548.166ZM566.343 1166.22H553.255C553.223 1169.58 553.255 1175.28 553.127 1176.62C552.903 1179.66 551.303 1179.66 550.311 1179.66H549.991V1182.1H550.407C552.039 1182.1 555.175 1182.06 555.463 1176.66C555.591 1174.58 555.591 1171.06 555.591 1168.53H563.943V1182H566.343V1166.22ZM578.32 1165.81C573.488 1165.81 570.16 1169.55 570.16 1174.13C570.16 1178.64 573.36 1182.42 578.352 1182.42C582.032 1182.42 585.008 1180.37 586.064 1177.1H583.568C582.768 1178.93 580.816 1180.11 578.448 1180.11C575.216 1180.11 572.88 1177.84 572.688 1174.96H586.352C586.64 1169.71 583.312 1165.81 578.32 1165.81ZM578.256 1168.11C581.232 1168.11 583.376 1170.06 583.792 1172.82H572.752C573.104 1170.13 575.28 1168.11 578.256 1168.11ZM604.303 1166.22H591.311C591.311 1169.58 591.311 1175.28 591.215 1176.62C590.959 1179.7 589.391 1179.7 588.367 1179.7H588.239V1186.19H590.607V1182H604.655V1186.19H607.023V1179.7H604.303V1166.22ZM592.751 1179.7C593.167 1178.93 593.455 1177.87 593.519 1176.4C593.615 1174.35 593.647 1170.99 593.647 1168.53H601.903V1179.7H592.751ZM625.009 1171.86C624.241 1168.37 621.105 1165.81 617.073 1165.81C612.145 1165.81 608.753 1169.46 608.753 1174.1C608.753 1178.74 612.145 1182.42 617.073 1182.42C621.105 1182.42 624.241 1179.79 625.009 1176.27H622.513C621.809 1178.51 619.729 1180.11 617.073 1180.11C613.553 1180.11 611.153 1177.42 611.153 1174.1C611.153 1170.77 613.553 1168.11 617.073 1168.11C619.793 1168.11 621.809 1169.74 622.513 1171.86H625.009ZM640.382 1166.22H626.302V1168.53H632.126V1182H634.526V1168.53H640.382V1166.22ZM655.303 1173.71C656.647 1172.98 657.255 1171.7 657.255 1170.35C657.255 1168.14 655.591 1166.22 652.679 1166.22H643.591V1182H653.223C656.135 1182 657.927 1179.89 657.927 1177.58C657.927 1175.95 657.062 1174.45 655.303 1173.81V1173.71ZM652.615 1168.53C653.991 1168.53 654.855 1169.52 654.855 1170.67C654.855 1171.86 653.959 1172.88 652.487 1172.88H645.991V1168.53H652.615ZM645.991 1179.7V1175.18H652.999C654.535 1175.18 655.495 1176.18 655.495 1177.42C655.495 1178.61 654.567 1179.7 653.127 1179.7H645.991ZM664.178 1178.61V1166.22H661.778V1182H664.178L673.938 1169.58V1182H676.338V1166.22H673.938L664.178 1178.61ZM695.197 1166.22H686.141C682.909 1166.22 680.989 1168.4 680.989 1170.86C680.989 1172.43 681.725 1173.71 682.941 1174.38V1174.48C681.661 1174.86 681.021 1175.95 681.021 1177.49V1182H683.421V1177.81C683.421 1176.78 684.093 1176.14 685.181 1176.14H692.797V1182H695.197V1166.22ZM686.237 1173.84C684.605 1173.84 683.389 1172.66 683.389 1171.18C683.389 1169.78 684.445 1168.53 686.141 1168.53H692.797V1173.84H686.237ZM718.838 1166.22H715.158L709.558 1178.61L703.99 1166.22H700.278V1182H702.678V1168.75L708.694 1182H710.454L716.438 1168.82V1182H718.838V1166.22ZM724.893 1178.16L722.525 1186.19H724.861L727.741 1178.16H724.893ZM748.139 1182.42C753.099 1182.42 756.491 1178.67 756.491 1174.1C756.491 1169.49 753.099 1165.81 748.139 1165.81C743.083 1165.81 739.659 1169.49 739.659 1174.1C739.659 1178.67 743.083 1182.42 748.139 1182.42ZM748.139 1180.11C744.491 1180.11 742.091 1177.39 742.091 1174.1C742.091 1170.8 744.491 1168.11 748.139 1168.11C751.691 1168.11 754.091 1170.8 754.091 1174.1C754.091 1177.36 751.691 1180.11 748.139 1180.11ZM777.078 1172.72L781.27 1166.22H778.614L774.39 1172.72H771.574V1166.22H769.174V1172.72H766.39L762.134 1166.22H759.51L763.702 1172.72H763.414C761.014 1172.72 759.67 1174 759.67 1176.4V1182H762.07V1176.72C762.07 1175.6 762.71 1174.99 763.83 1174.99H769.174V1182H771.574V1174.99H776.95C778.07 1174.99 778.678 1175.6 778.678 1176.72V1182H781.078V1176.4C781.078 1174 779.766 1172.72 777.366 1172.72H777.078ZM792.764 1182.42C797.724 1182.42 801.116 1178.67 801.116 1174.1C801.116 1169.49 797.724 1165.81 792.764 1165.81C787.708 1165.81 784.284 1169.49 784.284 1174.1C784.284 1178.67 787.708 1182.42 792.764 1182.42ZM792.764 1180.11C789.116 1180.11 786.716 1177.39 786.716 1174.1C786.716 1170.8 789.116 1168.11 792.764 1168.11C796.316 1168.11 798.716 1170.8 798.716 1174.1C798.716 1177.36 796.316 1180.11 792.764 1180.11ZM816.902 1166.22H804.934V1182H807.334V1168.53H816.902V1166.22ZM832.527 1169.04H832.431C831.247 1167.15 829.071 1165.84 826.287 1165.81C821.551 1165.78 818.191 1169.3 818.191 1174.1C818.191 1178.9 821.615 1182.45 826.255 1182.42C829.103 1182.38 831.215 1181.01 832.431 1179.06H832.527V1182H834.895V1166.22H832.527V1169.04ZM826.607 1180.11C822.959 1180.11 820.591 1177.39 820.591 1174.1C820.591 1170.8 822.959 1168.11 826.607 1168.11C830.159 1168.11 832.527 1170.8 832.527 1174.1C832.527 1177.36 830.159 1180.11 826.607 1180.11ZM858.588 1166.22H854.908L849.308 1178.61L843.74 1166.22H840.028V1182H842.428V1168.75L848.444 1182H850.204L856.188 1168.82V1182H858.588V1166.22ZM863.865 1175.28H866.169L866.329 1160.56H863.737L863.865 1175.28ZM863.513 1178.8V1182H866.553V1178.8H863.513Z" fill="#A5A5A5"/>
<path d="M152.023 166.57H111.073V132.9H92.6133V220H111.073V184.51H152.023V220H170.613V132.9H152.023V166.57ZM254.518 220V202.06H206.288V184.25H248.928V167.09H206.288V150.84H254.518V132.9H187.828V220H254.518ZM358.703 166.57H317.753V132.9H299.293V220H317.753V184.51H358.703V220H377.293V132.9H358.703V166.57ZM434.711 221.82C462.661 221.82 480.601 201.41 480.601 176.58C480.601 151.75 462.531 130.95 434.711 130.95C406.761 130.95 388.821 151.75 388.821 176.58C388.821 201.41 406.761 221.82 434.711 221.82ZM434.711 203.75C417.811 203.75 407.671 191.01 407.671 176.45C407.671 161.63 417.941 149.15 434.711 149.15C451.481 149.15 461.751 161.63 461.751 176.45C461.751 191.14 451.481 203.75 434.711 203.75ZM558.797 184.77C556.197 195.95 546.837 203.75 533.967 203.75C517.457 203.75 507.707 191.01 507.707 176.45C507.707 161.76 517.587 149.28 533.707 149.15C546.577 149.02 555.547 156.69 558.407 167.22H577.647C574.657 146.81 557.627 130.95 533.837 130.95C506.537 130.95 488.857 151.62 488.857 176.58C488.857 201.54 506.537 221.82 533.837 221.82C558.277 221.82 575.177 205.83 577.907 184.77H558.797ZM606.444 191.79V132.9H587.984V220H606.444L647.784 161.11V220H666.374V132.9H647.784L606.444 191.79Z" fill="#630101"/>
<path d="M105.155 308.3V297.8H140.855V284H90.9551V351H124.455C138.855 351 146.855 340.4 146.855 329.3C146.855 318.2 139.055 308.2 124.455 308.3H105.155ZM105.155 337.2V321H123.055C128.955 321 132.355 324.7 132.355 329.1C132.355 333.5 128.855 337.2 123.055 337.2H105.155ZM181.4 322.2L162.5 284H146.5L174 336.9C173.4 337.2 172.7 337.3 171.9 337.3H155.7V351H172.2C181.8 351 186.6 345.2 189.7 337.2L211 283.9H196.4L181.4 322.2ZM213.516 284V297.8H235.916V351H250.216V297.8H272.716V284H213.516ZM294.706 305.2V284H280.506V351H311.106C324.206 351 334.406 341.2 334.406 328C334.406 314.4 324.106 305.2 311.106 305.2H294.706ZM341.206 351H355.506V284H341.206V351ZM294.706 337.2V318.8H310.006C316.306 318.8 320.006 323 320.006 328C320.006 332.9 316.306 337.2 310.006 337.2H294.706ZM427.897 284H375.597C375.397 293.7 375.797 321.5 374.197 329.7C372.897 336.8 369.397 336.8 366.997 336.8H364.297V351H368.897C374.597 351 384.997 350.9 387.797 333.4C388.897 326.9 389.097 312.1 389.297 297.8H413.597V351H427.897V284ZM492.353 351V337.2H455.253V323.5H488.053V310.3H455.253V297.8H492.353V284H441.053V351H492.353ZM542.065 279C546.365 279 549.465 275.9 549.465 271.6V266.2H538.965V268.5C538.965 269.4 538.265 270 537.465 270H528.565C527.665 270 527.065 269.4 527.065 268.5V266.2H516.465V271.6C516.465 275.9 519.565 279 523.865 279H542.065ZM517.265 329.3V284H503.065V351H517.265L549.065 305.7V351H563.365V284H549.065L517.265 329.3Z" fill="#630101"/>
<path d="M97.1167 424.38V418.08H118.537V409.8H88.5967V450H108.697C117.337 450 122.137 443.64 122.137 436.98C122.137 430.32 117.457 424.32 108.697 424.38H97.1167ZM97.1167 441.72V432H107.857C111.397 432 113.437 434.22 113.437 436.86C113.437 439.5 111.337 441.72 107.857 441.72H97.1167ZM160.083 450V441.72H137.823V433.5H157.503V425.58H137.823V418.08H160.083V409.8H129.303V450H160.083ZM192.19 429C195.79 427.56 198.07 424.14 198.07 420.24C198.07 413.82 192.85 409.8 186.25 409.8H166.57V418.08H184.87C187.57 418.08 189.19 419.76 189.19 421.8C189.19 423.84 187.51 425.64 184.81 425.64H170.95V433.86H185.17C188.05 433.86 189.79 435.66 189.79 437.76C189.79 439.92 188.05 441.66 185.23 441.66H166.57V450H186.49C193.27 450 198.61 445.2 198.61 438.48C198.61 433.74 195.79 430.44 192.19 429.24V429ZM258.411 409.8H248.991L240.111 425.4H231.231V409.8H222.711V450H231.231V433.44H246.531C248.151 433.44 249.051 434.28 249.051 435.84V450H257.571V434.04C257.571 428.46 254.931 425.46 249.351 425.4L258.411 409.8ZM286.741 409.8H266.581V450H275.101V437.4H286.741C294.481 437.4 300.721 431.76 300.721 423.6C300.721 415.68 294.601 409.8 286.741 409.8ZM275.101 429.3V418.08H286.081C289.381 418.08 292.081 420.3 292.081 423.6C292.081 427.08 289.441 429.3 286.081 429.3H275.101ZM316.042 422.52V409.8H307.522V450H325.882C333.742 450 339.862 444.12 339.862 436.2C339.862 428.04 333.682 422.52 325.882 422.52H316.042ZM343.942 450H352.522V409.8H343.942V450ZM316.042 441.72V430.68H325.222C329.002 430.68 331.222 433.2 331.222 436.2C331.222 439.14 329.002 441.72 325.222 441.72H316.042ZM405.192 441.72H392.292V409.8H383.772V441.72H370.752V409.8H362.232V450H413.772V409.8H405.192V441.72ZM454.285 450V441.72H432.025V433.5H451.705V425.58H432.025V418.08H454.285V409.8H423.505V450H454.285ZM498.212 409.8H488.792L479.912 425.4H471.032V409.8H462.512V450H471.032V433.44H486.332C487.952 433.44 488.852 434.28 488.852 435.84V450H497.372V434.04C497.372 428.46 494.732 425.46 489.152 425.4L498.212 409.8ZM507.466 436.68H514.846L515.446 409.8H506.926L507.466 436.68ZM506.806 441V450H515.506V441H506.806Z" fill="#630101"/>
<path d="M892 1022H18V1050H892V1022Z" fill="#630101"/>
</g>
<defs>
<clipPath id="clip0_497_66">
<rect width="900" height="1250" fill="white"/>
</clipPath>
</defs>
</svg>
