<svg width="900" height="1250" viewBox="0 0 900 1250" fill="none" xmlns="http://www.w3.org/2000/svg">
<g clip-path="url(#clip0_197_29702)">
<rect width="1250" height="900" transform="translate(0 1250) rotate(-90)" fill="black"/>
<path d="M113.088 151.91L126.318 127.7H114.528L101.478 151.91H84.738V127.7H73.938V188H84.738V162.17H110.388C112.998 162.17 114.348 163.34 114.348 166.04V188H125.148V163.88C125.148 156.05 121.368 151.91 113.268 151.91H113.088ZM169.822 149.48H169.372C166.402 145.16 161.092 142.1 154.162 142.01C141.292 141.92 132.112 151.82 132.112 165.68C132.112 179.72 141.562 189.44 154.162 189.26C161.182 189.26 166.402 186.02 169.372 181.52H169.822V188H180.082V143.27H169.822V149.48ZM156.232 179.36C148.042 179.36 142.552 173.33 142.552 165.59C142.552 157.85 148.042 151.82 156.232 151.82C164.332 151.82 169.732 157.94 169.732 165.59C169.732 173.15 164.332 179.36 156.232 179.36ZM233.182 143.27H221.932L211.942 160.82H201.412V143.27H191.062V188H201.412V170.09H218.062C220.582 170.09 222.112 171.53 222.112 173.96V188H232.462V171.53C232.462 165.05 228.772 161.45 223.102 160.91L233.182 143.27ZM290.635 142.01C283.885 142.1 278.485 145.16 275.425 149.48H274.975V143.27H264.715V206H274.975V181.52H275.425C278.395 186.02 283.795 189.26 290.635 189.26C303.235 189.44 312.685 179.72 312.685 165.68C312.685 151.82 303.505 141.92 290.635 142.01ZM288.565 179.36C280.465 179.36 275.065 173.15 275.065 165.59C275.065 157.94 280.465 151.82 288.565 151.82C296.755 151.82 302.245 157.85 302.245 165.59C302.245 173.33 296.755 179.36 288.565 179.36ZM356.151 149.48H355.701C352.731 145.16 347.421 142.1 340.491 142.01C327.621 141.92 318.441 151.82 318.441 165.68C318.441 179.72 327.891 189.44 340.491 189.26C347.511 189.26 352.731 186.02 355.701 181.52H356.151V188H366.411V143.27H356.151V149.48ZM342.561 179.36C334.371 179.36 328.881 173.33 328.881 165.59C328.881 157.85 334.371 151.82 342.561 151.82C350.661 151.82 356.061 157.94 356.061 165.59C356.061 173.15 350.661 179.36 342.561 179.36ZM402.323 144.89C396.023 144.89 389.993 147.32 386.213 152.18H385.853V146.78C385.853 138.95 390.983 133.73 398.813 133.73H418.973V123.2H399.353C385.403 123.2 376.043 133.01 376.043 146.96V166.31C376.043 179.27 385.583 189.17 399.893 189.17C414.293 189.17 423.653 179.27 423.653 166.49C423.653 154.07 414.653 144.89 402.323 144.89ZM399.983 179.27C391.973 179.27 386.483 173.96 386.483 166.76C386.483 159.74 391.883 154.34 399.983 154.34C407.993 154.34 413.213 159.92 413.213 166.67C413.213 173.6 407.993 179.27 399.983 179.27ZM453.391 189.26C467.701 189.26 477.241 178.82 477.241 165.59C477.241 152.36 467.791 142.01 453.391 142.01C438.721 142.01 429.181 152.36 429.181 165.59C429.181 178.82 438.811 189.26 453.391 189.26ZM453.391 179.36C445.111 179.36 439.621 173.24 439.621 165.68C439.621 158.03 445.021 152 453.391 152C461.491 152 466.891 158.03 466.891 165.68C466.891 173.15 461.491 179.36 453.391 179.36ZM520.64 143.27H479.78V153.26H495.08V188H505.43V153.26H520.64V143.27ZM560.936 149.48H560.486C557.516 145.16 552.206 142.1 545.276 142.01C532.406 141.92 523.226 151.82 523.226 165.68C523.226 179.72 532.676 189.44 545.276 189.26C552.296 189.26 557.516 186.02 560.486 181.52H560.936V188H571.196V143.27H560.936V149.48ZM547.346 179.36C539.156 179.36 533.666 173.33 533.666 165.59C533.666 157.85 539.156 151.82 547.346 151.82C555.446 151.82 560.846 157.94 560.846 165.59C560.846 173.15 555.446 179.36 547.346 179.36ZM625.378 143.27H586.768C586.768 152 586.768 166.13 586.408 170.36C585.868 178.01 582.268 178.01 579.478 178.01H578.488V188.27H580.378C586.138 188.27 595.498 188.27 596.398 170.63C596.578 166.49 596.758 159.47 596.758 153.26H615.028V188H625.378V143.27Z" fill="#A5A5A5"/>
<path d="M156.845 247.27H115.985V257.26H131.285V292H141.635V257.26H156.845V247.27ZM197.141 253.48H196.691C193.721 249.16 188.411 246.1 181.481 246.01C168.611 245.92 159.431 255.82 159.431 269.68C159.431 283.72 168.881 293.44 181.481 293.26C188.501 293.26 193.721 290.02 196.691 285.52H197.141V292H207.401V247.27H197.141V253.48ZM183.551 283.36C175.361 283.36 169.871 277.33 169.871 269.59C169.871 261.85 175.361 255.82 183.551 255.82C191.651 255.82 197.051 261.94 197.051 269.59C197.051 277.15 191.651 283.36 183.551 283.36ZM260.501 247.27H249.251L239.261 264.82H228.731V247.27H218.381V292H228.731V274.09H245.381C247.901 274.09 249.431 275.53 249.431 277.96V292H259.781V275.53C259.781 269.05 256.091 265.45 250.421 264.91L260.501 247.27ZM302.383 277.33V247.27H292.033V292H302.383L324.703 262.03V292H335.053V247.27H324.703L302.383 277.33ZM399.469 268.78C403.429 267.07 405.319 263.11 405.319 259.33C405.319 253.3 400.729 247.27 391.549 247.27H365.809V257.08H390.469C393.349 257.08 394.789 259.06 394.789 261.04C394.789 263.02 393.259 265.09 390.559 265.09H373.099V274.18H391.369C394.249 274.18 395.599 276.16 395.599 278.05C395.599 280.12 394.159 282.19 391.279 282.19H365.809V292H392.449C401.539 292 406.309 285.52 406.309 279.31C406.309 274.99 404.059 270.76 399.469 269.14V268.78ZM449.475 253.48H449.025C446.055 249.16 440.745 246.1 433.815 246.01C420.945 245.92 411.765 255.82 411.765 269.68C411.765 283.72 421.215 293.44 433.815 293.26C440.835 293.26 446.055 290.02 449.025 285.52H449.475V292H459.735V247.27H449.475V253.48ZM435.885 283.36C427.695 283.36 422.205 277.33 422.205 269.59C422.205 261.85 427.695 255.82 435.885 255.82C443.985 255.82 449.385 261.94 449.385 269.59C449.385 277.15 443.985 283.36 435.885 283.36ZM496.635 246.01C489.885 246.1 484.485 249.16 481.425 253.48H480.975V247.27H470.715V310H480.975V285.52H481.425C484.395 290.02 489.795 293.26 496.635 293.26C509.235 293.44 518.685 283.72 518.685 269.68C518.685 255.82 509.505 245.92 496.635 246.01ZM494.565 283.36C486.465 283.36 481.065 277.15 481.065 269.59C481.065 261.94 486.465 255.82 494.565 255.82C502.755 255.82 508.245 261.85 508.245 269.59C508.245 277.33 502.755 283.36 494.565 283.36ZM562.151 253.48H561.701C558.731 249.16 553.421 246.1 546.491 246.01C533.621 245.92 524.441 255.82 524.441 269.68C524.441 283.72 533.891 293.44 546.491 293.26C553.511 293.26 558.731 290.02 561.701 285.52H562.151V292H572.411V247.27H562.151V253.48ZM548.561 283.36C540.371 283.36 534.881 277.33 534.881 269.59C534.881 261.85 540.371 255.82 548.561 255.82C556.661 255.82 562.061 261.94 562.061 269.59C562.061 277.15 556.661 283.36 548.561 283.36ZM608.323 248.89C602.023 248.89 595.993 251.32 592.213 256.18H591.853V250.78C591.853 242.95 596.983 237.73 604.813 237.73H624.973V227.2H605.353C591.403 227.2 582.043 237.01 582.043 250.96V270.31C582.043 283.27 591.583 293.17 605.893 293.17C620.293 293.17 629.653 283.27 629.653 270.49C629.653 258.07 620.653 248.89 608.323 248.89ZM605.983 283.27C597.973 283.27 592.483 277.96 592.483 270.76C592.483 263.74 597.883 258.34 605.983 258.34C613.993 258.34 619.213 263.92 619.213 270.67C619.213 277.6 613.993 283.27 605.983 283.27ZM659.391 293.26C673.701 293.26 683.241 282.82 683.241 269.59C683.241 256.36 673.791 246.01 659.391 246.01C644.721 246.01 635.181 256.36 635.181 269.59C635.181 282.82 644.811 293.26 659.391 293.26ZM659.391 283.36C651.111 283.36 645.621 277.24 645.621 269.68C645.621 262.03 651.021 256 659.391 256C667.491 256 672.891 262.03 672.891 269.68C672.891 277.15 667.491 283.36 659.391 283.36ZM726.64 247.27H685.78V257.26H701.08V292H711.43V257.26H726.64V247.27ZM766.936 253.48H766.486C763.516 249.16 758.206 246.1 751.276 246.01C738.406 245.92 729.226 255.82 729.226 269.68C729.226 283.72 738.676 293.44 751.276 293.26C758.296 293.26 763.516 290.02 766.486 285.52H766.936V292H777.196V247.27H766.936V253.48ZM753.346 283.36C745.156 283.36 739.666 277.33 739.666 269.59C739.666 261.85 745.156 255.82 753.346 255.82C761.446 255.82 766.846 261.94 766.846 269.59C766.846 277.15 761.446 283.36 753.346 283.36ZM831.378 247.27H792.768C792.768 256 792.768 270.13 792.408 274.36C791.868 282.01 788.268 282.01 785.478 282.01H784.488V292.27H786.378C792.138 292.27 801.498 292.27 802.398 274.63C802.578 270.49 802.758 263.47 802.758 257.26H821.028V292H831.378V247.27Z" fill="#A5A5A5"/>
<path d="M43.1 1056.25H35.475V1073H37.4V1066.8H43.075C46.4 1066.8 48.725 1064.5 48.725 1061.55C48.725 1058.65 46.45 1056.25 43.1 1056.25ZM37.4 1064.97V1058.12H43.05C45.325 1058.12 46.775 1059.67 46.775 1061.55C46.775 1063.45 45.35 1064.97 43.05 1064.97H37.4ZM61.4633 1062.87H61.3883C60.4633 1061.4 58.7633 1060.38 56.5883 1060.35C52.8883 1060.32 50.2633 1063.07 50.2633 1066.82C50.2633 1070.57 52.9383 1073.35 56.5633 1073.33C58.7883 1073.3 60.4383 1072.22 61.3883 1070.7H61.4633V1073H63.3133V1060.67H61.4633V1062.87ZM56.8383 1071.52C53.9883 1071.52 52.1383 1069.4 52.1383 1066.82C52.1383 1064.25 53.9883 1062.15 56.8383 1062.15C59.6133 1062.15 61.4633 1064.25 61.4633 1066.82C61.4633 1069.37 59.6133 1071.52 56.8383 1071.52ZM73.7254 1061.05C71.6754 1061.05 69.7754 1061.92 68.6504 1063.62H68.5754V1061.67C68.5754 1058.67 70.3254 1056.9 73.3254 1056.9H78.5504V1055H73.5254C69.3504 1055 66.8504 1057.65 66.8504 1061.82V1067.1C66.8504 1070.57 69.5254 1073.3 73.3754 1073.3C77.2504 1073.3 79.8504 1070.55 79.8504 1067.12C79.8504 1063.72 77.3004 1061.05 73.7254 1061.05ZM73.4004 1071.52C70.6254 1071.52 68.7504 1069.57 68.7504 1067.15C68.7504 1064.75 70.6254 1062.8 73.4004 1062.8C76.1504 1062.8 77.9754 1064.77 77.9754 1067.12C77.9754 1069.52 76.1504 1071.52 73.4004 1071.52ZM88.6992 1073.33C92.5742 1073.33 95.2242 1070.4 95.2242 1066.82C95.2242 1063.22 92.5742 1060.35 88.6992 1060.35C84.7492 1060.35 82.0742 1063.22 82.0742 1066.82C82.0742 1070.4 84.7492 1073.33 88.6992 1073.33ZM88.6992 1071.52C85.8492 1071.52 83.9742 1069.4 83.9742 1066.82C83.9742 1064.25 85.8492 1062.15 88.6992 1062.15C91.4742 1062.15 93.3492 1064.25 93.3492 1066.82C93.3492 1069.37 91.4742 1071.52 88.6992 1071.52ZM107.321 1060.67H96.3215V1062.47H100.871V1073H102.746V1062.47H107.321V1060.67ZM119.618 1062.87H119.543C118.618 1061.4 116.918 1060.38 114.743 1060.35C111.043 1060.32 108.418 1063.07 108.418 1066.82C108.418 1070.57 111.093 1073.35 114.718 1073.33C116.943 1073.3 118.593 1072.22 119.543 1070.7H119.618V1073H121.468V1060.67H119.618V1062.87ZM114.993 1071.52C112.143 1071.52 110.293 1069.4 110.293 1066.82C110.293 1064.25 112.143 1062.15 114.993 1062.15C117.768 1062.15 119.618 1064.25 119.618 1066.82C119.618 1069.37 117.768 1071.52 114.993 1071.52ZM132.903 1058.55C134.028 1058.55 134.828 1057.72 134.828 1056.6V1055H133.203V1056.35C133.203 1056.77 132.878 1057.1 132.453 1057.1H129.878C129.453 1057.1 129.128 1056.77 129.128 1056.35V1055H127.503V1056.6C127.503 1057.72 128.303 1058.55 129.428 1058.55H132.903ZM127.353 1070.35V1060.67H125.478V1073H127.353L134.978 1063.3V1073H136.853V1060.67H134.978L127.353 1070.35ZM152.531 1071.75L147.906 1060.67H145.831L151.556 1074.2L151.356 1074.73C150.956 1075.7 150.431 1076.12 149.331 1076.12H146.506V1078H149.331C151.256 1078 152.356 1077.1 153.056 1075.28L158.681 1060.67H156.781L152.531 1071.75ZM172.534 1065.07C171.934 1062.35 169.484 1060.35 166.334 1060.35C162.484 1060.35 159.834 1063.2 159.834 1066.82C159.834 1070.45 162.484 1073.33 166.334 1073.33C169.484 1073.33 171.934 1071.27 172.534 1068.52H170.584C170.034 1070.27 168.409 1071.52 166.334 1071.52C163.584 1071.52 161.709 1069.42 161.709 1066.82C161.709 1064.22 163.584 1062.15 166.334 1062.15C168.459 1062.15 170.034 1063.42 170.584 1065.07H172.534ZM181.101 1060.35C177.326 1060.35 174.726 1063.27 174.726 1066.85C174.726 1070.37 177.226 1073.33 181.126 1073.33C184.001 1073.33 186.326 1071.72 187.151 1069.17H185.201C184.576 1070.6 183.051 1071.52 181.201 1071.52C178.676 1071.52 176.851 1069.75 176.701 1067.5H187.376C187.601 1063.4 185.001 1060.35 181.101 1060.35ZM181.051 1062.15C183.376 1062.15 185.051 1063.67 185.376 1065.82H176.751C177.026 1063.72 178.726 1062.15 181.051 1062.15ZM197.145 1060.35C194.995 1060.38 193.295 1061.4 192.32 1062.87H192.27V1060.67H190.395V1078H192.27V1070.7H192.32C193.295 1072.22 194.995 1073.3 197.145 1073.33C200.795 1073.35 203.445 1070.57 203.445 1066.82C203.445 1063.07 200.82 1060.32 197.145 1060.35ZM196.895 1071.52C194.12 1071.52 192.27 1069.37 192.27 1066.82C192.27 1064.25 194.12 1062.15 196.895 1062.15C199.72 1062.15 201.57 1064.25 201.57 1066.82C201.57 1069.4 199.72 1071.52 196.895 1071.52ZM217.49 1060.67H207.34C207.34 1063.3 207.34 1067.75 207.265 1068.8C207.065 1071.2 205.84 1071.2 205.04 1071.2H204.94V1076.28H206.79V1073H217.765V1076.28H219.615V1071.2H217.49V1060.67ZM208.465 1071.2C208.79 1070.6 209.015 1069.77 209.065 1068.62C209.14 1067.02 209.165 1064.4 209.165 1062.47H215.615V1071.2H208.465ZM231.682 1065.72H224.057V1060.67H222.182V1073H224.057V1067.52H231.682V1073H233.557V1060.67H231.682V1065.72ZM243.143 1073.33C247.018 1073.33 249.668 1070.4 249.668 1066.82C249.668 1063.22 247.018 1060.35 243.143 1060.35C239.193 1060.35 236.518 1063.22 236.518 1066.82C236.518 1070.4 239.193 1073.33 243.143 1073.33ZM243.143 1071.52C240.293 1071.52 238.418 1069.4 238.418 1066.82C238.418 1064.25 240.293 1062.15 243.143 1062.15C245.918 1062.15 247.793 1064.25 247.793 1066.82C247.793 1069.37 245.918 1071.52 243.143 1071.52ZM253.204 1070L251.354 1076.28H253.179L255.429 1070H253.204ZM273.415 1065.72L276.715 1060.67H274.64L271.29 1065.72H267.465V1060.67H265.59V1073H267.465V1067.5H273.315C274.19 1067.5 274.69 1067.97 274.69 1068.85V1073H276.565V1068.6C276.565 1066.72 275.515 1065.72 273.64 1065.72H273.415ZM290.418 1062.87H290.343C289.418 1061.4 287.718 1060.38 285.543 1060.35C281.843 1060.32 279.218 1063.07 279.218 1066.82C279.218 1070.57 281.893 1073.35 285.518 1073.33C287.743 1073.3 289.393 1072.22 290.343 1070.7H290.418V1073H292.268V1060.67H290.418V1062.87ZM285.793 1071.52C282.943 1071.52 281.093 1069.4 281.093 1066.82C281.093 1064.25 282.943 1062.15 285.793 1062.15C288.568 1062.15 290.418 1064.25 290.418 1066.82C290.418 1069.37 288.568 1071.52 285.793 1071.52ZM304.604 1066.65H298.854C297.979 1066.65 297.454 1066.15 297.454 1065.3V1060.67H295.579V1065.55C295.579 1067.42 296.654 1068.42 298.554 1068.42H304.604V1073H306.479V1060.67H304.604V1066.65ZM315.818 1060.35C312.043 1060.35 309.443 1063.27 309.443 1066.85C309.443 1070.37 311.943 1073.33 315.843 1073.33C318.718 1073.33 321.043 1071.72 321.868 1069.17H319.918C319.293 1070.6 317.768 1071.52 315.918 1071.52C313.393 1071.52 311.568 1069.75 311.418 1067.5H322.093C322.318 1063.4 319.718 1060.35 315.818 1060.35ZM315.768 1062.15C318.093 1062.15 319.768 1063.67 320.093 1065.82H311.468C311.743 1063.72 313.443 1062.15 315.768 1062.15ZM337.109 1065.07C336.509 1062.35 334.059 1060.35 330.909 1060.35C327.059 1060.35 324.409 1063.2 324.409 1066.82C324.409 1070.45 327.059 1073.33 330.909 1073.33C334.059 1073.33 336.509 1071.27 337.109 1068.52H335.159C334.609 1070.27 332.984 1071.52 330.909 1071.52C328.159 1071.52 326.284 1069.42 326.284 1066.82C326.284 1064.22 328.159 1062.15 330.909 1062.15C333.034 1062.15 334.609 1063.42 335.159 1065.07H337.109ZM349.118 1060.67H338.118V1062.47H342.668V1073H344.543V1062.47H349.118V1060.67ZM360.775 1066.52C361.825 1065.95 362.3 1064.95 362.3 1063.9C362.3 1062.17 361 1060.67 358.725 1060.67H351.625V1073H359.15C361.425 1073 362.825 1071.35 362.825 1069.55C362.825 1068.27 362.15 1067.1 360.775 1066.6V1066.52ZM358.675 1062.47C359.75 1062.47 360.425 1063.25 360.425 1064.15C360.425 1065.07 359.725 1065.87 358.575 1065.87H353.5V1062.47H358.675ZM353.5 1071.2V1067.67H358.975C360.175 1067.67 360.925 1068.45 360.925 1069.42C360.925 1070.35 360.2 1071.2 359.075 1071.2H353.5ZM371.458 1060.35C367.683 1060.35 365.083 1063.27 365.083 1066.85C365.083 1070.37 367.583 1073.33 371.483 1073.33C374.358 1073.33 376.683 1071.72 377.508 1069.17H375.558C374.933 1070.6 373.408 1071.52 371.558 1071.52C369.033 1071.52 367.208 1069.75 367.058 1067.5H377.733C377.958 1063.4 375.358 1060.35 371.458 1060.35ZM371.408 1062.15C373.733 1062.15 375.408 1063.67 375.733 1065.82H367.108C367.383 1063.72 369.083 1062.15 371.408 1062.15ZM390.251 1065.72H382.626V1060.67H380.751V1073H382.626V1067.52H390.251V1073H392.126V1060.67H390.251V1065.72ZM405.632 1065.72H398.007V1060.67H396.132V1073H398.007V1067.52H405.632V1073H407.507V1060.67H405.632V1065.72ZM417.093 1073.33C420.968 1073.33 423.618 1070.4 423.618 1066.82C423.618 1063.22 420.968 1060.35 417.093 1060.35C413.143 1060.35 410.468 1063.22 410.468 1066.82C410.468 1070.4 413.143 1073.33 417.093 1073.33ZM417.093 1071.52C414.243 1071.52 412.368 1069.4 412.368 1066.82C412.368 1064.25 414.243 1062.15 417.093 1062.15C419.868 1062.15 421.743 1064.25 421.743 1066.82C421.743 1069.37 419.868 1071.52 417.093 1071.52ZM427.155 1070L425.305 1076.28H427.13L429.38 1070H427.155ZM451.09 1060.67H440.865C440.84 1063.3 440.865 1067.75 440.765 1068.8C440.59 1071.17 439.34 1071.17 438.565 1071.17H438.315V1073.08H438.64C439.915 1073.08 442.365 1073.05 442.59 1068.82C442.69 1067.2 442.69 1064.45 442.69 1062.47H449.215V1073H451.09V1060.67ZM465.917 1060.35C462.517 1060.35 460.092 1062.65 459.642 1065.75H456.967V1060.67H455.092V1073H456.967V1067.55H459.592C459.917 1070.8 462.392 1073.33 465.917 1073.33C469.642 1073.33 472.192 1070.42 472.192 1066.82C472.192 1063.2 469.642 1060.35 465.917 1060.35ZM465.917 1071.52C463.242 1071.52 461.442 1069.45 461.442 1066.82C461.442 1064.22 463.242 1062.15 465.917 1062.15C468.542 1062.15 470.317 1064.22 470.317 1066.82C470.317 1069.42 468.542 1071.52 465.917 1071.52ZM481.782 1061.05C479.732 1061.05 477.832 1061.92 476.707 1063.62H476.632V1061.67C476.632 1058.67 478.382 1056.9 481.382 1056.9H486.607V1055H481.582C477.407 1055 474.907 1057.65 474.907 1061.82V1067.1C474.907 1070.57 477.582 1073.3 481.432 1073.3C485.307 1073.3 487.907 1070.55 487.907 1067.12C487.907 1063.72 485.357 1061.05 481.782 1061.05ZM481.457 1071.52C478.682 1071.52 476.807 1069.57 476.807 1067.15C476.807 1064.75 478.682 1062.8 481.457 1062.8C484.207 1062.8 486.032 1064.77 486.032 1067.12C486.032 1069.52 484.207 1071.52 481.457 1071.52ZM492.709 1070.35V1060.67H490.834V1073H492.709L500.334 1063.3V1073H502.209V1060.67H500.334L492.709 1070.35ZM524.462 1065.07C523.862 1062.35 521.412 1060.35 518.262 1060.35C514.412 1060.35 511.762 1063.2 511.762 1066.82C511.762 1070.45 514.412 1073.33 518.262 1073.33C521.412 1073.33 523.862 1071.27 524.462 1068.52H522.512C521.962 1070.27 520.337 1071.52 518.262 1071.52C515.512 1071.52 513.637 1069.42 513.637 1066.82C513.637 1064.22 515.512 1062.15 518.262 1062.15C520.387 1062.15 521.962 1063.42 522.512 1065.07H524.462ZM536.508 1066.52C537.558 1065.95 538.033 1064.95 538.033 1063.9C538.033 1062.17 536.733 1060.67 534.458 1060.67H527.358V1073H534.883C537.158 1073 538.558 1071.35 538.558 1069.55C538.558 1068.27 537.883 1067.1 536.508 1066.6V1066.52ZM534.408 1062.47C535.483 1062.47 536.158 1063.25 536.158 1064.15C536.158 1065.07 535.458 1065.87 534.308 1065.87H529.233V1062.47H534.408ZM529.233 1071.2V1067.67H534.708C535.908 1067.67 536.658 1068.45 536.658 1069.42C536.658 1070.35 535.933 1071.2 534.808 1071.2H529.233ZM547.415 1073.33C551.29 1073.33 553.94 1070.4 553.94 1066.82C553.94 1063.22 551.29 1060.35 547.415 1060.35C543.465 1060.35 540.79 1063.22 540.79 1066.82C540.79 1070.4 543.465 1073.33 547.415 1073.33ZM547.415 1071.52C544.565 1071.52 542.69 1069.4 542.69 1066.82C542.69 1064.25 544.565 1062.15 547.415 1062.15C550.19 1062.15 552.065 1064.25 552.065 1066.82C552.065 1069.37 550.19 1071.52 547.415 1071.52ZM567.748 1060.35C564.348 1060.35 561.923 1062.65 561.473 1065.75H558.798V1060.67H556.923V1073H558.798V1067.55H561.423C561.748 1070.8 564.223 1073.33 567.748 1073.33C571.473 1073.33 574.023 1070.42 574.023 1066.82C574.023 1063.2 571.473 1060.35 567.748 1060.35ZM567.748 1071.52C565.073 1071.52 563.273 1069.45 563.273 1066.82C563.273 1064.22 565.073 1062.15 567.748 1062.15C570.373 1062.15 572.148 1064.22 572.148 1066.82C572.148 1069.42 570.373 1071.52 567.748 1071.52ZM590.309 1060.35C588.159 1060.38 586.459 1061.4 585.484 1062.87H585.434V1060.67H583.559V1078H585.434V1070.7H585.484C586.459 1072.22 588.159 1073.3 590.309 1073.33C593.959 1073.35 596.609 1070.57 596.609 1066.82C596.609 1063.07 593.984 1060.32 590.309 1060.35ZM590.059 1071.52C587.284 1071.52 585.434 1069.37 585.434 1066.82C585.434 1064.25 587.284 1062.15 590.059 1062.15C592.884 1062.15 594.734 1064.25 594.734 1066.82C594.734 1069.4 592.884 1071.52 590.059 1071.52ZM610.145 1062.87H610.07C609.145 1061.4 607.445 1060.38 605.27 1060.35C601.57 1060.32 598.945 1063.07 598.945 1066.82C598.945 1070.57 601.62 1073.35 605.245 1073.33C607.47 1073.3 609.12 1072.22 610.07 1070.7H610.145V1073H611.995V1060.67H610.145V1062.87ZM605.52 1071.52C602.67 1071.52 600.82 1069.4 600.82 1066.82C600.82 1064.25 602.67 1062.15 605.52 1062.15C608.295 1062.15 610.145 1064.25 610.145 1066.82C610.145 1069.37 608.295 1071.52 605.52 1071.52ZM622.407 1061.05C620.357 1061.05 618.457 1061.92 617.332 1063.62H617.257V1061.67C617.257 1058.67 619.007 1056.9 622.007 1056.9H627.232V1055H622.207C618.032 1055 615.532 1057.65 615.532 1061.82V1067.1C615.532 1070.57 618.207 1073.3 622.057 1073.3C625.932 1073.3 628.532 1070.55 628.532 1067.12C628.532 1063.72 625.982 1061.05 622.407 1061.05ZM622.082 1071.52C619.307 1071.52 617.432 1069.57 617.432 1067.15C617.432 1064.75 619.307 1062.8 622.082 1062.8C624.832 1062.8 626.657 1064.77 626.657 1067.12C626.657 1069.52 624.832 1071.52 622.082 1071.52ZM637.381 1073.33C641.256 1073.33 643.906 1070.4 643.906 1066.82C643.906 1063.22 641.256 1060.35 637.381 1060.35C633.431 1060.35 630.756 1063.22 630.756 1066.82C630.756 1070.4 633.431 1073.33 637.381 1073.33ZM637.381 1071.52C634.531 1071.52 632.656 1069.4 632.656 1066.82C632.656 1064.25 634.531 1062.15 637.381 1062.15C640.156 1062.15 642.031 1064.25 642.031 1066.82C642.031 1069.37 640.156 1071.52 637.381 1071.52ZM656.003 1060.67H645.003V1062.47H649.553V1073H651.428V1062.47H656.003V1060.67ZM663.932 1071.75L659.307 1060.67H657.232L662.957 1074.2L662.757 1074.73C662.357 1075.7 661.832 1076.12 660.732 1076.12H657.907V1078H660.732C662.657 1078 663.757 1077.1 664.457 1075.28L670.082 1060.67H668.182L663.932 1071.75ZM672.003 1070L670.153 1076.28H671.978L674.228 1070H672.003ZM690.164 1073.33C694.039 1073.33 696.689 1070.4 696.689 1066.82C696.689 1063.22 694.039 1060.35 690.164 1060.35C686.214 1060.35 683.539 1063.22 683.539 1066.82C683.539 1070.4 686.214 1073.33 690.164 1073.33ZM690.164 1071.52C687.314 1071.52 685.439 1069.4 685.439 1066.82C685.439 1064.25 687.314 1062.15 690.164 1062.15C692.939 1062.15 694.814 1064.25 694.814 1066.82C694.814 1069.37 692.939 1071.52 690.164 1071.52ZM708.786 1060.67H697.786V1062.47H702.336V1073H704.211V1062.47H708.786V1060.67ZM721.86 1060.67H711.71C711.71 1063.3 711.71 1067.75 711.635 1068.8C711.435 1071.2 710.21 1071.2 709.41 1071.2H709.31V1076.28H711.16V1073H722.135V1076.28H723.985V1071.2H721.86V1060.67ZM712.835 1071.2C713.16 1070.6 713.385 1069.77 713.435 1068.62C713.51 1067.02 713.535 1064.4 713.535 1062.47H719.985V1071.2H712.835ZM728.427 1064.95V1060.67H726.552V1073H732.927C735.152 1073 736.952 1071.2 736.952 1068.95C736.952 1066.75 735.177 1064.97 732.927 1064.95H728.427ZM738.802 1073H740.677V1060.67H738.802V1073ZM728.427 1071.2V1066.77H732.927C734.102 1066.77 735.077 1067.75 735.077 1068.95C735.077 1070.2 734.127 1071.17 732.927 1071.2H728.427ZM750.47 1066.7L755.32 1060.67H753.02L749.37 1065.35L745.72 1060.67H743.27L748.145 1066.8L743.195 1073H745.595L749.27 1068.22L753.02 1073H755.495L750.47 1066.7ZM767.738 1062.87H767.663C766.738 1061.4 765.038 1060.38 762.863 1060.35C759.163 1060.32 756.538 1063.07 756.538 1066.82C756.538 1070.57 759.213 1073.35 762.838 1073.33C765.063 1073.3 766.713 1072.22 767.663 1070.7H767.738V1073H769.588V1060.67H767.738V1062.87ZM763.113 1071.52C760.263 1071.52 758.413 1069.4 758.413 1066.82C758.413 1064.25 760.263 1062.15 763.113 1062.15C765.888 1062.15 767.738 1064.25 767.738 1066.82C767.738 1069.37 765.888 1071.52 763.113 1071.52ZM781.023 1058.55C782.148 1058.55 782.948 1057.72 782.948 1056.6V1055H781.323V1056.35C781.323 1056.77 780.998 1057.1 780.573 1057.1H777.998C777.573 1057.1 777.248 1056.77 777.248 1056.35V1055H775.623V1056.6C775.623 1057.72 776.423 1058.55 777.548 1058.55H781.023ZM775.473 1070.35V1060.67H773.598V1073H775.473L783.098 1063.3V1073H784.973V1060.67H783.098L775.473 1070.35ZM44.125 1097.52C45.175 1096.95 45.65 1095.95 45.65 1094.9C45.65 1093.17 44.35 1091.67 42.075 1091.67H34.975V1104H42.5C44.775 1104 46.175 1102.35 46.175 1100.55C46.175 1099.27 45.5 1098.1 44.125 1097.6V1097.52ZM42.025 1093.47C43.1 1093.47 43.775 1094.25 43.775 1095.15C43.775 1096.07 43.075 1096.87 41.925 1096.87H36.85V1093.47H42.025ZM36.85 1102.2V1098.67H42.325C43.525 1098.67 44.275 1099.45 44.275 1100.42C44.275 1101.35 43.55 1102.2 42.425 1102.2H36.85ZM70.2758 1091.67H67.4008L63.0258 1101.35L58.6758 1091.67H55.7758V1104H57.6508V1093.65L62.3508 1104H63.7258L68.4008 1093.7V1104H70.2758V1091.67ZM79.6363 1091.35C75.8613 1091.35 73.2613 1094.27 73.2613 1097.85C73.2613 1101.37 75.7613 1104.33 79.6613 1104.33C82.5363 1104.33 84.8613 1102.72 85.6863 1100.17H83.7363C83.1113 1101.6 81.5863 1102.52 79.7363 1102.52C77.2113 1102.52 75.3863 1100.75 75.2363 1098.5H85.9113C86.1363 1094.4 83.5363 1091.35 79.6363 1091.35ZM79.5863 1093.15C81.9113 1093.15 83.5863 1094.67 83.9113 1096.82H75.2863C75.5613 1094.72 77.2613 1093.15 79.5863 1093.15ZM95.6801 1091.35C93.5301 1091.38 91.8301 1092.4 90.8551 1093.87H90.8051V1091.67H88.9301V1109H90.8051V1101.7H90.8551C91.8301 1103.22 93.5301 1104.3 95.6801 1104.33C99.3301 1104.35 101.98 1101.57 101.98 1097.82C101.98 1094.07 99.3551 1091.32 95.6801 1091.35ZM95.4301 1102.52C92.6551 1102.52 90.8051 1100.37 90.8051 1097.82C90.8051 1095.25 92.6551 1093.15 95.4301 1093.15C98.2551 1093.15 100.105 1095.25 100.105 1097.82C100.105 1100.4 98.2551 1102.52 95.4301 1102.52ZM110.002 1102.75L105.377 1091.67H103.302L109.027 1105.2L108.827 1105.73C108.427 1106.7 107.902 1107.12 106.802 1107.12H103.977V1109H106.802C108.727 1109 109.827 1108.1 110.527 1106.28L116.152 1091.67H114.252L110.002 1102.75ZM118.073 1101L116.223 1107.28H118.048L120.298 1101H118.073ZM139.958 1096.72H132.333V1091.67H130.458V1104H132.333V1098.52H139.958V1104H141.833V1091.67H139.958V1096.72ZM151.194 1091.35C147.419 1091.35 144.819 1094.27 144.819 1097.85C144.819 1101.37 147.319 1104.33 151.219 1104.33C154.094 1104.33 156.419 1102.72 157.244 1100.17H155.294C154.669 1101.6 153.144 1102.52 151.294 1102.52C148.769 1102.52 146.944 1100.75 146.794 1098.5H157.469C157.694 1094.4 155.094 1091.35 151.194 1091.35ZM151.144 1093.15C153.469 1093.15 155.144 1094.67 155.469 1096.82H146.844C147.119 1094.72 148.819 1093.15 151.144 1093.15ZM178.306 1091.67H167.031V1104H168.906V1093.47H176.431V1104H178.306V1091.67ZM187.644 1091.35C183.869 1091.35 181.269 1094.27 181.269 1097.85C181.269 1101.37 183.769 1104.33 187.669 1104.33C190.544 1104.33 192.869 1102.72 193.694 1100.17H191.744C191.119 1101.6 189.594 1102.52 187.744 1102.52C185.219 1102.52 183.394 1100.75 183.244 1098.5H193.919C194.144 1094.4 191.544 1091.35 187.644 1091.35ZM187.594 1093.15C189.919 1093.15 191.594 1094.67 191.919 1096.82H183.294C183.569 1094.72 185.269 1093.15 187.594 1093.15ZM203.688 1091.35C201.538 1091.38 199.838 1092.4 198.863 1093.87H198.813V1091.67H196.938V1109H198.813V1101.7H198.863C199.838 1103.22 201.538 1104.3 203.688 1104.33C207.338 1104.35 209.988 1101.57 209.988 1097.82C209.988 1094.07 207.363 1091.32 203.688 1091.35ZM203.438 1102.52C200.663 1102.52 198.813 1100.37 198.813 1097.82C198.813 1095.25 200.663 1093.15 203.438 1093.15C206.263 1093.15 208.113 1095.25 208.113 1097.82C208.113 1100.4 206.263 1102.52 203.438 1102.52ZM218.699 1091.35C214.924 1091.35 212.324 1094.27 212.324 1097.85C212.324 1101.37 214.824 1104.33 218.724 1104.33C221.599 1104.33 223.924 1102.72 224.749 1100.17H222.799C222.174 1101.6 220.649 1102.52 218.799 1102.52C216.274 1102.52 214.449 1100.75 214.299 1098.5H224.974C225.199 1094.4 222.599 1091.35 218.699 1091.35ZM218.649 1093.15C220.974 1093.15 222.649 1094.67 222.974 1096.82H214.349C214.624 1094.72 216.324 1093.15 218.649 1093.15ZM237.107 1091.67H226.107V1093.47H230.657V1104H232.532V1093.47H237.107V1091.67ZM246.364 1091.35C244.214 1091.38 242.514 1092.4 241.539 1093.87H241.489V1091.67H239.614V1109H241.489V1101.7H241.539C242.514 1103.22 244.214 1104.3 246.364 1104.33C250.014 1104.35 252.664 1101.57 252.664 1097.82C252.664 1094.07 250.039 1091.32 246.364 1091.35ZM246.114 1102.52C243.339 1102.52 241.489 1100.37 241.489 1097.82C241.489 1095.25 243.339 1093.15 246.114 1093.15C248.939 1093.15 250.789 1095.25 250.789 1097.82C250.789 1100.4 248.939 1102.52 246.114 1102.52ZM260.685 1102.75L256.06 1091.67H253.985L259.71 1105.2L259.51 1105.73C259.11 1106.7 258.585 1107.12 257.485 1107.12H254.66V1109H257.485C259.41 1109 260.51 1108.1 261.21 1106.28L266.835 1091.67H264.935L260.685 1102.75ZM282.304 1096.75L285.579 1091.67H283.504L280.204 1096.75H278.004V1091.67H276.129V1096.75H273.954L270.629 1091.67H268.579L271.854 1096.75H271.629C269.754 1096.75 268.704 1097.75 268.704 1099.62V1104H270.579V1099.87C270.579 1099 271.079 1098.52 271.954 1098.52H276.129V1104H278.004V1098.52H282.204C283.079 1098.52 283.554 1099 283.554 1099.87V1104H285.429V1099.62C285.429 1097.75 284.404 1096.75 282.529 1096.75H282.304ZM300.18 1091.67H290.03C290.03 1094.3 290.03 1098.75 289.955 1099.8C289.755 1102.2 288.53 1102.2 287.73 1102.2H287.63V1107.28H289.48V1104H300.455V1107.28H302.305V1102.2H300.18V1091.67ZM291.155 1102.2C291.48 1101.6 291.705 1100.77 291.755 1099.62C291.83 1098.02 291.855 1095.4 291.855 1093.47H298.305V1102.2H291.155ZM314.857 1093.87H314.782C313.857 1092.4 312.157 1091.38 309.982 1091.35C306.282 1091.32 303.657 1094.07 303.657 1097.82C303.657 1101.57 306.332 1104.35 309.957 1104.33C312.182 1104.3 313.832 1103.22 314.782 1101.7H314.857V1104H316.707V1091.67H314.857V1093.87ZM310.232 1102.52C307.382 1102.52 305.532 1100.4 305.532 1097.82C305.532 1095.25 307.382 1093.15 310.232 1093.15C313.007 1093.15 314.857 1095.25 314.857 1097.82C314.857 1100.37 313.007 1102.52 310.232 1102.52ZM328.142 1089.55C329.267 1089.55 330.067 1088.72 330.067 1087.6V1086H328.442V1087.35C328.442 1087.77 328.117 1088.1 327.692 1088.1H325.117C324.692 1088.1 324.367 1087.77 324.367 1087.35V1086H322.742V1087.6C322.742 1088.72 323.542 1089.55 324.667 1089.55H328.142ZM322.592 1101.35V1091.67H320.717V1104H322.592L330.217 1094.3V1104H332.092V1091.67H330.217L322.592 1101.35ZM347.753 1096.07C347.153 1093.35 344.703 1091.35 341.553 1091.35C337.703 1091.35 335.053 1094.2 335.053 1097.82C335.053 1101.45 337.703 1104.33 341.553 1104.33C344.703 1104.33 347.153 1102.27 347.753 1099.52H345.803C345.253 1101.27 343.628 1102.52 341.553 1102.52C338.803 1102.52 336.928 1100.42 336.928 1097.82C336.928 1095.22 338.803 1093.15 341.553 1093.15C343.678 1093.15 345.253 1094.42 345.803 1096.07H347.753ZM361.523 1091.67H354.448C351.923 1091.67 350.423 1093.37 350.423 1095.3C350.423 1096.52 350.998 1097.52 351.948 1098.05V1098.12C350.948 1098.42 350.448 1099.27 350.448 1100.47V1104H352.323V1100.72C352.323 1099.92 352.848 1099.42 353.698 1099.42H359.648V1104H361.523V1091.67ZM354.523 1097.62C353.248 1097.62 352.298 1096.7 352.298 1095.55C352.298 1094.45 353.123 1093.47 354.448 1093.47H359.648V1097.62H354.523ZM364.917 1101.5V1104H367.292V1101.5H364.917ZM390.84 1094.37H380.515V1087.25H378.59V1104H380.515V1096.25H390.84V1104H392.74V1087.25H390.84V1094.37ZM402.122 1091.35C398.347 1091.35 395.747 1094.27 395.747 1097.85C395.747 1101.37 398.247 1104.33 402.147 1104.33C405.022 1104.33 407.347 1102.72 408.172 1100.17H406.222C405.597 1101.6 404.072 1102.52 402.222 1102.52C399.697 1102.52 397.872 1100.75 397.722 1098.5H408.397C408.622 1094.4 406.022 1091.35 402.122 1091.35ZM402.072 1093.15C404.397 1093.15 406.072 1094.67 406.397 1096.82H397.772C398.047 1094.72 399.747 1093.15 402.072 1093.15ZM424.708 1091.35C422.558 1091.38 420.858 1092.4 419.883 1093.87H419.833V1091.67H417.958V1109H419.833V1101.7H419.883C420.858 1103.22 422.558 1104.3 424.708 1104.33C428.358 1104.35 431.008 1101.57 431.008 1097.82C431.008 1094.07 428.383 1091.32 424.708 1091.35ZM424.458 1102.52C421.683 1102.52 419.833 1100.37 419.833 1097.82C419.833 1095.25 421.683 1093.15 424.458 1093.15C427.283 1093.15 429.133 1095.25 429.133 1097.82C429.133 1100.4 427.283 1102.52 424.458 1102.52ZM444.544 1093.87H444.469C443.544 1092.4 441.844 1091.38 439.669 1091.35C435.969 1091.32 433.344 1094.07 433.344 1097.82C433.344 1101.57 436.019 1104.35 439.644 1104.33C441.869 1104.3 443.519 1103.22 444.469 1101.7H444.544V1104H446.394V1091.67H444.544V1093.87ZM439.919 1102.52C437.069 1102.52 435.219 1100.4 435.219 1097.82C435.219 1095.25 437.069 1093.15 439.919 1093.15C442.694 1093.15 444.544 1095.25 444.544 1097.82C444.544 1100.37 442.694 1102.52 439.919 1102.52ZM458.43 1097.6C459.53 1097.15 460.105 1096.05 460.105 1094.92C460.105 1093.2 458.78 1091.67 456.53 1091.67H449.455V1093.47H456.455C457.555 1093.47 458.23 1094.27 458.23 1095.17C458.23 1096.1 457.505 1096.9 456.355 1096.9H451.28V1098.67H456.53C457.73 1098.67 458.48 1099.45 458.48 1100.42C458.48 1101.35 457.755 1102.2 456.63 1102.2H449.455V1104H456.705C459.005 1104 460.38 1102.32 460.38 1100.52C460.38 1099.27 459.68 1098.12 458.43 1097.67V1097.6ZM472.641 1097.52C473.691 1096.95 474.166 1095.95 474.166 1094.9C474.166 1093.17 472.866 1091.67 470.591 1091.67H463.491V1104H471.016C473.291 1104 474.691 1102.35 474.691 1100.55C474.691 1099.27 474.016 1098.1 472.641 1097.6V1097.52ZM470.541 1093.47C471.616 1093.47 472.291 1094.25 472.291 1095.15C472.291 1096.07 471.591 1096.87 470.441 1096.87H465.366V1093.47H470.541ZM465.366 1102.2V1098.67H470.841C472.041 1098.67 472.791 1099.45 472.791 1100.42C472.791 1101.35 472.066 1102.2 470.941 1102.2H465.366ZM489.372 1091.67H479.147C479.122 1094.3 479.147 1098.75 479.047 1099.8C478.872 1102.17 477.622 1102.17 476.847 1102.17H476.597V1104.08H476.922C478.197 1104.08 480.647 1104.05 480.872 1099.82C480.972 1098.2 480.972 1095.45 480.972 1093.47H487.497V1104H489.372V1091.67ZM498.728 1091.35C494.953 1091.35 492.353 1094.27 492.353 1097.85C492.353 1101.37 494.853 1104.33 498.753 1104.33C501.628 1104.33 503.953 1102.72 504.778 1100.17H502.828C502.203 1101.6 500.678 1102.52 498.828 1102.52C496.303 1102.52 494.478 1100.75 494.328 1098.5H505.003C505.228 1094.4 502.628 1091.35 498.728 1091.35ZM498.678 1093.15C501.003 1093.15 502.678 1094.67 503.003 1096.82H494.378C494.653 1094.72 496.353 1093.15 498.678 1093.15ZM515.847 1096.72L519.147 1091.67H517.072L513.722 1096.72H509.897V1091.67H508.022V1104H509.897V1098.5H515.747C516.622 1098.5 517.122 1098.97 517.122 1099.85V1104H518.997V1099.6C518.997 1097.72 517.947 1096.72 516.072 1096.72H515.847ZM532.85 1093.87H532.775C531.85 1092.4 530.15 1091.38 527.975 1091.35C524.275 1091.32 521.65 1094.07 521.65 1097.82C521.65 1101.57 524.325 1104.35 527.95 1104.33C530.175 1104.3 531.825 1103.22 532.775 1101.7H532.85V1104H534.7V1091.67H532.85V1093.87ZM528.225 1102.52C525.375 1102.52 523.525 1100.4 523.525 1097.82C523.525 1095.25 525.375 1093.15 528.225 1093.15C531 1093.15 532.85 1095.25 532.85 1097.82C532.85 1100.37 531 1102.52 528.225 1102.52ZM546.135 1089.55C547.26 1089.55 548.06 1088.72 548.06 1087.6V1086H546.435V1087.35C546.435 1087.77 546.11 1088.1 545.685 1088.1H543.11C542.685 1088.1 542.36 1087.77 542.36 1087.35V1086H540.735V1087.6C540.735 1088.72 541.535 1089.55 542.66 1089.55H546.135ZM540.585 1101.35V1091.67H538.71V1104H540.585L548.21 1094.3V1104H550.085V1091.67H548.21L540.585 1101.35ZM565.746 1096.07C565.146 1093.35 562.696 1091.35 559.546 1091.35C555.696 1091.35 553.046 1094.2 553.046 1097.82C553.046 1101.45 555.696 1104.33 559.546 1104.33C562.696 1104.33 565.146 1102.27 565.746 1099.52H563.796C563.246 1101.27 561.621 1102.52 559.546 1102.52C556.796 1102.52 554.921 1100.42 554.921 1097.82C554.921 1095.22 556.796 1093.15 559.546 1093.15C561.671 1093.15 563.246 1094.42 563.796 1096.07H565.746ZM579.516 1091.67H572.441C569.916 1091.67 568.416 1093.37 568.416 1095.3C568.416 1096.52 568.991 1097.52 569.941 1098.05V1098.12C568.941 1098.42 568.441 1099.27 568.441 1100.47V1104H570.316V1100.72C570.316 1099.92 570.841 1099.42 571.691 1099.42H577.641V1104H579.516V1091.67ZM572.516 1097.62C571.241 1097.62 570.291 1096.7 570.291 1095.55C570.291 1094.45 571.116 1093.47 572.441 1093.47H577.641V1097.62H572.516ZM599.382 1096.72H591.757V1091.67H589.882V1104H591.757V1098.52H599.382V1104H601.257V1091.67H599.382V1096.72ZM615.443 1093.87H615.368C614.443 1092.4 612.743 1091.38 610.568 1091.35C606.868 1091.32 604.243 1094.07 604.243 1097.82C604.243 1101.57 606.918 1104.35 610.543 1104.33C612.768 1104.3 614.418 1103.22 615.368 1101.7H615.443V1104H617.293V1091.67H615.443V1093.87ZM610.818 1102.52C607.968 1102.52 606.118 1100.4 606.118 1097.82C606.118 1095.25 607.968 1093.15 610.818 1093.15C613.593 1093.15 615.443 1095.25 615.443 1097.82C615.443 1100.37 613.593 1102.52 610.818 1102.52ZM634.45 1091.35C632.3 1091.38 630.6 1092.4 629.625 1093.87H629.575V1091.67H627.7V1109H629.575V1101.7H629.625C630.6 1103.22 632.3 1104.3 634.45 1104.33C638.1 1104.35 640.75 1101.57 640.75 1097.82C640.75 1094.07 638.125 1091.32 634.45 1091.35ZM634.2 1102.52C631.425 1102.52 629.575 1100.37 629.575 1097.82C629.575 1095.25 631.425 1093.15 634.2 1093.15C637.025 1093.15 638.875 1095.25 638.875 1097.82C638.875 1100.4 637.025 1102.52 634.2 1102.52ZM654.286 1093.87H654.211C653.286 1092.4 651.586 1091.38 649.411 1091.35C645.711 1091.32 643.086 1094.07 643.086 1097.82C643.086 1101.57 645.761 1104.35 649.386 1104.33C651.611 1104.3 653.261 1103.22 654.211 1101.7H654.286V1104H656.136V1091.67H654.286V1093.87ZM649.661 1102.52C646.811 1102.52 644.961 1100.4 644.961 1097.82C644.961 1095.25 646.811 1093.15 649.661 1093.15C652.436 1093.15 654.286 1095.25 654.286 1097.82C654.286 1100.37 652.436 1102.52 649.661 1102.52ZM666.548 1092.05C664.498 1092.05 662.598 1092.92 661.473 1094.62H661.398V1092.67C661.398 1089.67 663.148 1087.9 666.148 1087.9H671.373V1086H666.348C662.173 1086 659.673 1088.65 659.673 1092.82V1098.1C659.673 1101.57 662.348 1104.3 666.198 1104.3C670.073 1104.3 672.673 1101.55 672.673 1098.12C672.673 1094.72 670.123 1092.05 666.548 1092.05ZM666.223 1102.52C663.448 1102.52 661.573 1100.57 661.573 1098.15C661.573 1095.75 663.448 1093.8 666.223 1093.8C668.973 1093.8 670.798 1095.77 670.798 1098.12C670.798 1100.52 668.973 1102.52 666.223 1102.52ZM681.521 1104.33C685.396 1104.33 688.046 1101.4 688.046 1097.82C688.046 1094.22 685.396 1091.35 681.521 1091.35C677.571 1091.35 674.896 1094.22 674.896 1097.82C674.896 1101.4 677.571 1104.33 681.521 1104.33ZM681.521 1102.52C678.671 1102.52 676.796 1100.4 676.796 1097.82C676.796 1095.25 678.671 1093.15 681.521 1093.15C684.296 1093.15 686.171 1095.25 686.171 1097.82C686.171 1100.37 684.296 1102.52 681.521 1102.52ZM700.144 1091.67H689.144V1093.47H693.694V1104H695.569V1093.47H700.144V1091.67ZM707.615 1091.35C703.84 1091.35 701.24 1094.27 701.24 1097.85C701.24 1101.37 703.74 1104.33 707.64 1104.33C710.515 1104.33 712.84 1102.72 713.665 1100.17H711.715C711.09 1101.6 709.565 1102.52 707.715 1102.52C705.19 1102.52 703.365 1100.75 703.215 1098.5H713.89C714.115 1094.4 711.515 1091.35 707.615 1091.35ZM707.565 1093.15C709.89 1093.15 711.565 1094.67 711.89 1096.82H703.265C703.54 1094.72 705.24 1093.15 707.565 1093.15ZM717.462 1101L715.612 1107.28H717.437L719.687 1101H717.462ZM736.323 1092.05C734.273 1092.05 732.373 1092.92 731.248 1094.62H731.173V1092.67C731.173 1089.67 732.923 1087.9 735.923 1087.9H741.148V1086H736.123C731.948 1086 729.448 1088.65 729.448 1092.82V1098.1C729.448 1101.57 732.123 1104.3 735.973 1104.3C739.848 1104.3 742.448 1101.55 742.448 1098.12C742.448 1094.72 739.898 1092.05 736.323 1092.05ZM735.998 1102.52C733.223 1102.52 731.348 1100.57 731.348 1098.15C731.348 1095.75 733.223 1093.8 735.998 1093.8C738.748 1093.8 740.573 1095.77 740.573 1098.12C740.573 1100.52 738.748 1102.52 735.998 1102.52ZM750.236 1102.75L745.611 1091.67H743.536L749.261 1105.2L749.061 1105.73C748.661 1106.7 748.136 1107.12 747.036 1107.12H744.211V1109H747.036C748.961 1109 750.061 1108.1 750.761 1106.28L756.386 1091.67H754.486L750.236 1102.75ZM769.54 1091.67H759.39C759.39 1094.3 759.39 1098.75 759.315 1099.8C759.115 1102.2 757.89 1102.2 757.09 1102.2H756.99V1107.28H758.84V1104H769.815V1107.28H771.665V1102.2H769.54V1091.67ZM760.515 1102.2C760.84 1101.6 761.065 1100.77 761.115 1099.62C761.19 1098.02 761.215 1095.4 761.215 1093.47H767.665V1102.2H760.515ZM776.108 1095.95V1091.67H774.233V1104H781.133C783.383 1104 785.183 1102.2 785.183 1099.95C785.183 1097.75 783.408 1095.97 781.133 1095.95H776.108ZM776.108 1102.2V1097.77H781.133C782.333 1097.77 783.308 1098.75 783.308 1099.95C783.308 1101.2 782.333 1102.17 781.133 1102.2H776.108ZM40.275 1132.75L35.65 1121.67H33.575L39.3 1135.2L39.1 1135.73C38.7 1136.7 38.175 1137.12 37.075 1137.12H34.25V1139H37.075C39 1139 40.1 1138.1 40.8 1136.28L46.425 1121.67H44.525L40.275 1132.75ZM60.2777 1126.07C59.6777 1123.35 57.2277 1121.35 54.0777 1121.35C50.2277 1121.35 47.5777 1124.2 47.5777 1127.82C47.5777 1131.45 50.2277 1134.33 54.0777 1134.33C57.2277 1134.33 59.6777 1132.27 60.2777 1129.52H58.3277C57.7777 1131.27 56.1527 1132.52 54.0777 1132.52C51.3277 1132.52 49.4527 1130.42 49.4527 1127.82C49.4527 1125.22 51.3277 1123.15 54.0777 1123.15C56.2027 1123.15 57.7777 1124.42 58.3277 1126.07H60.2777ZM65.0482 1131.35V1121.67H63.1732V1134H65.0482L72.6732 1124.3V1134H74.5482V1121.67H72.6732L65.0482 1131.35ZM89.7309 1121.67H79.5809C79.5809 1124.3 79.5809 1128.75 79.5059 1129.8C79.3059 1132.2 78.0809 1132.2 77.2809 1132.2H77.1809V1137.28H79.0309V1134H90.0059V1137.28H91.8559V1132.2H89.7309V1121.67ZM80.7059 1132.2C81.0309 1131.6 81.2559 1130.77 81.3059 1129.62C81.3809 1128.02 81.4059 1125.4 81.4059 1123.47H87.8559V1132.2H80.7059ZM102.358 1127.65H96.6076C95.7326 1127.65 95.2076 1127.15 95.2076 1126.3V1121.67H93.3326V1126.55C93.3326 1128.42 94.4076 1129.42 96.3076 1129.42H102.358V1134H104.233V1121.67H102.358V1127.65ZM110.092 1131.35V1121.67H108.217V1134H110.092L117.717 1124.3V1134H119.592V1121.67H117.717L110.092 1131.35ZM132.724 1127.52C133.774 1126.95 134.249 1125.95 134.249 1124.9C134.249 1123.17 132.949 1121.67 130.674 1121.67H123.574V1134H131.099C133.374 1134 134.774 1132.35 134.774 1130.55C134.774 1129.27 134.099 1128.1 132.724 1127.6V1127.52ZM130.624 1123.47C131.699 1123.47 132.374 1124.25 132.374 1125.15C132.374 1126.07 131.674 1126.87 130.524 1126.87H125.449V1123.47H130.624ZM125.449 1132.2V1128.67H130.924C132.124 1128.67 132.874 1129.45 132.874 1130.42C132.874 1131.35 132.149 1132.2 131.024 1132.2H125.449ZM146.249 1131.35V1121.67H144.374V1134H146.249L153.874 1124.3V1134H155.749V1121.67H153.874L146.249 1131.35ZM175.277 1127.52C176.327 1126.95 176.802 1125.95 176.802 1124.9C176.802 1123.17 175.502 1121.67 173.227 1121.67H166.127V1134H173.652C175.927 1134 177.327 1132.35 177.327 1130.55C177.327 1129.27 176.652 1128.1 175.277 1127.6V1127.52ZM173.177 1123.47C174.252 1123.47 174.927 1124.25 174.927 1125.15C174.927 1126.07 174.227 1126.87 173.077 1126.87H168.002V1123.47H173.177ZM168.002 1132.2V1128.67H173.477C174.677 1128.67 175.427 1129.45 175.427 1130.42C175.427 1131.35 174.702 1132.2 173.577 1132.2H168.002ZM189.836 1126.72H182.211V1121.67H180.336V1134H182.211V1128.52H189.836V1134H191.711V1121.67H189.836V1126.72ZM197.592 1131.35V1121.67H195.717V1134H197.592L205.217 1124.3V1134H207.092V1121.67H205.217L197.592 1131.35ZM225.574 1121.67H222.699L218.324 1131.35L213.974 1121.67H211.074V1134H212.949V1123.65L217.649 1134H219.024L223.699 1123.7V1134H225.574V1121.67ZM239.759 1123.87H239.684C238.759 1122.4 237.059 1121.38 234.884 1121.35C231.184 1121.32 228.559 1124.07 228.559 1127.82C228.559 1131.57 231.234 1134.35 234.859 1134.33C237.084 1134.3 238.734 1133.22 239.684 1131.7H239.759V1134H241.609V1121.67H239.759V1123.87ZM235.134 1132.52C232.284 1132.52 230.434 1130.4 230.434 1127.82C230.434 1125.25 232.284 1123.15 235.134 1123.15C237.909 1123.15 239.759 1125.25 239.759 1127.82C239.759 1130.37 237.909 1132.52 235.134 1132.52ZM255.173 1121.67H244.173V1123.47H248.723V1134H250.598V1123.47H255.173V1121.67ZM262.644 1121.35C258.869 1121.35 256.269 1124.27 256.269 1127.85C256.269 1131.37 258.769 1134.33 262.669 1134.33C265.544 1134.33 267.869 1132.72 268.694 1130.17H266.744C266.119 1131.6 264.594 1132.52 262.744 1132.52C260.219 1132.52 258.394 1130.75 258.244 1128.5H268.919C269.144 1124.4 266.544 1121.35 262.644 1121.35ZM262.594 1123.15C264.919 1123.15 266.594 1124.67 266.919 1126.82H258.294C258.569 1124.72 260.269 1123.15 262.594 1123.15ZM283.244 1121.67H273.019C272.994 1124.3 273.019 1128.75 272.919 1129.8C272.744 1132.17 271.494 1132.17 270.719 1132.17H270.469V1134.08H270.794C272.069 1134.08 274.519 1134.05 274.744 1129.82C274.844 1128.2 274.844 1125.45 274.844 1123.47H281.369V1134H283.244V1121.67ZM292.6 1121.35C288.825 1121.35 286.225 1124.27 286.225 1127.85C286.225 1131.37 288.725 1134.33 292.625 1134.33C295.5 1134.33 297.825 1132.72 298.65 1130.17H296.7C296.075 1131.6 294.55 1132.52 292.7 1132.52C290.175 1132.52 288.35 1130.75 288.2 1128.5H298.875C299.1 1124.4 296.5 1121.35 292.6 1121.35ZM292.55 1123.15C294.875 1123.15 296.55 1124.67 296.875 1126.82H288.25C288.525 1124.72 290.225 1123.15 292.55 1123.15ZM311.394 1126.72H303.769V1121.67H301.894V1134H303.769V1128.52H311.394V1134H313.269V1121.67H311.394V1126.72ZM316.699 1131.5V1134H319.074V1131.5H316.699ZM341.422 1125.2C342.772 1124.5 343.497 1123.2 343.497 1121.67C343.497 1119.05 341.447 1117.25 338.872 1117.25H330.372V1134H339.197C341.972 1134 344.022 1131.92 344.022 1129.27C344.022 1127.42 343.047 1125.95 341.422 1125.27V1125.2ZM338.797 1119.12C340.322 1119.12 341.572 1120.23 341.572 1121.82C341.572 1123.35 340.372 1124.5 338.797 1124.5H332.297V1119.12H338.797ZM332.297 1132.1V1126.35H339.122C340.797 1126.35 342.072 1127.58 342.072 1129.27C342.072 1130.92 340.847 1132.1 339.197 1132.1H332.297ZM349.106 1125.95V1121.67H347.231V1134H353.606C355.831 1134 357.631 1132.2 357.631 1129.95C357.631 1127.75 355.856 1125.97 353.606 1125.95H349.106ZM359.481 1134H361.356V1121.67H359.481V1134ZM349.106 1132.2V1127.77H353.606C354.781 1127.77 355.756 1128.75 355.756 1129.95C355.756 1131.2 354.806 1132.17 353.606 1132.2H349.106ZM376.597 1121.67H365.322V1134H367.197V1123.47H374.722V1134H376.597V1121.67ZM386.16 1134.33C390.035 1134.33 392.685 1131.4 392.685 1127.82C392.685 1124.22 390.035 1121.35 386.16 1121.35C382.21 1121.35 379.535 1124.22 379.535 1127.82C379.535 1131.4 382.21 1134.33 386.16 1134.33ZM386.16 1132.52C383.31 1132.52 381.435 1130.4 381.435 1127.82C381.435 1125.25 383.31 1123.15 386.16 1123.15C388.935 1123.15 390.81 1125.25 390.81 1127.82C390.81 1130.37 388.935 1132.52 386.16 1132.52ZM406.974 1121.67H396.749C396.724 1124.3 396.749 1128.75 396.649 1129.8C396.474 1132.17 395.224 1132.17 394.449 1132.17H394.199V1134.08H394.524C395.799 1134.08 398.249 1134.05 398.474 1129.82C398.574 1128.2 398.574 1125.45 398.574 1123.47H405.099V1134H406.974V1121.67ZM420.476 1126.72H412.851V1121.67H410.976V1134H412.851V1128.52H420.476V1134H422.351V1121.67H420.476V1126.72ZM437.109 1121.67H430.034C427.509 1121.67 426.009 1123.37 426.009 1125.3C426.009 1126.52 426.584 1127.52 427.534 1128.05V1128.12C426.534 1128.42 426.034 1129.27 426.034 1130.47V1134H427.909V1130.72C427.909 1129.92 428.434 1129.42 429.284 1129.42H435.234V1134H437.109V1121.67ZM430.109 1127.62C428.834 1127.62 427.884 1126.7 427.884 1125.55C427.884 1124.45 428.709 1123.47 430.034 1123.47H435.234V1127.62H430.109ZM448.504 1119.55C449.629 1119.55 450.429 1118.72 450.429 1117.6V1116H448.804V1117.35C448.804 1117.77 448.479 1118.1 448.054 1118.1H445.479C445.054 1118.1 444.729 1117.77 444.729 1117.35V1116H443.104V1117.6C443.104 1118.72 443.904 1119.55 445.029 1119.55H448.504ZM442.954 1131.35V1121.67H441.079V1134H442.954L450.579 1124.3V1134H452.454V1121.67H450.579L442.954 1131.35ZM468.131 1121.35C464.981 1121.35 462.531 1123.35 461.931 1126.07H463.881C464.431 1124.42 466.006 1123.15 468.131 1123.15C470.531 1123.15 472.281 1124.72 472.681 1126.87H467.056V1128.65H472.681C472.331 1130.85 470.581 1132.52 468.131 1132.52C466.056 1132.52 464.431 1131.27 463.881 1129.52H461.931C462.531 1132.27 464.981 1134.33 468.131 1134.33C471.981 1134.33 474.631 1131.45 474.631 1127.82C474.631 1124.2 471.981 1121.35 468.131 1121.35ZM486.692 1121.67H475.692V1123.47H480.242V1134H482.117V1123.47H486.692V1121.67ZM491.074 1131.35V1121.67H489.199V1134H491.074L498.699 1124.3V1134H500.574V1121.67H498.699L491.074 1131.35ZM522.227 1121.67H510.952V1134H512.827V1123.47H520.352V1134H522.227V1121.67ZM532.96 1121.35C530.81 1121.38 529.11 1122.4 528.135 1123.87H528.085V1121.67H526.21V1139H528.085V1131.7H528.135C529.11 1133.22 530.81 1134.3 532.96 1134.33C536.61 1134.35 539.26 1131.57 539.26 1127.82C539.26 1124.07 536.635 1121.32 532.96 1121.35ZM532.71 1132.52C529.935 1132.52 528.085 1130.37 528.085 1127.82C528.085 1125.25 529.935 1123.15 532.71 1123.15C535.535 1123.15 537.385 1125.25 537.385 1127.82C537.385 1130.4 535.535 1132.52 532.71 1132.52ZM552.796 1123.87H552.721C551.796 1122.4 550.096 1121.38 547.921 1121.35C544.221 1121.32 541.596 1124.07 541.596 1127.82C541.596 1131.57 544.271 1134.35 547.896 1134.33C550.121 1134.3 551.771 1133.22 552.721 1131.7H552.796V1134H554.646V1121.67H552.796V1123.87ZM548.171 1132.52C545.321 1132.52 543.471 1130.4 543.471 1127.82C543.471 1125.25 545.321 1123.15 548.171 1123.15C550.946 1123.15 552.796 1125.25 552.796 1127.82C552.796 1130.37 550.946 1132.52 548.171 1132.52ZM567.807 1127.52C568.857 1126.95 569.332 1125.95 569.332 1124.9C569.332 1123.17 568.032 1121.67 565.757 1121.67H558.657V1134H566.182C568.457 1134 569.857 1132.35 569.857 1130.55C569.857 1129.27 569.182 1128.1 567.807 1127.6V1127.52ZM565.707 1123.47C566.782 1123.47 567.457 1124.25 567.457 1125.15C567.457 1126.07 566.757 1126.87 565.607 1126.87H560.532V1123.47H565.707ZM560.532 1132.2V1128.67H566.007C567.207 1128.67 567.957 1129.45 567.957 1130.42C567.957 1131.35 567.232 1132.2 566.107 1132.2H560.532ZM574.741 1131.35V1121.67H572.866V1134H574.741L582.366 1124.3V1134H584.241V1121.67H582.366L574.741 1131.35ZM599.674 1121.67H589.449C589.424 1124.3 589.449 1128.75 589.349 1129.8C589.174 1132.17 587.924 1132.17 587.149 1132.17H586.899V1134.08H587.224C588.499 1134.08 590.949 1134.05 591.174 1129.82C591.274 1128.2 591.274 1125.45 591.274 1123.47H597.799V1134H599.674V1121.67ZM613.856 1123.87H613.781C612.856 1122.4 611.156 1121.38 608.981 1121.35C605.281 1121.32 602.656 1124.07 602.656 1127.82C602.656 1131.57 605.331 1134.35 608.956 1134.33C611.181 1134.3 612.831 1133.22 613.781 1131.7H613.856V1134H615.706V1121.67H613.856V1123.87ZM609.231 1132.52C606.381 1132.52 604.531 1130.4 604.531 1127.82C604.531 1125.25 606.381 1123.15 609.231 1123.15C612.006 1123.15 613.856 1125.25 613.856 1127.82C613.856 1130.37 612.006 1132.52 609.231 1132.52ZM627.988 1131.35V1121.67H626.113V1134H627.988L635.613 1124.3V1134H637.488V1121.67H635.613L627.988 1131.35ZM654.341 1122.05C652.291 1122.05 650.391 1122.92 649.266 1124.62H649.191V1122.67C649.191 1119.67 650.941 1117.9 653.941 1117.9H659.166V1116H654.141C649.966 1116 647.466 1118.65 647.466 1122.82V1128.1C647.466 1131.57 650.141 1134.3 653.991 1134.3C657.866 1134.3 660.466 1131.55 660.466 1128.12C660.466 1124.72 657.916 1122.05 654.341 1122.05ZM654.016 1132.52C651.241 1132.52 649.366 1130.57 649.366 1128.15C649.366 1125.75 651.241 1123.8 654.016 1123.8C656.766 1123.8 658.591 1125.77 658.591 1128.12C658.591 1130.52 656.766 1132.52 654.016 1132.52ZM668.254 1132.75L663.629 1121.67H661.554L667.279 1135.2L667.079 1135.73C666.679 1136.7 666.154 1137.12 665.054 1137.12H662.229V1139H665.054C666.979 1139 668.079 1138.1 668.779 1136.28L674.404 1121.67H672.504L668.254 1132.75ZM687.558 1121.67H677.408C677.408 1124.3 677.408 1128.75 677.333 1129.8C677.133 1132.2 675.908 1132.2 675.108 1132.2H675.008V1137.28H676.858V1134H687.833V1137.28H689.683V1132.2H687.558V1121.67ZM678.533 1132.2C678.858 1131.6 679.083 1130.77 679.133 1129.62C679.208 1128.02 679.233 1125.4 679.233 1123.47H685.683V1132.2H678.533ZM697.41 1121.35C693.635 1121.35 691.035 1124.27 691.035 1127.85C691.035 1131.37 693.535 1134.33 697.435 1134.33C700.31 1134.33 702.635 1132.72 703.46 1130.17H701.51C700.885 1131.6 699.36 1132.52 697.51 1132.52C694.985 1132.52 693.16 1130.75 693.01 1128.5H703.685C703.91 1124.4 701.31 1121.35 697.41 1121.35ZM697.36 1123.15C699.685 1123.15 701.36 1124.67 701.685 1126.82H693.06C693.335 1124.72 695.035 1123.15 697.36 1123.15ZM721.454 1132.2H715.979V1121.67H714.104V1132.2H708.579V1121.67H706.704V1134H723.329V1121.67H721.454V1132.2ZM729.208 1125.95V1121.67H727.333V1134H734.233C736.483 1134 738.283 1132.2 738.283 1129.95C738.283 1127.75 736.508 1125.97 734.233 1125.95H729.208ZM729.208 1132.2V1127.77H734.233C735.433 1127.77 736.408 1128.75 736.408 1129.95C736.408 1131.2 735.433 1132.17 734.233 1132.2H729.208ZM752.897 1132.75L748.272 1121.67H746.197L751.922 1135.2L751.722 1135.73C751.322 1136.7 750.797 1137.12 749.697 1137.12H746.872V1139H749.697C751.622 1139 752.722 1138.1 753.422 1136.28L759.047 1121.67H757.147L752.897 1132.75ZM772.9 1126.07C772.3 1123.35 769.85 1121.35 766.7 1121.35C762.85 1121.35 760.2 1124.2 760.2 1127.82C760.2 1131.45 762.85 1134.33 766.7 1134.33C769.85 1134.33 772.3 1132.27 772.9 1129.52H770.95C770.4 1131.27 768.775 1132.52 766.7 1132.52C763.95 1132.52 762.075 1130.42 762.075 1127.82C762.075 1125.22 763.95 1123.15 766.7 1123.15C768.825 1123.15 770.4 1124.42 770.95 1126.07H772.9ZM787.07 1121.67H775.795V1134H777.67V1123.47H785.195V1134H787.07V1121.67ZM796.409 1121.35C792.634 1121.35 790.034 1124.27 790.034 1127.85C790.034 1131.37 792.534 1134.33 796.434 1134.33C799.309 1134.33 801.634 1132.72 802.459 1130.17H800.509C799.884 1131.6 798.359 1132.52 796.509 1132.52C793.984 1132.52 792.159 1130.75 792.009 1128.5H802.684C802.909 1124.4 800.309 1121.35 796.409 1121.35ZM796.359 1123.15C798.684 1123.15 800.359 1124.67 800.684 1126.82H792.059C792.334 1124.72 794.034 1123.15 796.359 1123.15ZM820.453 1132.2H814.978V1121.67H813.103V1132.2H807.578V1121.67H805.703V1134H822.328V1121.67H820.453V1132.2ZM831.687 1121.35C827.912 1121.35 825.312 1124.27 825.312 1127.85C825.312 1131.37 827.812 1134.33 831.712 1134.33C834.587 1134.33 836.912 1132.72 837.737 1130.17H835.787C835.162 1131.6 833.637 1132.52 831.787 1132.52C829.262 1132.52 827.437 1130.75 827.287 1128.5H837.962C838.187 1124.4 835.587 1121.35 831.687 1121.35ZM831.637 1123.15C833.962 1123.15 835.637 1124.67 835.962 1126.82H827.337C827.612 1124.72 829.312 1123.15 831.637 1123.15ZM850.481 1126.72H842.856V1121.67H840.981V1134H842.856V1128.52H850.481V1134H852.356V1121.67H850.481V1126.72ZM857.086 1131L855.236 1137.28H857.061L859.311 1131H857.086ZM46.85 1157.07C46.25 1154.35 43.8 1152.35 40.65 1152.35C36.8 1152.35 34.15 1155.2 34.15 1158.82C34.15 1162.45 36.8 1165.33 40.65 1165.33C43.8 1165.33 46.25 1163.27 46.85 1160.52H44.9C44.35 1162.27 42.725 1163.52 40.65 1163.52C37.9 1163.52 36.025 1161.42 36.025 1158.82C36.025 1156.22 37.9 1154.15 40.65 1154.15C42.775 1154.15 44.35 1155.42 44.9 1157.07H46.85ZM64.2455 1152.67H61.3705L56.9955 1162.35L52.6455 1152.67H49.7455V1165H51.6205V1154.65L56.3205 1165H57.6955L62.3705 1154.7V1165H64.2455V1152.67ZM73.8311 1165.33C77.7061 1165.33 80.3561 1162.4 80.3561 1158.82C80.3561 1155.22 77.7061 1152.35 73.8311 1152.35C69.8811 1152.35 67.2061 1155.22 67.2061 1158.82C67.2061 1162.4 69.8811 1165.33 73.8311 1165.33ZM73.8311 1163.52C70.9811 1163.52 69.1061 1161.4 69.1061 1158.82C69.1061 1156.25 70.9811 1154.15 73.8311 1154.15C76.6061 1154.15 78.4811 1156.25 78.4811 1158.82C78.4811 1161.37 76.6061 1163.52 73.8311 1163.52ZM96.4398 1157.75L99.7148 1152.67H97.6398L94.3398 1157.75H92.1398V1152.67H90.2648V1157.75H88.0898L84.7648 1152.67H82.7148L85.9898 1157.75H85.7648C83.8898 1157.75 82.8398 1158.75 82.8398 1160.62V1165H84.7148V1160.87C84.7148 1160 85.2148 1159.52 86.0898 1159.52H90.2648V1165H92.1398V1159.52H96.3398C97.2148 1159.52 97.6898 1160 97.6898 1160.87V1165H99.5648V1160.62C99.5648 1158.75 98.5398 1157.75 96.6648 1157.75H96.4398ZM108.469 1152.35C104.694 1152.35 102.094 1155.27 102.094 1158.85C102.094 1162.37 104.594 1165.33 108.494 1165.33C111.369 1165.33 113.694 1163.72 114.519 1161.17H112.569C111.944 1162.6 110.419 1163.52 108.569 1163.52C106.044 1163.52 104.219 1161.75 104.069 1159.5H114.744C114.969 1155.4 112.369 1152.35 108.469 1152.35ZM108.419 1154.15C110.744 1154.15 112.419 1155.67 112.744 1157.82H104.119C104.394 1155.72 106.094 1154.15 108.419 1154.15ZM132.513 1163.2H127.038V1152.67H125.163V1163.2H119.638V1152.67H117.763V1165H134.388V1152.67H132.513V1163.2ZM140.268 1156.95V1152.67H138.393V1165H145.293C147.543 1165 149.343 1163.2 149.343 1160.95C149.343 1158.75 147.568 1156.97 145.293 1156.95H140.268ZM140.268 1163.2V1158.77H145.293C146.493 1158.77 147.468 1159.75 147.468 1160.95C147.468 1162.2 146.493 1163.17 145.293 1163.2H140.268ZM169.932 1152.67H158.657V1165H160.532V1154.47H168.057V1165H169.932V1152.67ZM179.495 1165.33C183.37 1165.33 186.02 1162.4 186.02 1158.82C186.02 1155.22 183.37 1152.35 179.495 1152.35C175.545 1152.35 172.87 1155.22 172.87 1158.82C172.87 1162.4 175.545 1165.33 179.495 1165.33ZM179.495 1163.52C176.645 1163.52 174.77 1161.4 174.77 1158.82C174.77 1156.25 176.645 1154.15 179.495 1154.15C182.27 1154.15 184.145 1156.25 184.145 1158.82C184.145 1161.37 182.27 1163.52 179.495 1163.52ZM200.309 1152.67H190.084C190.059 1155.3 190.084 1159.75 189.984 1160.8C189.809 1163.17 188.559 1163.17 187.784 1163.17H187.534V1165.08H187.859C189.134 1165.08 191.584 1165.05 191.809 1160.82C191.909 1159.2 191.909 1156.45 191.909 1154.47H198.434V1165H200.309V1152.67ZM209.44 1163.75L204.815 1152.67H202.74L208.465 1166.2L208.265 1166.73C207.865 1167.7 207.34 1168.12 206.24 1168.12H203.415V1170H206.24C208.165 1170 209.265 1169.1 209.965 1167.28L215.59 1152.67H213.69L209.44 1163.75ZM226.503 1158.65H220.753C219.878 1158.65 219.353 1158.15 219.353 1157.3V1152.67H217.478V1157.55C217.478 1159.42 218.553 1160.42 220.453 1160.42H226.503V1165H228.378V1152.67H226.503V1158.65ZM234.238 1162.35V1152.67H232.363V1165H234.238L241.863 1155.3V1165H243.738V1152.67H241.863L234.238 1162.35ZM257.273 1152.67H246.273V1154.47H250.823V1165H252.698V1154.47H257.273V1152.67ZM261.655 1156.95V1152.67H259.78V1165H266.68C268.93 1165 270.73 1163.2 270.73 1160.95C270.73 1158.75 268.955 1156.97 266.68 1156.95H261.655ZM261.655 1163.2V1158.77H266.68C267.88 1158.77 268.855 1159.75 268.855 1160.95C268.855 1162.2 267.88 1163.17 266.68 1163.2H261.655ZM291.318 1152.67H280.043V1165H281.918V1154.47H289.443V1165H291.318V1152.67ZM302.052 1152.35C299.902 1152.38 298.202 1153.4 297.227 1154.87H297.177V1152.67H295.302V1170H297.177V1162.7H297.227C298.202 1164.22 299.902 1165.3 302.052 1165.33C305.702 1165.35 308.352 1162.57 308.352 1158.82C308.352 1155.07 305.727 1152.32 302.052 1152.35ZM301.802 1163.52C299.027 1163.52 297.177 1161.37 297.177 1158.82C297.177 1156.25 299.027 1154.15 301.802 1154.15C304.627 1154.15 306.477 1156.25 306.477 1158.82C306.477 1161.4 304.627 1163.52 301.802 1163.52ZM317.063 1152.35C313.288 1152.35 310.688 1155.27 310.688 1158.85C310.688 1162.37 313.188 1165.33 317.088 1165.33C319.963 1165.33 322.288 1163.72 323.113 1161.17H321.163C320.538 1162.6 319.013 1163.52 317.163 1163.52C314.638 1163.52 312.813 1161.75 312.663 1159.5H323.338C323.563 1155.4 320.963 1152.35 317.063 1152.35ZM317.013 1154.15C319.338 1154.15 321.013 1155.67 321.338 1157.82H312.713C312.988 1155.72 314.688 1154.15 317.013 1154.15ZM340.857 1152.67H337.982L333.607 1162.35L329.257 1152.67H326.357V1165H328.232V1154.65L332.932 1165H334.307L338.982 1154.7V1165H340.857V1152.67ZM346.738 1162.35V1152.67H344.863V1165H346.738L354.363 1155.3V1165H356.238V1152.67H354.363L346.738 1162.35ZM371.044 1152.35C367.644 1152.35 365.219 1154.65 364.769 1157.75H362.094V1152.67H360.219V1165H362.094V1159.55H364.719C365.044 1162.8 367.519 1165.33 371.044 1165.33C374.769 1165.33 377.319 1162.42 377.319 1158.82C377.319 1155.2 374.769 1152.35 371.044 1152.35ZM371.044 1163.52C368.369 1163.52 366.569 1161.45 366.569 1158.82C366.569 1156.22 368.369 1154.15 371.044 1154.15C373.669 1154.15 375.444 1156.22 375.444 1158.82C375.444 1161.42 373.669 1163.52 371.044 1163.52ZM380.866 1162L379.016 1168.28H380.841L383.091 1162H380.866ZM402.951 1152.67H391.951V1154.47H396.501V1165H398.376V1154.47H402.951V1152.67ZM414.608 1158.52C415.658 1157.95 416.133 1156.95 416.133 1155.9C416.133 1154.17 414.833 1152.67 412.558 1152.67H405.458V1165H412.983C415.258 1165 416.658 1163.35 416.658 1161.55C416.658 1160.27 415.983 1159.1 414.608 1158.6V1158.52ZM412.508 1154.47C413.583 1154.47 414.258 1155.25 414.258 1156.15C414.258 1157.07 413.558 1157.87 412.408 1157.87H407.333V1154.47H412.508ZM407.333 1163.2V1159.67H412.808C414.008 1159.67 414.758 1160.45 414.758 1161.42C414.758 1162.35 414.033 1163.2 412.908 1163.2H407.333ZM425.516 1165.33C429.391 1165.33 432.041 1162.4 432.041 1158.82C432.041 1155.22 429.391 1152.35 425.516 1152.35C421.566 1152.35 418.891 1155.22 418.891 1158.82C418.891 1162.4 421.566 1165.33 425.516 1165.33ZM425.516 1163.52C422.666 1163.52 420.791 1161.4 420.791 1158.82C420.791 1156.25 422.666 1154.15 425.516 1154.15C428.291 1154.15 430.166 1156.25 430.166 1158.82C430.166 1161.37 428.291 1163.52 425.516 1163.52ZM445.898 1152.67H438.823C436.298 1152.67 434.798 1154.37 434.798 1156.3C434.798 1157.52 435.373 1158.52 436.323 1159.05V1159.12C435.323 1159.42 434.823 1160.27 434.823 1161.47V1165H436.698V1161.72C436.698 1160.92 437.223 1160.42 438.073 1160.42H444.023V1165H445.898V1152.67ZM438.898 1158.62C437.623 1158.62 436.673 1157.7 436.673 1156.55C436.673 1155.45 437.498 1154.47 438.823 1154.47H444.023V1158.62H438.898ZM464.739 1152.67V1148.25H462.864V1152.67H459.764C457.539 1152.67 456.064 1154.15 456.064 1156.37V1161.27C456.064 1163.5 457.539 1165 459.764 1165H462.864V1170H464.739V1165H467.839C470.064 1165 471.539 1163.5 471.539 1161.27V1156.37C471.539 1154.15 470.064 1152.67 467.839 1152.67H464.739ZM459.939 1163.17C458.714 1163.17 457.939 1162.4 457.939 1161.17V1156.5C457.939 1155.27 458.714 1154.47 459.939 1154.47H462.864V1163.17H459.939ZM469.664 1161.17C469.664 1162.4 468.889 1163.17 467.664 1163.17H464.739V1154.47H467.664C468.889 1154.47 469.664 1155.27 469.664 1156.5V1161.17ZM480.813 1165.33C484.688 1165.33 487.338 1162.4 487.338 1158.82C487.338 1155.22 484.688 1152.35 480.813 1152.35C476.863 1152.35 474.188 1155.22 474.188 1158.82C474.188 1162.4 476.863 1165.33 480.813 1165.33ZM480.813 1163.52C477.963 1163.52 476.088 1161.4 476.088 1158.82C476.088 1156.25 477.963 1154.15 480.813 1154.15C483.588 1154.15 485.463 1156.25 485.463 1158.82C485.463 1161.37 483.588 1163.52 480.813 1163.52ZM499.436 1152.67H488.436V1154.47H492.986V1165H494.861V1154.47H499.436V1152.67ZM507.132 1165.33C511.007 1165.33 513.657 1162.4 513.657 1158.82C513.657 1155.22 511.007 1152.35 507.132 1152.35C503.182 1152.35 500.507 1155.22 500.507 1158.82C500.507 1162.4 503.182 1165.33 507.132 1165.33ZM507.132 1163.52C504.282 1163.52 502.407 1161.4 502.407 1158.82C502.407 1156.25 504.282 1154.15 507.132 1154.15C509.907 1154.15 511.782 1156.25 511.782 1158.82C511.782 1161.37 509.907 1163.52 507.132 1163.52ZM525.99 1152.67H516.64V1165H518.515V1154.47H525.99V1152.67ZM535.182 1152.35C533.032 1152.38 531.332 1153.4 530.357 1154.87H530.307V1152.67H528.432V1170H530.307V1162.7H530.357C531.332 1164.22 533.032 1165.3 535.182 1165.33C538.832 1165.35 541.482 1162.57 541.482 1158.82C541.482 1155.07 538.857 1152.32 535.182 1152.35ZM534.932 1163.52C532.157 1163.52 530.307 1161.37 530.307 1158.82C530.307 1156.25 532.157 1154.15 534.932 1154.15C537.757 1154.15 539.607 1156.25 539.607 1158.82C539.607 1161.4 537.757 1163.52 534.932 1163.52ZM555.018 1154.87H554.943C554.018 1153.4 552.318 1152.38 550.143 1152.35C546.443 1152.32 543.818 1155.07 543.818 1158.82C543.818 1162.57 546.493 1165.35 550.118 1165.33C552.343 1165.3 553.993 1164.22 554.943 1162.7H555.018V1165H556.868V1152.67H555.018V1154.87ZM550.393 1163.52C547.543 1163.52 545.693 1161.4 545.693 1158.82C545.693 1156.25 547.543 1154.15 550.393 1154.15C553.168 1154.15 555.018 1156.25 555.018 1158.82C555.018 1161.37 553.168 1163.52 550.393 1163.52ZM569.182 1152.67V1148.25H567.307V1152.67H564.207C561.982 1152.67 560.507 1154.15 560.507 1156.37V1161.27C560.507 1163.5 561.982 1165 564.207 1165H567.307V1170H569.182V1165H572.282C574.507 1165 575.982 1163.5 575.982 1161.27V1156.37C575.982 1154.15 574.507 1152.67 572.282 1152.67H569.182ZM564.382 1163.17C563.157 1163.17 562.382 1162.4 562.382 1161.17V1156.5C562.382 1155.27 563.157 1154.47 564.382 1154.47H567.307V1163.17H564.382ZM574.107 1161.17C574.107 1162.4 573.332 1163.17 572.107 1163.17H569.182V1154.47H572.107C573.332 1154.47 574.107 1155.27 574.107 1156.5V1161.17ZM581.381 1162.35V1152.67H579.506V1165H581.381L589.006 1155.3V1165H590.881V1152.67H589.006L581.381 1162.35ZM605.614 1152.67H598.539C596.014 1152.67 594.514 1154.37 594.514 1156.3C594.514 1157.52 595.089 1158.52 596.039 1159.05V1159.12C595.039 1159.42 594.539 1160.27 594.539 1161.47V1165H596.414V1161.72C596.414 1160.92 596.939 1160.42 597.789 1160.42H603.739V1165H605.614V1152.67ZM598.614 1158.62C597.339 1158.62 596.389 1157.7 596.389 1156.55C596.389 1155.45 597.214 1154.47 598.539 1154.47H603.739V1158.62H598.614ZM627.856 1157.07C627.256 1154.35 624.806 1152.35 621.656 1152.35C617.806 1152.35 615.156 1155.2 615.156 1158.82C615.156 1162.45 617.806 1165.33 621.656 1165.33C624.806 1165.33 627.256 1163.27 627.856 1160.52H625.906C625.356 1162.27 623.731 1163.52 621.656 1163.52C618.906 1163.52 617.031 1161.42 617.031 1158.82C617.031 1156.22 618.906 1154.15 621.656 1154.15C623.781 1154.15 625.356 1155.42 625.906 1157.07H627.856ZM645.251 1152.67H642.376L638.001 1162.35L633.651 1152.67H630.751V1165H632.626V1154.65L637.326 1165H638.701L643.376 1154.7V1165H645.251V1152.67ZM654.837 1165.33C658.712 1165.33 661.362 1162.4 661.362 1158.82C661.362 1155.22 658.712 1152.35 654.837 1152.35C650.887 1152.35 648.212 1155.22 648.212 1158.82C648.212 1162.4 650.887 1165.33 654.837 1165.33ZM654.837 1163.52C651.987 1163.52 650.112 1161.4 650.112 1158.82C650.112 1156.25 651.987 1154.15 654.837 1154.15C657.612 1154.15 659.487 1156.25 659.487 1158.82C659.487 1161.37 657.612 1163.52 654.837 1163.52ZM677.446 1157.75L680.721 1152.67H678.646L675.346 1157.75H673.146V1152.67H671.271V1157.75H669.096L665.771 1152.67H663.721L666.996 1157.75H666.771C664.896 1157.75 663.846 1158.75 663.846 1160.62V1165H665.721V1160.87C665.721 1160 666.221 1159.52 667.096 1159.52H671.271V1165H673.146V1159.52H677.346C678.221 1159.52 678.696 1160 678.696 1160.87V1165H680.571V1160.62C680.571 1158.75 679.546 1157.75 677.671 1157.75H677.446ZM689.475 1152.35C685.7 1152.35 683.1 1155.27 683.1 1158.85C683.1 1162.37 685.6 1165.33 689.5 1165.33C692.375 1165.33 694.7 1163.72 695.525 1161.17H693.575C692.95 1162.6 691.425 1163.52 689.575 1163.52C687.05 1163.52 685.225 1161.75 685.075 1159.5H695.75C695.975 1155.4 693.375 1152.35 689.475 1152.35ZM689.425 1154.15C691.75 1154.15 693.425 1155.67 693.75 1157.82H685.125C685.4 1155.72 687.1 1154.15 689.425 1154.15ZM707.883 1152.67H696.883V1154.47H701.433V1165H703.308V1154.47H707.883V1152.67ZM726.083 1158.52C727.133 1157.95 727.608 1156.95 727.608 1155.9C727.608 1154.17 726.308 1152.67 724.033 1152.67H716.933V1165H724.458C726.733 1165 728.133 1163.35 728.133 1161.55C728.133 1160.27 727.458 1159.1 726.083 1158.6V1158.52ZM723.983 1154.47C725.058 1154.47 725.733 1155.25 725.733 1156.15C725.733 1157.07 725.033 1157.87 723.883 1157.87H718.808V1154.47H723.983ZM718.808 1163.2V1159.67H724.283C725.483 1159.67 726.233 1160.45 726.233 1161.42C726.233 1162.35 725.508 1163.2 724.383 1163.2H718.808ZM733.017 1162.35V1152.67H731.142V1165H733.017L740.642 1155.3V1165H742.517V1152.67H740.642L733.017 1162.35ZM758.178 1157.07C757.578 1154.35 755.128 1152.35 751.978 1152.35C748.128 1152.35 745.478 1155.2 745.478 1158.82C745.478 1162.45 748.128 1165.33 751.978 1165.33C755.128 1165.33 757.578 1163.27 758.178 1160.52H756.228C755.678 1162.27 754.053 1163.52 751.978 1163.52C749.228 1163.52 747.353 1161.42 747.353 1158.82C747.353 1156.22 749.228 1154.15 751.978 1154.15C754.103 1154.15 755.678 1155.42 756.228 1157.07H758.178ZM766.746 1152.35C762.971 1152.35 760.371 1155.27 760.371 1158.85C760.371 1162.37 762.871 1165.33 766.771 1165.33C769.646 1165.33 771.971 1163.72 772.796 1161.17H770.846C770.221 1162.6 768.696 1163.52 766.846 1163.52C764.321 1163.52 762.496 1161.75 762.346 1159.5H773.021C773.246 1155.4 770.646 1152.35 766.746 1152.35ZM766.696 1154.15C769.021 1154.15 770.696 1155.67 771.021 1157.82H762.396C762.671 1155.72 764.371 1154.15 766.696 1154.15ZM785.154 1152.67H774.154V1154.47H778.704V1165H780.579V1154.47H785.154V1152.67ZM789.536 1156.95V1152.67H787.661V1165H794.561C796.811 1165 798.611 1163.2 798.611 1160.95C798.611 1158.75 796.836 1156.97 794.561 1156.95H789.536ZM789.536 1163.2V1158.77H794.561C795.761 1158.77 796.736 1159.75 796.736 1160.95C796.736 1162.2 795.761 1163.17 794.561 1163.2H789.536ZM44.475 1187.72H36.85V1182.67H34.975V1195H36.85V1189.52H44.475V1195H46.35V1182.67H44.475V1187.72ZM60.5355 1184.87H60.4605C59.5355 1183.4 57.8355 1182.38 55.6605 1182.35C51.9605 1182.32 49.3355 1185.07 49.3355 1188.82C49.3355 1192.57 52.0105 1195.35 55.6355 1195.33C57.8605 1195.3 59.5105 1194.22 60.4605 1192.7H60.5355V1195H62.3855V1182.67H60.5355V1184.87ZM55.9105 1193.52C53.0605 1193.52 51.2105 1191.4 51.2105 1188.82C51.2105 1186.25 53.0605 1184.15 55.9105 1184.15C58.6855 1184.15 60.5355 1186.25 60.5355 1188.82C60.5355 1191.37 58.6855 1193.52 55.9105 1193.52ZM84.0424 1182.67H73.8924C73.8924 1185.3 73.8924 1189.75 73.8174 1190.8C73.6174 1193.2 72.3924 1193.2 71.5924 1193.2H71.4924V1198.28H73.3424V1195H84.3174V1198.28H86.1674V1193.2H84.0424V1182.67ZM75.0174 1193.2C75.3424 1192.6 75.5674 1191.77 75.6174 1190.62C75.6924 1189.02 75.7174 1186.4 75.7174 1184.47H82.1674V1193.2H75.0174ZM94.1191 1195.33C97.9941 1195.33 100.644 1192.4 100.644 1188.82C100.644 1185.22 97.9941 1182.35 94.1191 1182.35C90.1691 1182.35 87.4941 1185.22 87.4941 1188.82C87.4941 1192.4 90.1691 1195.33 94.1191 1195.33ZM94.1191 1193.52C91.2691 1193.52 89.3941 1191.4 89.3941 1188.82C89.3941 1186.25 91.2691 1184.15 94.1191 1184.15C96.8941 1184.15 98.7691 1186.25 98.7691 1188.82C98.7691 1191.37 96.8941 1193.52 94.1191 1193.52ZM115.624 1187.07C115.024 1184.35 112.574 1182.35 109.424 1182.35C105.574 1182.35 102.924 1185.2 102.924 1188.82C102.924 1192.45 105.574 1195.33 109.424 1195.33C112.574 1195.33 115.024 1193.27 115.624 1190.52H113.674C113.124 1192.27 111.499 1193.52 109.424 1193.52C106.674 1193.52 104.799 1191.42 104.799 1188.82C104.799 1186.22 106.674 1184.15 109.424 1184.15C111.549 1184.15 113.124 1185.42 113.674 1187.07H115.624ZM126.345 1187.72L129.645 1182.67H127.57L124.22 1187.72H120.395V1182.67H118.52V1195H120.395V1189.5H126.245C127.12 1189.5 127.62 1189.97 127.62 1190.85V1195H129.495V1190.6C129.495 1188.72 128.445 1187.72 126.57 1187.72H126.345ZM138.523 1182.35C134.748 1182.35 132.148 1185.27 132.148 1188.85C132.148 1192.37 134.648 1195.33 138.548 1195.33C141.423 1195.33 143.748 1193.72 144.573 1191.17H142.623C141.998 1192.6 140.473 1193.52 138.623 1193.52C136.098 1193.52 134.273 1191.75 134.123 1189.5H144.798C145.023 1185.4 142.423 1182.35 138.523 1182.35ZM138.473 1184.15C140.798 1184.15 142.473 1185.67 142.798 1187.82H134.173C134.448 1185.72 136.148 1184.15 138.473 1184.15ZM165.635 1182.67H154.36V1195H156.235V1184.47H163.76V1195H165.635V1182.67ZM175.198 1195.33C179.073 1195.33 181.723 1192.4 181.723 1188.82C181.723 1185.22 179.073 1182.35 175.198 1182.35C171.248 1182.35 168.573 1185.22 168.573 1188.82C168.573 1192.4 171.248 1195.33 175.198 1195.33ZM175.198 1193.52C172.348 1193.52 170.473 1191.4 170.473 1188.82C170.473 1186.25 172.348 1184.15 175.198 1184.15C177.973 1184.15 179.848 1186.25 179.848 1188.82C179.848 1191.37 177.973 1193.52 175.198 1193.52ZM193.154 1188.65H187.404C186.529 1188.65 186.004 1188.15 186.004 1187.3V1182.67H184.129V1187.55C184.129 1189.42 185.204 1190.42 187.104 1190.42H193.154V1195H195.029V1182.67H193.154V1188.65ZM201.218 1177V1180.55H203.043V1177H201.218ZM205.643 1177V1180.55H207.468V1177H205.643ZM204.368 1182.35C200.593 1182.35 197.993 1185.27 197.993 1188.85C197.993 1192.37 200.493 1195.33 204.393 1195.33C207.268 1195.33 209.593 1193.72 210.418 1191.17H208.468C207.843 1192.6 206.318 1193.52 204.468 1193.52C201.943 1193.52 200.118 1191.75 199.968 1189.5H210.643C210.868 1185.4 208.268 1182.35 204.368 1182.35ZM204.318 1184.15C206.643 1184.15 208.318 1185.67 208.643 1187.82H200.018C200.293 1185.72 201.993 1184.15 204.318 1184.15ZM222.776 1182.67H211.776V1184.47H216.326V1195H218.201V1184.47H222.776V1182.67ZM235.072 1184.87H234.997C234.072 1183.4 232.372 1182.38 230.197 1182.35C226.497 1182.32 223.872 1185.07 223.872 1188.82C223.872 1192.57 226.547 1195.35 230.172 1195.33C232.397 1195.3 234.047 1194.22 234.997 1192.7H235.072V1195H236.922V1182.67H235.072V1184.87ZM230.447 1193.52C227.597 1193.52 225.747 1191.4 225.747 1188.82C225.747 1186.25 227.597 1184.15 230.447 1184.15C233.222 1184.15 235.072 1186.25 235.072 1188.82C235.072 1191.37 233.222 1193.52 230.447 1193.52ZM240.357 1192.5V1195H242.732V1192.5H240.357ZM260.705 1189.27L254.68 1178.25H252.48L259.73 1191.4L259.48 1191.97C259.18 1192.67 258.53 1193.1 257.68 1193.1H254.73V1195H257.68C259.13 1195 260.405 1194.25 261.055 1192.82L267.655 1178.2H265.655L260.705 1189.27ZM279.76 1187.07C279.16 1184.35 276.71 1182.35 273.56 1182.35C269.71 1182.35 267.06 1185.2 267.06 1188.82C267.06 1192.45 269.71 1195.33 273.56 1195.33C276.71 1195.33 279.16 1193.27 279.76 1190.52H277.81C277.26 1192.27 275.635 1193.52 273.56 1193.52C270.81 1193.52 268.935 1191.42 268.935 1188.82C268.935 1186.22 270.81 1184.15 273.56 1184.15C275.685 1184.15 277.26 1185.42 277.81 1187.07H279.76ZM288.328 1182.35C284.553 1182.35 281.953 1185.27 281.953 1188.85C281.953 1192.37 284.453 1195.33 288.353 1195.33C291.228 1195.33 293.553 1193.72 294.378 1191.17H292.428C291.803 1192.6 290.278 1193.52 288.428 1193.52C285.903 1193.52 284.078 1191.75 283.928 1189.5H294.603C294.828 1185.4 292.228 1182.35 288.328 1182.35ZM288.278 1184.15C290.603 1184.15 292.278 1185.67 292.603 1187.82H283.978C284.253 1185.72 285.953 1184.15 288.278 1184.15ZM304.371 1182.35C302.221 1182.38 300.521 1183.4 299.546 1184.87H299.496V1182.67H297.621V1200H299.496V1192.7H299.546C300.521 1194.22 302.221 1195.3 304.371 1195.33C308.021 1195.35 310.671 1192.57 310.671 1188.82C310.671 1185.07 308.046 1182.32 304.371 1182.35ZM304.121 1193.52C301.346 1193.52 299.496 1191.37 299.496 1188.82C299.496 1186.25 301.346 1184.15 304.121 1184.15C306.946 1184.15 308.796 1186.25 308.796 1188.82C308.796 1191.4 306.946 1193.52 304.121 1193.52ZM324.716 1182.67H314.566C314.566 1185.3 314.566 1189.75 314.491 1190.8C314.291 1193.2 313.066 1193.2 312.266 1193.2H312.166V1198.28H314.016V1195H324.991V1198.28H326.841V1193.2H324.716V1182.67ZM315.691 1193.2C316.016 1192.6 316.241 1191.77 316.291 1190.62C316.366 1189.02 316.391 1186.4 316.391 1184.47H322.841V1193.2H315.691ZM338.909 1187.72H331.284V1182.67H329.409V1195H331.284V1189.52H338.909V1195H340.784V1182.67H338.909V1187.72ZM354.969 1184.87H354.894C353.969 1183.4 352.269 1182.38 350.094 1182.35C346.394 1182.32 343.769 1185.07 343.769 1188.82C343.769 1192.57 346.444 1195.35 350.069 1195.33C352.294 1195.3 353.944 1194.22 354.894 1192.7H354.969V1195H356.819V1182.67H354.969V1184.87ZM350.344 1193.52C347.494 1193.52 345.644 1191.4 345.644 1188.82C345.644 1186.25 347.494 1184.15 350.344 1184.15C353.119 1184.15 354.969 1186.25 354.969 1188.82C354.969 1191.37 353.119 1193.52 350.344 1193.52ZM371.581 1182.67H364.506C361.981 1182.67 360.481 1184.37 360.481 1186.3C360.481 1187.52 361.056 1188.52 362.006 1189.05V1189.12C361.006 1189.42 360.506 1190.27 360.506 1191.47V1195H362.381V1191.72C362.381 1190.92 362.906 1190.42 363.756 1190.42H369.706V1195H371.581V1182.67ZM364.581 1188.62C363.306 1188.62 362.356 1187.7 362.356 1186.55C362.356 1185.45 363.181 1184.47 364.506 1184.47H369.706V1188.62H364.581ZM388.698 1182.35C386.548 1182.38 384.848 1183.4 383.873 1184.87H383.823V1182.67H381.948V1200H383.823V1192.7H383.873C384.848 1194.22 386.548 1195.3 388.698 1195.33C392.348 1195.35 394.998 1192.57 394.998 1188.82C394.998 1185.07 392.373 1182.32 388.698 1182.35ZM388.448 1193.52C385.673 1193.52 383.823 1191.37 383.823 1188.82C383.823 1186.25 385.673 1184.15 388.448 1184.15C391.273 1184.15 393.123 1186.25 393.123 1188.82C393.123 1191.4 391.273 1193.52 388.448 1193.52ZM408.534 1184.87H408.459C407.534 1183.4 405.834 1182.38 403.659 1182.35C399.959 1182.32 397.334 1185.07 397.334 1188.82C397.334 1192.57 400.009 1195.35 403.634 1195.33C405.859 1195.3 407.509 1194.22 408.459 1192.7H408.534V1195H410.384V1182.67H408.534V1184.87ZM403.909 1193.52C401.059 1193.52 399.209 1191.4 399.209 1188.82C399.209 1186.25 401.059 1184.15 403.909 1184.15C406.684 1184.15 408.534 1186.25 408.534 1188.82C408.534 1191.37 406.684 1193.52 403.909 1193.52ZM420.796 1183.05C418.746 1183.05 416.846 1183.92 415.721 1185.62H415.646V1183.67C415.646 1180.67 417.396 1178.9 420.396 1178.9H425.621V1177H420.596C416.421 1177 413.921 1179.65 413.921 1183.82V1189.1C413.921 1192.57 416.596 1195.3 420.446 1195.3C424.321 1195.3 426.921 1192.55 426.921 1189.12C426.921 1185.72 424.371 1183.05 420.796 1183.05ZM420.471 1193.52C417.696 1193.52 415.821 1191.57 415.821 1189.15C415.821 1186.75 417.696 1184.8 420.471 1184.8C423.221 1184.8 425.046 1186.77 425.046 1189.12C425.046 1191.52 423.221 1193.52 420.471 1193.52ZM435.77 1195.33C439.645 1195.33 442.295 1192.4 442.295 1188.82C442.295 1185.22 439.645 1182.35 435.77 1182.35C431.82 1182.35 429.145 1185.22 429.145 1188.82C429.145 1192.4 431.82 1195.33 435.77 1195.33ZM435.77 1193.52C432.92 1193.52 431.045 1191.4 431.045 1188.82C431.045 1186.25 432.92 1184.15 435.77 1184.15C438.545 1184.15 440.42 1186.25 440.42 1188.82C440.42 1191.37 438.545 1193.52 435.77 1193.52ZM454.392 1182.67H443.392V1184.47H447.942V1195H449.817V1184.47H454.392V1182.67ZM466.688 1184.87H466.613C465.688 1183.4 463.988 1182.38 461.813 1182.35C458.113 1182.32 455.488 1185.07 455.488 1188.82C455.488 1192.57 458.163 1195.35 461.788 1195.33C464.013 1195.3 465.663 1194.22 466.613 1192.7H466.688V1195H468.538V1182.67H466.688V1184.87ZM462.063 1193.52C459.213 1193.52 457.363 1191.4 457.363 1188.82C457.363 1186.25 459.213 1184.15 462.063 1184.15C464.838 1184.15 466.688 1186.25 466.688 1188.82C466.688 1191.37 464.838 1193.52 462.063 1193.52ZM478.945 1189.05H496.77V1187.3H478.945V1189.05ZM518.418 1182.67H507.143V1195H509.018V1184.47H516.543V1195H518.418V1182.67ZM527.981 1195.33C531.856 1195.33 534.506 1192.4 534.506 1188.82C534.506 1185.22 531.856 1182.35 527.981 1182.35C524.031 1182.35 521.356 1185.22 521.356 1188.82C521.356 1192.4 524.031 1195.33 527.981 1195.33ZM527.981 1193.52C525.131 1193.52 523.256 1191.4 523.256 1188.82C523.256 1186.25 525.131 1184.15 527.981 1184.15C530.756 1184.15 532.631 1186.25 532.631 1188.82C532.631 1191.37 530.756 1193.52 527.981 1193.52ZM548.796 1182.67H538.571C538.546 1185.3 538.571 1189.75 538.471 1190.8C538.296 1193.17 537.046 1193.17 536.271 1193.17H536.021V1195.08H536.346C537.621 1195.08 540.071 1195.05 540.296 1190.82C540.396 1189.2 540.396 1186.45 540.396 1184.47H546.921V1195H548.796V1182.67ZM554.672 1186.95V1182.67H552.797V1195H559.697C561.947 1195 563.747 1193.2 563.747 1190.95C563.747 1188.75 561.972 1186.97 559.697 1186.95H554.672ZM554.672 1193.2V1188.77H559.697C560.897 1188.77 561.872 1189.75 561.872 1190.95C561.872 1192.2 560.897 1193.17 559.697 1193.2H554.672ZM574.568 1188.6C575.668 1188.15 576.243 1187.05 576.243 1185.92C576.243 1184.2 574.918 1182.67 572.668 1182.67H565.593V1184.47H572.593C573.693 1184.47 574.368 1185.27 574.368 1186.17C574.368 1187.1 573.643 1187.9 572.493 1187.9H567.418V1189.67H572.668C573.868 1189.67 574.618 1190.45 574.618 1191.42C574.618 1192.35 573.893 1193.2 572.768 1193.2H565.593V1195H572.843C575.143 1195 576.518 1193.32 576.518 1191.52C576.518 1190.27 575.818 1189.12 574.568 1188.67V1188.6ZM590.077 1184.87H590.002C589.077 1183.4 587.377 1182.38 585.202 1182.35C581.502 1182.32 578.877 1185.07 578.877 1188.82C578.877 1192.57 581.552 1195.35 585.177 1195.33C587.402 1195.3 589.052 1194.22 590.002 1192.7H590.077V1195H591.927V1182.67H590.077V1184.87ZM585.452 1193.52C582.602 1193.52 580.752 1191.4 580.752 1188.82C580.752 1186.25 582.602 1184.15 585.452 1184.15C588.227 1184.15 590.077 1186.25 590.077 1188.82C590.077 1191.37 588.227 1193.52 585.452 1193.52ZM608.108 1195.33C611.983 1195.33 614.633 1192.4 614.633 1188.82C614.633 1185.22 611.983 1182.35 608.108 1182.35C604.158 1182.35 601.483 1185.22 601.483 1188.82C601.483 1192.4 604.158 1195.33 608.108 1195.33ZM608.108 1193.52C605.258 1193.52 603.383 1191.4 603.383 1188.82C603.383 1186.25 605.258 1184.15 608.108 1184.15C610.883 1184.15 612.758 1186.25 612.758 1188.82C612.758 1191.37 610.883 1193.52 608.108 1193.52ZM625.442 1187.72L628.742 1182.67H626.667L623.317 1187.72H619.492V1182.67H617.617V1195H619.492V1189.5H625.342C626.217 1189.5 626.717 1189.97 626.717 1190.85V1195H628.592V1190.6C628.592 1188.72 627.542 1187.72 625.667 1187.72H625.442ZM638.966 1182.35C636.816 1182.38 635.116 1183.4 634.141 1184.87H634.091V1182.67H632.216V1200H634.091V1192.7H634.141C635.116 1194.22 636.816 1195.3 638.966 1195.33C642.616 1195.35 645.266 1192.57 645.266 1188.82C645.266 1185.07 642.641 1182.32 638.966 1182.35ZM638.716 1193.52C635.941 1193.52 634.091 1191.37 634.091 1188.82C634.091 1186.25 635.941 1184.15 638.716 1184.15C641.541 1184.15 643.391 1186.25 643.391 1188.82C643.391 1191.4 641.541 1193.52 638.716 1193.52ZM653.288 1193.75L648.663 1182.67H646.588L652.313 1196.2L652.113 1196.73C651.713 1197.7 651.188 1198.12 650.088 1198.12H647.263V1200H650.088C652.013 1200 653.113 1199.1 653.813 1197.28L659.438 1182.67H657.538L653.288 1193.75ZM674.907 1187.75L678.182 1182.67H676.107L672.807 1187.75H670.607V1182.67H668.732V1187.75H666.557L663.232 1182.67H661.182L664.457 1187.75H664.232C662.357 1187.75 661.307 1188.75 661.307 1190.62V1195H663.182V1190.87C663.182 1190 663.682 1189.52 664.557 1189.52H668.732V1195H670.607V1189.52H674.807C675.682 1189.52 676.157 1190 676.157 1190.87V1195H678.032V1190.62C678.032 1188.75 677.007 1187.75 675.132 1187.75H674.907ZM691.761 1184.87H691.686C690.761 1183.4 689.061 1182.38 686.886 1182.35C683.186 1182.32 680.561 1185.07 680.561 1188.82C680.561 1192.57 683.236 1195.35 686.861 1195.33C689.086 1195.3 690.736 1194.22 691.686 1192.7H691.761V1195H693.611V1182.67H691.761V1184.87ZM687.136 1193.52C684.286 1193.52 682.436 1191.4 682.436 1188.82C682.436 1186.25 684.286 1184.15 687.136 1184.15C689.911 1184.15 691.761 1186.25 691.761 1188.82C691.761 1191.37 689.911 1193.52 687.136 1193.52ZM708.446 1182.35C705.046 1182.35 702.621 1184.65 702.171 1187.75H699.496V1182.67H697.621V1195H699.496V1189.55H702.121C702.446 1192.8 704.921 1195.33 708.446 1195.33C712.171 1195.33 714.721 1192.42 714.721 1188.82C714.721 1185.2 712.171 1182.35 708.446 1182.35ZM708.446 1193.52C705.771 1193.52 703.971 1191.45 703.971 1188.82C703.971 1186.22 705.771 1184.15 708.446 1184.15C711.071 1184.15 712.846 1186.22 712.846 1188.82C712.846 1191.42 711.071 1193.52 708.446 1193.52ZM736.439 1193.2H734.339V1182.67H732.464V1193.2H726.989V1182.67H725.114V1193.2H719.589V1182.67H717.714V1195H734.589V1198.28H736.439V1193.2ZM740.927 1192.35V1182.67H739.052V1195H740.927L748.552 1185.3V1195H750.427V1182.67H748.552L740.927 1192.35ZM768.909 1182.67H766.034L761.659 1192.35L757.309 1182.67H754.409V1195H756.284V1184.65L760.984 1195H762.359L767.034 1184.7V1195H768.909V1182.67ZM772.339 1192.5V1195H774.714V1192.5H772.339Z" fill="#A5A5A5"/>
<path d="M317.551 657.174L522 620.358L519.547 625.512L489.288 636.557L422.229 661.592L317.551 680L102.47 626.249L-57 649.075V626.249L102.47 606L317.551 657.174Z" fill="#D9D9D9"/>
<path d="M-48.5272 664.351L522.252 502.262L524.388 512.734L495.741 532.625L-43.8119 687.462L-48.5272 664.351Z" fill="#440101"/>
<path d="M812.755 740.832L590 631L590.735 633.968L594.779 643.616L601.027 660.684L804.669 761.611L789.965 772L844 768.289L812.755 721.166V740.832Z" fill="#D9D9D9"/>
<path d="M528.847 506.855L520.568 524.459L791.866 398.226L792.593 424.26L861.718 357L741.671 389.684L777.521 387.052L529.401 499.081L528.847 506.855Z" fill="#440101"/>
<path d="M348.836 528.451L355.634 530.585L365.727 518.316L359.935 517.406L356.447 515.037L351.207 509.685L348.387 506.817L334.096 517.076L336.912 519.739L343.726 525.472L348.836 528.451Z" fill="#630101"/>
<path d="M385.235 523.446L375.786 521.329L368.137 533.221L373.909 534.253L377.348 536.695L381.626 539.646L386.006 542.712L396.958 532.02L394.037 529.808L390.283 526.532L385.235 523.446Z" fill="#630101"/>
<path d="M769.02 481.352L711.304 557.23L696.111 522.304L712.148 499.304L733.249 476.304L650.549 486.927C645.167 487.618 640.402 483.426 640.402 478V466.739C640.402 464.371 642.064 462.328 644.382 461.845L742.534 441.378L758.571 439.674C763.819 439.674 768.693 442.389 771.456 446.85L772.598 448.695C774.464 451.708 775.453 455.181 775.453 458.725V462.272C775.453 469.165 773.193 475.867 769.02 481.352Z" fill="#630101"/>
<path d="M723.73 447.969H653.781C652.319 447.969 650.885 447.569 649.634 446.812C648.138 445.907 646.978 444.537 646.333 442.911L646.081 442.276C645.788 441.537 645.583 440.767 645.472 439.98L645.138 437.624C644.911 436.028 644.973 434.404 645.32 432.83C646.067 429.445 648.089 426.477 650.966 424.544L654.078 422.453C659.058 419.664 664.67 418.2 670.378 418.2H670.794C672.587 418.2 674.378 418.338 676.15 418.613L677.725 418.857C682.197 419.551 686.568 420.787 690.741 422.54L722.054 435.689C723.966 436.492 725.656 437.747 726.978 439.345L728.496 441.182C728.947 441.727 729.246 442.383 729.361 443.081C729.728 445.297 728.202 447.381 725.979 447.701L724.509 447.913C724.251 447.95 723.991 447.969 723.73 447.969Z" fill="#630101"/>
<path d="M724.121 709.08H623.698L571.377 937.871L644.229 939.485C646.392 939.533 648.171 937.792 648.171 935.629C648.171 934.872 647.949 934.132 647.531 933.501L646.901 932.548C646.623 932.129 646.305 931.737 645.95 931.38L645.626 931.053C644.52 929.939 643.211 929.046 641.769 928.423L638.044 926.814C635.254 925.877 633.762 922.846 634.72 920.063L676.02 800.086L719.902 939.572H784.963C787.417 939.572 789.151 937.171 788.381 934.842C788.299 934.594 788.19 934.356 788.056 934.131L787.264 932.801C786.246 931.09 784.947 929.562 783.422 928.282L781.704 926.839C781.016 926.261 780.225 925.817 779.372 925.53C777.025 924.742 775.249 922.8 774.673 920.392L724.121 709.08Z" fill="#630101"/>
<path d="M632.559 518.871L631.731 520.257C629.698 523.665 628.581 527.54 628.489 531.508L624.409 707.091H721.476V693.198C721.476 691.027 723.237 689.267 725.408 689.267C726.148 689.267 726.873 689.058 727.5 688.664L730.104 687.028C732.196 685.713 733.92 683.888 735.115 681.725L737.514 677.384L740.046 671.443L740.789 669.202C741.935 665.744 741.668 661.973 740.046 658.711C738.935 656.477 737.351 654.506 735.407 652.943C734.563 652.263 733.656 651.665 732.699 651.155L719.788 644.282V552.886C719.788 551.015 719.56 549.152 719.109 547.337L718.1 543.28L715.751 536.783C715.069 534.898 714.144 533.11 712.998 531.464L708.816 525.456L700.375 518.665L692.884 513.187C691.691 512.315 690.416 511.559 689.078 510.931L681.286 507.275C679.39 506.385 677.382 505.758 675.317 505.412L668.3 504.236L662.925 503.696C660.891 503.491 658.838 503.559 656.822 503.897L652.195 504.672C650.557 504.947 648.954 505.398 647.413 506.017L646.268 506.478C642.994 507.795 640.066 509.848 637.713 512.478L635.172 515.317C634.189 516.415 633.314 517.605 632.559 518.871Z" fill="#630101"/>
<path d="M674.489 558.3V617.604L712.28 643.019L692.526 677.754L624.672 635.395" stroke="black" stroke-width="3"/>
<path d="M730.394 659.049L717.664 653.616C712.432 651.383 706.362 653.552 703.731 658.595C701.482 662.906 702.362 668.185 705.888 671.533L714.317 679.535L716.868 682.108C717.418 682.663 718.075 683.1 718.799 683.392C720.733 684.173 722.938 683.845 724.561 682.535L725.385 681.87C725.902 681.453 726.361 680.97 726.751 680.434L733.906 670.591C734.923 669.192 735.471 667.507 735.471 665.777V664.946C735.471 663.883 735.159 662.844 734.573 661.958C734.053 661.17 733.335 660.532 732.493 660.107L730.394 659.049Z" fill="white" stroke="white" stroke-width="2"/>
<path d="M710.592 485.979V446.59H656.394V505.21H661.883C664.813 505.21 667.739 505.445 670.632 505.912C673.812 506.426 676.96 507.226 680.002 508.29C683.248 509.425 686.402 510.867 689.382 512.584L694.502 515.533V501.865C696.725 501.865 698.923 501.342 700.908 500.34C702.274 499.65 703.519 498.743 704.596 497.655L706.64 495.59C708.125 494.089 709.242 492.265 709.904 490.26C710.36 488.878 710.592 487.433 710.592 485.979Z" fill="white" stroke="#630101" stroke-width="4"/>
<path d="M664.184 470.769L652.757 463.04C648.056 459.861 641.715 460.832 638.203 465.27C635.203 469.061 635.081 474.392 637.904 478.336L644.654 487.768L646.669 490.771C647.103 491.418 647.664 491.97 648.318 492.394C650.063 493.524 652.279 493.621 654.109 492.648L655.039 492.153C655.621 491.843 656.16 491.458 656.641 491.007L665.468 482.731C666.722 481.555 667.572 480.009 667.894 478.317L668.049 477.502C668.246 476.463 668.135 475.387 667.727 474.409C667.365 473.539 666.782 472.778 666.037 472.202L664.184 470.769Z" fill="white" stroke="#630101" stroke-width="2"/>
<path d="M387.857 574.567L351.722 589.18L384.67 655.803C386.187 658.869 388.072 661.738 390.284 664.348L390.739 664.884C391.827 666.168 393.012 667.366 394.284 668.468L395.822 669.8C397.724 671.449 399.902 672.749 402.255 673.641C404.681 674.561 407.254 675.032 409.848 675.032H414.234C417.068 675.032 419.843 674.229 422.238 672.715C424.567 671.244 426.445 669.16 427.666 666.691L430.316 661.333L449.286 608.36L448.383 745.358H573.049V582.787H578.469V745.358H603.764V555.199C603.764 553.502 603.598 551.81 603.269 550.145L602.667 547.104C602.202 544.75 601.143 542.554 599.591 540.724C597.609 538.386 594.919 536.758 591.929 536.086L590.429 535.749C589.085 535.447 587.711 535.295 586.334 535.295H444.664C442.333 535.295 440.008 535.553 437.733 536.064L435.949 536.465C434.011 536.9 432.151 537.627 430.431 538.62C427.974 540.04 425.854 541.975 424.217 544.292L424.015 544.578C422.802 546.295 421.85 548.183 421.192 550.18L419.475 555.388L406.828 611.1L387.857 574.567Z" fill="#630101"/>
<path d="M573.049 749.924L448.383 749.011L398.697 1002H482.711V999.907C482.711 998.871 482.586 997.838 482.337 996.832L482.308 996.717C481.977 995.378 481.42 994.105 480.661 992.954C480.222 992.289 479.719 991.668 479.159 991.102L478.395 990.329C477.062 988.982 475.568 987.803 473.948 986.82L473.656 986.643C472.468 985.923 471.224 985.299 469.935 984.778L467.354 983.734L510.716 839.43L557.692 1000.17H634.479V998.552C634.479 996.615 634.032 994.704 633.173 992.967C632.84 992.293 632.447 991.65 631.999 991.046L631.927 990.949C630.635 989.207 628.954 987.791 627.019 986.813L624.542 985.56L618.218 982.82L573.049 749.924Z" fill="#630101"/>
<path d="M536.914 474.102H453.803V470.532C453.803 469.276 454.093 468.037 454.65 466.911C455.279 465.638 456.229 464.552 457.406 463.759L457.666 463.583C458.101 463.29 458.561 463.034 459.039 462.818L488.227 449.616C491.17 448.285 494.216 447.194 497.334 446.353L498.527 446.031C503.62 444.658 508.871 443.963 514.145 443.963H517.422C519.572 443.963 521.719 444.142 523.84 444.5L526.118 444.884C529.666 445.482 533.06 446.779 536.102 448.702L537.526 449.601C538.32 450.103 539.054 450.693 539.715 451.361L540.24 451.892C541.606 453.273 542.535 455.025 542.912 456.931C543.128 458.02 543.158 459.137 543.003 460.236L542.557 463.396C542.409 464.443 542.168 465.474 541.837 466.478C540.976 469.09 539.521 471.467 537.587 473.422L536.914 474.102Z" fill="#630101"/>
<path d="M387.857 574.567L351.722 589.18L384.67 655.803C386.187 658.869 388.072 661.738 390.284 664.348L390.739 664.884C391.827 666.168 393.012 667.366 394.284 668.468L395.822 669.8C397.724 671.449 399.902 672.749 402.255 673.641C404.681 674.561 407.254 675.032 409.848 675.032H414.234C417.068 675.032 419.843 674.229 422.238 672.715C424.567 671.244 426.445 669.16 427.666 666.691L430.316 661.333L449.286 608.36L448.383 745.358H573.049V582.787H578.469V745.358H603.764V555.199C603.764 553.502 603.598 551.81 603.269 550.145L602.667 547.104C602.202 544.75 601.143 542.554 599.591 540.724C597.609 538.386 594.919 536.758 591.929 536.086L590.429 535.749C589.085 535.447 587.711 535.295 586.334 535.295H444.664C442.333 535.295 440.008 535.553 437.733 536.064L435.949 536.465C434.011 536.9 432.151 537.627 430.431 538.62C427.974 540.04 425.854 541.975 424.217 544.292L424.015 544.578C422.802 546.295 421.85 548.183 421.192 550.18L419.475 555.388L406.828 611.1L387.857 574.567Z" stroke="#630101"/>
<path d="M573.049 749.924L448.383 749.011L398.697 1002H482.711V999.907C482.711 998.871 482.586 997.838 482.337 996.832L482.308 996.717C481.977 995.378 481.42 994.105 480.661 992.954C480.222 992.289 479.719 991.668 479.159 991.102L478.395 990.329C477.062 988.982 475.568 987.803 473.948 986.82L473.656 986.643C472.468 985.923 471.224 985.299 469.935 984.778L467.354 983.734L510.716 839.43L557.692 1000.17H634.479V998.552C634.479 996.615 634.032 994.704 633.173 992.967C632.84 992.293 632.447 991.65 631.999 991.046L631.927 990.949C630.635 989.207 628.954 987.791 627.019 986.813L624.542 985.56L618.218 982.82L573.049 749.924Z" stroke="#630101"/>
<path d="M536.914 474.102H453.803V470.532C453.803 469.276 454.093 468.037 454.65 466.911C455.279 465.638 456.229 464.552 457.406 463.759L457.666 463.583C458.101 463.29 458.561 463.034 459.039 462.818L488.227 449.616C491.17 448.285 494.216 447.194 497.334 446.353L498.527 446.031C503.62 444.658 508.871 443.963 514.145 443.963H517.422C519.572 443.963 521.719 444.142 523.84 444.5L526.118 444.884C529.666 445.482 533.06 446.779 536.102 448.702L537.526 449.601C538.32 450.103 539.054 450.693 539.715 451.361L540.24 451.892C541.606 453.273 542.535 455.025 542.912 456.931C543.128 458.02 543.158 459.137 543.003 460.236L542.557 463.396C542.409 464.443 542.168 465.474 541.837 466.478C540.976 469.09 539.521 471.467 537.587 473.422L536.914 474.102Z" stroke="#630101"/>
<path d="M346.304 556.82L358.041 587.576L376.097 579.434L371.583 567.675L370.918 565.01C370.76 564.377 370.68 563.727 370.68 563.074V557.725V552.373C370.68 551.133 370.392 549.911 369.838 548.801L369.252 547.627C369.001 547.124 368.697 546.648 368.346 546.208L366.127 543.429C365.558 542.716 365.149 541.889 364.928 541.004C364.561 539.535 364.731 537.985 365.407 536.631L366.166 535.11L374.657 521.962C375.597 520.507 376.097 518.811 376.097 517.079V513.385C376.097 512.794 376.038 512.204 375.922 511.624L375.383 508.923C375.278 508.394 374.771 508.044 374.238 508.133L370.848 508.699C370.137 508.818 369.442 509.022 368.779 509.306L365.531 510.701C364.17 511.286 362.974 512.197 362.049 513.355L349.013 529.683L345.016 536.356C344.087 537.909 343.596 539.684 343.596 541.494V547.059C343.596 548.132 343.768 549.198 344.107 550.216L346.304 556.82Z" fill="white" stroke="#630101" stroke-width="3"/>
<path d="M476.036 507.547V471.865L532.913 472.782V537.517H492.921V525.026C490.585 525.026 488.283 524.467 486.207 523.397L485.577 523.072C484.551 522.543 483.58 521.914 482.677 521.194L481.689 520.406C480.903 519.78 480.197 519.05 479.595 518.245C478.42 516.672 477.505 514.907 476.902 513.039C476.328 511.264 476.036 509.411 476.036 507.547Z" fill="white" stroke="#630101" stroke-width="4"/>
<path d="M599.679 753.189L600.353 744.318H582.884L582.426 745.799C581.391 749.144 579.606 752.209 577.207 754.759L573.134 759.089L577.603 789.453L584.342 783.39C585.308 782.521 586.198 781.572 587.003 780.553L588.39 778.798C589.084 777.92 589.714 776.991 590.273 776.021L594.779 768.202C595.46 767.02 596.035 765.779 596.497 764.494L598.391 759.222C599.089 757.278 599.523 755.249 599.679 753.189Z" fill="white" stroke="#630101" stroke-width="4"/>
<ellipse cx="745" cy="680.5" rx="7" ry="1.5" fill="#630101"/>
<ellipse rx="7.27206" ry="3.60736" transform="matrix(0.861234 0.508209 -0.500727 0.865605 752.61 693.929)" fill="#630101"/>
<ellipse rx="7.32242" ry="4.68716" transform="matrix(0.221858 0.975079 -0.974106 0.22609 774.787 703.003)" fill="#630101"/>
<path d="M896.5 1248.48L6.5 1246.99V-0.5H896.5V1248.48Z" stroke="#630101" stroke-width="29"/>
<rect x="15" y="1005" width="874" height="28" fill="#630101"/>
</g>
<defs>
<clipPath id="clip0_197_29702">
<rect width="1250" height="900" fill="white" transform="translate(0 1250) rotate(-90)"/>
</clipPath>
</defs>
</svg>
