<svg width="868" height="609" viewBox="0 0 868 609" fill="none" xmlns="http://www.w3.org/2000/svg">
<rect x="1" y="1" width="866" height="607" fill="#630101" stroke="#8E8E8E" stroke-width="2"/>
<path fill-rule="evenodd" clip-rule="evenodd" d="M2.99998 607H868V609H2.99998V607Z" fill="#8E8E8E"/>
<path fill-rule="evenodd" clip-rule="evenodd" d="M-0.000366211 496.988L866.702 496.988V498.988L-0.000366211 498.988V496.988Z" fill="#8E8E8E"/>
<path fill-rule="evenodd" clip-rule="evenodd" d="M1.29651 330.135L867.999 330.135V332.135L1.29651 332.135V330.135Z" fill="#8E8E8E"/>
<path fill-rule="evenodd" clip-rule="evenodd" d="M1.29651 162.139L867.999 162.139V164.139L1.29651 164.139V162.139Z" fill="#8E8E8E"/>
<path fill-rule="evenodd" clip-rule="evenodd" d="M1.29651 1L867.999 1V3L1.29651 3V1Z" fill="#8E8E8E"/>
<line x1="150" y1="608.992" x2="150" y2="0.901917" stroke="#8E8E8E" stroke-width="2"/>
<line x1="300.515" y1="608.09" x2="300.515" y2="6.10352e-05" stroke="#8E8E8E" stroke-width="2"/>
<line x1="446.515" y1="609" x2="446.515" y2="0.910339" stroke="#8E8E8E" stroke-width="2"/>
<line x1="593.515" y1="609" x2="593.515" y2="0.910339" stroke="#8E8E8E" stroke-width="2"/>
<line x1="734.515" y1="609" x2="734.515" y2="0.910339" stroke="#8E8E8E" stroke-width="2"/>
<ellipse cx="76.5" cy="135.5" rx="13.5" ry="12.5" fill="#6B6B6B"/>
<ellipse cx="229.5" cy="135.5" rx="13.5" ry="12.5" fill="#6B6B6B"/>
<ellipse cx="376.5" cy="307.5" rx="13.5" ry="12.5" fill="#6B6B6B"/>
<ellipse cx="372.5" cy="135.5" rx="13.5" ry="12.5" fill="#6B6B6B"/>
<ellipse cx="222.5" cy="307.5" rx="13.5" ry="12.5" fill="#6B6B6B"/>
<ellipse cx="74.5" cy="307.5" rx="13.5" ry="12.5" fill="#6B6B6B"/>
<ellipse cx="520.5" cy="307.5" rx="13.5" ry="12.5" fill="#6B6B6B"/>
<ellipse cx="804.5" cy="307.5" rx="13.5" ry="12.5" fill="#6B6B6B"/>
<ellipse cx="668.5" cy="307.5" rx="13.5" ry="12.5" fill="#6B6B6B"/>
<ellipse cx="226.5" cy="472.5" rx="13.5" ry="12.5" fill="#6B6B6B"/>
<ellipse cx="70.5" cy="472.5" rx="13.5" ry="12.5" fill="#6B6B6B"/>
<ellipse cx="667.5" cy="472.5" rx="13.5" ry="12.5" fill="#6B6B6B"/>
<ellipse cx="804.5" cy="472.5" rx="13.5" ry="12.5" fill="#6B6B6B"/>
<ellipse cx="520.5" cy="472.5" rx="13.5" ry="12.5" fill="#6B6B6B"/>
<ellipse cx="373.5" cy="472.5" rx="13.5" ry="12.5" fill="#6B6B6B"/>
<ellipse cx="667.5" cy="135.5" rx="13.5" ry="12.5" fill="#6B6B6B"/>
<ellipse cx="520.5" cy="135.5" rx="13.5" ry="12.5" fill="#6B6B6B"/>
<ellipse cx="800.5" cy="135.5" rx="13.5" ry="12.5" fill="#6B6B6B"/>
<path d="M113.99 45.68V39.2H96.62C90.32 39.2 86.09 43.34 86.09 49.73V59.63H58.28V50.63C58.28 47.48 59.99 45.68 63.23 45.68H79.07V39.2H62.06C55.76 39.2 51.53 43.34 51.53 49.73V59.63H43.43V66.11H51.53V104H58.28V66.11H86.09V104H92.84V66.11H113.99V59.63H92.84V50.63C92.84 47.48 94.64 45.68 97.79 45.68H113.99Z" fill="#A5A5A5"/>
<path d="M237.54 43.7H213.87V50.45H230.7V97.25H209.28V104H251.31V97.25H237.54V43.7Z" fill="#A5A5A5"/>
<path d="M677.49 414.71C681.81 411.02 684.78 407.24 684.78 402.38C684.78 395.72 679.38 390.77 671.82 390.77H644.73V397.34H671.73C675.42 397.34 678.03 399.59 678.03 402.83C678.03 405.53 676.32 407.69 673.89 409.76L644.01 434.96V440H686.58V433.52H654.99L677.49 414.71Z" fill="#A5A5A5"/>
<path d="M794.7 379.6V384.64H803.94V438.96H794.7V444H809.12V379.6H794.7Z" fill="#A5A5A5"/>
<path d="M682.29 71.15C685.8 67.46 687.87 62.69 687.87 58.46C687.87 49.73 681.03 43.7 671.49 43.7H648.63V50.45H671.31C677.07 50.45 680.94 53.78 680.94 58.73C680.94 61.07 679.95 64.13 677.52 66.74L647.73 98.78V104H688.68V97.25H657.9L682.29 71.15Z" fill="#A5A5A5"/>
<path d="M504.88 71.42C513.07 71.42 519.37 65.12 519.37 56.84C519.37 48.92 513.07 42.35 504.88 42.35C496.6 42.35 490.3 48.92 490.3 56.84C490.3 65.12 496.6 71.42 504.88 71.42ZM497.95 104H504.43L546.73 43.7H540.25L497.95 104ZM504.88 65.75C500.02 65.75 496.15 61.79 496.15 56.84C496.15 52.16 500.02 48.11 504.88 48.11C509.74 48.11 513.7 52.16 513.7 56.84C513.7 61.79 509.74 65.75 504.88 65.75ZM539.62 105.35C547.81 105.35 554.11 98.96 554.11 90.77C554.11 82.76 547.81 76.28 539.62 76.28C531.34 76.28 525.04 82.76 525.04 90.77C525.04 98.96 531.34 105.35 539.62 105.35ZM539.62 99.59C534.76 99.59 530.89 95.72 530.89 90.77C530.89 86 534.76 81.95 539.62 81.95C544.48 81.95 548.53 86 548.53 90.77C548.53 95.72 544.48 99.59 539.62 99.59Z" fill="#A5A5A5"/>
<path d="M797.08 85.1H803.56L804.01 43.7H796.72L797.08 85.1ZM796.09 95V104H804.64V95H796.09Z" fill="#A5A5A5"/>
<path d="M355.69 228.86V235.34H373.87V278H380.62V228.86H355.69Z" fill="#A5A5A5"/>
<path d="M512.81 239.95C509.66 238.96 508.13 236.53 508.13 234.19C508.13 230.95 510.47 228.34 514.7 228.34H538.1V221.77H523.97V210.7H517.4V221.77H514.7C506.24 221.77 501.02 227.44 501.02 234.1C501.02 238.87 504.08 244.09 510.83 246.34L528.92 252.64C532.25 253.72 533.6 255.88 533.6 258.4C533.6 261.73 530.99 264.52 526.67 264.52H502.91V271H517.4V282.07H523.97V271H526.67C535.31 271 540.44 265.33 540.44 258.67C540.44 253.45 537.29 248.59 530.45 246.16L512.81 239.95Z" fill="#A5A5A5"/>
<path d="M535.75 423.99L547.54 415.35V407.34L531.16 419.31L518.92 406.62L528.73 399.42C537.64 392.94 533.77 380.7 522.79 380.7H509.38C499.12 380.7 494.35 391.23 501.37 398.43L508.84 406.08L497.05 414.63C489.76 420.03 488.5 429.39 493 435.96C497.77 442.62 507.58 444.6 515.5 438.75L530.17 428.04L542.86 441H552.22L535.75 423.99ZM506.32 393.57C503.89 391.14 505.33 387.54 509.02 387.54H522.61C526.66 387.54 528.28 391.95 524.86 394.47L514.51 402.03L506.32 393.57ZM511.63 433.53C506.86 437.13 501.37 435.69 498.76 431.82C496.06 428.04 496.87 422.64 501.28 419.49L513.34 410.67L525.67 423.36L511.63 433.53Z" fill="#A5A5A5"/>
<path d="M258.16 233.63H245.92L250.69 217.7H244.39L239.62 233.63H224.59L229.36 217.7H222.97L218.2 233.63H206.32L204.61 239.48H216.49L211.45 256.22H199.66L197.86 262.07H209.74L204.97 278H211.36L216.13 262.07H231.16L226.39 278H232.69L237.46 262.07H249.7L251.41 256.22H239.17L244.21 239.48H256.36L258.16 233.63ZM217.84 256.22L222.88 239.48H237.91L232.87 256.22H217.84Z" fill="#A5A5A5"/>
<path d="M56.33 381.7V384.67H77.48C86.12 384.67 90.44 390.88 90.44 396.91C90.44 403.12 86.03 409.24 77.48 409.24H67.76V425.8H70.82V412.21H77.39C88.28 412.21 93.68 404.47 93.68 396.91C93.68 389.26 88.28 381.7 77.48 381.7H56.33ZM71.9 442V436.6H66.95V442H71.9Z" fill="#A5A5A5"/>
<path d="M356.33 43.7V50.18H377.48C384.14 50.18 387.38 54.95 387.38 59.63C387.38 64.4 384.05 69.17 377.48 69.17H365.6V85.1H372.35V75.38H377.39C388.64 75.38 394.22 67.46 394.22 59.54C394.22 51.62 388.64 43.7 377.48 43.7H356.33ZM373.25 104V95H364.7V104H373.25Z" fill="#A5A5A5"/>
<path d="M73.1 210.54C73.1 207.39 74.9 205.68 78.05 205.68H81.02V199.2H77.06C70.31 199.2 66.44 202.8 66.44 209.55V232.41C66.44 235.56 64.64 237.27 61.49 237.27H59.87V243.84H61.49C64.64 243.84 66.44 245.55 66.44 248.7V271.65C66.44 278.4 70.31 282 77.06 282H81.02V275.52H78.05C74.9 275.52 73.1 273.81 73.1 270.66V249.69C73.1 245.28 71.39 242.04 68.33 240.78V240.42C71.39 239.16 73.1 235.83 73.1 231.42V210.54Z" fill="#A5A5A5"/>
<path d="M650 210L677.16 280H681.92L654.76 210H650Z" fill="#A5A5A5"/>
<path d="M227.08 442.17C244.27 442.17 258.31 428.13 258.31 410.85C258.31 393.57 244.27 379.53 227.08 379.53C209.8 379.53 195.67 393.57 195.67 410.85C195.67 428.13 209.8 442.17 227.08 442.17ZM227.08 437.76C212.23 437.76 200.08 425.61 200.08 410.85C200.08 396.09 212.23 383.94 227.08 383.94C241.84 383.94 253.9 396.09 253.9 410.85C253.9 425.61 241.84 437.76 227.08 437.76ZM217.54 393.12H232.39V428.58H226.9V398.52H217.54V393.12Z" fill="#A5A5A5"/>
<path d="M375.55 385.7H368.62L355.12 408.38H362.23L372.13 391.1L381.94 408.38H389.05L375.55 385.7Z" fill="#A5A5A5"/>
<path d="M802.08 279.17C819.27 279.17 833.31 265.13 833.31 247.85C833.31 230.57 819.27 216.53 802.08 216.53C784.8 216.53 770.67 230.57 770.67 247.85C770.67 265.13 784.8 279.17 802.08 279.17ZM792.72 230.12H807.48V265.58H802.08V235.52H792.72V230.12Z" fill="#A5A5A5"/>
</svg>
