<svg width="42" height="53" viewBox="0 0 42 53" fill="none" xmlns="http://www.w3.org/2000/svg">
<path d="M11.28 0.519997V4.44H32.48V0.519997H11.28ZM37.2 19.96H37.04C33.84 14.52 27.92 10.76 20.48 10.76C8.64 10.68 0.24 19.72 0.24 31.24C0.24 42.92 8.64 52.04 20.48 51.96C28 51.96 33.84 48.04 37.04 42.44H37.2V51H41.6V11.64H37.2V19.96ZM21.04 47.72C11.2 47.72 4.64 40.28 4.64 31.24C4.64 22.28 11.2 14.92 21.04 14.92C30.72 14.92 37.2 22.28 37.2 31.24C37.2 40.28 30.72 47.72 21.04 47.72Z" fill="#B3B3B3"/>
</svg>
